%FSLAX46Y46*%
G04 Gerber Fmt 4.6, Leading zero omitted, Abs format (unit mm)*
G04 Created by KiCad (PCBNEW (2014-10-27 BZR 5228)-product) date 5/8/2015 6:15:55 PM*
%MOMM*%
G01*
G04 APERTURE LIST*
%ADD10C,0.100000*%
%ADD11R,6.350000X1.016000*%
%ADD12R,7.366000X1.016000*%
%ADD13R,0.800100X0.800100*%
%ADD14R,0.406400X1.397000*%
%ADD15R,0.600000X1.500000*%
%ADD16R,2.499360X1.950720*%
%ADD17R,0.500000X0.900000*%
%ADD18C,0.635000*%
%ADD19C,0.228600*%
%ADD20C,0.304800*%
%ADD21C,0.254000*%
G04 APERTURE END LIST*
D10*
D11*
X4191000Y-20320000D03*
D12*
X3683000Y-2540000D03*
D11*
X4191000Y-3810000D03*
X4191000Y-5080000D03*
X4191000Y-6350000D03*
X4191000Y-7620000D03*
X4191000Y-8890000D03*
X4191000Y-10160000D03*
X4191000Y-11430000D03*
X4191000Y-12700000D03*
X4191000Y-13970000D03*
X4191000Y-15240000D03*
X4191000Y-16510000D03*
X4191000Y-17780000D03*
X4191000Y-19050000D03*
X4191000Y-21590000D03*
X4191000Y-22860000D03*
X4191000Y-24130000D03*
X4191000Y-25400000D03*
D12*
X3683000Y-26670000D03*
D13*
X45323760Y-26228000D03*
X45323760Y-28128000D03*
X43324780Y-27178000D03*
D14*
X31115000Y-26416000D03*
X29845000Y-26416000D03*
X28575000Y-26416000D03*
X27305000Y-26416000D03*
X26035000Y-26416000D03*
X24765000Y-26416000D03*
X23495000Y-26416000D03*
X22225000Y-26416000D03*
X20955000Y-26416000D03*
X19685000Y-26416000D03*
X18415000Y-26416000D03*
X17145000Y-26416000D03*
X15875000Y-26416000D03*
X14605000Y-26416000D03*
X13335000Y-26416000D03*
X12065000Y-26416000D03*
X31115000Y-13716000D03*
X29845000Y-13716000D03*
X28575000Y-13716000D03*
X27305000Y-13716000D03*
X26035000Y-13716000D03*
X24765000Y-13716000D03*
X23495000Y-13716000D03*
X22225000Y-13716000D03*
X20955000Y-13716000D03*
X19685000Y-13716000D03*
X18415000Y-13716000D03*
X17145000Y-13716000D03*
X15875000Y-13716000D03*
X14605000Y-13716000D03*
X13335000Y-13716000D03*
X12065000Y-13716000D03*
D15*
X20447000Y-8034000D03*
X19177000Y-8034000D03*
X17907000Y-8034000D03*
X16637000Y-8034000D03*
X15367000Y-8034000D03*
X14097000Y-8034000D03*
X12827000Y-8034000D03*
X11557000Y-8034000D03*
X11557000Y-2634000D03*
X12827000Y-2634000D03*
X14097000Y-2634000D03*
X15367000Y-2634000D03*
X16637000Y-2634000D03*
X17907000Y-2634000D03*
X19177000Y-2634000D03*
X20447000Y-2634000D03*
D16*
X33147000Y-6985000D03*
X33147000Y-3937000D03*
X37973000Y-6985000D03*
X37973000Y-3937000D03*
X42545000Y-6985000D03*
X42545000Y-3937000D03*
D17*
X26936000Y-10414000D03*
X28436000Y-10414000D03*
X25007000Y-10414000D03*
X23507000Y-10414000D03*
D18*
X20955000Y-14732000D03*
X12827000Y-20828000D03*
X17145000Y-12700000D03*
X15875000Y-12700000D03*
X14605000Y-12700000D03*
X13335000Y-12700000D03*
X12065000Y-12700000D03*
X10160000Y-23622000D03*
X10160000Y-22606000D03*
X10160000Y-21590000D03*
X32385000Y-25146000D03*
X42672000Y-1524000D03*
X11557000Y-9144000D03*
X12065000Y-26987500D03*
X23876000Y-21209000D03*
X23876000Y-6985000D03*
X27559000Y-6985000D03*
X15367000Y-5651500D03*
X8382000Y-3810000D03*
X21653500Y-1397000D03*
X8318500Y-5016500D03*
X15367000Y-9271000D03*
X18415000Y-12700000D03*
X26035000Y-16637000D03*
X26035000Y-8890000D03*
X8763000Y-26289000D03*
X44513500Y-26225500D03*
X11557000Y-1905000D03*
X18542000Y-5969000D03*
X17907000Y-8001000D03*
X14097000Y-8034000D03*
X20447000Y-2159000D03*
X44513500Y-28130500D03*
D19*
X10409520Y-9601192D02*
X9624356Y-9601192D01*
X26035000Y-12561418D02*
X25462380Y-11988798D01*
X25462380Y-11988798D02*
X22679962Y-11988798D01*
X22679962Y-11988798D02*
X22089969Y-11398805D01*
X22089969Y-11398805D02*
X20196551Y-11398805D01*
X20196551Y-11398805D02*
X19364140Y-10566394D01*
X19364140Y-10566394D02*
X11374722Y-10566394D01*
X11374722Y-10566394D02*
X10409520Y-9601192D01*
X26035000Y-13716000D02*
X26035000Y-12561418D01*
X7493000Y-6350000D02*
X4191000Y-6350000D01*
X7874000Y-6731000D02*
X7493000Y-6350000D01*
X7874000Y-7227418D02*
X7874000Y-6731000D01*
X8585202Y-7938620D02*
X7874000Y-7227418D01*
X8585202Y-8562038D02*
X8585202Y-7938620D01*
X9624356Y-9601192D02*
X8585202Y-8562038D01*
X10718798Y-13143380D02*
X10718798Y-14794380D01*
X4191000Y-12700000D02*
X10275418Y-12700000D01*
X10718798Y-13143380D02*
X10275418Y-12700000D01*
X24765000Y-14720418D02*
X24765000Y-13716000D01*
X24042216Y-15443202D02*
X24765000Y-14720418D01*
X22287380Y-15443202D02*
X24042216Y-15443202D01*
X21779380Y-15951202D02*
X22287380Y-15443202D01*
X20384620Y-15951202D02*
X21779380Y-15951202D01*
X19876620Y-15443202D02*
X20384620Y-15951202D01*
X11367620Y-15443202D02*
X19876620Y-15443202D01*
X10718798Y-14794380D02*
X11367620Y-15443202D01*
X11176000Y-12954000D02*
X11176000Y-14605000D01*
X11176000Y-12954000D02*
X9652000Y-11430000D01*
X4191000Y-11430000D02*
X9652000Y-11430000D01*
X23495000Y-14732000D02*
X23495000Y-13716000D01*
X23241000Y-14986000D02*
X23495000Y-14732000D01*
X22098000Y-14986000D02*
X23241000Y-14986000D01*
X21590000Y-15494000D02*
X22098000Y-14986000D01*
X20574000Y-15494000D02*
X21590000Y-15494000D01*
X20066000Y-14986000D02*
X20574000Y-15494000D01*
X11557000Y-14986000D02*
X20066000Y-14986000D01*
X11176000Y-14605000D02*
X11557000Y-14986000D01*
X22225000Y-13716000D02*
X22225000Y-12827000D01*
X7620000Y-8890000D02*
X4191000Y-8890000D01*
X9245596Y-10515596D02*
X7620000Y-8890000D01*
X10030760Y-10515596D02*
X9245596Y-10515596D01*
X10995962Y-11480798D02*
X10030760Y-10515596D01*
X18985380Y-11480798D02*
X10995962Y-11480798D01*
X19817791Y-12313209D02*
X18985380Y-11480798D01*
X21711209Y-12313209D02*
X19817791Y-12313209D01*
X22225000Y-12827000D02*
X21711209Y-12313209D01*
X20955000Y-14732000D02*
X20955000Y-13716000D01*
X4191000Y-24130000D02*
X7747000Y-24130000D01*
X8712202Y-23164798D02*
X7747000Y-24130000D01*
X8712202Y-21917962D02*
X8712202Y-23164798D01*
X10310144Y-20320020D02*
X8712202Y-21917962D01*
X12319020Y-20320020D02*
X10310144Y-20320020D01*
X12827000Y-20828000D02*
X12319020Y-20320020D01*
X19685000Y-13716000D02*
X19685000Y-12827000D01*
X7620000Y-10160000D02*
X4191000Y-10160000D01*
X8432798Y-10972798D02*
X7620000Y-10160000D01*
X9841380Y-10972798D02*
X8432798Y-10972798D01*
X10806582Y-11938000D02*
X9841380Y-10972798D01*
X18796000Y-11938000D02*
X10806582Y-11938000D01*
X19685000Y-12827000D02*
X18796000Y-11938000D01*
X17145000Y-13716000D02*
X17145000Y-12700000D01*
X15875000Y-13716000D02*
X15875000Y-12700000D01*
X14605000Y-12700000D02*
X14605000Y-13716000D01*
X13335000Y-13716000D02*
X13335000Y-12700000D01*
X12065000Y-13716000D02*
X12065000Y-12700000D01*
X13787742Y-18948414D02*
X8368168Y-18948414D01*
X19685000Y-25527000D02*
X18980709Y-24822709D01*
X18980709Y-24822709D02*
X18357291Y-24822709D01*
X18357291Y-24822709D02*
X18059404Y-24524822D01*
X18059404Y-24524822D02*
X18059404Y-23220076D01*
X18059404Y-23220076D02*
X13787742Y-18948414D01*
X19685000Y-26416000D02*
X19685000Y-25527000D01*
X7747000Y-20320000D02*
X4191000Y-20320000D01*
X8001000Y-20066000D02*
X7747000Y-20320000D01*
X8001000Y-19315582D02*
X8001000Y-20066000D01*
X8368168Y-18948414D02*
X8001000Y-19315582D01*
X13598362Y-19405616D02*
X9931384Y-19405616D01*
X18415000Y-25527000D02*
X17602202Y-24714202D01*
X17602202Y-24714202D02*
X17602202Y-23409456D01*
X17602202Y-23409456D02*
X13598362Y-19405616D01*
X18415000Y-26416000D02*
X18415000Y-25527000D01*
X7747000Y-21590000D02*
X4191000Y-21590000D01*
X9931384Y-19405616D02*
X7747000Y-21590000D01*
X13408982Y-19862818D02*
X10120764Y-19862818D01*
X17145000Y-23598836D02*
X13408982Y-19862818D01*
X17145000Y-26416000D02*
X17145000Y-23598836D01*
X7747000Y-22860000D02*
X4191000Y-22860000D01*
X8255000Y-22352000D02*
X7747000Y-22860000D01*
X8255000Y-21728582D02*
X8255000Y-22352000D01*
X10120764Y-19862818D02*
X8255000Y-21728582D01*
X13335000Y-25527000D02*
X13785291Y-25076709D01*
X13785291Y-25076709D02*
X14408709Y-25076709D01*
X14408709Y-25076709D02*
X15163798Y-24321620D01*
X15163798Y-24321620D02*
X15163798Y-23557380D01*
X15163798Y-23557380D02*
X14237822Y-22631404D01*
X14237822Y-22631404D02*
X11150596Y-22631404D01*
X11150596Y-22631404D02*
X10160000Y-23622000D01*
X13335000Y-26416000D02*
X13335000Y-25527000D01*
X14605000Y-25527000D02*
X15621000Y-24511000D01*
X15621000Y-24511000D02*
X15621000Y-23368000D01*
X15621000Y-23368000D02*
X14427202Y-22174202D01*
X14427202Y-22174202D02*
X10591798Y-22174202D01*
X10591798Y-22174202D02*
X10160000Y-22606000D01*
X14605000Y-26416000D02*
X14605000Y-25527000D01*
X15875000Y-25400000D02*
X16687798Y-24587202D01*
X16687798Y-24587202D02*
X16687798Y-23788216D01*
X16687798Y-23788216D02*
X14616582Y-21717000D01*
X14616582Y-21717000D02*
X12573000Y-21717000D01*
X12573000Y-21717000D02*
X11633222Y-20777222D01*
X11633222Y-20777222D02*
X10972778Y-20777222D01*
X10972778Y-20777222D02*
X10160000Y-21590000D01*
X15875000Y-26416000D02*
X15875000Y-25400000D01*
X32385000Y-27305000D02*
X32385000Y-25146000D01*
X30861000Y-28829000D02*
X32385000Y-27305000D01*
D20*
X32385000Y-27305000D02*
X32385000Y-25146000D01*
X30861000Y-28829000D02*
X32385000Y-27305000D01*
X29845000Y-635000D02*
X33147000Y-3937000D01*
X11430000Y-635000D02*
X29845000Y-635000D01*
X42672000Y-3810000D02*
X42545000Y-3937000D01*
X42672000Y-1524000D02*
X42672000Y-3810000D01*
X42545000Y-3937000D02*
X37973000Y-3937000D01*
X37973000Y-3937000D02*
X33147000Y-3937000D01*
D19*
X11557000Y-9144000D02*
X11557000Y-8034000D01*
D20*
X9525000Y-2540000D02*
X11430000Y-635000D01*
X3683000Y-2540000D02*
X9525000Y-2540000D01*
X3683000Y-26670000D02*
X7874000Y-26670000D01*
X12065000Y-26987500D02*
X12065000Y-26416000D01*
X10033000Y-28829000D02*
X7874000Y-26670000D01*
X30861000Y-28829000D02*
X10033000Y-28829000D01*
D19*
X27305000Y-20447000D02*
X24384000Y-17526000D01*
X8128000Y-8128000D02*
X7620000Y-7620000D01*
X4191000Y-7620000D02*
X7620000Y-7620000D01*
X25273000Y-12446000D02*
X22490582Y-12446000D01*
X27305000Y-20447000D02*
X27305000Y-26416000D01*
X25273000Y-12446000D02*
X25400000Y-12573000D01*
X8128000Y-8751418D02*
X8128000Y-8128000D01*
X9434976Y-10058394D02*
X8128000Y-8751418D01*
X10220140Y-10058394D02*
X9434976Y-10058394D01*
X11185342Y-11023596D02*
X10220140Y-10058394D01*
X19174760Y-11023596D02*
X11185342Y-11023596D01*
X20007171Y-11856007D02*
X19174760Y-11023596D01*
X21900589Y-11856007D02*
X20007171Y-11856007D01*
X22490582Y-12446000D02*
X21900589Y-11856007D01*
X25400000Y-14732000D02*
X25400000Y-12573000D01*
X24384000Y-15748000D02*
X25400000Y-14732000D01*
X24384000Y-17526000D02*
X24384000Y-15748000D01*
X14734642Y-16662404D02*
X9065568Y-16662404D01*
X26035000Y-25527000D02*
X25584709Y-25076709D01*
X25584709Y-25076709D02*
X24961291Y-25076709D01*
X24961291Y-25076709D02*
X23983387Y-24098805D01*
X23983387Y-24098805D02*
X22736551Y-24098805D01*
X22736551Y-24098805D02*
X21758647Y-23120901D01*
X21758647Y-23120901D02*
X20511811Y-23120901D01*
X20511811Y-23120901D02*
X20345414Y-22954504D01*
X20345414Y-22954504D02*
X20345414Y-22273176D01*
X20345414Y-22273176D02*
X14734642Y-16662404D01*
X26035000Y-26416000D02*
X26035000Y-25527000D01*
X7620000Y-13970000D02*
X4191000Y-13970000D01*
X8331202Y-14681202D02*
X7620000Y-13970000D01*
X8331202Y-15928038D02*
X8331202Y-14681202D01*
X9065568Y-16662404D02*
X8331202Y-15928038D01*
X14545262Y-17119606D02*
X8876188Y-17119606D01*
X24765000Y-25527000D02*
X23794007Y-24556007D01*
X23794007Y-24556007D02*
X22547171Y-24556007D01*
X22547171Y-24556007D02*
X21569267Y-23578103D01*
X21569267Y-23578103D02*
X20322431Y-23578103D01*
X20322431Y-23578103D02*
X19888212Y-23143884D01*
X19888212Y-23143884D02*
X19888212Y-22462556D01*
X19888212Y-22462556D02*
X14545262Y-17119606D01*
X24765000Y-26416000D02*
X24765000Y-25527000D01*
X7620000Y-15240000D02*
X4191000Y-15240000D01*
X7874000Y-15494000D02*
X7620000Y-15240000D01*
X7874000Y-16117418D02*
X7874000Y-15494000D01*
X8876188Y-17119606D02*
X7874000Y-16117418D01*
X14355882Y-17576808D02*
X8686808Y-17576808D01*
X23495000Y-25527000D02*
X22981209Y-25013209D01*
X22981209Y-25013209D02*
X22357791Y-25013209D01*
X22357791Y-25013209D02*
X21379887Y-24035305D01*
X21379887Y-24035305D02*
X20133051Y-24035305D01*
X20133051Y-24035305D02*
X19431010Y-23333264D01*
X19431010Y-23333264D02*
X19431010Y-22651936D01*
X19431010Y-22651936D02*
X14355882Y-17576808D01*
X23495000Y-26416000D02*
X23495000Y-25527000D01*
X7620000Y-16510000D02*
X4191000Y-16510000D01*
X8686808Y-17576808D02*
X7620000Y-16510000D01*
X14166502Y-18034010D02*
X8255010Y-18034010D01*
X22225000Y-25527000D02*
X21190507Y-24492507D01*
X21190507Y-24492507D02*
X19943671Y-24492507D01*
X19943671Y-24492507D02*
X18973808Y-23522644D01*
X18973808Y-23522644D02*
X18973808Y-22841316D01*
X18973808Y-22841316D02*
X14166502Y-18034010D01*
X22225000Y-26416000D02*
X22225000Y-25527000D01*
X8001000Y-17780000D02*
X4191000Y-17780000D01*
X8255010Y-18034010D02*
X8001000Y-17780000D01*
X13977122Y-18491212D02*
X8178788Y-18491212D01*
X20955000Y-25527000D02*
X20377709Y-24949709D01*
X20377709Y-24949709D02*
X19754291Y-24949709D01*
X19754291Y-24949709D02*
X18516606Y-23712024D01*
X18516606Y-23712024D02*
X18516606Y-23030696D01*
X18516606Y-23030696D02*
X13977122Y-18491212D01*
X20955000Y-26416000D02*
X20955000Y-25527000D01*
X7620000Y-19050000D02*
X4191000Y-19050000D01*
X8178788Y-18491212D02*
X7620000Y-19050000D01*
X15367000Y-2634000D02*
X15367000Y-5651500D01*
X11811000Y-4318000D02*
X8890000Y-4318000D01*
X8890000Y-4318000D02*
X8382000Y-3810000D01*
X12827000Y-3302000D02*
X11811000Y-4318000D01*
X12827000Y-2634000D02*
X12827000Y-3302000D01*
X13220698Y-1130302D02*
X12827000Y-1524000D01*
X12827000Y-1524000D02*
X12827000Y-2634000D01*
X29845000Y-13716000D02*
X29845000Y-12700000D01*
X31242000Y-2732462D02*
X29639840Y-1130302D01*
X31242000Y-7935538D02*
X31242000Y-2732462D01*
X30619698Y-8557840D02*
X31242000Y-7935538D01*
X30619698Y-11925302D02*
X30619698Y-8557840D01*
X29845000Y-12700000D02*
X30619698Y-11925302D01*
X21653500Y-1130302D02*
X13220698Y-1130302D01*
X21971000Y-1130302D02*
X21653500Y-1130302D01*
X29639840Y-1130302D02*
X21971000Y-1130302D01*
X21653500Y-1397000D02*
X21653500Y-1130302D01*
X8382000Y-5080000D02*
X8318500Y-5016500D01*
X8382000Y-5080000D02*
X8318500Y-5016500D01*
X8382000Y-7088836D02*
X9042404Y-7749240D01*
X9042404Y-7749240D02*
X9042404Y-8372658D01*
X9042404Y-8372658D02*
X9813736Y-9143990D01*
X9813736Y-9143990D02*
X10598900Y-9143990D01*
X10598900Y-9143990D02*
X11564102Y-10109192D01*
X11564102Y-10109192D02*
X19553520Y-10109192D01*
X22869342Y-11531596D02*
X22279349Y-10941603D01*
X28397202Y-20246038D02*
X25298404Y-17147240D01*
X28397202Y-20246038D02*
X28397202Y-25222202D01*
X28397202Y-25222202D02*
X28575000Y-25400000D01*
X28575000Y-25400000D02*
X28575000Y-26416000D01*
X25651760Y-11531596D02*
X22869342Y-11531596D01*
X26110082Y-11989918D02*
X25651760Y-11531596D01*
X27483918Y-11989918D02*
X26110082Y-11989918D01*
X27940000Y-14732000D02*
X27940000Y-12446000D01*
X27228798Y-15443202D02*
X27940000Y-14732000D01*
X25981962Y-15443202D02*
X27228798Y-15443202D01*
X25298404Y-16126760D02*
X25981962Y-15443202D01*
X25298404Y-17147240D02*
X25298404Y-16126760D01*
X27940000Y-12446000D02*
X27483918Y-11989918D01*
X20385931Y-10941603D02*
X19553520Y-10109192D01*
X22279349Y-10941603D02*
X20385931Y-10941603D01*
X8382000Y-5080000D02*
X8382000Y-7088836D01*
X33147000Y-6985000D02*
X32893000Y-6985000D01*
X32893000Y-6985000D02*
X33147000Y-6985000D01*
D20*
X33147000Y-6985000D02*
X37973000Y-6985000D01*
X37973000Y-6985000D02*
X42545000Y-6985000D01*
X33147000Y-6985000D02*
X32893000Y-6985000D01*
X32893000Y-6985000D02*
X33147000Y-6985000D01*
X31115000Y-8763000D02*
X32893000Y-6985000D01*
X31115000Y-13716000D02*
X31115000Y-8763000D01*
X31115000Y-13716000D02*
X31115000Y-14732000D01*
X31115000Y-14968220D02*
X31115000Y-13716000D01*
X43324780Y-27178000D02*
X31115000Y-14968220D01*
D19*
X27559000Y-27813000D02*
X11684000Y-27813000D01*
X11684000Y-27813000D02*
X9271000Y-25400000D01*
X9271000Y-25400000D02*
X4191000Y-25400000D01*
X24841202Y-17336620D02*
X24841202Y-15937380D01*
X24841202Y-15937380D02*
X25792582Y-14986000D01*
X25792582Y-14986000D02*
X26924000Y-14986000D01*
X26924000Y-14986000D02*
X27305000Y-14605000D01*
X27305000Y-13716000D02*
X27305000Y-14605000D01*
X27940000Y-20435418D02*
X24841202Y-17336620D01*
X27940000Y-20435418D02*
X27940000Y-27432000D01*
X27940000Y-27432000D02*
X27559000Y-27813000D01*
X23507000Y-10414000D02*
X23436599Y-10484401D01*
X23436599Y-10484401D02*
X20575311Y-10484401D01*
X20575311Y-10484401D02*
X19742900Y-9651990D01*
X19742900Y-9651990D02*
X15747990Y-9651990D01*
X15747990Y-9651990D02*
X15367000Y-9271000D01*
X15367000Y-9271000D02*
X15367000Y-8034000D01*
X18415000Y-13716000D02*
X18415000Y-12700000D01*
X28854404Y-20056658D02*
X26035000Y-17237254D01*
X26035000Y-17237254D02*
X26035000Y-16637000D01*
X29845000Y-26416000D02*
X29845000Y-25527000D01*
X28854404Y-24536404D02*
X28854404Y-20056658D01*
X29845000Y-25527000D02*
X28854404Y-24536404D01*
X19177000Y-8890000D02*
X19177000Y-8034000D01*
X19481788Y-9194788D02*
X19177000Y-8890000D01*
X19932280Y-9194788D02*
X19481788Y-9194788D01*
X20764691Y-10027199D02*
X19932280Y-9194788D01*
X21849801Y-10027199D02*
X20764691Y-10027199D01*
X22987000Y-8890000D02*
X21849801Y-10027199D01*
X26035000Y-8890000D02*
X22987000Y-8890000D01*
X8768791Y-26294791D02*
X8763000Y-26289000D01*
X29845000Y-26416000D02*
X29845000Y-27559000D01*
X11494620Y-28270202D02*
X9519209Y-26294791D01*
X29133798Y-28270202D02*
X11494620Y-28270202D01*
X29845000Y-27559000D02*
X29133798Y-28270202D01*
X9519209Y-26294791D02*
X8768791Y-26294791D01*
D20*
X45321260Y-26225500D02*
X45323760Y-26228000D01*
X44513500Y-26225500D02*
X45321260Y-26225500D01*
D19*
X11557000Y-1905000D02*
X11557000Y-2634000D01*
X19177000Y-2634000D02*
X19177000Y-3810000D01*
X19304000Y-5207000D02*
X18542000Y-5969000D01*
X19304000Y-3937000D02*
X19304000Y-5207000D01*
X19177000Y-3810000D02*
X19304000Y-3937000D01*
X20447000Y-8034000D02*
X20447000Y-7112000D01*
X17094202Y-4114798D02*
X17907000Y-3302000D01*
X17094202Y-6350000D02*
X17094202Y-4114798D01*
X17475202Y-6731000D02*
X17094202Y-6350000D01*
X20066000Y-6731000D02*
X17475202Y-6731000D01*
X20447000Y-7112000D02*
X20066000Y-6731000D01*
X17907000Y-3302000D02*
X17907000Y-2634000D01*
X14097000Y-3683000D02*
X14605000Y-4191000D01*
X14605000Y-4191000D02*
X14605000Y-5969000D01*
X14605000Y-5969000D02*
X13843000Y-6731000D01*
X13843000Y-6731000D02*
X13081000Y-6731000D01*
X13081000Y-6731000D02*
X12827000Y-6985000D01*
X12827000Y-6985000D02*
X12827000Y-8034000D01*
X14097000Y-2634000D02*
X14097000Y-3683000D01*
X17907000Y-8034000D02*
X17907000Y-8001000D01*
X16637000Y-8034000D02*
X16637000Y-2634000D01*
D20*
X20447000Y-2159000D02*
X20447000Y-2634000D01*
X26936000Y-10741538D02*
X26936000Y-10414000D01*
X28575000Y-12380538D02*
X26936000Y-10741538D01*
X28575000Y-13716000D02*
X28575000Y-12380538D01*
X26936000Y-10414000D02*
X25007000Y-10414000D01*
X26936000Y-7886000D02*
X21684000Y-2634000D01*
X21684000Y-2634000D02*
X20447000Y-2634000D01*
X26936000Y-10414000D02*
X26936000Y-7886000D01*
X44513500Y-28130500D02*
X44516000Y-28128000D01*
X44516000Y-28128000D02*
X45323760Y-28128000D01*
D21*
G36*
X14109700Y-5763840D02*
X13637840Y-6235700D01*
X13081000Y-6235700D01*
X12891456Y-6273402D01*
X12730770Y-6380770D01*
X12476770Y-6634770D01*
X12369402Y-6795456D01*
X12352326Y-6881301D01*
X12216699Y-6745673D01*
X11983310Y-6649000D01*
X11842750Y-6649000D01*
X11684000Y-6807750D01*
X11684000Y-7907000D01*
X11704000Y-7907000D01*
X11704000Y-8161000D01*
X11684000Y-8161000D01*
X11684000Y-8181000D01*
X11430000Y-8181000D01*
X11430000Y-8161000D01*
X11430000Y-7907000D01*
X11430000Y-6807750D01*
X11271250Y-6649000D01*
X11130690Y-6649000D01*
X10897301Y-6745673D01*
X10718673Y-6924302D01*
X10622000Y-7157691D01*
X10622000Y-7748250D01*
X10780750Y-7907000D01*
X11430000Y-7907000D01*
X11430000Y-8161000D01*
X10780750Y-8161000D01*
X10622000Y-8319750D01*
X10622000Y-8653284D01*
X10598900Y-8648690D01*
X10018896Y-8648690D01*
X9537704Y-8167498D01*
X9537704Y-7749240D01*
X9500002Y-7559697D01*
X9500002Y-7559696D01*
X9392634Y-7399010D01*
X8877300Y-6883676D01*
X8877300Y-5445641D01*
X8910314Y-5412685D01*
X9016878Y-5156050D01*
X9017121Y-4878169D01*
X8990317Y-4813300D01*
X11811000Y-4813300D01*
X12000543Y-4775598D01*
X12000544Y-4775598D01*
X12161230Y-4668230D01*
X12416917Y-4412542D01*
X12416856Y-4482571D01*
X12543102Y-4788109D01*
X12776662Y-5022077D01*
X13081979Y-5148855D01*
X13412571Y-5149144D01*
X13718109Y-5022898D01*
X13952077Y-4789338D01*
X14078855Y-4484021D01*
X14078958Y-4365418D01*
X14109700Y-4396160D01*
X14109700Y-5763840D01*
X14109700Y-5763840D01*
G37*
X14109700Y-5763840D02*
X13637840Y-6235700D01*
X13081000Y-6235700D01*
X12891456Y-6273402D01*
X12730770Y-6380770D01*
X12476770Y-6634770D01*
X12369402Y-6795456D01*
X12352326Y-6881301D01*
X12216699Y-6745673D01*
X11983310Y-6649000D01*
X11842750Y-6649000D01*
X11684000Y-6807750D01*
X11684000Y-7907000D01*
X11704000Y-7907000D01*
X11704000Y-8161000D01*
X11684000Y-8161000D01*
X11684000Y-8181000D01*
X11430000Y-8181000D01*
X11430000Y-8161000D01*
X11430000Y-7907000D01*
X11430000Y-6807750D01*
X11271250Y-6649000D01*
X11130690Y-6649000D01*
X10897301Y-6745673D01*
X10718673Y-6924302D01*
X10622000Y-7157691D01*
X10622000Y-7748250D01*
X10780750Y-7907000D01*
X11430000Y-7907000D01*
X11430000Y-8161000D01*
X10780750Y-8161000D01*
X10622000Y-8319750D01*
X10622000Y-8653284D01*
X10598900Y-8648690D01*
X10018896Y-8648690D01*
X9537704Y-8167498D01*
X9537704Y-7749240D01*
X9500002Y-7559697D01*
X9500002Y-7559696D01*
X9392634Y-7399010D01*
X8877300Y-6883676D01*
X8877300Y-5445641D01*
X8910314Y-5412685D01*
X9016878Y-5156050D01*
X9017121Y-4878169D01*
X8990317Y-4813300D01*
X11811000Y-4813300D01*
X12000543Y-4775598D01*
X12000544Y-4775598D01*
X12161230Y-4668230D01*
X12416917Y-4412542D01*
X12416856Y-4482571D01*
X12543102Y-4788109D01*
X12776662Y-5022077D01*
X13081979Y-5148855D01*
X13412571Y-5149144D01*
X13718109Y-5022898D01*
X13952077Y-4789338D01*
X14078855Y-4484021D01*
X14078958Y-4365418D01*
X14109700Y-4396160D01*
X14109700Y-5763840D01*
G36*
X14668498Y-24116460D02*
X14203549Y-24581409D01*
X13785291Y-24581409D01*
X13595748Y-24619111D01*
X13435061Y-24726479D01*
X12984770Y-25176770D01*
X12877402Y-25337456D01*
X12853658Y-25456826D01*
X12849335Y-25461149D01*
X12806527Y-25357802D01*
X12627899Y-25179173D01*
X12394510Y-25082500D01*
X12325350Y-25082500D01*
X12166600Y-25241250D01*
X12166600Y-26289000D01*
X12212000Y-26289000D01*
X12212000Y-26543000D01*
X12166600Y-26543000D01*
X12166600Y-26563000D01*
X11963400Y-26563000D01*
X11963400Y-26543000D01*
X11963400Y-26289000D01*
X11963400Y-25241250D01*
X11804650Y-25082500D01*
X11735490Y-25082500D01*
X11502101Y-25179173D01*
X11323473Y-25357802D01*
X11226800Y-25591191D01*
X11226800Y-26130250D01*
X11385550Y-26289000D01*
X11963400Y-26289000D01*
X11963400Y-26543000D01*
X11385550Y-26543000D01*
X11250005Y-26678545D01*
X9621230Y-25049770D01*
X9460544Y-24942402D01*
X9271000Y-24904700D01*
X7747000Y-24904700D01*
X7747000Y-24816214D01*
X7725786Y-24764999D01*
X7747000Y-24713785D01*
X7747000Y-24625300D01*
X7936543Y-24587598D01*
X7936544Y-24587598D01*
X8097230Y-24480230D01*
X9062432Y-23515028D01*
X9169800Y-23354341D01*
X9207502Y-23164798D01*
X9207502Y-22123122D01*
X9502580Y-21828043D01*
X9567496Y-21985151D01*
X9680172Y-22098024D01*
X9568186Y-22209815D01*
X9461622Y-22466450D01*
X9461379Y-22744331D01*
X9567496Y-23001151D01*
X9680172Y-23114024D01*
X9568186Y-23225815D01*
X9461622Y-23482450D01*
X9461379Y-23760331D01*
X9567496Y-24017151D01*
X9763815Y-24213814D01*
X10020450Y-24320378D01*
X10298331Y-24320621D01*
X10555151Y-24214504D01*
X10751814Y-24018185D01*
X10858378Y-23761550D01*
X10858498Y-23623961D01*
X11355756Y-23126704D01*
X14032662Y-23126704D01*
X14668498Y-23762540D01*
X14668498Y-24116460D01*
X14668498Y-24116460D01*
G37*
X14668498Y-24116460D02*
X14203549Y-24581409D01*
X13785291Y-24581409D01*
X13595748Y-24619111D01*
X13435061Y-24726479D01*
X12984770Y-25176770D01*
X12877402Y-25337456D01*
X12853658Y-25456826D01*
X12849335Y-25461149D01*
X12806527Y-25357802D01*
X12627899Y-25179173D01*
X12394510Y-25082500D01*
X12325350Y-25082500D01*
X12166600Y-25241250D01*
X12166600Y-26289000D01*
X12212000Y-26289000D01*
X12212000Y-26543000D01*
X12166600Y-26543000D01*
X12166600Y-26563000D01*
X11963400Y-26563000D01*
X11963400Y-26543000D01*
X11963400Y-26289000D01*
X11963400Y-25241250D01*
X11804650Y-25082500D01*
X11735490Y-25082500D01*
X11502101Y-25179173D01*
X11323473Y-25357802D01*
X11226800Y-25591191D01*
X11226800Y-26130250D01*
X11385550Y-26289000D01*
X11963400Y-26289000D01*
X11963400Y-26543000D01*
X11385550Y-26543000D01*
X11250005Y-26678545D01*
X9621230Y-25049770D01*
X9460544Y-24942402D01*
X9271000Y-24904700D01*
X7747000Y-24904700D01*
X7747000Y-24816214D01*
X7725786Y-24764999D01*
X7747000Y-24713785D01*
X7747000Y-24625300D01*
X7936543Y-24587598D01*
X7936544Y-24587598D01*
X8097230Y-24480230D01*
X9062432Y-23515028D01*
X9169800Y-23354341D01*
X9207502Y-23164798D01*
X9207502Y-22123122D01*
X9502580Y-21828043D01*
X9567496Y-21985151D01*
X9680172Y-22098024D01*
X9568186Y-22209815D01*
X9461622Y-22466450D01*
X9461379Y-22744331D01*
X9567496Y-23001151D01*
X9680172Y-23114024D01*
X9568186Y-23225815D01*
X9461622Y-23482450D01*
X9461379Y-23760331D01*
X9567496Y-24017151D01*
X9763815Y-24213814D01*
X10020450Y-24320378D01*
X10298331Y-24320621D01*
X10555151Y-24214504D01*
X10751814Y-24018185D01*
X10858378Y-23761550D01*
X10858498Y-23623961D01*
X11355756Y-23126704D01*
X14032662Y-23126704D01*
X14668498Y-23762540D01*
X14668498Y-24116460D01*
G36*
X26402600Y-8286316D02*
X26174550Y-8191622D01*
X25896669Y-8191379D01*
X25639849Y-8297496D01*
X25542474Y-8394700D01*
X22987000Y-8394700D01*
X22797456Y-8432402D01*
X22636770Y-8539770D01*
X21644641Y-9531899D01*
X20969851Y-9531899D01*
X20602952Y-9165000D01*
X20822786Y-9165000D01*
X20962820Y-9106996D01*
X21069996Y-8999819D01*
X21128000Y-8859785D01*
X21128000Y-8708214D01*
X21128000Y-7208214D01*
X21069996Y-7068180D01*
X20962819Y-6961004D01*
X20907726Y-6938183D01*
X20904598Y-6922457D01*
X20904598Y-6922456D01*
X20797230Y-6761770D01*
X20416230Y-6380770D01*
X20255544Y-6273402D01*
X20066000Y-6235700D01*
X19187580Y-6235700D01*
X19240378Y-6108550D01*
X19240498Y-5970961D01*
X19654230Y-5557230D01*
X19761598Y-5396543D01*
X19799300Y-5207000D01*
X19799300Y-3937000D01*
X19761598Y-3747457D01*
X19761598Y-3747456D01*
X19717843Y-3681972D01*
X19799996Y-3599819D01*
X19811999Y-3570839D01*
X19824004Y-3599820D01*
X19931181Y-3706996D01*
X20071215Y-3765000D01*
X20222786Y-3765000D01*
X20822786Y-3765000D01*
X20962820Y-3706996D01*
X21069996Y-3599819D01*
X21128000Y-3459785D01*
X21128000Y-3308214D01*
X21128000Y-3167400D01*
X21463058Y-3167400D01*
X26402600Y-8106941D01*
X26402600Y-8286316D01*
X26402600Y-8286316D01*
G37*
X26402600Y-8286316D02*
X26174550Y-8191622D01*
X25896669Y-8191379D01*
X25639849Y-8297496D01*
X25542474Y-8394700D01*
X22987000Y-8394700D01*
X22797456Y-8432402D01*
X22636770Y-8539770D01*
X21644641Y-9531899D01*
X20969851Y-9531899D01*
X20602952Y-9165000D01*
X20822786Y-9165000D01*
X20962820Y-9106996D01*
X21069996Y-8999819D01*
X21128000Y-8859785D01*
X21128000Y-8708214D01*
X21128000Y-7208214D01*
X21069996Y-7068180D01*
X20962819Y-6961004D01*
X20907726Y-6938183D01*
X20904598Y-6922457D01*
X20904598Y-6922456D01*
X20797230Y-6761770D01*
X20416230Y-6380770D01*
X20255544Y-6273402D01*
X20066000Y-6235700D01*
X19187580Y-6235700D01*
X19240378Y-6108550D01*
X19240498Y-5970961D01*
X19654230Y-5557230D01*
X19761598Y-5396543D01*
X19799300Y-5207000D01*
X19799300Y-3937000D01*
X19761598Y-3747457D01*
X19761598Y-3747456D01*
X19717843Y-3681972D01*
X19799996Y-3599819D01*
X19811999Y-3570839D01*
X19824004Y-3599820D01*
X19931181Y-3706996D01*
X20071215Y-3765000D01*
X20222786Y-3765000D01*
X20822786Y-3765000D01*
X20962820Y-3706996D01*
X21069996Y-3599819D01*
X21128000Y-3459785D01*
X21128000Y-3308214D01*
X21128000Y-3167400D01*
X21463058Y-3167400D01*
X26402600Y-8106941D01*
X26402600Y-8286316D01*
G36*
X26809700Y-25470784D02*
X26778804Y-25501681D01*
X26720800Y-25641715D01*
X26720800Y-25793286D01*
X26720800Y-27190286D01*
X26773576Y-27317700D01*
X26566422Y-27317700D01*
X26619200Y-27190285D01*
X26619200Y-27038714D01*
X26619200Y-25641714D01*
X26561196Y-25501680D01*
X26516341Y-25456826D01*
X26492598Y-25337457D01*
X26385230Y-25176770D01*
X25934939Y-24726479D01*
X25774253Y-24619111D01*
X25584709Y-24581409D01*
X25166451Y-24581409D01*
X24333617Y-23748575D01*
X24172931Y-23641207D01*
X23983387Y-23603505D01*
X22941711Y-23603505D01*
X22108877Y-22770671D01*
X21948191Y-22663303D01*
X21758647Y-22625601D01*
X20840714Y-22625601D01*
X20840714Y-22273176D01*
X20803012Y-22083633D01*
X20695644Y-21922946D01*
X15084872Y-16312174D01*
X14924186Y-16204806D01*
X14734642Y-16167104D01*
X9270728Y-16167104D01*
X8826502Y-15722878D01*
X8826502Y-14681202D01*
X8788800Y-14491659D01*
X8681432Y-14330972D01*
X7970230Y-13619770D01*
X7809544Y-13512402D01*
X7747000Y-13499961D01*
X7747000Y-13386214D01*
X7725786Y-13334999D01*
X7747000Y-13283785D01*
X7747000Y-13195300D01*
X10070258Y-13195300D01*
X10223498Y-13348540D01*
X10223498Y-14794380D01*
X10261200Y-14983924D01*
X10368568Y-15144610D01*
X11017390Y-15793432D01*
X11178077Y-15900800D01*
X11367620Y-15938502D01*
X19671460Y-15938502D01*
X20034390Y-16301432D01*
X20195076Y-16408799D01*
X20195077Y-16408800D01*
X20384620Y-16446502D01*
X21779380Y-16446502D01*
X21968923Y-16408800D01*
X21968924Y-16408800D01*
X22129610Y-16301432D01*
X22492540Y-15938502D01*
X23888700Y-15938502D01*
X23888700Y-17526000D01*
X23926402Y-17715544D01*
X24033770Y-17876230D01*
X26809700Y-20652160D01*
X26809700Y-25470784D01*
X26809700Y-25470784D01*
G37*
X26809700Y-25470784D02*
X26778804Y-25501681D01*
X26720800Y-25641715D01*
X26720800Y-25793286D01*
X26720800Y-27190286D01*
X26773576Y-27317700D01*
X26566422Y-27317700D01*
X26619200Y-27190285D01*
X26619200Y-27038714D01*
X26619200Y-25641714D01*
X26561196Y-25501680D01*
X26516341Y-25456826D01*
X26492598Y-25337457D01*
X26385230Y-25176770D01*
X25934939Y-24726479D01*
X25774253Y-24619111D01*
X25584709Y-24581409D01*
X25166451Y-24581409D01*
X24333617Y-23748575D01*
X24172931Y-23641207D01*
X23983387Y-23603505D01*
X22941711Y-23603505D01*
X22108877Y-22770671D01*
X21948191Y-22663303D01*
X21758647Y-22625601D01*
X20840714Y-22625601D01*
X20840714Y-22273176D01*
X20803012Y-22083633D01*
X20695644Y-21922946D01*
X15084872Y-16312174D01*
X14924186Y-16204806D01*
X14734642Y-16167104D01*
X9270728Y-16167104D01*
X8826502Y-15722878D01*
X8826502Y-14681202D01*
X8788800Y-14491659D01*
X8681432Y-14330972D01*
X7970230Y-13619770D01*
X7809544Y-13512402D01*
X7747000Y-13499961D01*
X7747000Y-13386214D01*
X7725786Y-13334999D01*
X7747000Y-13283785D01*
X7747000Y-13195300D01*
X10070258Y-13195300D01*
X10223498Y-13348540D01*
X10223498Y-14794380D01*
X10261200Y-14983924D01*
X10368568Y-15144610D01*
X11017390Y-15793432D01*
X11178077Y-15900800D01*
X11367620Y-15938502D01*
X19671460Y-15938502D01*
X20034390Y-16301432D01*
X20195076Y-16408799D01*
X20195077Y-16408800D01*
X20384620Y-16446502D01*
X21779380Y-16446502D01*
X21968923Y-16408800D01*
X21968924Y-16408800D01*
X22129610Y-16301432D01*
X22492540Y-15938502D01*
X23888700Y-15938502D01*
X23888700Y-17526000D01*
X23926402Y-17715544D01*
X24033770Y-17876230D01*
X26809700Y-20652160D01*
X26809700Y-25470784D01*
G36*
X44253830Y-28779000D02*
X31699200Y-28779000D01*
X31699200Y-27190285D01*
X31699200Y-27038714D01*
X31699200Y-25641714D01*
X31641196Y-25501680D01*
X31534019Y-25394504D01*
X31393985Y-25336500D01*
X31242414Y-25336500D01*
X30836014Y-25336500D01*
X30695980Y-25394504D01*
X30588804Y-25501681D01*
X30530800Y-25641715D01*
X30530800Y-25793286D01*
X30530800Y-27190286D01*
X30588804Y-27330320D01*
X30695981Y-27437496D01*
X30836015Y-27495500D01*
X30987586Y-27495500D01*
X31393986Y-27495500D01*
X31534020Y-27437496D01*
X31641196Y-27330319D01*
X31699200Y-27190285D01*
X31699200Y-28779000D01*
X7916448Y-28779000D01*
X7847765Y-28765337D01*
X7825523Y-28750476D01*
X7810662Y-28728236D01*
X7797000Y-28659547D01*
X7797000Y-28448000D01*
X7788718Y-28406367D01*
X7788719Y-28363917D01*
X7750050Y-28169513D01*
X7685694Y-28014146D01*
X7575574Y-27849341D01*
X7575574Y-27849340D01*
X7575573Y-27849339D01*
X7525490Y-27799255D01*
X7725698Y-27716327D01*
X7904327Y-27537699D01*
X8001000Y-27304310D01*
X8001000Y-27051691D01*
X8001000Y-26955750D01*
X7842250Y-26797000D01*
X3810000Y-26797000D01*
X3810000Y-26817000D01*
X3556000Y-26817000D01*
X3556000Y-26797000D01*
X3536000Y-26797000D01*
X3536000Y-26543000D01*
X3556000Y-26543000D01*
X3556000Y-26523000D01*
X3810000Y-26523000D01*
X3810000Y-26543000D01*
X7842250Y-26543000D01*
X8001000Y-26384250D01*
X8001000Y-26288309D01*
X8001000Y-26035690D01*
X7942848Y-25895300D01*
X8170154Y-25895300D01*
X8064622Y-26149450D01*
X8064379Y-26427331D01*
X8170496Y-26684151D01*
X8366815Y-26880814D01*
X8623450Y-26987378D01*
X8901331Y-26987621D01*
X9158151Y-26881504D01*
X9249724Y-26790091D01*
X9314048Y-26790091D01*
X11144390Y-28620432D01*
X11305076Y-28727800D01*
X11305077Y-28727800D01*
X11494620Y-28765502D01*
X29133798Y-28765502D01*
X29323341Y-28727800D01*
X29323342Y-28727800D01*
X29484028Y-28620432D01*
X30195230Y-27909230D01*
X30302598Y-27748543D01*
X30340300Y-27559000D01*
X30340300Y-27361215D01*
X30371196Y-27330319D01*
X30429200Y-27190285D01*
X30429200Y-27038714D01*
X30429200Y-25641714D01*
X30371196Y-25501680D01*
X30326341Y-25456826D01*
X30302598Y-25337457D01*
X30302598Y-25337456D01*
X30195230Y-25176770D01*
X29349704Y-24331244D01*
X29349704Y-20056658D01*
X29312002Y-19867115D01*
X29312002Y-19867114D01*
X29204634Y-19706428D01*
X26579060Y-17080854D01*
X26626814Y-17033185D01*
X26733378Y-16776550D01*
X26733621Y-16498669D01*
X26627504Y-16241849D01*
X26431185Y-16045186D01*
X26183348Y-15942275D01*
X26187122Y-15938502D01*
X27228798Y-15938502D01*
X27418341Y-15900800D01*
X27418342Y-15900800D01*
X27579028Y-15793432D01*
X28290230Y-15082230D01*
X28397598Y-14921543D01*
X28422669Y-14795500D01*
X28447586Y-14795500D01*
X28853986Y-14795500D01*
X28994020Y-14737496D01*
X29101196Y-14630319D01*
X29159200Y-14490285D01*
X29159200Y-14338714D01*
X29159200Y-12941714D01*
X29108400Y-12819071D01*
X29108400Y-12380538D01*
X29067797Y-12176415D01*
X28952171Y-12003367D01*
X28447804Y-11499000D01*
X28563002Y-11499000D01*
X28563002Y-11342252D01*
X28719750Y-11499000D01*
X28812309Y-11499000D01*
X29045698Y-11402327D01*
X29224327Y-11223699D01*
X29321000Y-10990310D01*
X29321000Y-10737691D01*
X29321000Y-10699750D01*
X29321000Y-10128250D01*
X29321000Y-10090309D01*
X29321000Y-9837690D01*
X29224327Y-9604301D01*
X29045698Y-9425673D01*
X28812309Y-9329000D01*
X28719750Y-9329000D01*
X28561000Y-9487750D01*
X28561000Y-10287000D01*
X29162250Y-10287000D01*
X29321000Y-10128250D01*
X29321000Y-10699750D01*
X29162250Y-10541000D01*
X28561000Y-10541000D01*
X28561000Y-10561000D01*
X28311000Y-10561000D01*
X28311000Y-10541000D01*
X28289000Y-10541000D01*
X28289000Y-10287000D01*
X28311000Y-10287000D01*
X28311000Y-9487750D01*
X28152250Y-9329000D01*
X28059691Y-9329000D01*
X27826302Y-9425673D01*
X27647673Y-9604301D01*
X27551000Y-9837690D01*
X27551000Y-9849586D01*
X27508996Y-9748180D01*
X27469400Y-9708584D01*
X27469400Y-7886005D01*
X27469400Y-7886000D01*
X27469401Y-7886000D01*
X27428797Y-7681877D01*
X27313171Y-7508830D01*
X27313171Y-7508829D01*
X27313167Y-7508826D01*
X22061171Y-2256829D01*
X21888123Y-2141203D01*
X21684000Y-2100600D01*
X21145551Y-2100600D01*
X21145621Y-2020669D01*
X21128000Y-1978023D01*
X21128000Y-1859272D01*
X21257315Y-1988814D01*
X21513950Y-2095378D01*
X21791831Y-2095621D01*
X22048651Y-1989504D01*
X22245314Y-1793185D01*
X22314900Y-1625602D01*
X29434680Y-1625602D01*
X30746700Y-2937622D01*
X30746700Y-7730378D01*
X30269468Y-8207610D01*
X30162100Y-8368296D01*
X30124398Y-8557840D01*
X30124398Y-11720142D01*
X29494770Y-12349770D01*
X29387402Y-12510456D01*
X29349700Y-12700000D01*
X29349700Y-12770784D01*
X29321000Y-12799484D01*
X29318804Y-12801681D01*
X29260800Y-12941715D01*
X29260800Y-13093286D01*
X29260800Y-14490286D01*
X29318804Y-14630320D01*
X29425981Y-14737496D01*
X29566015Y-14795500D01*
X29717586Y-14795500D01*
X30123986Y-14795500D01*
X30264020Y-14737496D01*
X30371196Y-14630319D01*
X30429200Y-14490285D01*
X30429200Y-14338714D01*
X30429200Y-12941714D01*
X30392455Y-12853004D01*
X30581600Y-12663860D01*
X30581600Y-12819072D01*
X30530800Y-12941715D01*
X30530800Y-13093286D01*
X30530800Y-14490286D01*
X30581600Y-14612928D01*
X30581600Y-14732000D01*
X30581600Y-14968220D01*
X30622203Y-15172343D01*
X30737829Y-15345391D01*
X42543730Y-27151291D01*
X42543730Y-27653836D01*
X42601734Y-27793870D01*
X42708911Y-27901046D01*
X42848945Y-27959050D01*
X43000516Y-27959050D01*
X43800616Y-27959050D01*
X43834132Y-27945166D01*
X43815122Y-27990950D01*
X43814879Y-28268831D01*
X43920996Y-28525651D01*
X44117315Y-28722314D01*
X44253830Y-28779000D01*
X44253830Y-28779000D01*
G37*
X44253830Y-28779000D02*
X31699200Y-28779000D01*
X31699200Y-27190285D01*
X31699200Y-27038714D01*
X31699200Y-25641714D01*
X31641196Y-25501680D01*
X31534019Y-25394504D01*
X31393985Y-25336500D01*
X31242414Y-25336500D01*
X30836014Y-25336500D01*
X30695980Y-25394504D01*
X30588804Y-25501681D01*
X30530800Y-25641715D01*
X30530800Y-25793286D01*
X30530800Y-27190286D01*
X30588804Y-27330320D01*
X30695981Y-27437496D01*
X30836015Y-27495500D01*
X30987586Y-27495500D01*
X31393986Y-27495500D01*
X31534020Y-27437496D01*
X31641196Y-27330319D01*
X31699200Y-27190285D01*
X31699200Y-28779000D01*
X7916448Y-28779000D01*
X7847765Y-28765337D01*
X7825523Y-28750476D01*
X7810662Y-28728236D01*
X7797000Y-28659547D01*
X7797000Y-28448000D01*
X7788718Y-28406367D01*
X7788719Y-28363917D01*
X7750050Y-28169513D01*
X7685694Y-28014146D01*
X7575574Y-27849341D01*
X7575574Y-27849340D01*
X7575573Y-27849339D01*
X7525490Y-27799255D01*
X7725698Y-27716327D01*
X7904327Y-27537699D01*
X8001000Y-27304310D01*
X8001000Y-27051691D01*
X8001000Y-26955750D01*
X7842250Y-26797000D01*
X3810000Y-26797000D01*
X3810000Y-26817000D01*
X3556000Y-26817000D01*
X3556000Y-26797000D01*
X3536000Y-26797000D01*
X3536000Y-26543000D01*
X3556000Y-26543000D01*
X3556000Y-26523000D01*
X3810000Y-26523000D01*
X3810000Y-26543000D01*
X7842250Y-26543000D01*
X8001000Y-26384250D01*
X8001000Y-26288309D01*
X8001000Y-26035690D01*
X7942848Y-25895300D01*
X8170154Y-25895300D01*
X8064622Y-26149450D01*
X8064379Y-26427331D01*
X8170496Y-26684151D01*
X8366815Y-26880814D01*
X8623450Y-26987378D01*
X8901331Y-26987621D01*
X9158151Y-26881504D01*
X9249724Y-26790091D01*
X9314048Y-26790091D01*
X11144390Y-28620432D01*
X11305076Y-28727800D01*
X11305077Y-28727800D01*
X11494620Y-28765502D01*
X29133798Y-28765502D01*
X29323341Y-28727800D01*
X29323342Y-28727800D01*
X29484028Y-28620432D01*
X30195230Y-27909230D01*
X30302598Y-27748543D01*
X30340300Y-27559000D01*
X30340300Y-27361215D01*
X30371196Y-27330319D01*
X30429200Y-27190285D01*
X30429200Y-27038714D01*
X30429200Y-25641714D01*
X30371196Y-25501680D01*
X30326341Y-25456826D01*
X30302598Y-25337457D01*
X30302598Y-25337456D01*
X30195230Y-25176770D01*
X29349704Y-24331244D01*
X29349704Y-20056658D01*
X29312002Y-19867115D01*
X29312002Y-19867114D01*
X29204634Y-19706428D01*
X26579060Y-17080854D01*
X26626814Y-17033185D01*
X26733378Y-16776550D01*
X26733621Y-16498669D01*
X26627504Y-16241849D01*
X26431185Y-16045186D01*
X26183348Y-15942275D01*
X26187122Y-15938502D01*
X27228798Y-15938502D01*
X27418341Y-15900800D01*
X27418342Y-15900800D01*
X27579028Y-15793432D01*
X28290230Y-15082230D01*
X28397598Y-14921543D01*
X28422669Y-14795500D01*
X28447586Y-14795500D01*
X28853986Y-14795500D01*
X28994020Y-14737496D01*
X29101196Y-14630319D01*
X29159200Y-14490285D01*
X29159200Y-14338714D01*
X29159200Y-12941714D01*
X29108400Y-12819071D01*
X29108400Y-12380538D01*
X29067797Y-12176415D01*
X28952171Y-12003367D01*
X28447804Y-11499000D01*
X28563002Y-11499000D01*
X28563002Y-11342252D01*
X28719750Y-11499000D01*
X28812309Y-11499000D01*
X29045698Y-11402327D01*
X29224327Y-11223699D01*
X29321000Y-10990310D01*
X29321000Y-10737691D01*
X29321000Y-10699750D01*
X29321000Y-10128250D01*
X29321000Y-10090309D01*
X29321000Y-9837690D01*
X29224327Y-9604301D01*
X29045698Y-9425673D01*
X28812309Y-9329000D01*
X28719750Y-9329000D01*
X28561000Y-9487750D01*
X28561000Y-10287000D01*
X29162250Y-10287000D01*
X29321000Y-10128250D01*
X29321000Y-10699750D01*
X29162250Y-10541000D01*
X28561000Y-10541000D01*
X28561000Y-10561000D01*
X28311000Y-10561000D01*
X28311000Y-10541000D01*
X28289000Y-10541000D01*
X28289000Y-10287000D01*
X28311000Y-10287000D01*
X28311000Y-9487750D01*
X28152250Y-9329000D01*
X28059691Y-9329000D01*
X27826302Y-9425673D01*
X27647673Y-9604301D01*
X27551000Y-9837690D01*
X27551000Y-9849586D01*
X27508996Y-9748180D01*
X27469400Y-9708584D01*
X27469400Y-7886005D01*
X27469400Y-7886000D01*
X27469401Y-7886000D01*
X27428797Y-7681877D01*
X27313171Y-7508830D01*
X27313171Y-7508829D01*
X27313167Y-7508826D01*
X22061171Y-2256829D01*
X21888123Y-2141203D01*
X21684000Y-2100600D01*
X21145551Y-2100600D01*
X21145621Y-2020669D01*
X21128000Y-1978023D01*
X21128000Y-1859272D01*
X21257315Y-1988814D01*
X21513950Y-2095378D01*
X21791831Y-2095621D01*
X22048651Y-1989504D01*
X22245314Y-1793185D01*
X22314900Y-1625602D01*
X29434680Y-1625602D01*
X30746700Y-2937622D01*
X30746700Y-7730378D01*
X30269468Y-8207610D01*
X30162100Y-8368296D01*
X30124398Y-8557840D01*
X30124398Y-11720142D01*
X29494770Y-12349770D01*
X29387402Y-12510456D01*
X29349700Y-12700000D01*
X29349700Y-12770784D01*
X29321000Y-12799484D01*
X29318804Y-12801681D01*
X29260800Y-12941715D01*
X29260800Y-13093286D01*
X29260800Y-14490286D01*
X29318804Y-14630320D01*
X29425981Y-14737496D01*
X29566015Y-14795500D01*
X29717586Y-14795500D01*
X30123986Y-14795500D01*
X30264020Y-14737496D01*
X30371196Y-14630319D01*
X30429200Y-14490285D01*
X30429200Y-14338714D01*
X30429200Y-12941714D01*
X30392455Y-12853004D01*
X30581600Y-12663860D01*
X30581600Y-12819072D01*
X30530800Y-12941715D01*
X30530800Y-13093286D01*
X30530800Y-14490286D01*
X30581600Y-14612928D01*
X30581600Y-14732000D01*
X30581600Y-14968220D01*
X30622203Y-15172343D01*
X30737829Y-15345391D01*
X42543730Y-27151291D01*
X42543730Y-27653836D01*
X42601734Y-27793870D01*
X42708911Y-27901046D01*
X42848945Y-27959050D01*
X43000516Y-27959050D01*
X43800616Y-27959050D01*
X43834132Y-27945166D01*
X43815122Y-27990950D01*
X43814879Y-28268831D01*
X43920996Y-28525651D01*
X44117315Y-28722314D01*
X44253830Y-28779000D01*
G36*
X46178000Y-28659551D02*
X46164337Y-28728234D01*
X46149476Y-28750476D01*
X46127236Y-28765337D01*
X46058547Y-28779000D01*
X46011675Y-28779000D01*
X46046806Y-28743869D01*
X46104810Y-28603835D01*
X46104810Y-28452264D01*
X46104810Y-27652164D01*
X46046806Y-27512130D01*
X45939629Y-27404954D01*
X45799595Y-27346950D01*
X45648024Y-27346950D01*
X44847924Y-27346950D01*
X44707890Y-27404954D01*
X44672603Y-27440241D01*
X44653050Y-27432122D01*
X44375169Y-27431879D01*
X44118349Y-27537996D01*
X44105830Y-27550493D01*
X44105830Y-27502264D01*
X44105830Y-26805808D01*
X44117315Y-26817314D01*
X44373950Y-26923878D01*
X44651831Y-26924121D01*
X44672447Y-26915602D01*
X44707891Y-26951046D01*
X44847925Y-27009050D01*
X44999496Y-27009050D01*
X45799596Y-27009050D01*
X45939630Y-26951046D01*
X46046806Y-26843869D01*
X46104810Y-26703835D01*
X46104810Y-26552264D01*
X46104810Y-25752164D01*
X46046806Y-25612130D01*
X45939629Y-25504954D01*
X45799595Y-25446950D01*
X45648024Y-25446950D01*
X44847924Y-25446950D01*
X44707890Y-25504954D01*
X44676136Y-25536708D01*
X44653050Y-25527122D01*
X44429680Y-25526926D01*
X44429680Y-5038669D01*
X44429680Y-4222750D01*
X44429680Y-3651250D01*
X44429680Y-2835331D01*
X44333007Y-2601942D01*
X44154379Y-2423313D01*
X43920990Y-2326640D01*
X43668371Y-2326640D01*
X42830750Y-2326640D01*
X42672000Y-2485390D01*
X42672000Y-3810000D01*
X44270930Y-3810000D01*
X44429680Y-3651250D01*
X44429680Y-4222750D01*
X44270930Y-4064000D01*
X42672000Y-4064000D01*
X42672000Y-5388610D01*
X42830750Y-5547360D01*
X43668371Y-5547360D01*
X43920990Y-5547360D01*
X44154379Y-5450687D01*
X44333007Y-5272058D01*
X44429680Y-5038669D01*
X44429680Y-25526926D01*
X44375169Y-25526879D01*
X44118349Y-25632996D01*
X43921686Y-25829315D01*
X43815122Y-26085950D01*
X43814879Y-26363831D01*
X43834334Y-26410917D01*
X43800615Y-26396950D01*
X43649044Y-26396950D01*
X43298071Y-26396950D01*
X31648400Y-14747278D01*
X31648400Y-14732000D01*
X31648400Y-14612927D01*
X31699200Y-14490285D01*
X31699200Y-14338714D01*
X31699200Y-12941714D01*
X31648400Y-12819071D01*
X31648400Y-8983942D01*
X32290982Y-8341360D01*
X34472466Y-8341360D01*
X34612500Y-8283356D01*
X34719676Y-8176179D01*
X34777680Y-8036145D01*
X34777680Y-7884574D01*
X34777680Y-7518400D01*
X36342320Y-7518400D01*
X36342320Y-8036146D01*
X36400324Y-8176180D01*
X36507501Y-8283356D01*
X36647535Y-8341360D01*
X36799106Y-8341360D01*
X39298466Y-8341360D01*
X39438500Y-8283356D01*
X39545676Y-8176179D01*
X39603680Y-8036145D01*
X39603680Y-7884574D01*
X39603680Y-7518400D01*
X40914320Y-7518400D01*
X40914320Y-8036146D01*
X40972324Y-8176180D01*
X41079501Y-8283356D01*
X41219535Y-8341360D01*
X41371106Y-8341360D01*
X43870466Y-8341360D01*
X44010500Y-8283356D01*
X44117676Y-8176179D01*
X44175680Y-8036145D01*
X44175680Y-7884574D01*
X44175680Y-5933854D01*
X44117676Y-5793820D01*
X44010499Y-5686644D01*
X43870465Y-5628640D01*
X43718894Y-5628640D01*
X42418000Y-5628640D01*
X42418000Y-5388610D01*
X42418000Y-4064000D01*
X42418000Y-3810000D01*
X42418000Y-2485390D01*
X42259250Y-2326640D01*
X41421629Y-2326640D01*
X41169010Y-2326640D01*
X40935621Y-2423313D01*
X40756993Y-2601942D01*
X40660320Y-2835331D01*
X40660320Y-3651250D01*
X40819070Y-3810000D01*
X42418000Y-3810000D01*
X42418000Y-4064000D01*
X40819070Y-4064000D01*
X40660320Y-4222750D01*
X40660320Y-5038669D01*
X40756993Y-5272058D01*
X40935621Y-5450687D01*
X41169010Y-5547360D01*
X41421629Y-5547360D01*
X42259250Y-5547360D01*
X42418000Y-5388610D01*
X42418000Y-5628640D01*
X41219534Y-5628640D01*
X41079500Y-5686644D01*
X40972324Y-5793821D01*
X40914320Y-5933855D01*
X40914320Y-6085426D01*
X40914320Y-6451600D01*
X39857680Y-6451600D01*
X39857680Y-5038669D01*
X39857680Y-4222750D01*
X39857680Y-3651250D01*
X39857680Y-2835331D01*
X39761007Y-2601942D01*
X39582379Y-2423313D01*
X39348990Y-2326640D01*
X39096371Y-2326640D01*
X38258750Y-2326640D01*
X38100000Y-2485390D01*
X38100000Y-3810000D01*
X39698930Y-3810000D01*
X39857680Y-3651250D01*
X39857680Y-4222750D01*
X39698930Y-4064000D01*
X38100000Y-4064000D01*
X38100000Y-5388610D01*
X38258750Y-5547360D01*
X39096371Y-5547360D01*
X39348990Y-5547360D01*
X39582379Y-5450687D01*
X39761007Y-5272058D01*
X39857680Y-5038669D01*
X39857680Y-6451600D01*
X39603680Y-6451600D01*
X39603680Y-5933854D01*
X39545676Y-5793820D01*
X39438499Y-5686644D01*
X39298465Y-5628640D01*
X39146894Y-5628640D01*
X37846000Y-5628640D01*
X37846000Y-5388610D01*
X37846000Y-4064000D01*
X37846000Y-3810000D01*
X37846000Y-2485390D01*
X37687250Y-2326640D01*
X36849629Y-2326640D01*
X36597010Y-2326640D01*
X36363621Y-2423313D01*
X36184993Y-2601942D01*
X36088320Y-2835331D01*
X36088320Y-3651250D01*
X36247070Y-3810000D01*
X37846000Y-3810000D01*
X37846000Y-4064000D01*
X36247070Y-4064000D01*
X36088320Y-4222750D01*
X36088320Y-5038669D01*
X36184993Y-5272058D01*
X36363621Y-5450687D01*
X36597010Y-5547360D01*
X36849629Y-5547360D01*
X37687250Y-5547360D01*
X37846000Y-5388610D01*
X37846000Y-5628640D01*
X36647534Y-5628640D01*
X36507500Y-5686644D01*
X36400324Y-5793821D01*
X36342320Y-5933855D01*
X36342320Y-6085426D01*
X36342320Y-6451600D01*
X35031680Y-6451600D01*
X35031680Y-5038669D01*
X35031680Y-4222750D01*
X35031680Y-3651250D01*
X35031680Y-2835331D01*
X34935007Y-2601942D01*
X34756379Y-2423313D01*
X34522990Y-2326640D01*
X34270371Y-2326640D01*
X33432750Y-2326640D01*
X33274000Y-2485390D01*
X33274000Y-3810000D01*
X34872930Y-3810000D01*
X35031680Y-3651250D01*
X35031680Y-4222750D01*
X34872930Y-4064000D01*
X33274000Y-4064000D01*
X33274000Y-5388610D01*
X33432750Y-5547360D01*
X34270371Y-5547360D01*
X34522990Y-5547360D01*
X34756379Y-5450687D01*
X34935007Y-5272058D01*
X35031680Y-5038669D01*
X35031680Y-6451600D01*
X34777680Y-6451600D01*
X34777680Y-5933854D01*
X34719676Y-5793820D01*
X34612499Y-5686644D01*
X34472465Y-5628640D01*
X34320894Y-5628640D01*
X31821534Y-5628640D01*
X31737300Y-5663530D01*
X31737300Y-5533396D01*
X31771010Y-5547360D01*
X32023629Y-5547360D01*
X32861250Y-5547360D01*
X33020000Y-5388610D01*
X33020000Y-4064000D01*
X33000000Y-4064000D01*
X33000000Y-3810000D01*
X33020000Y-3810000D01*
X33020000Y-2485390D01*
X32861250Y-2326640D01*
X32023629Y-2326640D01*
X31771010Y-2326640D01*
X31601891Y-2396691D01*
X31592230Y-2382232D01*
X29990070Y-780072D01*
X29829384Y-672704D01*
X29639840Y-635002D01*
X21971000Y-635002D01*
X21653500Y-635002D01*
X13220698Y-635002D01*
X13031154Y-672704D01*
X12870468Y-780072D01*
X12476770Y-1173770D01*
X12369402Y-1334456D01*
X12331700Y-1524000D01*
X12331700Y-1552504D01*
X12311180Y-1561004D01*
X12211732Y-1660452D01*
X12149504Y-1509849D01*
X11953185Y-1313186D01*
X11696550Y-1206622D01*
X11418669Y-1206379D01*
X11161849Y-1312496D01*
X10965186Y-1508815D01*
X10858622Y-1765450D01*
X10858379Y-2043331D01*
X10876000Y-2085976D01*
X10876000Y-3459786D01*
X10934004Y-3599820D01*
X11041181Y-3706996D01*
X11181215Y-3765000D01*
X11332786Y-3765000D01*
X11663540Y-3765000D01*
X11605840Y-3822700D01*
X9095160Y-3822700D01*
X9080501Y-3808041D01*
X9080621Y-3671669D01*
X8974504Y-3414849D01*
X8778185Y-3218186D01*
X8521550Y-3111622D01*
X8243669Y-3111379D01*
X7986849Y-3217496D01*
X7980476Y-3223856D01*
X8001000Y-3174310D01*
X8001000Y-2921691D01*
X8001000Y-2825750D01*
X7842250Y-2667000D01*
X3810000Y-2667000D01*
X3810000Y-2687000D01*
X3556000Y-2687000D01*
X3556000Y-2667000D01*
X3536000Y-2667000D01*
X3536000Y-2413000D01*
X3556000Y-2413000D01*
X3556000Y-2393000D01*
X3810000Y-2393000D01*
X3810000Y-2413000D01*
X7842250Y-2413000D01*
X8001000Y-2254250D01*
X8001000Y-2158309D01*
X8001000Y-1905690D01*
X7904327Y-1672301D01*
X7725698Y-1493673D01*
X7525490Y-1410744D01*
X7575573Y-1360661D01*
X7575574Y-1360660D01*
X7575574Y-1360658D01*
X7685694Y-1195854D01*
X7750049Y-1040487D01*
X7750050Y-1040487D01*
X7788719Y-846083D01*
X7788718Y-803632D01*
X7797000Y-762000D01*
X7797000Y-550452D01*
X7810662Y-481763D01*
X7825523Y-459523D01*
X7847765Y-444662D01*
X7916448Y-431000D01*
X46058547Y-431000D01*
X46127236Y-444662D01*
X46149476Y-459523D01*
X46164337Y-481765D01*
X46178000Y-550448D01*
X46178000Y-28659551D01*
X46178000Y-28659551D01*
G37*
X46178000Y-28659551D02*
X46164337Y-28728234D01*
X46149476Y-28750476D01*
X46127236Y-28765337D01*
X46058547Y-28779000D01*
X46011675Y-28779000D01*
X46046806Y-28743869D01*
X46104810Y-28603835D01*
X46104810Y-28452264D01*
X46104810Y-27652164D01*
X46046806Y-27512130D01*
X45939629Y-27404954D01*
X45799595Y-27346950D01*
X45648024Y-27346950D01*
X44847924Y-27346950D01*
X44707890Y-27404954D01*
X44672603Y-27440241D01*
X44653050Y-27432122D01*
X44375169Y-27431879D01*
X44118349Y-27537996D01*
X44105830Y-27550493D01*
X44105830Y-27502264D01*
X44105830Y-26805808D01*
X44117315Y-26817314D01*
X44373950Y-26923878D01*
X44651831Y-26924121D01*
X44672447Y-26915602D01*
X44707891Y-26951046D01*
X44847925Y-27009050D01*
X44999496Y-27009050D01*
X45799596Y-27009050D01*
X45939630Y-26951046D01*
X46046806Y-26843869D01*
X46104810Y-26703835D01*
X46104810Y-26552264D01*
X46104810Y-25752164D01*
X46046806Y-25612130D01*
X45939629Y-25504954D01*
X45799595Y-25446950D01*
X45648024Y-25446950D01*
X44847924Y-25446950D01*
X44707890Y-25504954D01*
X44676136Y-25536708D01*
X44653050Y-25527122D01*
X44429680Y-25526926D01*
X44429680Y-5038669D01*
X44429680Y-4222750D01*
X44429680Y-3651250D01*
X44429680Y-2835331D01*
X44333007Y-2601942D01*
X44154379Y-2423313D01*
X43920990Y-2326640D01*
X43668371Y-2326640D01*
X42830750Y-2326640D01*
X42672000Y-2485390D01*
X42672000Y-3810000D01*
X44270930Y-3810000D01*
X44429680Y-3651250D01*
X44429680Y-4222750D01*
X44270930Y-4064000D01*
X42672000Y-4064000D01*
X42672000Y-5388610D01*
X42830750Y-5547360D01*
X43668371Y-5547360D01*
X43920990Y-5547360D01*
X44154379Y-5450687D01*
X44333007Y-5272058D01*
X44429680Y-5038669D01*
X44429680Y-25526926D01*
X44375169Y-25526879D01*
X44118349Y-25632996D01*
X43921686Y-25829315D01*
X43815122Y-26085950D01*
X43814879Y-26363831D01*
X43834334Y-26410917D01*
X43800615Y-26396950D01*
X43649044Y-26396950D01*
X43298071Y-26396950D01*
X31648400Y-14747278D01*
X31648400Y-14732000D01*
X31648400Y-14612927D01*
X31699200Y-14490285D01*
X31699200Y-14338714D01*
X31699200Y-12941714D01*
X31648400Y-12819071D01*
X31648400Y-8983942D01*
X32290982Y-8341360D01*
X34472466Y-8341360D01*
X34612500Y-8283356D01*
X34719676Y-8176179D01*
X34777680Y-8036145D01*
X34777680Y-7884574D01*
X34777680Y-7518400D01*
X36342320Y-7518400D01*
X36342320Y-8036146D01*
X36400324Y-8176180D01*
X36507501Y-8283356D01*
X36647535Y-8341360D01*
X36799106Y-8341360D01*
X39298466Y-8341360D01*
X39438500Y-8283356D01*
X39545676Y-8176179D01*
X39603680Y-8036145D01*
X39603680Y-7884574D01*
X39603680Y-7518400D01*
X40914320Y-7518400D01*
X40914320Y-8036146D01*
X40972324Y-8176180D01*
X41079501Y-8283356D01*
X41219535Y-8341360D01*
X41371106Y-8341360D01*
X43870466Y-8341360D01*
X44010500Y-8283356D01*
X44117676Y-8176179D01*
X44175680Y-8036145D01*
X44175680Y-7884574D01*
X44175680Y-5933854D01*
X44117676Y-5793820D01*
X44010499Y-5686644D01*
X43870465Y-5628640D01*
X43718894Y-5628640D01*
X42418000Y-5628640D01*
X42418000Y-5388610D01*
X42418000Y-4064000D01*
X42418000Y-3810000D01*
X42418000Y-2485390D01*
X42259250Y-2326640D01*
X41421629Y-2326640D01*
X41169010Y-2326640D01*
X40935621Y-2423313D01*
X40756993Y-2601942D01*
X40660320Y-2835331D01*
X40660320Y-3651250D01*
X40819070Y-3810000D01*
X42418000Y-3810000D01*
X42418000Y-4064000D01*
X40819070Y-4064000D01*
X40660320Y-4222750D01*
X40660320Y-5038669D01*
X40756993Y-5272058D01*
X40935621Y-5450687D01*
X41169010Y-5547360D01*
X41421629Y-5547360D01*
X42259250Y-5547360D01*
X42418000Y-5388610D01*
X42418000Y-5628640D01*
X41219534Y-5628640D01*
X41079500Y-5686644D01*
X40972324Y-5793821D01*
X40914320Y-5933855D01*
X40914320Y-6085426D01*
X40914320Y-6451600D01*
X39857680Y-6451600D01*
X39857680Y-5038669D01*
X39857680Y-4222750D01*
X39857680Y-3651250D01*
X39857680Y-2835331D01*
X39761007Y-2601942D01*
X39582379Y-2423313D01*
X39348990Y-2326640D01*
X39096371Y-2326640D01*
X38258750Y-2326640D01*
X38100000Y-2485390D01*
X38100000Y-3810000D01*
X39698930Y-3810000D01*
X39857680Y-3651250D01*
X39857680Y-4222750D01*
X39698930Y-4064000D01*
X38100000Y-4064000D01*
X38100000Y-5388610D01*
X38258750Y-5547360D01*
X39096371Y-5547360D01*
X39348990Y-5547360D01*
X39582379Y-5450687D01*
X39761007Y-5272058D01*
X39857680Y-5038669D01*
X39857680Y-6451600D01*
X39603680Y-6451600D01*
X39603680Y-5933854D01*
X39545676Y-5793820D01*
X39438499Y-5686644D01*
X39298465Y-5628640D01*
X39146894Y-5628640D01*
X37846000Y-5628640D01*
X37846000Y-5388610D01*
X37846000Y-4064000D01*
X37846000Y-3810000D01*
X37846000Y-2485390D01*
X37687250Y-2326640D01*
X36849629Y-2326640D01*
X36597010Y-2326640D01*
X36363621Y-2423313D01*
X36184993Y-2601942D01*
X36088320Y-2835331D01*
X36088320Y-3651250D01*
X36247070Y-3810000D01*
X37846000Y-3810000D01*
X37846000Y-4064000D01*
X36247070Y-4064000D01*
X36088320Y-4222750D01*
X36088320Y-5038669D01*
X36184993Y-5272058D01*
X36363621Y-5450687D01*
X36597010Y-5547360D01*
X36849629Y-5547360D01*
X37687250Y-5547360D01*
X37846000Y-5388610D01*
X37846000Y-5628640D01*
X36647534Y-5628640D01*
X36507500Y-5686644D01*
X36400324Y-5793821D01*
X36342320Y-5933855D01*
X36342320Y-6085426D01*
X36342320Y-6451600D01*
X35031680Y-6451600D01*
X35031680Y-5038669D01*
X35031680Y-4222750D01*
X35031680Y-3651250D01*
X35031680Y-2835331D01*
X34935007Y-2601942D01*
X34756379Y-2423313D01*
X34522990Y-2326640D01*
X34270371Y-2326640D01*
X33432750Y-2326640D01*
X33274000Y-2485390D01*
X33274000Y-3810000D01*
X34872930Y-3810000D01*
X35031680Y-3651250D01*
X35031680Y-4222750D01*
X34872930Y-4064000D01*
X33274000Y-4064000D01*
X33274000Y-5388610D01*
X33432750Y-5547360D01*
X34270371Y-5547360D01*
X34522990Y-5547360D01*
X34756379Y-5450687D01*
X34935007Y-5272058D01*
X35031680Y-5038669D01*
X35031680Y-6451600D01*
X34777680Y-6451600D01*
X34777680Y-5933854D01*
X34719676Y-5793820D01*
X34612499Y-5686644D01*
X34472465Y-5628640D01*
X34320894Y-5628640D01*
X31821534Y-5628640D01*
X31737300Y-5663530D01*
X31737300Y-5533396D01*
X31771010Y-5547360D01*
X32023629Y-5547360D01*
X32861250Y-5547360D01*
X33020000Y-5388610D01*
X33020000Y-4064000D01*
X33000000Y-4064000D01*
X33000000Y-3810000D01*
X33020000Y-3810000D01*
X33020000Y-2485390D01*
X32861250Y-2326640D01*
X32023629Y-2326640D01*
X31771010Y-2326640D01*
X31601891Y-2396691D01*
X31592230Y-2382232D01*
X29990070Y-780072D01*
X29829384Y-672704D01*
X29639840Y-635002D01*
X21971000Y-635002D01*
X21653500Y-635002D01*
X13220698Y-635002D01*
X13031154Y-672704D01*
X12870468Y-780072D01*
X12476770Y-1173770D01*
X12369402Y-1334456D01*
X12331700Y-1524000D01*
X12331700Y-1552504D01*
X12311180Y-1561004D01*
X12211732Y-1660452D01*
X12149504Y-1509849D01*
X11953185Y-1313186D01*
X11696550Y-1206622D01*
X11418669Y-1206379D01*
X11161849Y-1312496D01*
X10965186Y-1508815D01*
X10858622Y-1765450D01*
X10858379Y-2043331D01*
X10876000Y-2085976D01*
X10876000Y-3459786D01*
X10934004Y-3599820D01*
X11041181Y-3706996D01*
X11181215Y-3765000D01*
X11332786Y-3765000D01*
X11663540Y-3765000D01*
X11605840Y-3822700D01*
X9095160Y-3822700D01*
X9080501Y-3808041D01*
X9080621Y-3671669D01*
X8974504Y-3414849D01*
X8778185Y-3218186D01*
X8521550Y-3111622D01*
X8243669Y-3111379D01*
X7986849Y-3217496D01*
X7980476Y-3223856D01*
X8001000Y-3174310D01*
X8001000Y-2921691D01*
X8001000Y-2825750D01*
X7842250Y-2667000D01*
X3810000Y-2667000D01*
X3810000Y-2687000D01*
X3556000Y-2687000D01*
X3556000Y-2667000D01*
X3536000Y-2667000D01*
X3536000Y-2413000D01*
X3556000Y-2413000D01*
X3556000Y-2393000D01*
X3810000Y-2393000D01*
X3810000Y-2413000D01*
X7842250Y-2413000D01*
X8001000Y-2254250D01*
X8001000Y-2158309D01*
X8001000Y-1905690D01*
X7904327Y-1672301D01*
X7725698Y-1493673D01*
X7525490Y-1410744D01*
X7575573Y-1360661D01*
X7575574Y-1360660D01*
X7575574Y-1360658D01*
X7685694Y-1195854D01*
X7750049Y-1040487D01*
X7750050Y-1040487D01*
X7788719Y-846083D01*
X7788718Y-803632D01*
X7797000Y-762000D01*
X7797000Y-550452D01*
X7810662Y-481763D01*
X7825523Y-459523D01*
X7847765Y-444662D01*
X7916448Y-431000D01*
X46058547Y-431000D01*
X46127236Y-444662D01*
X46149476Y-459523D01*
X46164337Y-481765D01*
X46178000Y-550448D01*
X46178000Y-28659551D01*
M02*
