M48
;DRILL file {kicad (2014-10-27 BZR 5228)-product} date 5/2/2015 5:37:22 PM
;FORMAT={2:4/ absolute / inch / suppress leading zeros}
FMAT,2
INCH,TZ
T1C0.012
T2C0.032
T3C0.035
%
G90
G05
M72
T1
X3275Y-2000
X3300Y-1500
X4150Y-10750
X4550Y-550
X4550Y-3400
X4750Y-5000
X4750Y-9850
X5000Y-8850
X5250Y-5000
X5300Y-9150
X5550Y-3400
X5650Y-8700
X5750Y-5000
X5900Y-3850
X6050Y-1750
X6250Y-5000
X6750Y-5000
X7050Y-3400
X7200Y-2000
X7250Y-5000
X7450Y-3650
X7500Y-5920
X8050Y-650
X8100Y-4150
X8250Y-5900
X8775Y-825
X9000Y-550
X9000Y-1450
X9100Y-6750
X10100Y-3700
X10250Y-4250
X10250Y-6550
X10500Y-10900
X11750Y-10850
X12200Y-2150
X12750Y-9900
T2
X7184Y-1500
T3
X5216Y-1500
T0
M30
