%FSLAX46Y46*%
G04 Gerber Fmt 4.6, Leading zero omitted, Abs format (unit mm)*
G04 Created by KiCad (PCBNEW (2014-10-27 BZR 5228)-product) date 5/3/2015 5:28:48 PM*
%MOMM*%
G01*
G04 APERTURE LIST*
%ADD10C,0.100000*%
%ADD11C,0.300000*%
%ADD12C,0.200000*%
%ADD13C,0.150000*%
%ADD14R,5.080000X2.540000*%
%ADD15C,19.050000*%
%ADD16R,7.366000X1.016000*%
%ADD17R,6.350000X1.016000*%
%ADD18R,0.700000X1.500000*%
%ADD19R,1.000000X0.800000*%
%ADD20R,1.300000X1.300000*%
%ADD21C,1.300000*%
G04 APERTURE END LIST*
D10*
D11*
X14812571Y-26101856D02*
X14812571Y-25244713D01*
X16312571Y-25673284D02*
X14812571Y-25673284D01*
X15526857Y-24744713D02*
X15526857Y-24244713D01*
X16312571Y-24030427D02*
X16312571Y-24744713D01*
X14812571Y-24744713D01*
X14812571Y-24030427D01*
X15741143Y-23387570D02*
X15741143Y-22244713D01*
X16312571Y-20744713D02*
X16312571Y-21601856D01*
X16312571Y-21173284D02*
X14812571Y-21173284D01*
X15026857Y-21316141D01*
X15169714Y-21458999D01*
X15241143Y-21601856D01*
X14812571Y-19387570D02*
X14812571Y-20101856D01*
X15526857Y-20173285D01*
X15455429Y-20101856D01*
X15384000Y-19958999D01*
X15384000Y-19601856D01*
X15455429Y-19458999D01*
X15526857Y-19387570D01*
X15669714Y-19316142D01*
X16026857Y-19316142D01*
X16169714Y-19387570D01*
X16241143Y-19458999D01*
X16312571Y-19601856D01*
X16312571Y-19958999D01*
X16241143Y-20101856D01*
X16169714Y-20173285D01*
X14812571Y-18387571D02*
X14812571Y-18244714D01*
X14884000Y-18101857D01*
X14955429Y-18030428D01*
X15098286Y-17958999D01*
X15384000Y-17887571D01*
X15741143Y-17887571D01*
X16026857Y-17958999D01*
X16169714Y-18030428D01*
X16241143Y-18101857D01*
X16312571Y-18244714D01*
X16312571Y-18387571D01*
X16241143Y-18530428D01*
X16169714Y-18601857D01*
X16026857Y-18673285D01*
X15741143Y-18744714D01*
X15384000Y-18744714D01*
X15098286Y-18673285D01*
X14955429Y-18601857D01*
X14884000Y-18530428D01*
X14812571Y-18387571D01*
X16312571Y-17173286D02*
X16312571Y-16887571D01*
X16241143Y-16744714D01*
X16169714Y-16673286D01*
X15955429Y-16530428D01*
X15669714Y-16459000D01*
X15098286Y-16459000D01*
X14955429Y-16530428D01*
X14884000Y-16601857D01*
X14812571Y-16744714D01*
X14812571Y-17030428D01*
X14884000Y-17173286D01*
X14955429Y-17244714D01*
X15098286Y-17316143D01*
X15455429Y-17316143D01*
X15598286Y-17244714D01*
X15669714Y-17173286D01*
X15741143Y-17030428D01*
X15741143Y-16744714D01*
X15669714Y-16601857D01*
X15598286Y-16530428D01*
X15455429Y-16459000D01*
X18712571Y-26566143D02*
X17998286Y-27066143D01*
X18712571Y-27423286D02*
X17212571Y-27423286D01*
X17212571Y-26851858D01*
X17284000Y-26709000D01*
X17355429Y-26637572D01*
X17498286Y-26566143D01*
X17712571Y-26566143D01*
X17855429Y-26637572D01*
X17926857Y-26709000D01*
X17998286Y-26851858D01*
X17998286Y-27423286D01*
X18284000Y-25994715D02*
X18284000Y-25280429D01*
X18712571Y-26137572D02*
X17212571Y-25637572D01*
X18712571Y-25137572D01*
X18712571Y-24637572D02*
X17212571Y-24637572D01*
X18284000Y-24137572D01*
X17212571Y-23637572D01*
X18712571Y-23637572D01*
X17141143Y-21851858D02*
X19069714Y-23137572D01*
X17212571Y-21423286D02*
X17498286Y-21423286D01*
X17212571Y-20851857D02*
X17498286Y-20851857D01*
X18712571Y-19351857D02*
X17998286Y-19851857D01*
X18712571Y-20209000D02*
X17212571Y-20209000D01*
X17212571Y-19637572D01*
X17284000Y-19494714D01*
X17355429Y-19423286D01*
X17498286Y-19351857D01*
X17712571Y-19351857D01*
X17855429Y-19423286D01*
X17926857Y-19494714D01*
X17998286Y-19637572D01*
X17998286Y-20209000D01*
X17212571Y-18423286D02*
X17212571Y-18137572D01*
X17284000Y-17994714D01*
X17426857Y-17851857D01*
X17712571Y-17780429D01*
X18212571Y-17780429D01*
X18498286Y-17851857D01*
X18641143Y-17994714D01*
X18712571Y-18137572D01*
X18712571Y-18423286D01*
X18641143Y-18566143D01*
X18498286Y-18709000D01*
X18212571Y-18780429D01*
X17712571Y-18780429D01*
X17426857Y-18709000D01*
X17284000Y-18566143D01*
X17212571Y-18423286D01*
X18712571Y-17137571D02*
X17212571Y-17137571D01*
X18284000Y-16637571D01*
X17212571Y-16137571D01*
X18712571Y-16137571D01*
X17212571Y-15494714D02*
X17498286Y-15494714D01*
X17212571Y-14923285D02*
X17498286Y-14923285D01*
X21112571Y-24780428D02*
X19612571Y-24780428D01*
X20684000Y-24280428D01*
X19612571Y-23780428D01*
X21112571Y-23780428D01*
X21112571Y-22851856D02*
X21041143Y-22994714D01*
X20969714Y-23066142D01*
X20826857Y-23137571D01*
X20398286Y-23137571D01*
X20255429Y-23066142D01*
X20184000Y-22994714D01*
X20112571Y-22851856D01*
X20112571Y-22637571D01*
X20184000Y-22494714D01*
X20255429Y-22423285D01*
X20398286Y-22351856D01*
X20826857Y-22351856D01*
X20969714Y-22423285D01*
X21041143Y-22494714D01*
X21112571Y-22637571D01*
X21112571Y-22851856D01*
X21112571Y-21066142D02*
X19612571Y-21066142D01*
X21041143Y-21066142D02*
X21112571Y-21208999D01*
X21112571Y-21494713D01*
X21041143Y-21637571D01*
X20969714Y-21708999D01*
X20826857Y-21780428D01*
X20398286Y-21780428D01*
X20255429Y-21708999D01*
X20184000Y-21637571D01*
X20112571Y-21494713D01*
X20112571Y-21208999D01*
X20184000Y-21066142D01*
X20112571Y-19708999D02*
X21112571Y-19708999D01*
X20112571Y-20351856D02*
X20898286Y-20351856D01*
X21041143Y-20280428D01*
X21112571Y-20137570D01*
X21112571Y-19923285D01*
X21041143Y-19780428D01*
X20969714Y-19708999D01*
X21112571Y-18780427D02*
X21041143Y-18923285D01*
X20898286Y-18994713D01*
X19612571Y-18994713D01*
X21041143Y-17637571D02*
X21112571Y-17780428D01*
X21112571Y-18066142D01*
X21041143Y-18208999D01*
X20898286Y-18280428D01*
X20326857Y-18280428D01*
X20184000Y-18208999D01*
X20112571Y-18066142D01*
X20112571Y-17780428D01*
X20184000Y-17637571D01*
X20326857Y-17566142D01*
X20469714Y-17566142D01*
X20612571Y-18280428D01*
D12*
X9258476Y-12766762D02*
X9496571Y-12766762D01*
X9258476Y-12290571D02*
X9496571Y-12290571D01*
X10508476Y-11040571D02*
X9913238Y-11457238D01*
X10508476Y-11754857D02*
X9258476Y-11754857D01*
X9258476Y-11278666D01*
X9318000Y-11159619D01*
X9377524Y-11100095D01*
X9496571Y-11040571D01*
X9675143Y-11040571D01*
X9794190Y-11100095D01*
X9853714Y-11159619D01*
X9913238Y-11278666D01*
X9913238Y-11754857D01*
X9258476Y-10266762D02*
X9258476Y-10028666D01*
X9318000Y-9909619D01*
X9437048Y-9790571D01*
X9675143Y-9731047D01*
X10091810Y-9731047D01*
X10329905Y-9790571D01*
X10448952Y-9909619D01*
X10508476Y-10028666D01*
X10508476Y-10266762D01*
X10448952Y-10385809D01*
X10329905Y-10504857D01*
X10091810Y-10564381D01*
X9675143Y-10564381D01*
X9437048Y-10504857D01*
X9318000Y-10385809D01*
X9258476Y-10266762D01*
X10508476Y-9195333D02*
X9258476Y-9195333D01*
X10151333Y-8778666D01*
X9258476Y-8362000D01*
X10508476Y-8362000D01*
X9258476Y-7826286D02*
X9496571Y-7826286D01*
X9258476Y-7350095D02*
X9496571Y-7350095D01*
X12458476Y-12409620D02*
X11803714Y-12409620D01*
X11684667Y-12469143D01*
X11625143Y-12588191D01*
X11625143Y-12826286D01*
X11684667Y-12945334D01*
X12398952Y-12409620D02*
X12458476Y-12528667D01*
X12458476Y-12826286D01*
X12398952Y-12945334D01*
X12279905Y-13004858D01*
X12160857Y-13004858D01*
X12041810Y-12945334D01*
X11982286Y-12826286D01*
X11982286Y-12528667D01*
X11922762Y-12409620D01*
X12398952Y-11278668D02*
X12458476Y-11397715D01*
X12458476Y-11635811D01*
X12398952Y-11754858D01*
X12339429Y-11814382D01*
X12220381Y-11873906D01*
X11863238Y-11873906D01*
X11744190Y-11814382D01*
X11684667Y-11754858D01*
X11625143Y-11635811D01*
X11625143Y-11397715D01*
X11684667Y-11278668D01*
X11625143Y-10921524D02*
X11625143Y-10445334D01*
X11208476Y-10742953D02*
X12279905Y-10742953D01*
X12398952Y-10683429D01*
X12458476Y-10564382D01*
X12458476Y-10445334D01*
X12458476Y-10028667D02*
X11625143Y-10028667D01*
X11208476Y-10028667D02*
X11268000Y-10088191D01*
X11327524Y-10028667D01*
X11268000Y-9969143D01*
X11208476Y-10028667D01*
X11327524Y-10028667D01*
X11625143Y-9552477D02*
X12458476Y-9254858D01*
X11625143Y-8957238D01*
X12398952Y-8004857D02*
X12458476Y-8123905D01*
X12458476Y-8362000D01*
X12398952Y-8481048D01*
X12279905Y-8540572D01*
X11803714Y-8540572D01*
X11684667Y-8481048D01*
X11625143Y-8362000D01*
X11625143Y-8123905D01*
X11684667Y-8004857D01*
X11803714Y-7945334D01*
X11922762Y-7945334D01*
X12041810Y-8540572D01*
X12339429Y-7409619D02*
X12398952Y-7350095D01*
X12458476Y-7409619D01*
X12398952Y-7469143D01*
X12339429Y-7409619D01*
X12458476Y-7409619D01*
X11684667Y-7409619D02*
X11744190Y-7350095D01*
X11803714Y-7409619D01*
X11744190Y-7469143D01*
X11684667Y-7409619D01*
X11803714Y-7409619D01*
X14408476Y-11873905D02*
X13158476Y-11873905D01*
X13158476Y-11397714D01*
X13218000Y-11278667D01*
X13277524Y-11219143D01*
X13396571Y-11159619D01*
X13575143Y-11159619D01*
X13694190Y-11219143D01*
X13753714Y-11278667D01*
X13813238Y-11397714D01*
X13813238Y-11873905D01*
X13158476Y-10802476D02*
X14408476Y-10385810D01*
X13158476Y-9969143D01*
X13753714Y-9552476D02*
X13753714Y-8600095D01*
X14110857Y-8600095D02*
X14110857Y-9552476D01*
X13158476Y-7766762D02*
X13158476Y-7647714D01*
X13218000Y-7528666D01*
X13277524Y-7469143D01*
X13396571Y-7409619D01*
X13634667Y-7350095D01*
X13932286Y-7350095D01*
X14170381Y-7409619D01*
X14289429Y-7469143D01*
X14348952Y-7528666D01*
X14408476Y-7647714D01*
X14408476Y-7766762D01*
X14348952Y-7885809D01*
X14289429Y-7945333D01*
X14170381Y-8004857D01*
X13932286Y-8064381D01*
X13634667Y-8064381D01*
X13396571Y-8004857D01*
X13277524Y-7945333D01*
X13218000Y-7885809D01*
X13158476Y-7766762D01*
X15703714Y-10623904D02*
X15763238Y-10445333D01*
X15822762Y-10385809D01*
X15941810Y-10326285D01*
X16120381Y-10326285D01*
X16239429Y-10385809D01*
X16298952Y-10445333D01*
X16358476Y-10564380D01*
X16358476Y-11040571D01*
X15108476Y-11040571D01*
X15108476Y-10623904D01*
X15168000Y-10504857D01*
X15227524Y-10445333D01*
X15346571Y-10385809D01*
X15465619Y-10385809D01*
X15584667Y-10445333D01*
X15644190Y-10504857D01*
X15703714Y-10623904D01*
X15703714Y-11040571D01*
X16358476Y-9612000D02*
X16298952Y-9731047D01*
X16239429Y-9790571D01*
X16120381Y-9850095D01*
X15763238Y-9850095D01*
X15644190Y-9790571D01*
X15584667Y-9731047D01*
X15525143Y-9612000D01*
X15525143Y-9433428D01*
X15584667Y-9314380D01*
X15644190Y-9254857D01*
X15763238Y-9195333D01*
X16120381Y-9195333D01*
X16239429Y-9254857D01*
X16298952Y-9314380D01*
X16358476Y-9433428D01*
X16358476Y-9612000D01*
X15525143Y-8838190D02*
X15525143Y-8362000D01*
X15108476Y-8659619D02*
X16179905Y-8659619D01*
X16298952Y-8600095D01*
X16358476Y-8481048D01*
X16358476Y-8362000D01*
X16358476Y-7945333D02*
X15108476Y-7945333D01*
X16358476Y-7409619D02*
X15703714Y-7409619D01*
X15584667Y-7469142D01*
X15525143Y-7588190D01*
X15525143Y-7766762D01*
X15584667Y-7885809D01*
X15644190Y-7945333D01*
X18308476Y-11873905D02*
X17058476Y-11873905D01*
X17058476Y-11397714D01*
X17118000Y-11278667D01*
X17177524Y-11219143D01*
X17296571Y-11159619D01*
X17475143Y-11159619D01*
X17594190Y-11219143D01*
X17653714Y-11278667D01*
X17713238Y-11397714D01*
X17713238Y-11873905D01*
X17058476Y-10802476D02*
X18308476Y-10385810D01*
X17058476Y-9969143D01*
X17653714Y-9552476D02*
X17653714Y-8600095D01*
X18010857Y-8600095D02*
X18010857Y-9552476D01*
X18308476Y-7350095D02*
X18308476Y-8064381D01*
X18308476Y-7707238D02*
X17058476Y-7707238D01*
X17237048Y-7826286D01*
X17356095Y-7945333D01*
X17415619Y-8064381D01*
D13*
X31201000Y-3107000D02*
X26203000Y-3107000D01*
X31193000Y-3247000D02*
X28856000Y-3247000D01*
X28548000Y-3247000D02*
X26211000Y-3247000D01*
X31177000Y-3387000D02*
X29175000Y-3387000D01*
X28229000Y-3387000D02*
X26227000Y-3387000D01*
X31153000Y-3527000D02*
X29322000Y-3527000D01*
X28082000Y-3527000D02*
X26251000Y-3527000D01*
X31120000Y-3667000D02*
X29414000Y-3667000D01*
X27990000Y-3667000D02*
X26284000Y-3667000D01*
X31079000Y-3807000D02*
X29470000Y-3807000D01*
X27934000Y-3807000D02*
X26325000Y-3807000D01*
X31029000Y-3947000D02*
X29497000Y-3947000D01*
X27907000Y-3947000D02*
X26375000Y-3947000D01*
X30968000Y-4087000D02*
X29500000Y-4087000D01*
X27904000Y-4087000D02*
X26436000Y-4087000D01*
X30898000Y-4227000D02*
X29478000Y-4227000D01*
X27926000Y-4227000D02*
X26506000Y-4227000D01*
X30816000Y-4367000D02*
X29428000Y-4367000D01*
X27976000Y-4367000D02*
X26588000Y-4367000D01*
X30721000Y-4507000D02*
X29346000Y-4507000D01*
X28058000Y-4507000D02*
X26683000Y-4507000D01*
X30610000Y-4647000D02*
X29214000Y-4647000D01*
X28190000Y-4647000D02*
X26794000Y-4647000D01*
X30482000Y-4787000D02*
X28967000Y-4787000D01*
X28437000Y-4787000D02*
X26922000Y-4787000D01*
X30333000Y-4927000D02*
X27071000Y-4927000D01*
X30154000Y-5067000D02*
X27250000Y-5067000D01*
X29935000Y-5207000D02*
X27469000Y-5207000D01*
X29646000Y-5347000D02*
X27758000Y-5347000D01*
X29174000Y-5487000D02*
X28230000Y-5487000D01*
X29502000Y-4032000D02*
G75*
G03X29502000Y-4032000I-800000J0D01*
G01*
X31239500Y-3032000D02*
G75*
G03X31239500Y-3032000I-2537500J0D01*
G01*
X32859143Y-3198666D02*
X32906762Y-3246285D01*
X32954381Y-3389142D01*
X32954381Y-3484380D01*
X32906762Y-3627238D01*
X32811524Y-3722476D01*
X32716286Y-3770095D01*
X32525810Y-3817714D01*
X32382952Y-3817714D01*
X32192476Y-3770095D01*
X32097238Y-3722476D01*
X32002000Y-3627238D01*
X31954381Y-3484380D01*
X31954381Y-3389142D01*
X32002000Y-3246285D01*
X32049619Y-3198666D01*
X32954381Y-2246285D02*
X32954381Y-2817714D01*
X32954381Y-2532000D02*
X31954381Y-2532000D01*
X32097238Y-2627238D01*
X32192476Y-2722476D01*
X32240095Y-2817714D01*
%LPC*%
D14*
X36322000Y-27178000D03*
D15*
X36322000Y-15748000D03*
D14*
X36322000Y-4318000D03*
D16*
X3683000Y-2540000D03*
D17*
X4191000Y-3810000D03*
X4191000Y-5080000D03*
X4191000Y-6350000D03*
X4191000Y-7620000D03*
X4191000Y-8890000D03*
X4191000Y-10160000D03*
X4191000Y-11430000D03*
X4191000Y-12700000D03*
X4191000Y-13970000D03*
X4191000Y-15240000D03*
X4191000Y-16510000D03*
X4191000Y-17780000D03*
X4191000Y-19050000D03*
X4191000Y-20320000D03*
X4191000Y-21590000D03*
X4191000Y-22860000D03*
X4191000Y-24130000D03*
X4191000Y-25400000D03*
D16*
X3683000Y-26670000D03*
D18*
X18748000Y-2060000D03*
X17248000Y-2060000D03*
X12748000Y-2060000D03*
D19*
X20398000Y-4910000D03*
X20398000Y-2710000D03*
X11098000Y-2710000D03*
X11098000Y-4910000D03*
D18*
X14248000Y-2060000D03*
D20*
X28702000Y-2032000D03*
D21*
X28702000Y-4032000D03*
M02*
