%FSLAX46Y46*%
G04 Gerber Fmt 4.6, Leading zero omitted, Abs format (unit mm)*
G04 Created by KiCad (PCBNEW (2014-10-27 BZR 5228)-product) date 5/3/2015 5:28:48 PM*
%MOMM*%
G01*
G04 APERTURE LIST*
%ADD10C,0.100000*%
%ADD11R,6.350000X1.016000*%
%ADD12R,7.366000X1.016000*%
%ADD13R,0.800100X0.800100*%
%ADD14R,0.406400X1.397000*%
%ADD15R,0.600000X1.500000*%
%ADD16R,1.300000X1.300000*%
%ADD17C,1.300000*%
%ADD18C,0.635000*%
%ADD19C,0.228600*%
%ADD20C,0.254000*%
G04 APERTURE END LIST*
D10*
D11*
X4191000Y-20320000D03*
D12*
X3683000Y-2540000D03*
D11*
X4191000Y-3810000D03*
X4191000Y-5080000D03*
X4191000Y-6350000D03*
X4191000Y-7620000D03*
X4191000Y-8890000D03*
X4191000Y-10160000D03*
X4191000Y-11430000D03*
X4191000Y-12700000D03*
X4191000Y-13970000D03*
X4191000Y-15240000D03*
X4191000Y-16510000D03*
X4191000Y-17780000D03*
X4191000Y-19050000D03*
X4191000Y-21590000D03*
X4191000Y-22860000D03*
X4191000Y-24130000D03*
X4191000Y-25400000D03*
D12*
X3683000Y-26670000D03*
D13*
X25842000Y-4302760D03*
X23942000Y-4302760D03*
X24892000Y-2303780D03*
D14*
X31115000Y-26416000D03*
X29845000Y-26416000D03*
X28575000Y-26416000D03*
X27305000Y-26416000D03*
X26035000Y-26416000D03*
X24765000Y-26416000D03*
X23495000Y-26416000D03*
X22225000Y-26416000D03*
X20955000Y-26416000D03*
X19685000Y-26416000D03*
X18415000Y-26416000D03*
X17145000Y-26416000D03*
X15875000Y-26416000D03*
X14605000Y-26416000D03*
X13335000Y-26416000D03*
X12065000Y-26416000D03*
X31115000Y-13716000D03*
X29845000Y-13716000D03*
X28575000Y-13716000D03*
X27305000Y-13716000D03*
X26035000Y-13716000D03*
X24765000Y-13716000D03*
X23495000Y-13716000D03*
X22225000Y-13716000D03*
X20955000Y-13716000D03*
X19685000Y-13716000D03*
X18415000Y-13716000D03*
X17145000Y-13716000D03*
X15875000Y-13716000D03*
X14605000Y-13716000D03*
X13335000Y-13716000D03*
X12065000Y-13716000D03*
D15*
X20447000Y-7526000D03*
X19177000Y-7526000D03*
X17907000Y-7526000D03*
X16637000Y-7526000D03*
X15367000Y-7526000D03*
X14097000Y-7526000D03*
X12827000Y-7526000D03*
X11557000Y-7526000D03*
X11557000Y-2126000D03*
X12827000Y-2126000D03*
X14097000Y-2126000D03*
X15367000Y-2126000D03*
X16637000Y-2126000D03*
X17907000Y-2126000D03*
X19177000Y-2126000D03*
X20447000Y-2126000D03*
D16*
X28702000Y-2032000D03*
D17*
X28702000Y-4032000D03*
D18*
X20447000Y-1651000D03*
X22860000Y-3683000D03*
X23495000Y-17272000D03*
X20955000Y-14732000D03*
X26670000Y-27686000D03*
X10477500Y-27051000D03*
X17145000Y-12700000D03*
X15875000Y-12700000D03*
X14605000Y-12700000D03*
X13335000Y-12700000D03*
X12065000Y-12700000D03*
X12700000Y-22479000D03*
X13462000Y-23241000D03*
X14351000Y-22098000D03*
X22860000Y-1397000D03*
X25400000Y-23368000D03*
X25654000Y-9398000D03*
X11557000Y-8636000D03*
X12065000Y-25019000D03*
X32385000Y-25146000D03*
X15367000Y-5143500D03*
X22288500Y-2095500D03*
X8382000Y-3810000D03*
X18669000Y-9334500D03*
X8318500Y-5016500D03*
X10160000Y-7493000D03*
X20574000Y-10541000D03*
X18415000Y-12700000D03*
X26035000Y-16637000D03*
X26035000Y-10795000D03*
X29845000Y-27559000D03*
X30416500Y-6032500D03*
X11557000Y-1397000D03*
X18288000Y-5080000D03*
X14097000Y-8636000D03*
X17907000Y-8636000D03*
D19*
X20447000Y-1651000D02*
X20447000Y-2126000D01*
X22860000Y-3683000D02*
X21303000Y-2126000D01*
X21303000Y-2126000D02*
X20447000Y-2126000D01*
X23942000Y-4302760D02*
X23479760Y-4302760D01*
X20447000Y-1651000D02*
X20447000Y-2126000D01*
X23479760Y-4302760D02*
X22860000Y-3683000D01*
X28575000Y-13716000D02*
X28575000Y-12827000D01*
X23942000Y-5146000D02*
X23942000Y-4302760D01*
X24587202Y-5791202D02*
X23942000Y-5146000D01*
X25949456Y-5791202D02*
X24587202Y-5791202D01*
X27117860Y-6959606D02*
X25949456Y-5791202D01*
X29528620Y-6959606D02*
X27117860Y-6959606D01*
X30200596Y-7631582D02*
X29528620Y-6959606D01*
X30200596Y-11824822D02*
X30200596Y-7631582D01*
X29706418Y-12319000D02*
X30200596Y-11824822D01*
X29083000Y-12319000D02*
X29706418Y-12319000D01*
X28575000Y-12827000D02*
X29083000Y-12319000D01*
X10409520Y-9601192D02*
X9624356Y-9601192D01*
X26035000Y-12561418D02*
X25462380Y-11988798D01*
X25462380Y-11988798D02*
X22679962Y-11988798D01*
X22679962Y-11988798D02*
X22089969Y-11398805D01*
X22089969Y-11398805D02*
X20196551Y-11398805D01*
X20196551Y-11398805D02*
X19364140Y-10566394D01*
X19364140Y-10566394D02*
X11374722Y-10566394D01*
X11374722Y-10566394D02*
X10409520Y-9601192D01*
X26035000Y-13716000D02*
X26035000Y-12561418D01*
X7493000Y-6350000D02*
X4191000Y-6350000D01*
X7874000Y-6731000D02*
X7493000Y-6350000D01*
X7874000Y-7227418D02*
X7874000Y-6731000D01*
X8585202Y-7938620D02*
X7874000Y-7227418D01*
X8585202Y-8562038D02*
X8585202Y-7938620D01*
X9624356Y-9601192D02*
X8585202Y-8562038D01*
X10718798Y-13143380D02*
X10718798Y-14794380D01*
X4191000Y-12700000D02*
X10275418Y-12700000D01*
X10718798Y-13143380D02*
X10275418Y-12700000D01*
X24765000Y-14720418D02*
X24765000Y-13716000D01*
X24042216Y-15443202D02*
X24765000Y-14720418D01*
X22287380Y-15443202D02*
X24042216Y-15443202D01*
X21779380Y-15951202D02*
X22287380Y-15443202D01*
X20384620Y-15951202D02*
X21779380Y-15951202D01*
X19876620Y-15443202D02*
X20384620Y-15951202D01*
X11367620Y-15443202D02*
X19876620Y-15443202D01*
X10718798Y-14794380D02*
X11367620Y-15443202D01*
X11176000Y-12954000D02*
X11176000Y-14605000D01*
X11176000Y-12954000D02*
X9652000Y-11430000D01*
X4191000Y-11430000D02*
X9652000Y-11430000D01*
X23495000Y-14732000D02*
X23495000Y-13716000D01*
X23241000Y-14986000D02*
X23495000Y-14732000D01*
X22098000Y-14986000D02*
X23241000Y-14986000D01*
X21590000Y-15494000D02*
X22098000Y-14986000D01*
X20574000Y-15494000D02*
X21590000Y-15494000D01*
X20066000Y-14986000D02*
X20574000Y-15494000D01*
X11557000Y-14986000D02*
X20066000Y-14986000D01*
X11176000Y-14605000D02*
X11557000Y-14986000D01*
X22225000Y-13716000D02*
X22225000Y-12827000D01*
X7620000Y-8890000D02*
X4191000Y-8890000D01*
X9245596Y-10515596D02*
X7620000Y-8890000D01*
X10030760Y-10515596D02*
X9245596Y-10515596D01*
X10995962Y-11480798D02*
X10030760Y-10515596D01*
X18985380Y-11480798D02*
X10995962Y-11480798D01*
X19817791Y-12313209D02*
X18985380Y-11480798D01*
X21711209Y-12313209D02*
X19817791Y-12313209D01*
X22225000Y-12827000D02*
X21711209Y-12313209D01*
X26670000Y-20458582D02*
X23495000Y-17283582D01*
X23495000Y-17283582D02*
X23495000Y-17272000D01*
X20955000Y-14732000D02*
X20955000Y-13716000D01*
X10477500Y-27051000D02*
X7556500Y-24130000D01*
X4191000Y-24130000D02*
X7556500Y-24130000D01*
X26670000Y-27686000D02*
X26670000Y-20458582D01*
X19685000Y-13716000D02*
X19685000Y-12827000D01*
X7620000Y-10160000D02*
X4191000Y-10160000D01*
X8432798Y-10972798D02*
X7620000Y-10160000D01*
X9841380Y-10972798D02*
X8432798Y-10972798D01*
X10806582Y-11938000D02*
X9841380Y-10972798D01*
X18796000Y-11938000D02*
X10806582Y-11938000D01*
X19685000Y-12827000D02*
X18796000Y-11938000D01*
X17145000Y-13716000D02*
X17145000Y-12700000D01*
X15875000Y-13716000D02*
X15875000Y-12700000D01*
X14605000Y-12700000D02*
X14605000Y-13716000D01*
X13335000Y-13716000D02*
X13335000Y-12700000D01*
X12065000Y-13716000D02*
X12065000Y-12700000D01*
X13787742Y-18948414D02*
X8368168Y-18948414D01*
X19685000Y-25527000D02*
X18980709Y-24822709D01*
X18980709Y-24822709D02*
X18357291Y-24822709D01*
X18357291Y-24822709D02*
X18059404Y-24524822D01*
X18059404Y-24524822D02*
X18059404Y-23220076D01*
X18059404Y-23220076D02*
X13787742Y-18948414D01*
X19685000Y-26416000D02*
X19685000Y-25527000D01*
X7747000Y-20320000D02*
X4191000Y-20320000D01*
X8001000Y-20066000D02*
X7747000Y-20320000D01*
X8001000Y-19315582D02*
X8001000Y-20066000D01*
X8368168Y-18948414D02*
X8001000Y-19315582D01*
X13598362Y-19405616D02*
X9931384Y-19405616D01*
X18415000Y-25527000D02*
X17602202Y-24714202D01*
X17602202Y-24714202D02*
X17602202Y-23409456D01*
X17602202Y-23409456D02*
X13598362Y-19405616D01*
X18415000Y-26416000D02*
X18415000Y-25527000D01*
X7747000Y-21590000D02*
X4191000Y-21590000D01*
X9931384Y-19405616D02*
X7747000Y-21590000D01*
X13408982Y-19862818D02*
X10120764Y-19862818D01*
X17145000Y-23598836D02*
X13408982Y-19862818D01*
X17145000Y-26416000D02*
X17145000Y-23598836D01*
X7747000Y-22860000D02*
X4191000Y-22860000D01*
X8255000Y-22352000D02*
X7747000Y-22860000D01*
X8255000Y-21728582D02*
X8255000Y-22352000D01*
X10120764Y-19862818D02*
X8255000Y-21728582D01*
X15875000Y-26416000D02*
X15875000Y-23622000D01*
X13716000Y-22479000D02*
X12700000Y-22479000D01*
X14020798Y-22783798D02*
X13716000Y-22479000D01*
X15036798Y-22783798D02*
X14020798Y-22783798D01*
X15875000Y-23622000D02*
X15036798Y-22783798D01*
X14605000Y-26416000D02*
X14605000Y-25400000D01*
X14847418Y-23241000D02*
X13462000Y-23241000D01*
X15417798Y-23811380D02*
X14847418Y-23241000D01*
X15417798Y-24587202D02*
X15417798Y-23811380D01*
X14605000Y-25400000D02*
X15417798Y-24587202D01*
X16510000Y-27559000D02*
X16510000Y-23610418D01*
X16256000Y-27813000D02*
X16510000Y-27559000D01*
X13589000Y-27813000D02*
X16256000Y-27813000D01*
X13335000Y-27559000D02*
X13589000Y-27813000D01*
X13335000Y-26416000D02*
X13335000Y-27559000D01*
X14997582Y-22098000D02*
X14351000Y-22098000D01*
X16510000Y-23610418D02*
X14997582Y-22098000D01*
X7620000Y-2540000D02*
X9728202Y-431798D01*
X9728202Y-431798D02*
X21894798Y-431798D01*
X21894798Y-431798D02*
X22860000Y-1397000D01*
X7620000Y-2540000D02*
X3683000Y-2540000D01*
X11557000Y-8636000D02*
X11557000Y-7526000D01*
X12065000Y-26416000D02*
X12065000Y-25019000D01*
X3683000Y-26670000D02*
X7620000Y-26670000D01*
X32385000Y-27305000D02*
X32385000Y-25146000D01*
X30861000Y-28829000D02*
X32385000Y-27305000D01*
X9779000Y-28829000D02*
X30861000Y-28829000D01*
X7620000Y-26670000D02*
X9779000Y-28829000D01*
X27305000Y-20447000D02*
X24384000Y-17526000D01*
X8128000Y-8128000D02*
X7620000Y-7620000D01*
X4191000Y-7620000D02*
X7620000Y-7620000D01*
X25273000Y-12446000D02*
X22490582Y-12446000D01*
X27305000Y-20447000D02*
X27305000Y-26416000D01*
X25273000Y-12446000D02*
X25400000Y-12573000D01*
X8128000Y-8751418D02*
X8128000Y-8128000D01*
X9434976Y-10058394D02*
X8128000Y-8751418D01*
X10220140Y-10058394D02*
X9434976Y-10058394D01*
X11185342Y-11023596D02*
X10220140Y-10058394D01*
X19174760Y-11023596D02*
X11185342Y-11023596D01*
X20007171Y-11856007D02*
X19174760Y-11023596D01*
X21900589Y-11856007D02*
X20007171Y-11856007D01*
X22490582Y-12446000D02*
X21900589Y-11856007D01*
X25400000Y-14732000D02*
X25400000Y-12573000D01*
X24384000Y-15748000D02*
X25400000Y-14732000D01*
X24384000Y-17526000D02*
X24384000Y-15748000D01*
X14734642Y-16662404D02*
X9065568Y-16662404D01*
X26035000Y-25527000D02*
X25584709Y-25076709D01*
X25584709Y-25076709D02*
X24961291Y-25076709D01*
X24961291Y-25076709D02*
X23983387Y-24098805D01*
X23983387Y-24098805D02*
X22736551Y-24098805D01*
X22736551Y-24098805D02*
X21758647Y-23120901D01*
X21758647Y-23120901D02*
X20511811Y-23120901D01*
X20511811Y-23120901D02*
X20345414Y-22954504D01*
X20345414Y-22954504D02*
X20345414Y-22273176D01*
X20345414Y-22273176D02*
X14734642Y-16662404D01*
X26035000Y-26416000D02*
X26035000Y-25527000D01*
X7620000Y-13970000D02*
X4191000Y-13970000D01*
X8331202Y-14681202D02*
X7620000Y-13970000D01*
X8331202Y-15928038D02*
X8331202Y-14681202D01*
X9065568Y-16662404D02*
X8331202Y-15928038D01*
X14545262Y-17119606D02*
X8876188Y-17119606D01*
X24765000Y-25527000D02*
X23794007Y-24556007D01*
X23794007Y-24556007D02*
X22547171Y-24556007D01*
X22547171Y-24556007D02*
X21569267Y-23578103D01*
X21569267Y-23578103D02*
X20322431Y-23578103D01*
X20322431Y-23578103D02*
X19888212Y-23143884D01*
X19888212Y-23143884D02*
X19888212Y-22462556D01*
X19888212Y-22462556D02*
X14545262Y-17119606D01*
X24765000Y-26416000D02*
X24765000Y-25527000D01*
X7620000Y-15240000D02*
X4191000Y-15240000D01*
X7874000Y-15494000D02*
X7620000Y-15240000D01*
X7874000Y-16117418D02*
X7874000Y-15494000D01*
X8876188Y-17119606D02*
X7874000Y-16117418D01*
X14355882Y-17576808D02*
X8686808Y-17576808D01*
X23495000Y-25527000D02*
X22981209Y-25013209D01*
X22981209Y-25013209D02*
X22357791Y-25013209D01*
X22357791Y-25013209D02*
X21379887Y-24035305D01*
X21379887Y-24035305D02*
X20133051Y-24035305D01*
X20133051Y-24035305D02*
X19431010Y-23333264D01*
X19431010Y-23333264D02*
X19431010Y-22651936D01*
X19431010Y-22651936D02*
X14355882Y-17576808D01*
X23495000Y-26416000D02*
X23495000Y-25527000D01*
X7620000Y-16510000D02*
X4191000Y-16510000D01*
X8686808Y-17576808D02*
X7620000Y-16510000D01*
X14166502Y-18034010D02*
X8255010Y-18034010D01*
X22225000Y-25527000D02*
X21190507Y-24492507D01*
X21190507Y-24492507D02*
X19943671Y-24492507D01*
X19943671Y-24492507D02*
X18973808Y-23522644D01*
X18973808Y-23522644D02*
X18973808Y-22841316D01*
X18973808Y-22841316D02*
X14166502Y-18034010D01*
X22225000Y-26416000D02*
X22225000Y-25527000D01*
X8001000Y-17780000D02*
X4191000Y-17780000D01*
X8255010Y-18034010D02*
X8001000Y-17780000D01*
X13977122Y-18491212D02*
X8178788Y-18491212D01*
X20955000Y-25527000D02*
X20377709Y-24949709D01*
X20377709Y-24949709D02*
X19754291Y-24949709D01*
X19754291Y-24949709D02*
X18516606Y-23712024D01*
X18516606Y-23712024D02*
X18516606Y-23030696D01*
X18516606Y-23030696D02*
X13977122Y-18491212D01*
X20955000Y-26416000D02*
X20955000Y-25527000D01*
X7620000Y-19050000D02*
X4191000Y-19050000D01*
X8178788Y-18491212D02*
X7620000Y-19050000D01*
X15367000Y-2126000D02*
X15367000Y-5143500D01*
X12827000Y-2126000D02*
X12827000Y-2794000D01*
X12827000Y-2794000D02*
X11811000Y-3810000D01*
X11811000Y-3810000D02*
X8382000Y-3810000D01*
X23495000Y-3302000D02*
X22288500Y-2095500D01*
X22288500Y-2095500D02*
X21082000Y-889000D01*
X29845000Y-13716000D02*
X29845000Y-12827000D01*
X24638000Y-3302000D02*
X23495000Y-3302000D01*
X24892000Y-3556000D02*
X24638000Y-3302000D01*
X24892000Y-4953000D02*
X24892000Y-3556000D01*
X25273000Y-5334000D02*
X24892000Y-4953000D01*
X26138836Y-5334000D02*
X25273000Y-5334000D01*
X27307240Y-6502404D02*
X26138836Y-5334000D01*
X29718000Y-6502404D02*
X27307240Y-6502404D01*
X30657798Y-7442202D02*
X29718000Y-6502404D01*
X30657798Y-12014202D02*
X30657798Y-7442202D01*
X29845000Y-12827000D02*
X30657798Y-12014202D01*
X12827000Y-1270000D02*
X12827000Y-2126000D01*
X13208000Y-889000D02*
X12827000Y-1270000D01*
X21082000Y-889000D02*
X13208000Y-889000D01*
X18732500Y-9271000D02*
X18669000Y-9334500D01*
X8331202Y-5029202D02*
X8318500Y-5016500D01*
X28397202Y-20246038D02*
X25298404Y-17147240D01*
X28397202Y-20246038D02*
X28397202Y-25222202D01*
X28397202Y-25222202D02*
X28575000Y-25400000D01*
X28575000Y-26416000D02*
X28575000Y-25400000D01*
X22869342Y-11531596D02*
X20608746Y-9271000D01*
X25651760Y-11531596D02*
X22869342Y-11531596D01*
X26110082Y-11989918D02*
X25651760Y-11531596D01*
X27483918Y-11989918D02*
X26110082Y-11989918D01*
X27940000Y-14732000D02*
X27940000Y-12446000D01*
X27228798Y-15443202D02*
X27940000Y-14732000D01*
X25981962Y-15443202D02*
X27228798Y-15443202D01*
X25298404Y-16126760D02*
X25981962Y-15443202D01*
X25298404Y-17147240D02*
X25298404Y-16126760D01*
X27940000Y-12446000D02*
X27483918Y-11989918D01*
X20608746Y-9271000D02*
X18732500Y-9271000D01*
X8331202Y-5029202D02*
X8318500Y-5016500D01*
X10160000Y-7493000D02*
X8786164Y-7493000D01*
X8786164Y-7493000D02*
X8331202Y-7038038D01*
X8331202Y-7038038D02*
X8331202Y-5029202D01*
X28702000Y-2032000D02*
X30226000Y-2032000D01*
X31115000Y-2921000D02*
X31115000Y-13716000D01*
X30226000Y-2032000D02*
X31115000Y-2921000D01*
X24892000Y-2303780D02*
X26525220Y-2303780D01*
X26797000Y-2032000D02*
X28702000Y-2032000D01*
X26525220Y-2303780D02*
X26797000Y-2032000D01*
X10490202Y-28270202D02*
X7620000Y-25400000D01*
X4191000Y-25400000D02*
X7620000Y-25400000D01*
X26339798Y-28371798D02*
X25654000Y-27686000D01*
X25654000Y-27686000D02*
X17029582Y-27686000D01*
X17029582Y-27686000D02*
X16445380Y-28270202D01*
X16445380Y-28270202D02*
X10490202Y-28270202D01*
X27940000Y-20435418D02*
X24841202Y-17336620D01*
X27940000Y-20435418D02*
X27940000Y-27432000D01*
X27940000Y-27432000D02*
X27000202Y-28371798D01*
X27305000Y-14605000D02*
X27305000Y-13716000D01*
X26924000Y-14986000D02*
X27305000Y-14605000D01*
X25792582Y-14986000D02*
X26924000Y-14986000D01*
X24841202Y-15937380D02*
X25792582Y-14986000D01*
X24841202Y-17336620D02*
X24841202Y-15937380D01*
X27000202Y-28371798D02*
X26339798Y-28371798D01*
X18415000Y-13716000D02*
X18415000Y-12700000D01*
X15367000Y-9017000D02*
X15367000Y-7526000D01*
X16459192Y-10109192D02*
X15367000Y-9017000D01*
X20142192Y-10109192D02*
X16459192Y-10109192D01*
X20574000Y-10541000D02*
X20142192Y-10109192D01*
X29845000Y-25527000D02*
X28854404Y-24536404D01*
X28854404Y-24536404D02*
X28854404Y-20056658D01*
X23058722Y-11074394D02*
X20798126Y-8813798D01*
X20798126Y-8813798D02*
X19735798Y-8813798D01*
X19177000Y-8255000D02*
X19735798Y-8813798D01*
X29845000Y-25527000D02*
X29845000Y-26416000D01*
X26035000Y-17237254D02*
X26035000Y-16637000D01*
X28854404Y-20056658D02*
X26035000Y-17237254D01*
X25755606Y-11074394D02*
X23058722Y-11074394D01*
X26035000Y-10795000D02*
X25755606Y-11074394D01*
X19177000Y-8255000D02*
X19177000Y-7526000D01*
X29845000Y-26416000D02*
X29845000Y-27559000D01*
X27496620Y-6045202D02*
X30403798Y-6045202D01*
X25842000Y-4390582D02*
X27496620Y-6045202D01*
X30403798Y-6045202D02*
X30416500Y-6032500D01*
X25842000Y-4302760D02*
X25842000Y-4390582D01*
X11557000Y-1397000D02*
X11557000Y-2126000D01*
X19177000Y-4191000D02*
X19177000Y-2126000D01*
X18288000Y-5080000D02*
X19177000Y-4191000D01*
X20447000Y-7526000D02*
X20447000Y-6604000D01*
X17094202Y-3606798D02*
X17907000Y-2794000D01*
X17094202Y-5842000D02*
X17094202Y-3606798D01*
X17475202Y-6223000D02*
X17094202Y-5842000D01*
X20066000Y-6223000D02*
X17475202Y-6223000D01*
X20447000Y-6604000D02*
X20066000Y-6223000D01*
X17907000Y-2794000D02*
X17907000Y-2126000D01*
X14097000Y-3175000D02*
X14605000Y-3683000D01*
X14605000Y-3683000D02*
X14605000Y-5461000D01*
X14605000Y-5461000D02*
X13843000Y-6223000D01*
X13843000Y-6223000D02*
X13081000Y-6223000D01*
X13081000Y-6223000D02*
X12827000Y-6477000D01*
X12827000Y-6477000D02*
X12827000Y-7526000D01*
X14097000Y-2126000D02*
X14097000Y-3175000D01*
X17907000Y-7526000D02*
X17907000Y-8636000D01*
X14097000Y-8636000D02*
X14097000Y-7526000D01*
X16637000Y-7526000D02*
X16637000Y-2126000D01*
D20*
G36*
X13020477Y-431000D02*
X13018456Y-431402D01*
X12857770Y-538770D01*
X12476770Y-919770D01*
X12417046Y-1009152D01*
X12417045Y-1009153D01*
X12311180Y-1053004D01*
X12211732Y-1152452D01*
X12149504Y-1001849D01*
X11953185Y-805186D01*
X11696550Y-698622D01*
X11418669Y-698379D01*
X11161849Y-804496D01*
X10965186Y-1000815D01*
X10858622Y-1257450D01*
X10858379Y-1535331D01*
X10876000Y-1577976D01*
X10876000Y-2951786D01*
X10934004Y-3091820D01*
X11041181Y-3198996D01*
X11181215Y-3257000D01*
X11332786Y-3257000D01*
X11663540Y-3257000D01*
X11605840Y-3314700D01*
X8874530Y-3314700D01*
X8778185Y-3218186D01*
X8521550Y-3111622D01*
X8243669Y-3111379D01*
X7986849Y-3217496D01*
X7980476Y-3223856D01*
X8001000Y-3174310D01*
X8001000Y-2921691D01*
X8001000Y-2825750D01*
X7842250Y-2667000D01*
X3810000Y-2667000D01*
X3810000Y-2687000D01*
X3556000Y-2687000D01*
X3556000Y-2667000D01*
X3536000Y-2667000D01*
X3536000Y-2413000D01*
X3556000Y-2413000D01*
X3556000Y-2393000D01*
X3810000Y-2393000D01*
X3810000Y-2413000D01*
X7842250Y-2413000D01*
X8001000Y-2254250D01*
X8001000Y-2158309D01*
X8001000Y-1905690D01*
X7904327Y-1672301D01*
X7725698Y-1493673D01*
X7525490Y-1410744D01*
X7575573Y-1360661D01*
X7575574Y-1360660D01*
X7575574Y-1360658D01*
X7685694Y-1195854D01*
X7750049Y-1040487D01*
X7750050Y-1040487D01*
X7788719Y-846083D01*
X7788718Y-803632D01*
X7797000Y-762000D01*
X7797000Y-550452D01*
X7810662Y-481763D01*
X7825523Y-459523D01*
X7847765Y-444662D01*
X7916448Y-431000D01*
X13020477Y-431000D01*
X13020477Y-431000D01*
G37*
X13020477Y-431000D02*
X13018456Y-431402D01*
X12857770Y-538770D01*
X12476770Y-919770D01*
X12417046Y-1009152D01*
X12417045Y-1009153D01*
X12311180Y-1053004D01*
X12211732Y-1152452D01*
X12149504Y-1001849D01*
X11953185Y-805186D01*
X11696550Y-698622D01*
X11418669Y-698379D01*
X11161849Y-804496D01*
X10965186Y-1000815D01*
X10858622Y-1257450D01*
X10858379Y-1535331D01*
X10876000Y-1577976D01*
X10876000Y-2951786D01*
X10934004Y-3091820D01*
X11041181Y-3198996D01*
X11181215Y-3257000D01*
X11332786Y-3257000D01*
X11663540Y-3257000D01*
X11605840Y-3314700D01*
X8874530Y-3314700D01*
X8778185Y-3218186D01*
X8521550Y-3111622D01*
X8243669Y-3111379D01*
X7986849Y-3217496D01*
X7980476Y-3223856D01*
X8001000Y-3174310D01*
X8001000Y-2921691D01*
X8001000Y-2825750D01*
X7842250Y-2667000D01*
X3810000Y-2667000D01*
X3810000Y-2687000D01*
X3556000Y-2687000D01*
X3556000Y-2667000D01*
X3536000Y-2667000D01*
X3536000Y-2413000D01*
X3556000Y-2413000D01*
X3556000Y-2393000D01*
X3810000Y-2393000D01*
X3810000Y-2413000D01*
X7842250Y-2413000D01*
X8001000Y-2254250D01*
X8001000Y-2158309D01*
X8001000Y-1905690D01*
X7904327Y-1672301D01*
X7725698Y-1493673D01*
X7525490Y-1410744D01*
X7575573Y-1360661D01*
X7575574Y-1360660D01*
X7575574Y-1360658D01*
X7685694Y-1195854D01*
X7750049Y-1040487D01*
X7750050Y-1040487D01*
X7788719Y-846083D01*
X7788718Y-803632D01*
X7797000Y-762000D01*
X7797000Y-550452D01*
X7810662Y-481763D01*
X7825523Y-459523D01*
X7847765Y-444662D01*
X7916448Y-431000D01*
X13020477Y-431000D01*
G36*
X14922498Y-24382042D02*
X14254770Y-25049770D01*
X14147402Y-25210456D01*
X14109700Y-25400000D01*
X14109700Y-25470784D01*
X14078804Y-25501681D01*
X14020800Y-25641715D01*
X14020800Y-25793286D01*
X14020800Y-27190286D01*
X14073576Y-27317700D01*
X13866422Y-27317700D01*
X13919200Y-27190285D01*
X13919200Y-27038714D01*
X13919200Y-25641714D01*
X13861196Y-25501680D01*
X13754019Y-25394504D01*
X13613985Y-25336500D01*
X13462414Y-25336500D01*
X13056014Y-25336500D01*
X12915980Y-25394504D01*
X12849335Y-25461149D01*
X12806527Y-25357802D01*
X12627899Y-25179173D01*
X12394510Y-25082500D01*
X12325350Y-25082500D01*
X12166600Y-25241250D01*
X12166600Y-26289000D01*
X12212000Y-26289000D01*
X12212000Y-26543000D01*
X12166600Y-26543000D01*
X12166600Y-27590750D01*
X12325350Y-27749500D01*
X12394510Y-27749500D01*
X12627899Y-27652827D01*
X12806527Y-27474198D01*
X12839700Y-27394111D01*
X12839700Y-27559000D01*
X12877402Y-27748544D01*
X12895014Y-27774902D01*
X11963400Y-27774902D01*
X11963400Y-27590750D01*
X11963400Y-26543000D01*
X11963400Y-26289000D01*
X11963400Y-25241250D01*
X11804650Y-25082500D01*
X11735490Y-25082500D01*
X11502101Y-25179173D01*
X11323473Y-25357802D01*
X11226800Y-25591191D01*
X11226800Y-26130250D01*
X11385550Y-26289000D01*
X11963400Y-26289000D01*
X11963400Y-26543000D01*
X11385550Y-26543000D01*
X11226800Y-26701750D01*
X11226800Y-27240809D01*
X11323473Y-27474198D01*
X11502101Y-27652827D01*
X11735490Y-27749500D01*
X11804650Y-27749500D01*
X11963400Y-27590750D01*
X11963400Y-27774902D01*
X10695362Y-27774902D01*
X10654219Y-27733759D01*
X10872651Y-27643504D01*
X11069314Y-27447185D01*
X11175878Y-27190550D01*
X11176121Y-26912669D01*
X11070004Y-26655849D01*
X10873685Y-26459186D01*
X10617050Y-26352622D01*
X10479461Y-26352501D01*
X7906730Y-23779770D01*
X7747000Y-23673041D01*
X7747000Y-23673040D01*
X7747000Y-23546214D01*
X7725786Y-23494999D01*
X7747000Y-23443785D01*
X7747000Y-23355300D01*
X7936543Y-23317598D01*
X7936544Y-23317598D01*
X8097230Y-23210230D01*
X8605230Y-22702230D01*
X8712597Y-22541544D01*
X8712598Y-22541543D01*
X8750300Y-22352000D01*
X8750300Y-21933742D01*
X10325924Y-20358118D01*
X13203822Y-20358118D01*
X14245111Y-21399407D01*
X14212669Y-21399379D01*
X13955849Y-21505496D01*
X13759186Y-21701815D01*
X13652622Y-21958450D01*
X13652599Y-21983700D01*
X13192530Y-21983700D01*
X13096185Y-21887186D01*
X12839550Y-21780622D01*
X12561669Y-21780379D01*
X12304849Y-21886496D01*
X12108186Y-22082815D01*
X12001622Y-22339450D01*
X12001379Y-22617331D01*
X12107496Y-22874151D01*
X12303815Y-23070814D01*
X12560450Y-23177378D01*
X12763555Y-23177555D01*
X12763379Y-23379331D01*
X12869496Y-23636151D01*
X13065815Y-23832814D01*
X13322450Y-23939378D01*
X13600331Y-23939621D01*
X13857151Y-23833504D01*
X13954525Y-23736300D01*
X14642258Y-23736300D01*
X14922498Y-24016540D01*
X14922498Y-24382042D01*
X14922498Y-24382042D01*
G37*
X14922498Y-24382042D02*
X14254770Y-25049770D01*
X14147402Y-25210456D01*
X14109700Y-25400000D01*
X14109700Y-25470784D01*
X14078804Y-25501681D01*
X14020800Y-25641715D01*
X14020800Y-25793286D01*
X14020800Y-27190286D01*
X14073576Y-27317700D01*
X13866422Y-27317700D01*
X13919200Y-27190285D01*
X13919200Y-27038714D01*
X13919200Y-25641714D01*
X13861196Y-25501680D01*
X13754019Y-25394504D01*
X13613985Y-25336500D01*
X13462414Y-25336500D01*
X13056014Y-25336500D01*
X12915980Y-25394504D01*
X12849335Y-25461149D01*
X12806527Y-25357802D01*
X12627899Y-25179173D01*
X12394510Y-25082500D01*
X12325350Y-25082500D01*
X12166600Y-25241250D01*
X12166600Y-26289000D01*
X12212000Y-26289000D01*
X12212000Y-26543000D01*
X12166600Y-26543000D01*
X12166600Y-27590750D01*
X12325350Y-27749500D01*
X12394510Y-27749500D01*
X12627899Y-27652827D01*
X12806527Y-27474198D01*
X12839700Y-27394111D01*
X12839700Y-27559000D01*
X12877402Y-27748544D01*
X12895014Y-27774902D01*
X11963400Y-27774902D01*
X11963400Y-27590750D01*
X11963400Y-26543000D01*
X11963400Y-26289000D01*
X11963400Y-25241250D01*
X11804650Y-25082500D01*
X11735490Y-25082500D01*
X11502101Y-25179173D01*
X11323473Y-25357802D01*
X11226800Y-25591191D01*
X11226800Y-26130250D01*
X11385550Y-26289000D01*
X11963400Y-26289000D01*
X11963400Y-26543000D01*
X11385550Y-26543000D01*
X11226800Y-26701750D01*
X11226800Y-27240809D01*
X11323473Y-27474198D01*
X11502101Y-27652827D01*
X11735490Y-27749500D01*
X11804650Y-27749500D01*
X11963400Y-27590750D01*
X11963400Y-27774902D01*
X10695362Y-27774902D01*
X10654219Y-27733759D01*
X10872651Y-27643504D01*
X11069314Y-27447185D01*
X11175878Y-27190550D01*
X11176121Y-26912669D01*
X11070004Y-26655849D01*
X10873685Y-26459186D01*
X10617050Y-26352622D01*
X10479461Y-26352501D01*
X7906730Y-23779770D01*
X7747000Y-23673041D01*
X7747000Y-23673040D01*
X7747000Y-23546214D01*
X7725786Y-23494999D01*
X7747000Y-23443785D01*
X7747000Y-23355300D01*
X7936543Y-23317598D01*
X7936544Y-23317598D01*
X8097230Y-23210230D01*
X8605230Y-22702230D01*
X8712597Y-22541544D01*
X8712598Y-22541543D01*
X8750300Y-22352000D01*
X8750300Y-21933742D01*
X10325924Y-20358118D01*
X13203822Y-20358118D01*
X14245111Y-21399407D01*
X14212669Y-21399379D01*
X13955849Y-21505496D01*
X13759186Y-21701815D01*
X13652622Y-21958450D01*
X13652599Y-21983700D01*
X13192530Y-21983700D01*
X13096185Y-21887186D01*
X12839550Y-21780622D01*
X12561669Y-21780379D01*
X12304849Y-21886496D01*
X12108186Y-22082815D01*
X12001622Y-22339450D01*
X12001379Y-22617331D01*
X12107496Y-22874151D01*
X12303815Y-23070814D01*
X12560450Y-23177378D01*
X12763555Y-23177555D01*
X12763379Y-23379331D01*
X12869496Y-23636151D01*
X13065815Y-23832814D01*
X13322450Y-23939378D01*
X13600331Y-23939621D01*
X13857151Y-23833504D01*
X13954525Y-23736300D01*
X14642258Y-23736300D01*
X14922498Y-24016540D01*
X14922498Y-24382042D01*
G36*
X15720634Y-10071094D02*
X11579882Y-10071094D01*
X10759750Y-9250962D01*
X10599064Y-9143594D01*
X10409520Y-9105892D01*
X9829516Y-9105892D01*
X9080502Y-8356878D01*
X9080502Y-7988300D01*
X9667469Y-7988300D01*
X9763815Y-8084814D01*
X10020450Y-8191378D01*
X10298331Y-8191621D01*
X10555151Y-8085504D01*
X10622000Y-8018771D01*
X10622000Y-8402309D01*
X10718673Y-8635698D01*
X10897301Y-8814327D01*
X11130690Y-8911000D01*
X11271250Y-8911000D01*
X11430000Y-8752250D01*
X11430000Y-7653000D01*
X11410000Y-7653000D01*
X11410000Y-7399000D01*
X11430000Y-7399000D01*
X11430000Y-6299750D01*
X11271250Y-6141000D01*
X11130690Y-6141000D01*
X10897301Y-6237673D01*
X10718673Y-6416302D01*
X10622000Y-6649691D01*
X10622000Y-6967116D01*
X10556185Y-6901186D01*
X10299550Y-6794622D01*
X10021669Y-6794379D01*
X9764849Y-6900496D01*
X9667474Y-6997700D01*
X8991324Y-6997700D01*
X8826502Y-6832878D01*
X8826502Y-5496350D01*
X8910314Y-5412685D01*
X9016878Y-5156050D01*
X9017121Y-4878169D01*
X8911004Y-4621349D01*
X8717249Y-4427255D01*
X8777151Y-4402504D01*
X8874525Y-4305300D01*
X11811000Y-4305300D01*
X12000543Y-4267598D01*
X12000544Y-4267598D01*
X12161230Y-4160230D01*
X12416917Y-3904542D01*
X12416856Y-3974571D01*
X12543102Y-4280109D01*
X12776662Y-4514077D01*
X13081979Y-4640855D01*
X13412571Y-4641144D01*
X13718109Y-4514898D01*
X13952077Y-4281338D01*
X14078855Y-3976021D01*
X14078958Y-3857418D01*
X14109700Y-3888160D01*
X14109700Y-5255840D01*
X13637840Y-5727700D01*
X13081000Y-5727700D01*
X12891456Y-5765402D01*
X12730770Y-5872770D01*
X12476770Y-6126770D01*
X12369402Y-6287456D01*
X12352326Y-6373301D01*
X12216699Y-6237673D01*
X11983310Y-6141000D01*
X11842750Y-6141000D01*
X11684000Y-6299750D01*
X11684000Y-7399000D01*
X11704000Y-7399000D01*
X11704000Y-7653000D01*
X11684000Y-7653000D01*
X11684000Y-8752250D01*
X11842750Y-8911000D01*
X11983310Y-8911000D01*
X12216699Y-8814327D01*
X12395327Y-8635698D01*
X12395980Y-8634120D01*
X12451215Y-8657000D01*
X12602786Y-8657000D01*
X13202786Y-8657000D01*
X13342820Y-8598996D01*
X13398581Y-8543234D01*
X13398379Y-8774331D01*
X13504496Y-9031151D01*
X13700815Y-9227814D01*
X13957450Y-9334378D01*
X14235331Y-9334621D01*
X14492151Y-9228504D01*
X14688814Y-9032185D01*
X14795378Y-8775550D01*
X14795581Y-8543396D01*
X14851181Y-8598996D01*
X14871700Y-8607495D01*
X14871700Y-9017000D01*
X14909402Y-9206544D01*
X15016770Y-9367230D01*
X15720634Y-10071094D01*
X15720634Y-10071094D01*
G37*
X15720634Y-10071094D02*
X11579882Y-10071094D01*
X10759750Y-9250962D01*
X10599064Y-9143594D01*
X10409520Y-9105892D01*
X9829516Y-9105892D01*
X9080502Y-8356878D01*
X9080502Y-7988300D01*
X9667469Y-7988300D01*
X9763815Y-8084814D01*
X10020450Y-8191378D01*
X10298331Y-8191621D01*
X10555151Y-8085504D01*
X10622000Y-8018771D01*
X10622000Y-8402309D01*
X10718673Y-8635698D01*
X10897301Y-8814327D01*
X11130690Y-8911000D01*
X11271250Y-8911000D01*
X11430000Y-8752250D01*
X11430000Y-7653000D01*
X11410000Y-7653000D01*
X11410000Y-7399000D01*
X11430000Y-7399000D01*
X11430000Y-6299750D01*
X11271250Y-6141000D01*
X11130690Y-6141000D01*
X10897301Y-6237673D01*
X10718673Y-6416302D01*
X10622000Y-6649691D01*
X10622000Y-6967116D01*
X10556185Y-6901186D01*
X10299550Y-6794622D01*
X10021669Y-6794379D01*
X9764849Y-6900496D01*
X9667474Y-6997700D01*
X8991324Y-6997700D01*
X8826502Y-6832878D01*
X8826502Y-5496350D01*
X8910314Y-5412685D01*
X9016878Y-5156050D01*
X9017121Y-4878169D01*
X8911004Y-4621349D01*
X8717249Y-4427255D01*
X8777151Y-4402504D01*
X8874525Y-4305300D01*
X11811000Y-4305300D01*
X12000543Y-4267598D01*
X12000544Y-4267598D01*
X12161230Y-4160230D01*
X12416917Y-3904542D01*
X12416856Y-3974571D01*
X12543102Y-4280109D01*
X12776662Y-4514077D01*
X13081979Y-4640855D01*
X13412571Y-4641144D01*
X13718109Y-4514898D01*
X13952077Y-4281338D01*
X14078855Y-3976021D01*
X14078958Y-3857418D01*
X14109700Y-3888160D01*
X14109700Y-5255840D01*
X13637840Y-5727700D01*
X13081000Y-5727700D01*
X12891456Y-5765402D01*
X12730770Y-5872770D01*
X12476770Y-6126770D01*
X12369402Y-6287456D01*
X12352326Y-6373301D01*
X12216699Y-6237673D01*
X11983310Y-6141000D01*
X11842750Y-6141000D01*
X11684000Y-6299750D01*
X11684000Y-7399000D01*
X11704000Y-7399000D01*
X11704000Y-7653000D01*
X11684000Y-7653000D01*
X11684000Y-8752250D01*
X11842750Y-8911000D01*
X11983310Y-8911000D01*
X12216699Y-8814327D01*
X12395327Y-8635698D01*
X12395980Y-8634120D01*
X12451215Y-8657000D01*
X12602786Y-8657000D01*
X13202786Y-8657000D01*
X13342820Y-8598996D01*
X13398581Y-8543234D01*
X13398379Y-8774331D01*
X13504496Y-9031151D01*
X13700815Y-9227814D01*
X13957450Y-9334378D01*
X14235331Y-9334621D01*
X14492151Y-9228504D01*
X14688814Y-9032185D01*
X14795378Y-8775550D01*
X14795581Y-8543396D01*
X14851181Y-8598996D01*
X14871700Y-8607495D01*
X14871700Y-9017000D01*
X14909402Y-9206544D01*
X15016770Y-9367230D01*
X15720634Y-10071094D01*
G36*
X26074832Y-28779000D02*
X7916448Y-28779000D01*
X7847765Y-28765337D01*
X7825523Y-28750476D01*
X7810662Y-28728236D01*
X7797000Y-28659547D01*
X7797000Y-28448000D01*
X7788718Y-28406367D01*
X7788719Y-28363917D01*
X7750050Y-28169513D01*
X7685694Y-28014146D01*
X7575574Y-27849341D01*
X7575574Y-27849340D01*
X7575573Y-27849339D01*
X7525490Y-27799255D01*
X7725698Y-27716327D01*
X7904327Y-27537699D01*
X8001000Y-27304310D01*
X8001000Y-27051691D01*
X8001000Y-26955750D01*
X7842250Y-26797000D01*
X3810000Y-26797000D01*
X3810000Y-26817000D01*
X3556000Y-26817000D01*
X3556000Y-26797000D01*
X3536000Y-26797000D01*
X3536000Y-26543000D01*
X3556000Y-26543000D01*
X3556000Y-26523000D01*
X3810000Y-26523000D01*
X3810000Y-26543000D01*
X7842250Y-26543000D01*
X7952395Y-26432855D01*
X10139972Y-28620432D01*
X10300659Y-28727800D01*
X10490202Y-28765502D01*
X16445380Y-28765502D01*
X16634923Y-28727800D01*
X16634924Y-28727800D01*
X16795610Y-28620432D01*
X17234742Y-28181300D01*
X25448840Y-28181300D01*
X25989568Y-28722028D01*
X26074832Y-28779000D01*
X26074832Y-28779000D01*
G37*
X26074832Y-28779000D02*
X7916448Y-28779000D01*
X7847765Y-28765337D01*
X7825523Y-28750476D01*
X7810662Y-28728236D01*
X7797000Y-28659547D01*
X7797000Y-28448000D01*
X7788718Y-28406367D01*
X7788719Y-28363917D01*
X7750050Y-28169513D01*
X7685694Y-28014146D01*
X7575574Y-27849341D01*
X7575574Y-27849340D01*
X7575573Y-27849339D01*
X7525490Y-27799255D01*
X7725698Y-27716327D01*
X7904327Y-27537699D01*
X8001000Y-27304310D01*
X8001000Y-27051691D01*
X8001000Y-26955750D01*
X7842250Y-26797000D01*
X3810000Y-26797000D01*
X3810000Y-26817000D01*
X3556000Y-26817000D01*
X3556000Y-26797000D01*
X3536000Y-26797000D01*
X3536000Y-26543000D01*
X3556000Y-26543000D01*
X3556000Y-26523000D01*
X3810000Y-26523000D01*
X3810000Y-26543000D01*
X7842250Y-26543000D01*
X7952395Y-26432855D01*
X10139972Y-28620432D01*
X10300659Y-28727800D01*
X10490202Y-28765502D01*
X16445380Y-28765502D01*
X16634923Y-28727800D01*
X16634924Y-28727800D01*
X16795610Y-28620432D01*
X17234742Y-28181300D01*
X25448840Y-28181300D01*
X25989568Y-28722028D01*
X26074832Y-28779000D01*
G36*
X26174700Y-24966240D02*
X25934939Y-24726479D01*
X25774253Y-24619111D01*
X25584709Y-24581409D01*
X25166451Y-24581409D01*
X24333617Y-23748575D01*
X24172931Y-23641207D01*
X23983387Y-23603505D01*
X22941711Y-23603505D01*
X22108877Y-22770671D01*
X21948191Y-22663303D01*
X21758647Y-22625601D01*
X20840714Y-22625601D01*
X20840714Y-22273176D01*
X20803012Y-22083633D01*
X20695644Y-21922946D01*
X15084872Y-16312174D01*
X14924186Y-16204806D01*
X14734642Y-16167104D01*
X9270728Y-16167104D01*
X8826502Y-15722878D01*
X8826502Y-14681202D01*
X8788800Y-14491659D01*
X8681432Y-14330972D01*
X7970230Y-13619770D01*
X7809544Y-13512402D01*
X7747000Y-13499961D01*
X7747000Y-13386214D01*
X7725786Y-13334999D01*
X7747000Y-13283785D01*
X7747000Y-13195300D01*
X10070258Y-13195300D01*
X10223498Y-13348540D01*
X10223498Y-14794380D01*
X10261200Y-14983924D01*
X10368568Y-15144610D01*
X11017390Y-15793432D01*
X11178077Y-15900800D01*
X11367620Y-15938502D01*
X19671460Y-15938502D01*
X20034390Y-16301432D01*
X20195076Y-16408799D01*
X20195077Y-16408800D01*
X20384620Y-16446502D01*
X21779380Y-16446502D01*
X21968923Y-16408800D01*
X21968924Y-16408800D01*
X22129610Y-16301432D01*
X22492540Y-15938502D01*
X23888700Y-15938502D01*
X23888700Y-16679154D01*
X23634550Y-16573622D01*
X23356669Y-16573379D01*
X23099849Y-16679496D01*
X22903186Y-16875815D01*
X22796622Y-17132450D01*
X22796379Y-17410331D01*
X22902496Y-17667151D01*
X23098815Y-17863814D01*
X23355450Y-17970378D01*
X23481446Y-17970488D01*
X26174700Y-20663742D01*
X26174700Y-24966240D01*
X26174700Y-24966240D01*
G37*
X26174700Y-24966240D02*
X25934939Y-24726479D01*
X25774253Y-24619111D01*
X25584709Y-24581409D01*
X25166451Y-24581409D01*
X24333617Y-23748575D01*
X24172931Y-23641207D01*
X23983387Y-23603505D01*
X22941711Y-23603505D01*
X22108877Y-22770671D01*
X21948191Y-22663303D01*
X21758647Y-22625601D01*
X20840714Y-22625601D01*
X20840714Y-22273176D01*
X20803012Y-22083633D01*
X20695644Y-21922946D01*
X15084872Y-16312174D01*
X14924186Y-16204806D01*
X14734642Y-16167104D01*
X9270728Y-16167104D01*
X8826502Y-15722878D01*
X8826502Y-14681202D01*
X8788800Y-14491659D01*
X8681432Y-14330972D01*
X7970230Y-13619770D01*
X7809544Y-13512402D01*
X7747000Y-13499961D01*
X7747000Y-13386214D01*
X7725786Y-13334999D01*
X7747000Y-13283785D01*
X7747000Y-13195300D01*
X10070258Y-13195300D01*
X10223498Y-13348540D01*
X10223498Y-14794380D01*
X10261200Y-14983924D01*
X10368568Y-15144610D01*
X11017390Y-15793432D01*
X11178077Y-15900800D01*
X11367620Y-15938502D01*
X19671460Y-15938502D01*
X20034390Y-16301432D01*
X20195076Y-16408799D01*
X20195077Y-16408800D01*
X20384620Y-16446502D01*
X21779380Y-16446502D01*
X21968923Y-16408800D01*
X21968924Y-16408800D01*
X22129610Y-16301432D01*
X22492540Y-15938502D01*
X23888700Y-15938502D01*
X23888700Y-16679154D01*
X23634550Y-16573622D01*
X23356669Y-16573379D01*
X23099849Y-16679496D01*
X22903186Y-16875815D01*
X22796622Y-17132450D01*
X22796379Y-17410331D01*
X22902496Y-17667151D01*
X23098815Y-17863814D01*
X23355450Y-17970378D01*
X23481446Y-17970488D01*
X26174700Y-20663742D01*
X26174700Y-24966240D01*
G36*
X29705296Y-11619662D02*
X29501258Y-11823700D01*
X29083000Y-11823700D01*
X28893457Y-11861402D01*
X28732770Y-11968770D01*
X28405476Y-12296063D01*
X28397598Y-12256457D01*
X28397598Y-12256456D01*
X28290230Y-12095770D01*
X27834148Y-11639688D01*
X27673462Y-11532320D01*
X27483918Y-11494618D01*
X26315242Y-11494618D01*
X26273043Y-11452419D01*
X26430151Y-11387504D01*
X26626814Y-11191185D01*
X26733378Y-10934550D01*
X26733621Y-10656669D01*
X26627504Y-10399849D01*
X26431185Y-10203186D01*
X26174550Y-10096622D01*
X25896669Y-10096379D01*
X25639849Y-10202496D01*
X25443186Y-10398815D01*
X25368327Y-10579094D01*
X23263881Y-10579094D01*
X21148356Y-8463568D01*
X21096147Y-8428683D01*
X21128000Y-8351785D01*
X21128000Y-8200214D01*
X21128000Y-6700214D01*
X21069996Y-6560180D01*
X20962819Y-6453004D01*
X20907726Y-6430183D01*
X20904598Y-6414457D01*
X20904598Y-6414456D01*
X20797230Y-6253770D01*
X20416230Y-5872770D01*
X20255544Y-5765402D01*
X20066000Y-5727700D01*
X18549567Y-5727700D01*
X18683151Y-5672504D01*
X18879814Y-5476185D01*
X18986378Y-5219550D01*
X18986498Y-5081961D01*
X19527230Y-4541230D01*
X19634598Y-4380543D01*
X19672300Y-4191000D01*
X19672300Y-3207495D01*
X19692820Y-3198996D01*
X19799996Y-3091819D01*
X19811999Y-3062839D01*
X19824004Y-3091820D01*
X19931181Y-3198996D01*
X20071215Y-3257000D01*
X20222786Y-3257000D01*
X20822786Y-3257000D01*
X20962820Y-3198996D01*
X21069996Y-3091819D01*
X21128000Y-2951785D01*
X21128000Y-2800214D01*
X21128000Y-2651460D01*
X22161498Y-3684958D01*
X22161379Y-3821331D01*
X22267496Y-4078151D01*
X22463815Y-4274814D01*
X22720450Y-4381378D01*
X22858038Y-4381498D01*
X23129530Y-4652990D01*
X23160950Y-4673984D01*
X23160950Y-4778596D01*
X23218954Y-4918630D01*
X23326131Y-5025806D01*
X23446700Y-5075747D01*
X23446700Y-5146000D01*
X23484402Y-5335544D01*
X23591770Y-5496230D01*
X24236972Y-6141432D01*
X24397658Y-6248799D01*
X24397659Y-6248800D01*
X24587202Y-6286502D01*
X25744296Y-6286502D01*
X26767630Y-7309836D01*
X26928317Y-7417204D01*
X27117860Y-7454906D01*
X29323460Y-7454906D01*
X29705296Y-7836742D01*
X29705296Y-11619662D01*
X29705296Y-11619662D01*
G37*
X29705296Y-11619662D02*
X29501258Y-11823700D01*
X29083000Y-11823700D01*
X28893457Y-11861402D01*
X28732770Y-11968770D01*
X28405476Y-12296063D01*
X28397598Y-12256457D01*
X28397598Y-12256456D01*
X28290230Y-12095770D01*
X27834148Y-11639688D01*
X27673462Y-11532320D01*
X27483918Y-11494618D01*
X26315242Y-11494618D01*
X26273043Y-11452419D01*
X26430151Y-11387504D01*
X26626814Y-11191185D01*
X26733378Y-10934550D01*
X26733621Y-10656669D01*
X26627504Y-10399849D01*
X26431185Y-10203186D01*
X26174550Y-10096622D01*
X25896669Y-10096379D01*
X25639849Y-10202496D01*
X25443186Y-10398815D01*
X25368327Y-10579094D01*
X23263881Y-10579094D01*
X21148356Y-8463568D01*
X21096147Y-8428683D01*
X21128000Y-8351785D01*
X21128000Y-8200214D01*
X21128000Y-6700214D01*
X21069996Y-6560180D01*
X20962819Y-6453004D01*
X20907726Y-6430183D01*
X20904598Y-6414457D01*
X20904598Y-6414456D01*
X20797230Y-6253770D01*
X20416230Y-5872770D01*
X20255544Y-5765402D01*
X20066000Y-5727700D01*
X18549567Y-5727700D01*
X18683151Y-5672504D01*
X18879814Y-5476185D01*
X18986378Y-5219550D01*
X18986498Y-5081961D01*
X19527230Y-4541230D01*
X19634598Y-4380543D01*
X19672300Y-4191000D01*
X19672300Y-3207495D01*
X19692820Y-3198996D01*
X19799996Y-3091819D01*
X19811999Y-3062839D01*
X19824004Y-3091820D01*
X19931181Y-3198996D01*
X20071215Y-3257000D01*
X20222786Y-3257000D01*
X20822786Y-3257000D01*
X20962820Y-3198996D01*
X21069996Y-3091819D01*
X21128000Y-2951785D01*
X21128000Y-2800214D01*
X21128000Y-2651460D01*
X22161498Y-3684958D01*
X22161379Y-3821331D01*
X22267496Y-4078151D01*
X22463815Y-4274814D01*
X22720450Y-4381378D01*
X22858038Y-4381498D01*
X23129530Y-4652990D01*
X23160950Y-4673984D01*
X23160950Y-4778596D01*
X23218954Y-4918630D01*
X23326131Y-5025806D01*
X23446700Y-5075747D01*
X23446700Y-5146000D01*
X23484402Y-5335544D01*
X23591770Y-5496230D01*
X24236972Y-6141432D01*
X24397658Y-6248799D01*
X24397659Y-6248800D01*
X24587202Y-6286502D01*
X25744296Y-6286502D01*
X26767630Y-7309836D01*
X26928317Y-7417204D01*
X27117860Y-7454906D01*
X29323460Y-7454906D01*
X29705296Y-7836742D01*
X29705296Y-11619662D01*
G36*
X30619700Y-5360551D02*
X30556050Y-5334122D01*
X30278169Y-5333879D01*
X30021349Y-5439996D01*
X29999622Y-5461684D01*
X29999622Y-4212922D01*
X29970083Y-3702572D01*
X29831611Y-3368271D01*
X29601016Y-3312590D01*
X28881605Y-4032000D01*
X29601016Y-4751410D01*
X29831611Y-4695729D01*
X29999622Y-4212922D01*
X29999622Y-5461684D01*
X29911250Y-5549902D01*
X29421410Y-5549902D01*
X29421410Y-4931016D01*
X28702000Y-4211605D01*
X28522395Y-4391210D01*
X28522395Y-4032000D01*
X27802984Y-3312590D01*
X27572389Y-3368271D01*
X27404378Y-3851078D01*
X27433917Y-4361428D01*
X27572389Y-4695729D01*
X27802984Y-4751410D01*
X28522395Y-4032000D01*
X28522395Y-4391210D01*
X27982590Y-4931016D01*
X28038271Y-5161611D01*
X28521078Y-5329622D01*
X29031428Y-5300083D01*
X29365729Y-5161611D01*
X29421410Y-4931016D01*
X29421410Y-5549902D01*
X27701779Y-5549902D01*
X26623050Y-4471172D01*
X26623050Y-3826924D01*
X26565046Y-3686890D01*
X26457869Y-3579714D01*
X26317835Y-3521710D01*
X26166264Y-3521710D01*
X25380479Y-3521710D01*
X25349598Y-3366457D01*
X25349598Y-3366456D01*
X25242230Y-3205770D01*
X25121290Y-3084830D01*
X25367836Y-3084830D01*
X25507870Y-3026826D01*
X25615046Y-2919649D01*
X25664987Y-2799080D01*
X26525220Y-2799080D01*
X26714763Y-2761378D01*
X26714764Y-2761378D01*
X26875450Y-2654010D01*
X27002160Y-2527300D01*
X27671000Y-2527300D01*
X27671000Y-2757786D01*
X27729004Y-2897820D01*
X27836181Y-3004996D01*
X27976215Y-3063000D01*
X27999488Y-3063000D01*
X27982590Y-3132984D01*
X28702000Y-3852395D01*
X29421410Y-3132984D01*
X29404511Y-3063000D01*
X29427786Y-3063000D01*
X29567820Y-3004996D01*
X29674996Y-2897819D01*
X29733000Y-2757785D01*
X29733000Y-2606214D01*
X29733000Y-2527300D01*
X30020840Y-2527300D01*
X30619700Y-3126160D01*
X30619700Y-5360551D01*
X30619700Y-5360551D01*
G37*
X30619700Y-5360551D02*
X30556050Y-5334122D01*
X30278169Y-5333879D01*
X30021349Y-5439996D01*
X29999622Y-5461684D01*
X29999622Y-4212922D01*
X29970083Y-3702572D01*
X29831611Y-3368271D01*
X29601016Y-3312590D01*
X28881605Y-4032000D01*
X29601016Y-4751410D01*
X29831611Y-4695729D01*
X29999622Y-4212922D01*
X29999622Y-5461684D01*
X29911250Y-5549902D01*
X29421410Y-5549902D01*
X29421410Y-4931016D01*
X28702000Y-4211605D01*
X28522395Y-4391210D01*
X28522395Y-4032000D01*
X27802984Y-3312590D01*
X27572389Y-3368271D01*
X27404378Y-3851078D01*
X27433917Y-4361428D01*
X27572389Y-4695729D01*
X27802984Y-4751410D01*
X28522395Y-4032000D01*
X28522395Y-4391210D01*
X27982590Y-4931016D01*
X28038271Y-5161611D01*
X28521078Y-5329622D01*
X29031428Y-5300083D01*
X29365729Y-5161611D01*
X29421410Y-4931016D01*
X29421410Y-5549902D01*
X27701779Y-5549902D01*
X26623050Y-4471172D01*
X26623050Y-3826924D01*
X26565046Y-3686890D01*
X26457869Y-3579714D01*
X26317835Y-3521710D01*
X26166264Y-3521710D01*
X25380479Y-3521710D01*
X25349598Y-3366457D01*
X25349598Y-3366456D01*
X25242230Y-3205770D01*
X25121290Y-3084830D01*
X25367836Y-3084830D01*
X25507870Y-3026826D01*
X25615046Y-2919649D01*
X25664987Y-2799080D01*
X26525220Y-2799080D01*
X26714763Y-2761378D01*
X26714764Y-2761378D01*
X26875450Y-2654010D01*
X27002160Y-2527300D01*
X27671000Y-2527300D01*
X27671000Y-2757786D01*
X27729004Y-2897820D01*
X27836181Y-3004996D01*
X27976215Y-3063000D01*
X27999488Y-3063000D01*
X27982590Y-3132984D01*
X28702000Y-3852395D01*
X29421410Y-3132984D01*
X29404511Y-3063000D01*
X29427786Y-3063000D01*
X29567820Y-3004996D01*
X29674996Y-2897819D01*
X29733000Y-2757785D01*
X29733000Y-2606214D01*
X29733000Y-2527300D01*
X30020840Y-2527300D01*
X30619700Y-3126160D01*
X30619700Y-5360551D01*
G36*
X46178000Y-28659551D02*
X46164337Y-28728234D01*
X46149476Y-28750476D01*
X46127236Y-28765337D01*
X46058547Y-28779000D01*
X31699200Y-28779000D01*
X31699200Y-27190285D01*
X31699200Y-27038714D01*
X31699200Y-25641714D01*
X31641196Y-25501680D01*
X31534019Y-25394504D01*
X31393985Y-25336500D01*
X31242414Y-25336500D01*
X30836014Y-25336500D01*
X30695980Y-25394504D01*
X30588804Y-25501681D01*
X30530800Y-25641715D01*
X30530800Y-25793286D01*
X30530800Y-27190286D01*
X30588804Y-27330320D01*
X30695981Y-27437496D01*
X30836015Y-27495500D01*
X30987586Y-27495500D01*
X31393986Y-27495500D01*
X31534020Y-27437496D01*
X31641196Y-27330319D01*
X31699200Y-27190285D01*
X31699200Y-28779000D01*
X27265168Y-28779000D01*
X27350432Y-28722028D01*
X28290230Y-27782230D01*
X28397598Y-27621544D01*
X28397598Y-27621543D01*
X28422669Y-27495500D01*
X28447586Y-27495500D01*
X28853986Y-27495500D01*
X28994020Y-27437496D01*
X29101196Y-27330319D01*
X29159200Y-27190285D01*
X29159200Y-27038714D01*
X29159200Y-25641714D01*
X29101196Y-25501680D01*
X29070300Y-25470784D01*
X29070300Y-25452760D01*
X29260800Y-25643260D01*
X29260800Y-25793286D01*
X29260800Y-27155214D01*
X29253186Y-27162815D01*
X29146622Y-27419450D01*
X29146379Y-27697331D01*
X29252496Y-27954151D01*
X29448815Y-28150814D01*
X29705450Y-28257378D01*
X29983331Y-28257621D01*
X30240151Y-28151504D01*
X30436814Y-27955185D01*
X30543378Y-27698550D01*
X30543621Y-27420669D01*
X30437504Y-27163849D01*
X30429200Y-27155530D01*
X30429200Y-27038714D01*
X30429200Y-25641714D01*
X30371196Y-25501680D01*
X30326341Y-25456826D01*
X30302598Y-25337457D01*
X30302598Y-25337456D01*
X30195230Y-25176770D01*
X29349704Y-24331244D01*
X29349704Y-20056658D01*
X29312002Y-19867115D01*
X29312002Y-19867114D01*
X29204634Y-19706428D01*
X26579060Y-17080854D01*
X26626814Y-17033185D01*
X26733378Y-16776550D01*
X26733621Y-16498669D01*
X26627504Y-16241849D01*
X26431185Y-16045186D01*
X26183348Y-15942275D01*
X26187122Y-15938502D01*
X27228798Y-15938502D01*
X27418341Y-15900800D01*
X27418342Y-15900800D01*
X27579028Y-15793432D01*
X28290230Y-15082230D01*
X28397598Y-14921543D01*
X28422669Y-14795500D01*
X28447586Y-14795500D01*
X28853986Y-14795500D01*
X28994020Y-14737496D01*
X29101196Y-14630319D01*
X29159200Y-14490285D01*
X29159200Y-14338714D01*
X29159200Y-12943260D01*
X29288160Y-12814300D01*
X29313577Y-12814300D01*
X29260800Y-12941715D01*
X29260800Y-13093286D01*
X29260800Y-14490286D01*
X29318804Y-14630320D01*
X29425981Y-14737496D01*
X29566015Y-14795500D01*
X29717586Y-14795500D01*
X30123986Y-14795500D01*
X30264020Y-14737496D01*
X30371196Y-14630319D01*
X30429200Y-14490285D01*
X30429200Y-14338714D01*
X30429200Y-12943260D01*
X30619700Y-12752760D01*
X30619700Y-12770784D01*
X30588804Y-12801681D01*
X30530800Y-12941715D01*
X30530800Y-13093286D01*
X30530800Y-14490286D01*
X30588804Y-14630320D01*
X30695981Y-14737496D01*
X30836015Y-14795500D01*
X30987586Y-14795500D01*
X31393986Y-14795500D01*
X31534020Y-14737496D01*
X31641196Y-14630319D01*
X31699200Y-14490285D01*
X31699200Y-14338714D01*
X31699200Y-12941714D01*
X31641196Y-12801680D01*
X31610300Y-12770784D01*
X31610300Y-2921000D01*
X31572598Y-2731457D01*
X31465230Y-2570770D01*
X30576230Y-1681770D01*
X30415544Y-1574402D01*
X30226000Y-1536700D01*
X29733000Y-1536700D01*
X29733000Y-1306214D01*
X29674996Y-1166180D01*
X29567819Y-1059004D01*
X29427785Y-1001000D01*
X29276214Y-1001000D01*
X27976214Y-1001000D01*
X27836180Y-1059004D01*
X27729004Y-1166181D01*
X27671000Y-1306215D01*
X27671000Y-1457786D01*
X27671000Y-1536700D01*
X26797000Y-1536700D01*
X26607457Y-1574402D01*
X26446770Y-1681770D01*
X26320060Y-1808480D01*
X25664987Y-1808480D01*
X25615046Y-1687910D01*
X25507869Y-1580734D01*
X25367835Y-1522730D01*
X25216264Y-1522730D01*
X24416164Y-1522730D01*
X24276130Y-1580734D01*
X24168954Y-1687911D01*
X24110950Y-1827945D01*
X24110950Y-1979516D01*
X24110950Y-2779616D01*
X24122168Y-2806700D01*
X23700160Y-2806700D01*
X22987001Y-2093541D01*
X22987121Y-1957169D01*
X22881004Y-1700349D01*
X22684685Y-1503686D01*
X22428050Y-1397122D01*
X22290461Y-1397001D01*
X21432230Y-538770D01*
X21271544Y-431402D01*
X21269522Y-431000D01*
X46058547Y-431000D01*
X46127236Y-444662D01*
X46149476Y-459523D01*
X46164337Y-481765D01*
X46178000Y-550448D01*
X46178000Y-28659551D01*
X46178000Y-28659551D01*
G37*
X46178000Y-28659551D02*
X46164337Y-28728234D01*
X46149476Y-28750476D01*
X46127236Y-28765337D01*
X46058547Y-28779000D01*
X31699200Y-28779000D01*
X31699200Y-27190285D01*
X31699200Y-27038714D01*
X31699200Y-25641714D01*
X31641196Y-25501680D01*
X31534019Y-25394504D01*
X31393985Y-25336500D01*
X31242414Y-25336500D01*
X30836014Y-25336500D01*
X30695980Y-25394504D01*
X30588804Y-25501681D01*
X30530800Y-25641715D01*
X30530800Y-25793286D01*
X30530800Y-27190286D01*
X30588804Y-27330320D01*
X30695981Y-27437496D01*
X30836015Y-27495500D01*
X30987586Y-27495500D01*
X31393986Y-27495500D01*
X31534020Y-27437496D01*
X31641196Y-27330319D01*
X31699200Y-27190285D01*
X31699200Y-28779000D01*
X27265168Y-28779000D01*
X27350432Y-28722028D01*
X28290230Y-27782230D01*
X28397598Y-27621544D01*
X28397598Y-27621543D01*
X28422669Y-27495500D01*
X28447586Y-27495500D01*
X28853986Y-27495500D01*
X28994020Y-27437496D01*
X29101196Y-27330319D01*
X29159200Y-27190285D01*
X29159200Y-27038714D01*
X29159200Y-25641714D01*
X29101196Y-25501680D01*
X29070300Y-25470784D01*
X29070300Y-25452760D01*
X29260800Y-25643260D01*
X29260800Y-25793286D01*
X29260800Y-27155214D01*
X29253186Y-27162815D01*
X29146622Y-27419450D01*
X29146379Y-27697331D01*
X29252496Y-27954151D01*
X29448815Y-28150814D01*
X29705450Y-28257378D01*
X29983331Y-28257621D01*
X30240151Y-28151504D01*
X30436814Y-27955185D01*
X30543378Y-27698550D01*
X30543621Y-27420669D01*
X30437504Y-27163849D01*
X30429200Y-27155530D01*
X30429200Y-27038714D01*
X30429200Y-25641714D01*
X30371196Y-25501680D01*
X30326341Y-25456826D01*
X30302598Y-25337457D01*
X30302598Y-25337456D01*
X30195230Y-25176770D01*
X29349704Y-24331244D01*
X29349704Y-20056658D01*
X29312002Y-19867115D01*
X29312002Y-19867114D01*
X29204634Y-19706428D01*
X26579060Y-17080854D01*
X26626814Y-17033185D01*
X26733378Y-16776550D01*
X26733621Y-16498669D01*
X26627504Y-16241849D01*
X26431185Y-16045186D01*
X26183348Y-15942275D01*
X26187122Y-15938502D01*
X27228798Y-15938502D01*
X27418341Y-15900800D01*
X27418342Y-15900800D01*
X27579028Y-15793432D01*
X28290230Y-15082230D01*
X28397598Y-14921543D01*
X28422669Y-14795500D01*
X28447586Y-14795500D01*
X28853986Y-14795500D01*
X28994020Y-14737496D01*
X29101196Y-14630319D01*
X29159200Y-14490285D01*
X29159200Y-14338714D01*
X29159200Y-12943260D01*
X29288160Y-12814300D01*
X29313577Y-12814300D01*
X29260800Y-12941715D01*
X29260800Y-13093286D01*
X29260800Y-14490286D01*
X29318804Y-14630320D01*
X29425981Y-14737496D01*
X29566015Y-14795500D01*
X29717586Y-14795500D01*
X30123986Y-14795500D01*
X30264020Y-14737496D01*
X30371196Y-14630319D01*
X30429200Y-14490285D01*
X30429200Y-14338714D01*
X30429200Y-12943260D01*
X30619700Y-12752760D01*
X30619700Y-12770784D01*
X30588804Y-12801681D01*
X30530800Y-12941715D01*
X30530800Y-13093286D01*
X30530800Y-14490286D01*
X30588804Y-14630320D01*
X30695981Y-14737496D01*
X30836015Y-14795500D01*
X30987586Y-14795500D01*
X31393986Y-14795500D01*
X31534020Y-14737496D01*
X31641196Y-14630319D01*
X31699200Y-14490285D01*
X31699200Y-14338714D01*
X31699200Y-12941714D01*
X31641196Y-12801680D01*
X31610300Y-12770784D01*
X31610300Y-2921000D01*
X31572598Y-2731457D01*
X31465230Y-2570770D01*
X30576230Y-1681770D01*
X30415544Y-1574402D01*
X30226000Y-1536700D01*
X29733000Y-1536700D01*
X29733000Y-1306214D01*
X29674996Y-1166180D01*
X29567819Y-1059004D01*
X29427785Y-1001000D01*
X29276214Y-1001000D01*
X27976214Y-1001000D01*
X27836180Y-1059004D01*
X27729004Y-1166181D01*
X27671000Y-1306215D01*
X27671000Y-1457786D01*
X27671000Y-1536700D01*
X26797000Y-1536700D01*
X26607457Y-1574402D01*
X26446770Y-1681770D01*
X26320060Y-1808480D01*
X25664987Y-1808480D01*
X25615046Y-1687910D01*
X25507869Y-1580734D01*
X25367835Y-1522730D01*
X25216264Y-1522730D01*
X24416164Y-1522730D01*
X24276130Y-1580734D01*
X24168954Y-1687911D01*
X24110950Y-1827945D01*
X24110950Y-1979516D01*
X24110950Y-2779616D01*
X24122168Y-2806700D01*
X23700160Y-2806700D01*
X22987001Y-2093541D01*
X22987121Y-1957169D01*
X22881004Y-1700349D01*
X22684685Y-1503686D01*
X22428050Y-1397122D01*
X22290461Y-1397001D01*
X21432230Y-538770D01*
X21271544Y-431402D01*
X21269522Y-431000D01*
X46058547Y-431000D01*
X46127236Y-444662D01*
X46149476Y-459523D01*
X46164337Y-481765D01*
X46178000Y-550448D01*
X46178000Y-28659551D01*
M02*
