M48
;DRILL file {kicad (2014-10-27 BZR 5228)-product} date 5/8/2015 6:15:57 PM
;FORMAT={2:4/ absolute / inch / suppress leading zeros}
FMAT,2
INCH,TZ
T1C0.012
T2C0.032
T3C0.035
%
G90
G05
M72
T1
X3275Y-1975
X3300Y-1500
X3450Y-10350
X4000Y-8500
X4000Y-8900
X4000Y-9300
X4550Y-750
X4550Y-3600
X4750Y-5000
X4750Y-10625
X5050Y-8200
X5250Y-5000
X5550Y-3163
X5750Y-5000
X6050Y-2225
X6050Y-3650
X6250Y-5000
X6750Y-5000
X7050Y-3150
X7250Y-5000
X7300Y-2350
X8050Y-850
X8250Y-5800
X8525Y-550
X9400Y-2750
X9400Y-8350
X10250Y-3500
X10250Y-6550
X10850Y-2750
X12750Y-9900
X16800Y-600
X17525Y-10325
X17525Y-11075
T2
X7184Y-1700
T3
X5216Y-1700
T0
M30
