%FSLAX46Y46*%
G04 Gerber Fmt 4.6, Leading zero omitted, Abs format (unit mm)*
G04 Created by KiCad (PCBNEW (2014-10-27 BZR 5228)-product) date 5/3/2015 5:28:48 PM*
%MOMM*%
G01*
G04 APERTURE LIST*
%ADD10C,0.100000*%
%ADD11C,0.150000*%
%ADD12C,0.200000*%
%ADD13C,0.002540*%
%ADD14R,6.350000X1.016000*%
%ADD15R,7.366000X1.016000*%
%ADD16R,0.800100X0.800100*%
%ADD17R,0.406400X1.397000*%
%ADD18R,0.600000X1.500000*%
%ADD19R,1.300000X1.300000*%
%ADD20C,1.300000*%
G04 APERTURE END LIST*
D10*
D11*
X23592840Y-2651760D02*
X23641100Y-2651760D01*
X26391820Y-3352800D02*
X26391820Y-2651760D01*
X26391820Y-2651760D02*
X26142900Y-2651760D01*
X23592840Y-2651760D02*
X23392180Y-2651760D01*
X23392180Y-2651760D02*
X23392180Y-3352800D01*
D12*
X31826200Y-26622500D02*
X30826200Y-27622500D01*
X30826200Y-27622500D02*
X11353800Y-27622500D01*
X11353800Y-27622500D02*
X11353800Y-12509500D01*
X11353800Y-12509500D02*
X31826200Y-12509500D01*
X31826200Y-12509500D02*
X31826200Y-26622500D01*
D11*
X21077000Y-6901000D02*
X20972000Y-6901000D01*
X21077000Y-2751000D02*
X20972000Y-2751000D01*
X10927000Y-2751000D02*
X11032000Y-2751000D01*
X10927000Y-6901000D02*
X11032000Y-6901000D01*
X21077000Y-6901000D02*
X21077000Y-2751000D01*
X10927000Y-6901000D02*
X10927000Y-2751000D01*
X20972000Y-6901000D02*
X20972000Y-8276000D01*
D13*
G36*
X45963840Y-10754360D02*
X45928280Y-10822940D01*
X45834300Y-10970260D01*
X45697140Y-11183620D01*
X45526960Y-11432540D01*
X45356780Y-11684000D01*
X45219620Y-11892280D01*
X45125640Y-12037060D01*
X45092620Y-12098020D01*
X45105320Y-12128500D01*
X45163740Y-12250420D01*
X45252640Y-12423140D01*
X45303440Y-12522200D01*
X45374560Y-12682220D01*
X45387260Y-12760960D01*
X45364400Y-12773660D01*
X45242480Y-12832080D01*
X45036740Y-12923520D01*
X44759880Y-13045440D01*
X44437300Y-13182600D01*
X44089320Y-13329920D01*
X43736260Y-13477240D01*
X43398440Y-13616940D01*
X43093640Y-13741400D01*
X42847260Y-13840460D01*
X42674540Y-13906500D01*
X42600880Y-13929360D01*
X42585640Y-13921740D01*
X42506900Y-13843000D01*
X42402760Y-13703300D01*
X42158920Y-13403580D01*
X41790620Y-13106400D01*
X41368980Y-12926060D01*
X40901620Y-12867640D01*
X40467280Y-12918440D01*
X40050720Y-13088620D01*
X39677340Y-13378180D01*
X39397940Y-13731240D01*
X39222680Y-14142720D01*
X39166800Y-14605000D01*
X39215060Y-15046960D01*
X39382700Y-15473680D01*
X39667180Y-15847060D01*
X39850060Y-16004540D01*
X40231060Y-16222980D01*
X40637460Y-16347440D01*
X40741600Y-16360140D01*
X41186100Y-16342360D01*
X41612820Y-16210280D01*
X41996360Y-15974060D01*
X42308780Y-15648940D01*
X42339260Y-15608300D01*
X42451020Y-15455900D01*
X42529760Y-15354300D01*
X42595800Y-15275560D01*
X43962320Y-15841980D01*
X44180760Y-15933420D01*
X44554140Y-16088360D01*
X44874180Y-16225520D01*
X45130720Y-16334740D01*
X45303440Y-16410940D01*
X45372020Y-16443960D01*
X45374560Y-16449040D01*
X45384720Y-16497300D01*
X45346620Y-16603980D01*
X45252640Y-16791940D01*
X45189140Y-16918940D01*
X45118020Y-17063720D01*
X45092620Y-17129760D01*
X45123100Y-17185640D01*
X45214540Y-17325340D01*
X45349160Y-17528540D01*
X45514260Y-17772380D01*
X45674280Y-18003520D01*
X45813980Y-18219420D01*
X45915580Y-18376900D01*
X45956220Y-18450560D01*
X45956220Y-18463260D01*
X45918120Y-18531840D01*
X45813980Y-18653760D01*
X45638720Y-18839180D01*
X45379640Y-19103340D01*
X45339000Y-19143980D01*
X45118020Y-19359880D01*
X44935140Y-19535140D01*
X44803060Y-19654520D01*
X44742100Y-19695160D01*
X44742100Y-19695160D01*
X44668440Y-19657060D01*
X44513500Y-19558000D01*
X44295060Y-19415760D01*
X44041060Y-19243040D01*
X43383200Y-18790920D01*
X42763440Y-19039840D01*
X42572940Y-19116040D01*
X42341800Y-19212560D01*
X42179240Y-19286220D01*
X42105580Y-19321780D01*
X42082720Y-19390360D01*
X42042080Y-19560540D01*
X41991280Y-19804380D01*
X41935400Y-20099020D01*
X41884600Y-20378420D01*
X41836340Y-20632420D01*
X41800780Y-20815300D01*
X41785540Y-20896580D01*
X41772840Y-20916900D01*
X41732200Y-20932140D01*
X41648380Y-20944840D01*
X41493440Y-20949920D01*
X41252140Y-20952460D01*
X40901620Y-20952460D01*
X40863520Y-20952460D01*
X40528240Y-20949920D01*
X40264080Y-20944840D01*
X40088820Y-20934680D01*
X40020240Y-20924520D01*
X40020240Y-20921980D01*
X39999920Y-20843240D01*
X39961820Y-20665440D01*
X39913560Y-20411440D01*
X39855140Y-20111720D01*
X39852600Y-20091400D01*
X39794180Y-19791680D01*
X39740840Y-19540220D01*
X39700200Y-19364960D01*
X39677340Y-19288760D01*
X39657020Y-19273520D01*
X39540180Y-19212560D01*
X39352220Y-19128740D01*
X39126160Y-19027140D01*
X38889940Y-18930620D01*
X38679120Y-18844260D01*
X38519100Y-18788380D01*
X38447980Y-18770600D01*
X38445440Y-18770600D01*
X38374320Y-18816320D01*
X38219380Y-18920460D01*
X38003480Y-19067780D01*
X37746940Y-19240500D01*
X37726620Y-19255740D01*
X37472620Y-19428460D01*
X37259260Y-19568160D01*
X37106860Y-19662140D01*
X37038280Y-19695160D01*
X37033200Y-19695160D01*
X36957000Y-19639280D01*
X36812220Y-19509740D01*
X36619180Y-19324320D01*
X36395660Y-19100800D01*
X36324540Y-19029680D01*
X36085780Y-18783300D01*
X35925760Y-18613120D01*
X35841940Y-18506440D01*
X35824160Y-18455640D01*
X35826700Y-18453100D01*
X35872420Y-18376900D01*
X35976560Y-18216880D01*
X36123880Y-17998440D01*
X36299140Y-17741900D01*
X36311840Y-17721580D01*
X36482020Y-17470120D01*
X36626800Y-17256760D01*
X36725860Y-17106900D01*
X36766500Y-17040860D01*
X36766500Y-17030700D01*
X36736020Y-16926560D01*
X36672520Y-16746220D01*
X36586160Y-16525240D01*
X36492180Y-16289020D01*
X36400740Y-16075660D01*
X36327080Y-15915640D01*
X36286440Y-15839440D01*
X36281360Y-15839440D01*
X36189920Y-15811500D01*
X36001960Y-15768320D01*
X35740340Y-15714980D01*
X35427920Y-15654020D01*
X35379660Y-15646400D01*
X35074860Y-15587980D01*
X34825940Y-15539720D01*
X34653220Y-15504160D01*
X34582100Y-15486380D01*
X34571940Y-15443200D01*
X34561780Y-15295880D01*
X34556700Y-15069820D01*
X34551620Y-14798040D01*
X34554160Y-14508480D01*
X34561780Y-14229080D01*
X34569400Y-13987780D01*
X34582100Y-13817600D01*
X34594800Y-13746480D01*
X34599880Y-13743940D01*
X34693860Y-13716000D01*
X34884360Y-13675360D01*
X35145980Y-13622020D01*
X35458400Y-13561060D01*
X35514280Y-13550900D01*
X35814000Y-13495020D01*
X36062920Y-13444220D01*
X36233100Y-13406120D01*
X36299140Y-13388340D01*
X36314380Y-13360400D01*
X36367720Y-13235940D01*
X36451540Y-13032740D01*
X36553140Y-12783820D01*
X36789360Y-12202160D01*
X36299140Y-11488420D01*
X36255960Y-11424920D01*
X36080700Y-11168380D01*
X35941000Y-10957560D01*
X35847020Y-10810240D01*
X35811460Y-10749280D01*
X35814000Y-10744200D01*
X35877500Y-10673080D01*
X36009580Y-10533380D01*
X36197540Y-10340340D01*
X36421060Y-10114280D01*
X36586160Y-9949180D01*
X36786820Y-9753600D01*
X36921440Y-9629140D01*
X37007800Y-9560560D01*
X37058600Y-9535160D01*
X37094160Y-9542780D01*
X37167820Y-9588500D01*
X37322760Y-9692640D01*
X37541200Y-9839960D01*
X37792660Y-10012680D01*
X38003480Y-10154920D01*
X38242240Y-10309860D01*
X38412420Y-10411460D01*
X38496240Y-10447020D01*
X38531800Y-10436860D01*
X38671500Y-10388600D01*
X38882320Y-10302240D01*
X39133780Y-10195560D01*
X39697660Y-9949180D01*
X39768780Y-9578340D01*
X39809420Y-9354820D01*
X39870380Y-9039860D01*
X39928800Y-8740140D01*
X40020240Y-8272780D01*
X41742360Y-8255000D01*
X41772840Y-8328660D01*
X41790620Y-8397240D01*
X41828720Y-8569960D01*
X41879520Y-8818880D01*
X41932860Y-9110980D01*
X41981120Y-9359900D01*
X42026840Y-9611360D01*
X42062400Y-9791700D01*
X42080180Y-9870440D01*
X42105580Y-9890760D01*
X42227500Y-9954260D01*
X42420540Y-10043160D01*
X42654220Y-10142220D01*
X42895520Y-10243820D01*
X43116500Y-10330180D01*
X43286680Y-10393680D01*
X43373040Y-10416540D01*
X43439080Y-10380980D01*
X43586400Y-10287000D01*
X43797220Y-10147300D01*
X44046140Y-9977120D01*
X44295060Y-9806940D01*
X44508420Y-9664700D01*
X44663360Y-9563100D01*
X44731940Y-9522460D01*
X44780200Y-9542780D01*
X44899580Y-9641840D01*
X45095160Y-9829800D01*
X45372020Y-10109200D01*
X45417740Y-10154920D01*
X45631100Y-10378440D01*
X45803820Y-10566400D01*
X45920660Y-10698480D01*
X45963840Y-10754360D01*
X45963840Y-10754360D01*
G37*
X45963840Y-10754360D02*
X45928280Y-10822940D01*
X45834300Y-10970260D01*
X45697140Y-11183620D01*
X45526960Y-11432540D01*
X45356780Y-11684000D01*
X45219620Y-11892280D01*
X45125640Y-12037060D01*
X45092620Y-12098020D01*
X45105320Y-12128500D01*
X45163740Y-12250420D01*
X45252640Y-12423140D01*
X45303440Y-12522200D01*
X45374560Y-12682220D01*
X45387260Y-12760960D01*
X45364400Y-12773660D01*
X45242480Y-12832080D01*
X45036740Y-12923520D01*
X44759880Y-13045440D01*
X44437300Y-13182600D01*
X44089320Y-13329920D01*
X43736260Y-13477240D01*
X43398440Y-13616940D01*
X43093640Y-13741400D01*
X42847260Y-13840460D01*
X42674540Y-13906500D01*
X42600880Y-13929360D01*
X42585640Y-13921740D01*
X42506900Y-13843000D01*
X42402760Y-13703300D01*
X42158920Y-13403580D01*
X41790620Y-13106400D01*
X41368980Y-12926060D01*
X40901620Y-12867640D01*
X40467280Y-12918440D01*
X40050720Y-13088620D01*
X39677340Y-13378180D01*
X39397940Y-13731240D01*
X39222680Y-14142720D01*
X39166800Y-14605000D01*
X39215060Y-15046960D01*
X39382700Y-15473680D01*
X39667180Y-15847060D01*
X39850060Y-16004540D01*
X40231060Y-16222980D01*
X40637460Y-16347440D01*
X40741600Y-16360140D01*
X41186100Y-16342360D01*
X41612820Y-16210280D01*
X41996360Y-15974060D01*
X42308780Y-15648940D01*
X42339260Y-15608300D01*
X42451020Y-15455900D01*
X42529760Y-15354300D01*
X42595800Y-15275560D01*
X43962320Y-15841980D01*
X44180760Y-15933420D01*
X44554140Y-16088360D01*
X44874180Y-16225520D01*
X45130720Y-16334740D01*
X45303440Y-16410940D01*
X45372020Y-16443960D01*
X45374560Y-16449040D01*
X45384720Y-16497300D01*
X45346620Y-16603980D01*
X45252640Y-16791940D01*
X45189140Y-16918940D01*
X45118020Y-17063720D01*
X45092620Y-17129760D01*
X45123100Y-17185640D01*
X45214540Y-17325340D01*
X45349160Y-17528540D01*
X45514260Y-17772380D01*
X45674280Y-18003520D01*
X45813980Y-18219420D01*
X45915580Y-18376900D01*
X45956220Y-18450560D01*
X45956220Y-18463260D01*
X45918120Y-18531840D01*
X45813980Y-18653760D01*
X45638720Y-18839180D01*
X45379640Y-19103340D01*
X45339000Y-19143980D01*
X45118020Y-19359880D01*
X44935140Y-19535140D01*
X44803060Y-19654520D01*
X44742100Y-19695160D01*
X44742100Y-19695160D01*
X44668440Y-19657060D01*
X44513500Y-19558000D01*
X44295060Y-19415760D01*
X44041060Y-19243040D01*
X43383200Y-18790920D01*
X42763440Y-19039840D01*
X42572940Y-19116040D01*
X42341800Y-19212560D01*
X42179240Y-19286220D01*
X42105580Y-19321780D01*
X42082720Y-19390360D01*
X42042080Y-19560540D01*
X41991280Y-19804380D01*
X41935400Y-20099020D01*
X41884600Y-20378420D01*
X41836340Y-20632420D01*
X41800780Y-20815300D01*
X41785540Y-20896580D01*
X41772840Y-20916900D01*
X41732200Y-20932140D01*
X41648380Y-20944840D01*
X41493440Y-20949920D01*
X41252140Y-20952460D01*
X40901620Y-20952460D01*
X40863520Y-20952460D01*
X40528240Y-20949920D01*
X40264080Y-20944840D01*
X40088820Y-20934680D01*
X40020240Y-20924520D01*
X40020240Y-20921980D01*
X39999920Y-20843240D01*
X39961820Y-20665440D01*
X39913560Y-20411440D01*
X39855140Y-20111720D01*
X39852600Y-20091400D01*
X39794180Y-19791680D01*
X39740840Y-19540220D01*
X39700200Y-19364960D01*
X39677340Y-19288760D01*
X39657020Y-19273520D01*
X39540180Y-19212560D01*
X39352220Y-19128740D01*
X39126160Y-19027140D01*
X38889940Y-18930620D01*
X38679120Y-18844260D01*
X38519100Y-18788380D01*
X38447980Y-18770600D01*
X38445440Y-18770600D01*
X38374320Y-18816320D01*
X38219380Y-18920460D01*
X38003480Y-19067780D01*
X37746940Y-19240500D01*
X37726620Y-19255740D01*
X37472620Y-19428460D01*
X37259260Y-19568160D01*
X37106860Y-19662140D01*
X37038280Y-19695160D01*
X37033200Y-19695160D01*
X36957000Y-19639280D01*
X36812220Y-19509740D01*
X36619180Y-19324320D01*
X36395660Y-19100800D01*
X36324540Y-19029680D01*
X36085780Y-18783300D01*
X35925760Y-18613120D01*
X35841940Y-18506440D01*
X35824160Y-18455640D01*
X35826700Y-18453100D01*
X35872420Y-18376900D01*
X35976560Y-18216880D01*
X36123880Y-17998440D01*
X36299140Y-17741900D01*
X36311840Y-17721580D01*
X36482020Y-17470120D01*
X36626800Y-17256760D01*
X36725860Y-17106900D01*
X36766500Y-17040860D01*
X36766500Y-17030700D01*
X36736020Y-16926560D01*
X36672520Y-16746220D01*
X36586160Y-16525240D01*
X36492180Y-16289020D01*
X36400740Y-16075660D01*
X36327080Y-15915640D01*
X36286440Y-15839440D01*
X36281360Y-15839440D01*
X36189920Y-15811500D01*
X36001960Y-15768320D01*
X35740340Y-15714980D01*
X35427920Y-15654020D01*
X35379660Y-15646400D01*
X35074860Y-15587980D01*
X34825940Y-15539720D01*
X34653220Y-15504160D01*
X34582100Y-15486380D01*
X34571940Y-15443200D01*
X34561780Y-15295880D01*
X34556700Y-15069820D01*
X34551620Y-14798040D01*
X34554160Y-14508480D01*
X34561780Y-14229080D01*
X34569400Y-13987780D01*
X34582100Y-13817600D01*
X34594800Y-13746480D01*
X34599880Y-13743940D01*
X34693860Y-13716000D01*
X34884360Y-13675360D01*
X35145980Y-13622020D01*
X35458400Y-13561060D01*
X35514280Y-13550900D01*
X35814000Y-13495020D01*
X36062920Y-13444220D01*
X36233100Y-13406120D01*
X36299140Y-13388340D01*
X36314380Y-13360400D01*
X36367720Y-13235940D01*
X36451540Y-13032740D01*
X36553140Y-12783820D01*
X36789360Y-12202160D01*
X36299140Y-11488420D01*
X36255960Y-11424920D01*
X36080700Y-11168380D01*
X35941000Y-10957560D01*
X35847020Y-10810240D01*
X35811460Y-10749280D01*
X35814000Y-10744200D01*
X35877500Y-10673080D01*
X36009580Y-10533380D01*
X36197540Y-10340340D01*
X36421060Y-10114280D01*
X36586160Y-9949180D01*
X36786820Y-9753600D01*
X36921440Y-9629140D01*
X37007800Y-9560560D01*
X37058600Y-9535160D01*
X37094160Y-9542780D01*
X37167820Y-9588500D01*
X37322760Y-9692640D01*
X37541200Y-9839960D01*
X37792660Y-10012680D01*
X38003480Y-10154920D01*
X38242240Y-10309860D01*
X38412420Y-10411460D01*
X38496240Y-10447020D01*
X38531800Y-10436860D01*
X38671500Y-10388600D01*
X38882320Y-10302240D01*
X39133780Y-10195560D01*
X39697660Y-9949180D01*
X39768780Y-9578340D01*
X39809420Y-9354820D01*
X39870380Y-9039860D01*
X39928800Y-8740140D01*
X40020240Y-8272780D01*
X41742360Y-8255000D01*
X41772840Y-8328660D01*
X41790620Y-8397240D01*
X41828720Y-8569960D01*
X41879520Y-8818880D01*
X41932860Y-9110980D01*
X41981120Y-9359900D01*
X42026840Y-9611360D01*
X42062400Y-9791700D01*
X42080180Y-9870440D01*
X42105580Y-9890760D01*
X42227500Y-9954260D01*
X42420540Y-10043160D01*
X42654220Y-10142220D01*
X42895520Y-10243820D01*
X43116500Y-10330180D01*
X43286680Y-10393680D01*
X43373040Y-10416540D01*
X43439080Y-10380980D01*
X43586400Y-10287000D01*
X43797220Y-10147300D01*
X44046140Y-9977120D01*
X44295060Y-9806940D01*
X44508420Y-9664700D01*
X44663360Y-9563100D01*
X44731940Y-9522460D01*
X44780200Y-9542780D01*
X44899580Y-9641840D01*
X45095160Y-9829800D01*
X45372020Y-10109200D01*
X45417740Y-10154920D01*
X45631100Y-10378440D01*
X45803820Y-10566400D01*
X45920660Y-10698480D01*
X45963840Y-10754360D01*
D11*
X25630095Y-1504381D02*
X25630095Y-504381D01*
X25392000Y-504381D01*
X25249142Y-552000D01*
X25153904Y-647238D01*
X25106285Y-742476D01*
X25058666Y-932952D01*
X25058666Y-1075810D01*
X25106285Y-1266286D01*
X25153904Y-1361524D01*
X25249142Y-1456762D01*
X25392000Y-1504381D01*
X25630095Y-1504381D01*
X24106285Y-1504381D02*
X24677714Y-1504381D01*
X24392000Y-1504381D02*
X24392000Y-504381D01*
X24487238Y-647238D01*
X24582476Y-742476D01*
X24677714Y-790095D01*
D12*
X9496657Y-19151714D02*
X10468086Y-19151714D01*
X10582371Y-19208857D01*
X10639514Y-19266000D01*
X10696657Y-19380286D01*
X10696657Y-19608857D01*
X10639514Y-19723143D01*
X10582371Y-19780286D01*
X10468086Y-19837429D01*
X9496657Y-19837429D01*
X10696657Y-21037429D02*
X10696657Y-20351714D01*
X10696657Y-20694572D02*
X9496657Y-20694572D01*
X9668086Y-20580286D01*
X9782371Y-20466000D01*
X9839514Y-20351714D01*
D11*
X9454381Y-4064095D02*
X10263905Y-4064095D01*
X10359143Y-4111714D01*
X10406762Y-4159333D01*
X10454381Y-4254571D01*
X10454381Y-4445048D01*
X10406762Y-4540286D01*
X10359143Y-4587905D01*
X10263905Y-4635524D01*
X9454381Y-4635524D01*
X9549619Y-5064095D02*
X9502000Y-5111714D01*
X9454381Y-5206952D01*
X9454381Y-5445048D01*
X9502000Y-5540286D01*
X9549619Y-5587905D01*
X9644857Y-5635524D01*
X9740095Y-5635524D01*
X9882952Y-5587905D01*
X10454381Y-5016476D01*
X10454381Y-5635524D01*
%LPC*%
D14*
X4191000Y-20320000D03*
D15*
X3683000Y-2540000D03*
D14*
X4191000Y-3810000D03*
X4191000Y-5080000D03*
X4191000Y-6350000D03*
X4191000Y-7620000D03*
X4191000Y-8890000D03*
X4191000Y-10160000D03*
X4191000Y-11430000D03*
X4191000Y-12700000D03*
X4191000Y-13970000D03*
X4191000Y-15240000D03*
X4191000Y-16510000D03*
X4191000Y-17780000D03*
X4191000Y-19050000D03*
X4191000Y-21590000D03*
X4191000Y-22860000D03*
X4191000Y-24130000D03*
X4191000Y-25400000D03*
D15*
X3683000Y-26670000D03*
D16*
X25842000Y-4302760D03*
X23942000Y-4302760D03*
X24892000Y-2303780D03*
D17*
X31115000Y-26416000D03*
X29845000Y-26416000D03*
X28575000Y-26416000D03*
X27305000Y-26416000D03*
X26035000Y-26416000D03*
X24765000Y-26416000D03*
X23495000Y-26416000D03*
X22225000Y-26416000D03*
X20955000Y-26416000D03*
X19685000Y-26416000D03*
X18415000Y-26416000D03*
X17145000Y-26416000D03*
X15875000Y-26416000D03*
X14605000Y-26416000D03*
X13335000Y-26416000D03*
X12065000Y-26416000D03*
X31115000Y-13716000D03*
X29845000Y-13716000D03*
X28575000Y-13716000D03*
X27305000Y-13716000D03*
X26035000Y-13716000D03*
X24765000Y-13716000D03*
X23495000Y-13716000D03*
X22225000Y-13716000D03*
X20955000Y-13716000D03*
X19685000Y-13716000D03*
X18415000Y-13716000D03*
X17145000Y-13716000D03*
X15875000Y-13716000D03*
X14605000Y-13716000D03*
X13335000Y-13716000D03*
X12065000Y-13716000D03*
D18*
X20447000Y-7526000D03*
X19177000Y-7526000D03*
X17907000Y-7526000D03*
X16637000Y-7526000D03*
X15367000Y-7526000D03*
X14097000Y-7526000D03*
X12827000Y-7526000D03*
X11557000Y-7526000D03*
X11557000Y-2126000D03*
X12827000Y-2126000D03*
X14097000Y-2126000D03*
X15367000Y-2126000D03*
X16637000Y-2126000D03*
X17907000Y-2126000D03*
X19177000Y-2126000D03*
X20447000Y-2126000D03*
D19*
X28702000Y-2032000D03*
D20*
X28702000Y-4032000D03*
M02*
