%FSLAX46Y46*%
G04 Gerber Fmt 4.6, Leading zero omitted, Abs format (unit mm)*
G04 Created by KiCad (PCBNEW (2014-10-27 BZR 5228)-product) date 5/9/2015 4:57:06 PM*
%MOMM*%
G01*
G04 APERTURE LIST*
%ADD10C,0.100000*%
%ADD11C,0.150000*%
%ADD12C,0.002540*%
%ADD13C,0.200000*%
%ADD14R,6.350000X1.016000*%
%ADD15R,7.366000X1.016000*%
%ADD16R,0.800100X0.800100*%
%ADD17R,0.600000X1.500000*%
%ADD18R,2.499360X1.950720*%
%ADD19R,0.500000X0.900000*%
%ADD20R,0.406400X1.000000*%
G04 APERTURE END LIST*
D10*
D11*
X43672760Y-28477160D02*
X43672760Y-28428900D01*
X44373800Y-25678180D02*
X43672760Y-25678180D01*
X43672760Y-25678180D02*
X43672760Y-25927100D01*
X43672760Y-28477160D02*
X43672760Y-28677820D01*
X43672760Y-28677820D02*
X44373800Y-28677820D01*
X21077000Y-7409000D02*
X20972000Y-7409000D01*
X21077000Y-3259000D02*
X20972000Y-3259000D01*
X10927000Y-3259000D02*
X11032000Y-3259000D01*
X10927000Y-7409000D02*
X11032000Y-7409000D01*
X21077000Y-7409000D02*
X21077000Y-3259000D01*
X10927000Y-7409000D02*
X10927000Y-3259000D01*
X20972000Y-7409000D02*
X20972000Y-8784000D01*
D12*
G36*
X45582840Y-12913360D02*
X45547280Y-12981940D01*
X45453300Y-13129260D01*
X45316140Y-13342620D01*
X45145960Y-13591540D01*
X44975780Y-13843000D01*
X44838620Y-14051280D01*
X44744640Y-14196060D01*
X44711620Y-14257020D01*
X44724320Y-14287500D01*
X44782740Y-14409420D01*
X44871640Y-14582140D01*
X44922440Y-14681200D01*
X44993560Y-14841220D01*
X45006260Y-14919960D01*
X44983400Y-14932660D01*
X44861480Y-14991080D01*
X44655740Y-15082520D01*
X44378880Y-15204440D01*
X44056300Y-15341600D01*
X43708320Y-15488920D01*
X43355260Y-15636240D01*
X43017440Y-15775940D01*
X42712640Y-15900400D01*
X42466260Y-15999460D01*
X42293540Y-16065500D01*
X42219880Y-16088360D01*
X42204640Y-16080740D01*
X42125900Y-16002000D01*
X42021760Y-15862300D01*
X41777920Y-15562580D01*
X41409620Y-15265400D01*
X40987980Y-15085060D01*
X40520620Y-15026640D01*
X40086280Y-15077440D01*
X39669720Y-15247620D01*
X39296340Y-15537180D01*
X39016940Y-15890240D01*
X38841680Y-16301720D01*
X38785800Y-16764000D01*
X38834060Y-17205960D01*
X39001700Y-17632680D01*
X39286180Y-18006060D01*
X39469060Y-18163540D01*
X39850060Y-18381980D01*
X40256460Y-18506440D01*
X40360600Y-18519140D01*
X40805100Y-18501360D01*
X41231820Y-18369280D01*
X41615360Y-18133060D01*
X41927780Y-17807940D01*
X41958260Y-17767300D01*
X42070020Y-17614900D01*
X42148760Y-17513300D01*
X42214800Y-17434560D01*
X43581320Y-18000980D01*
X43799760Y-18092420D01*
X44173140Y-18247360D01*
X44493180Y-18384520D01*
X44749720Y-18493740D01*
X44922440Y-18569940D01*
X44991020Y-18602960D01*
X44993560Y-18608040D01*
X45003720Y-18656300D01*
X44965620Y-18762980D01*
X44871640Y-18950940D01*
X44808140Y-19077940D01*
X44737020Y-19222720D01*
X44711620Y-19288760D01*
X44742100Y-19344640D01*
X44833540Y-19484340D01*
X44968160Y-19687540D01*
X45133260Y-19931380D01*
X45293280Y-20162520D01*
X45432980Y-20378420D01*
X45534580Y-20535900D01*
X45575220Y-20609560D01*
X45575220Y-20622260D01*
X45537120Y-20690840D01*
X45432980Y-20812760D01*
X45257720Y-20998180D01*
X44998640Y-21262340D01*
X44958000Y-21302980D01*
X44737020Y-21518880D01*
X44554140Y-21694140D01*
X44422060Y-21813520D01*
X44361100Y-21854160D01*
X44361100Y-21854160D01*
X44287440Y-21816060D01*
X44132500Y-21717000D01*
X43914060Y-21574760D01*
X43660060Y-21402040D01*
X43002200Y-20949920D01*
X42382440Y-21198840D01*
X42191940Y-21275040D01*
X41960800Y-21371560D01*
X41798240Y-21445220D01*
X41724580Y-21480780D01*
X41701720Y-21549360D01*
X41661080Y-21719540D01*
X41610280Y-21963380D01*
X41554400Y-22258020D01*
X41503600Y-22537420D01*
X41455340Y-22791420D01*
X41419780Y-22974300D01*
X41404540Y-23055580D01*
X41391840Y-23075900D01*
X41351200Y-23091140D01*
X41267380Y-23103840D01*
X41112440Y-23108920D01*
X40871140Y-23111460D01*
X40520620Y-23111460D01*
X40482520Y-23111460D01*
X40147240Y-23108920D01*
X39883080Y-23103840D01*
X39707820Y-23093680D01*
X39639240Y-23083520D01*
X39639240Y-23080980D01*
X39618920Y-23002240D01*
X39580820Y-22824440D01*
X39532560Y-22570440D01*
X39474140Y-22270720D01*
X39471600Y-22250400D01*
X39413180Y-21950680D01*
X39359840Y-21699220D01*
X39319200Y-21523960D01*
X39296340Y-21447760D01*
X39276020Y-21432520D01*
X39159180Y-21371560D01*
X38971220Y-21287740D01*
X38745160Y-21186140D01*
X38508940Y-21089620D01*
X38298120Y-21003260D01*
X38138100Y-20947380D01*
X38066980Y-20929600D01*
X38064440Y-20929600D01*
X37993320Y-20975320D01*
X37838380Y-21079460D01*
X37622480Y-21226780D01*
X37365940Y-21399500D01*
X37345620Y-21414740D01*
X37091620Y-21587460D01*
X36878260Y-21727160D01*
X36725860Y-21821140D01*
X36657280Y-21854160D01*
X36652200Y-21854160D01*
X36576000Y-21798280D01*
X36431220Y-21668740D01*
X36238180Y-21483320D01*
X36014660Y-21259800D01*
X35943540Y-21188680D01*
X35704780Y-20942300D01*
X35544760Y-20772120D01*
X35460940Y-20665440D01*
X35443160Y-20614640D01*
X35445700Y-20612100D01*
X35491420Y-20535900D01*
X35595560Y-20375880D01*
X35742880Y-20157440D01*
X35918140Y-19900900D01*
X35930840Y-19880580D01*
X36101020Y-19629120D01*
X36245800Y-19415760D01*
X36344860Y-19265900D01*
X36385500Y-19199860D01*
X36385500Y-19189700D01*
X36355020Y-19085560D01*
X36291520Y-18905220D01*
X36205160Y-18684240D01*
X36111180Y-18448020D01*
X36019740Y-18234660D01*
X35946080Y-18074640D01*
X35905440Y-17998440D01*
X35900360Y-17998440D01*
X35808920Y-17970500D01*
X35620960Y-17927320D01*
X35359340Y-17873980D01*
X35046920Y-17813020D01*
X34998660Y-17805400D01*
X34693860Y-17746980D01*
X34444940Y-17698720D01*
X34272220Y-17663160D01*
X34201100Y-17645380D01*
X34190940Y-17602200D01*
X34180780Y-17454880D01*
X34175700Y-17228820D01*
X34170620Y-16957040D01*
X34173160Y-16667480D01*
X34180780Y-16388080D01*
X34188400Y-16146780D01*
X34201100Y-15976600D01*
X34213800Y-15905480D01*
X34218880Y-15902940D01*
X34312860Y-15875000D01*
X34503360Y-15834360D01*
X34764980Y-15781020D01*
X35077400Y-15720060D01*
X35133280Y-15709900D01*
X35433000Y-15654020D01*
X35681920Y-15603220D01*
X35852100Y-15565120D01*
X35918140Y-15547340D01*
X35933380Y-15519400D01*
X35986720Y-15394940D01*
X36070540Y-15191740D01*
X36172140Y-14942820D01*
X36408360Y-14361160D01*
X35918140Y-13647420D01*
X35874960Y-13583920D01*
X35699700Y-13327380D01*
X35560000Y-13116560D01*
X35466020Y-12969240D01*
X35430460Y-12908280D01*
X35433000Y-12903200D01*
X35496500Y-12832080D01*
X35628580Y-12692380D01*
X35816540Y-12499340D01*
X36040060Y-12273280D01*
X36205160Y-12108180D01*
X36405820Y-11912600D01*
X36540440Y-11788140D01*
X36626800Y-11719560D01*
X36677600Y-11694160D01*
X36713160Y-11701780D01*
X36786820Y-11747500D01*
X36941760Y-11851640D01*
X37160200Y-11998960D01*
X37411660Y-12171680D01*
X37622480Y-12313920D01*
X37861240Y-12468860D01*
X38031420Y-12570460D01*
X38115240Y-12606020D01*
X38150800Y-12595860D01*
X38290500Y-12547600D01*
X38501320Y-12461240D01*
X38752780Y-12354560D01*
X39316660Y-12108180D01*
X39387780Y-11737340D01*
X39428420Y-11513820D01*
X39489380Y-11198860D01*
X39547800Y-10899140D01*
X39639240Y-10431780D01*
X41361360Y-10414000D01*
X41391840Y-10487660D01*
X41409620Y-10556240D01*
X41447720Y-10728960D01*
X41498520Y-10977880D01*
X41551860Y-11269980D01*
X41600120Y-11518900D01*
X41645840Y-11770360D01*
X41681400Y-11950700D01*
X41699180Y-12029440D01*
X41724580Y-12049760D01*
X41846500Y-12113260D01*
X42039540Y-12202160D01*
X42273220Y-12301220D01*
X42514520Y-12402820D01*
X42735500Y-12489180D01*
X42905680Y-12552680D01*
X42992040Y-12575540D01*
X43058080Y-12539980D01*
X43205400Y-12446000D01*
X43416220Y-12306300D01*
X43665140Y-12136120D01*
X43914060Y-11965940D01*
X44127420Y-11823700D01*
X44282360Y-11722100D01*
X44350940Y-11681460D01*
X44399200Y-11701780D01*
X44518580Y-11800840D01*
X44714160Y-11988800D01*
X44991020Y-12268200D01*
X45036740Y-12313920D01*
X45250100Y-12537440D01*
X45422820Y-12725400D01*
X45539660Y-12857480D01*
X45582840Y-12913360D01*
X45582840Y-12913360D01*
G37*
X45582840Y-12913360D02*
X45547280Y-12981940D01*
X45453300Y-13129260D01*
X45316140Y-13342620D01*
X45145960Y-13591540D01*
X44975780Y-13843000D01*
X44838620Y-14051280D01*
X44744640Y-14196060D01*
X44711620Y-14257020D01*
X44724320Y-14287500D01*
X44782740Y-14409420D01*
X44871640Y-14582140D01*
X44922440Y-14681200D01*
X44993560Y-14841220D01*
X45006260Y-14919960D01*
X44983400Y-14932660D01*
X44861480Y-14991080D01*
X44655740Y-15082520D01*
X44378880Y-15204440D01*
X44056300Y-15341600D01*
X43708320Y-15488920D01*
X43355260Y-15636240D01*
X43017440Y-15775940D01*
X42712640Y-15900400D01*
X42466260Y-15999460D01*
X42293540Y-16065500D01*
X42219880Y-16088360D01*
X42204640Y-16080740D01*
X42125900Y-16002000D01*
X42021760Y-15862300D01*
X41777920Y-15562580D01*
X41409620Y-15265400D01*
X40987980Y-15085060D01*
X40520620Y-15026640D01*
X40086280Y-15077440D01*
X39669720Y-15247620D01*
X39296340Y-15537180D01*
X39016940Y-15890240D01*
X38841680Y-16301720D01*
X38785800Y-16764000D01*
X38834060Y-17205960D01*
X39001700Y-17632680D01*
X39286180Y-18006060D01*
X39469060Y-18163540D01*
X39850060Y-18381980D01*
X40256460Y-18506440D01*
X40360600Y-18519140D01*
X40805100Y-18501360D01*
X41231820Y-18369280D01*
X41615360Y-18133060D01*
X41927780Y-17807940D01*
X41958260Y-17767300D01*
X42070020Y-17614900D01*
X42148760Y-17513300D01*
X42214800Y-17434560D01*
X43581320Y-18000980D01*
X43799760Y-18092420D01*
X44173140Y-18247360D01*
X44493180Y-18384520D01*
X44749720Y-18493740D01*
X44922440Y-18569940D01*
X44991020Y-18602960D01*
X44993560Y-18608040D01*
X45003720Y-18656300D01*
X44965620Y-18762980D01*
X44871640Y-18950940D01*
X44808140Y-19077940D01*
X44737020Y-19222720D01*
X44711620Y-19288760D01*
X44742100Y-19344640D01*
X44833540Y-19484340D01*
X44968160Y-19687540D01*
X45133260Y-19931380D01*
X45293280Y-20162520D01*
X45432980Y-20378420D01*
X45534580Y-20535900D01*
X45575220Y-20609560D01*
X45575220Y-20622260D01*
X45537120Y-20690840D01*
X45432980Y-20812760D01*
X45257720Y-20998180D01*
X44998640Y-21262340D01*
X44958000Y-21302980D01*
X44737020Y-21518880D01*
X44554140Y-21694140D01*
X44422060Y-21813520D01*
X44361100Y-21854160D01*
X44361100Y-21854160D01*
X44287440Y-21816060D01*
X44132500Y-21717000D01*
X43914060Y-21574760D01*
X43660060Y-21402040D01*
X43002200Y-20949920D01*
X42382440Y-21198840D01*
X42191940Y-21275040D01*
X41960800Y-21371560D01*
X41798240Y-21445220D01*
X41724580Y-21480780D01*
X41701720Y-21549360D01*
X41661080Y-21719540D01*
X41610280Y-21963380D01*
X41554400Y-22258020D01*
X41503600Y-22537420D01*
X41455340Y-22791420D01*
X41419780Y-22974300D01*
X41404540Y-23055580D01*
X41391840Y-23075900D01*
X41351200Y-23091140D01*
X41267380Y-23103840D01*
X41112440Y-23108920D01*
X40871140Y-23111460D01*
X40520620Y-23111460D01*
X40482520Y-23111460D01*
X40147240Y-23108920D01*
X39883080Y-23103840D01*
X39707820Y-23093680D01*
X39639240Y-23083520D01*
X39639240Y-23080980D01*
X39618920Y-23002240D01*
X39580820Y-22824440D01*
X39532560Y-22570440D01*
X39474140Y-22270720D01*
X39471600Y-22250400D01*
X39413180Y-21950680D01*
X39359840Y-21699220D01*
X39319200Y-21523960D01*
X39296340Y-21447760D01*
X39276020Y-21432520D01*
X39159180Y-21371560D01*
X38971220Y-21287740D01*
X38745160Y-21186140D01*
X38508940Y-21089620D01*
X38298120Y-21003260D01*
X38138100Y-20947380D01*
X38066980Y-20929600D01*
X38064440Y-20929600D01*
X37993320Y-20975320D01*
X37838380Y-21079460D01*
X37622480Y-21226780D01*
X37365940Y-21399500D01*
X37345620Y-21414740D01*
X37091620Y-21587460D01*
X36878260Y-21727160D01*
X36725860Y-21821140D01*
X36657280Y-21854160D01*
X36652200Y-21854160D01*
X36576000Y-21798280D01*
X36431220Y-21668740D01*
X36238180Y-21483320D01*
X36014660Y-21259800D01*
X35943540Y-21188680D01*
X35704780Y-20942300D01*
X35544760Y-20772120D01*
X35460940Y-20665440D01*
X35443160Y-20614640D01*
X35445700Y-20612100D01*
X35491420Y-20535900D01*
X35595560Y-20375880D01*
X35742880Y-20157440D01*
X35918140Y-19900900D01*
X35930840Y-19880580D01*
X36101020Y-19629120D01*
X36245800Y-19415760D01*
X36344860Y-19265900D01*
X36385500Y-19199860D01*
X36385500Y-19189700D01*
X36355020Y-19085560D01*
X36291520Y-18905220D01*
X36205160Y-18684240D01*
X36111180Y-18448020D01*
X36019740Y-18234660D01*
X35946080Y-18074640D01*
X35905440Y-17998440D01*
X35900360Y-17998440D01*
X35808920Y-17970500D01*
X35620960Y-17927320D01*
X35359340Y-17873980D01*
X35046920Y-17813020D01*
X34998660Y-17805400D01*
X34693860Y-17746980D01*
X34444940Y-17698720D01*
X34272220Y-17663160D01*
X34201100Y-17645380D01*
X34190940Y-17602200D01*
X34180780Y-17454880D01*
X34175700Y-17228820D01*
X34170620Y-16957040D01*
X34173160Y-16667480D01*
X34180780Y-16388080D01*
X34188400Y-16146780D01*
X34201100Y-15976600D01*
X34213800Y-15905480D01*
X34218880Y-15902940D01*
X34312860Y-15875000D01*
X34503360Y-15834360D01*
X34764980Y-15781020D01*
X35077400Y-15720060D01*
X35133280Y-15709900D01*
X35433000Y-15654020D01*
X35681920Y-15603220D01*
X35852100Y-15565120D01*
X35918140Y-15547340D01*
X35933380Y-15519400D01*
X35986720Y-15394940D01*
X36070540Y-15191740D01*
X36172140Y-14942820D01*
X36408360Y-14361160D01*
X35918140Y-13647420D01*
X35874960Y-13583920D01*
X35699700Y-13327380D01*
X35560000Y-13116560D01*
X35466020Y-12969240D01*
X35430460Y-12908280D01*
X35433000Y-12903200D01*
X35496500Y-12832080D01*
X35628580Y-12692380D01*
X35816540Y-12499340D01*
X36040060Y-12273280D01*
X36205160Y-12108180D01*
X36405820Y-11912600D01*
X36540440Y-11788140D01*
X36626800Y-11719560D01*
X36677600Y-11694160D01*
X36713160Y-11701780D01*
X36786820Y-11747500D01*
X36941760Y-11851640D01*
X37160200Y-11998960D01*
X37411660Y-12171680D01*
X37622480Y-12313920D01*
X37861240Y-12468860D01*
X38031420Y-12570460D01*
X38115240Y-12606020D01*
X38150800Y-12595860D01*
X38290500Y-12547600D01*
X38501320Y-12461240D01*
X38752780Y-12354560D01*
X39316660Y-12108180D01*
X39387780Y-11737340D01*
X39428420Y-11513820D01*
X39489380Y-11198860D01*
X39547800Y-10899140D01*
X39639240Y-10431780D01*
X41361360Y-10414000D01*
X41391840Y-10487660D01*
X41409620Y-10556240D01*
X41447720Y-10728960D01*
X41498520Y-10977880D01*
X41551860Y-11269980D01*
X41600120Y-11518900D01*
X41645840Y-11770360D01*
X41681400Y-11950700D01*
X41699180Y-12029440D01*
X41724580Y-12049760D01*
X41846500Y-12113260D01*
X42039540Y-12202160D01*
X42273220Y-12301220D01*
X42514520Y-12402820D01*
X42735500Y-12489180D01*
X42905680Y-12552680D01*
X42992040Y-12575540D01*
X43058080Y-12539980D01*
X43205400Y-12446000D01*
X43416220Y-12306300D01*
X43665140Y-12136120D01*
X43914060Y-11965940D01*
X44127420Y-11823700D01*
X44282360Y-11722100D01*
X44350940Y-11681460D01*
X44399200Y-11701780D01*
X44518580Y-11800840D01*
X44714160Y-11988800D01*
X44991020Y-12268200D01*
X45036740Y-12313920D01*
X45250100Y-12537440D01*
X45422820Y-12725400D01*
X45539660Y-12857480D01*
X45582840Y-12913360D01*
D11*
X31750000Y-8255000D02*
X34544000Y-8255000D01*
X31750000Y-8763000D02*
X31750000Y-2667000D01*
X31750000Y-2667000D02*
X34544000Y-2667000D01*
X34544000Y-2667000D02*
X34544000Y-8763000D01*
X34544000Y-8763000D02*
X31750000Y-8763000D01*
X36576000Y-8255000D02*
X39370000Y-8255000D01*
X36576000Y-8763000D02*
X36576000Y-2667000D01*
X36576000Y-2667000D02*
X39370000Y-2667000D01*
X39370000Y-2667000D02*
X39370000Y-8763000D01*
X39370000Y-8763000D02*
X36576000Y-8763000D01*
X41148000Y-8255000D02*
X43942000Y-8255000D01*
X41148000Y-8763000D02*
X41148000Y-2667000D01*
X41148000Y-2667000D02*
X43942000Y-2667000D01*
X43942000Y-2667000D02*
X43942000Y-8763000D01*
X43942000Y-8763000D02*
X41148000Y-8763000D01*
X28186000Y-9739000D02*
X27186000Y-9739000D01*
X27186000Y-11089000D02*
X28186000Y-11089000D01*
X23757000Y-11089000D02*
X24757000Y-11089000D01*
X24757000Y-9739000D02*
X23757000Y-9739000D01*
D13*
X31826200Y-26622500D02*
X30826200Y-27622500D01*
X30826200Y-27622500D02*
X11353800Y-27622500D01*
X11353800Y-27622500D02*
X11353800Y-12509500D01*
X11353800Y-12509500D02*
X31826200Y-12509500D01*
X31826200Y-12509500D02*
X31826200Y-26622500D01*
D11*
X42525381Y-26439905D02*
X41525381Y-26439905D01*
X41525381Y-26678000D01*
X41573000Y-26820858D01*
X41668238Y-26916096D01*
X41763476Y-26963715D01*
X41953952Y-27011334D01*
X42096810Y-27011334D01*
X42287286Y-26963715D01*
X42382524Y-26916096D01*
X42477762Y-26820858D01*
X42525381Y-26678000D01*
X42525381Y-26439905D01*
X42525381Y-27963715D02*
X42525381Y-27392286D01*
X42525381Y-27678000D02*
X41525381Y-27678000D01*
X41668238Y-27582762D01*
X41763476Y-27487524D01*
X41811095Y-27392286D01*
X9454381Y-4572095D02*
X10263905Y-4572095D01*
X10359143Y-4619714D01*
X10406762Y-4667333D01*
X10454381Y-4762571D01*
X10454381Y-4953048D01*
X10406762Y-5048286D01*
X10359143Y-5095905D01*
X10263905Y-5143524D01*
X9454381Y-5143524D01*
X9549619Y-5572095D02*
X9502000Y-5619714D01*
X9454381Y-5714952D01*
X9454381Y-5953048D01*
X9502000Y-6048286D01*
X9549619Y-6095905D01*
X9644857Y-6143524D01*
X9740095Y-6143524D01*
X9882952Y-6095905D01*
X10454381Y-5524476D01*
X10454381Y-6143524D01*
X35790143Y-5294334D02*
X35837762Y-5246715D01*
X35885381Y-5103858D01*
X35885381Y-5008620D01*
X35837762Y-4865762D01*
X35742524Y-4770524D01*
X35647286Y-4722905D01*
X35456810Y-4675286D01*
X35313952Y-4675286D01*
X35123476Y-4722905D01*
X35028238Y-4770524D01*
X34933000Y-4865762D01*
X34885381Y-5008620D01*
X34885381Y-5103858D01*
X34933000Y-5246715D01*
X34980619Y-5294334D01*
X35885381Y-6246715D02*
X35885381Y-5675286D01*
X35885381Y-5961000D02*
X34885381Y-5961000D01*
X35028238Y-5865762D01*
X35123476Y-5770524D01*
X35171095Y-5675286D01*
X40616143Y-5294334D02*
X40663762Y-5246715D01*
X40711381Y-5103858D01*
X40711381Y-5008620D01*
X40663762Y-4865762D01*
X40568524Y-4770524D01*
X40473286Y-4722905D01*
X40282810Y-4675286D01*
X40139952Y-4675286D01*
X39949476Y-4722905D01*
X39854238Y-4770524D01*
X39759000Y-4865762D01*
X39711381Y-5008620D01*
X39711381Y-5103858D01*
X39759000Y-5246715D01*
X39806619Y-5294334D01*
X39806619Y-5675286D02*
X39759000Y-5722905D01*
X39711381Y-5818143D01*
X39711381Y-6056239D01*
X39759000Y-6151477D01*
X39806619Y-6199096D01*
X39901857Y-6246715D01*
X39997095Y-6246715D01*
X40139952Y-6199096D01*
X40711381Y-5627667D01*
X40711381Y-6246715D01*
X45188143Y-5294334D02*
X45235762Y-5246715D01*
X45283381Y-5103858D01*
X45283381Y-5008620D01*
X45235762Y-4865762D01*
X45140524Y-4770524D01*
X45045286Y-4722905D01*
X44854810Y-4675286D01*
X44711952Y-4675286D01*
X44521476Y-4722905D01*
X44426238Y-4770524D01*
X44331000Y-4865762D01*
X44283381Y-5008620D01*
X44283381Y-5103858D01*
X44331000Y-5246715D01*
X44378619Y-5294334D01*
X44283381Y-5627667D02*
X44283381Y-6246715D01*
X44664333Y-5913381D01*
X44664333Y-6056239D01*
X44711952Y-6151477D01*
X44759571Y-6199096D01*
X44854810Y-6246715D01*
X45092905Y-6246715D01*
X45188143Y-6199096D01*
X45235762Y-6151477D01*
X45283381Y-6056239D01*
X45283381Y-5770524D01*
X45235762Y-5675286D01*
X45188143Y-5627667D01*
X27852666Y-8966381D02*
X28186000Y-8490190D01*
X28424095Y-8966381D02*
X28424095Y-7966381D01*
X28043142Y-7966381D01*
X27947904Y-8014000D01*
X27900285Y-8061619D01*
X27852666Y-8156857D01*
X27852666Y-8299714D01*
X27900285Y-8394952D01*
X27947904Y-8442571D01*
X28043142Y-8490190D01*
X28424095Y-8490190D01*
X26900285Y-8966381D02*
X27471714Y-8966381D01*
X27186000Y-8966381D02*
X27186000Y-7966381D01*
X27281238Y-8109238D01*
X27376476Y-8204476D01*
X27471714Y-8252095D01*
X24423666Y-8966381D02*
X24757000Y-8490190D01*
X24995095Y-8966381D02*
X24995095Y-7966381D01*
X24614142Y-7966381D01*
X24518904Y-8014000D01*
X24471285Y-8061619D01*
X24423666Y-8156857D01*
X24423666Y-8299714D01*
X24471285Y-8394952D01*
X24518904Y-8442571D01*
X24614142Y-8490190D01*
X24995095Y-8490190D01*
X24042714Y-8061619D02*
X23995095Y-8014000D01*
X23899857Y-7966381D01*
X23661761Y-7966381D01*
X23566523Y-8014000D01*
X23518904Y-8061619D01*
X23471285Y-8156857D01*
X23471285Y-8252095D01*
X23518904Y-8394952D01*
X24090333Y-8966381D01*
X23471285Y-8966381D01*
D13*
X9496657Y-19151714D02*
X10468086Y-19151714D01*
X10582371Y-19208857D01*
X10639514Y-19266000D01*
X10696657Y-19380286D01*
X10696657Y-19608857D01*
X10639514Y-19723143D01*
X10582371Y-19780286D01*
X10468086Y-19837429D01*
X9496657Y-19837429D01*
X10696657Y-21037429D02*
X10696657Y-20351714D01*
X10696657Y-20694572D02*
X9496657Y-20694572D01*
X9668086Y-20580286D01*
X9782371Y-20466000D01*
X9839514Y-20351714D01*
%LPC*%
D14*
X4191000Y-20320000D03*
D15*
X3683000Y-2540000D03*
D14*
X4191000Y-3810000D03*
X4191000Y-5080000D03*
X4191000Y-6350000D03*
X4191000Y-7620000D03*
X4191000Y-8890000D03*
X4191000Y-10160000D03*
X4191000Y-11430000D03*
X4191000Y-12700000D03*
X4191000Y-13970000D03*
X4191000Y-15240000D03*
X4191000Y-16510000D03*
X4191000Y-17780000D03*
X4191000Y-19050000D03*
X4191000Y-21590000D03*
X4191000Y-22860000D03*
X4191000Y-24130000D03*
X4191000Y-25400000D03*
D15*
X3683000Y-26670000D03*
D16*
X45323760Y-26228000D03*
X45323760Y-28128000D03*
X43324780Y-27178000D03*
D17*
X20447000Y-8034000D03*
X19177000Y-8034000D03*
X17907000Y-8034000D03*
X16637000Y-8034000D03*
X15367000Y-8034000D03*
X14097000Y-8034000D03*
X12827000Y-8034000D03*
X11557000Y-8034000D03*
X11557000Y-2634000D03*
X12827000Y-2634000D03*
X14097000Y-2634000D03*
X15367000Y-2634000D03*
X16637000Y-2634000D03*
X17907000Y-2634000D03*
X19177000Y-2634000D03*
X20447000Y-2634000D03*
D18*
X33147000Y-6985000D03*
X33147000Y-3937000D03*
X37973000Y-6985000D03*
X37973000Y-3937000D03*
X42545000Y-6985000D03*
X42545000Y-3937000D03*
D19*
X26936000Y-10414000D03*
X28436000Y-10414000D03*
X25007000Y-10414000D03*
X23507000Y-10414000D03*
D20*
X31115000Y-26816000D03*
X29845000Y-26816000D03*
X28575000Y-26816000D03*
X27305000Y-26816000D03*
X26035000Y-26816000D03*
X24765000Y-26816000D03*
X23495000Y-26816000D03*
X22225000Y-26816000D03*
X20955000Y-26816000D03*
X19685000Y-26816000D03*
X18415000Y-26816000D03*
X17145000Y-26816000D03*
X15875000Y-26816000D03*
X14605000Y-26816000D03*
X13335000Y-26816000D03*
X12065000Y-26816000D03*
X31115000Y-13316000D03*
X29845000Y-13316000D03*
X28575000Y-13316000D03*
X27305000Y-13316000D03*
X26035000Y-13316000D03*
X24765000Y-13316000D03*
X23495000Y-13316000D03*
X22225000Y-13316000D03*
X20955000Y-13316000D03*
X19685000Y-13316000D03*
X18415000Y-13316000D03*
X17145000Y-13316000D03*
X15875000Y-13316000D03*
X14605000Y-13316000D03*
X13335000Y-13316000D03*
X12065000Y-13316000D03*
M02*
