%FSLAX46Y46*%
G04 Gerber Fmt 4.6, Leading zero omitted, Abs format (unit mm)*
G04 Created by KiCad (PCBNEW (2014-10-27 BZR 5228)-product) date 5/1/2015 7:00:25 PM*
%MOMM*%
G01*
G04 APERTURE LIST*
%ADD10C,0.100000*%
%ADD11R,6.350000X1.016000*%
%ADD12R,7.366000X1.016000*%
%ADD13R,0.406400X1.651000*%
%ADD14R,1.500000X0.600000*%
%ADD15C,0.635000*%
%ADD16C,0.228600*%
%ADD17C,0.254000*%
G04 APERTURE END LIST*
D10*
D11*
X4191000Y-20320000D03*
D12*
X3683000Y-2540000D03*
D11*
X4191000Y-3810000D03*
X4191000Y-5080000D03*
X4191000Y-6350000D03*
X4191000Y-7620000D03*
X4191000Y-8890000D03*
X4191000Y-10160000D03*
X4191000Y-11430000D03*
X4191000Y-12700000D03*
X4191000Y-13970000D03*
X4191000Y-15240000D03*
X4191000Y-16510000D03*
X4191000Y-17780000D03*
X4191000Y-19050000D03*
X4191000Y-21590000D03*
X4191000Y-22860000D03*
X4191000Y-24130000D03*
X4191000Y-25400000D03*
D12*
X3683000Y-26670000D03*
D13*
X33401000Y-20078700D03*
X32131000Y-20078700D03*
X30861000Y-20078700D03*
X29591000Y-20078700D03*
X28321000Y-20078700D03*
X27051000Y-20078700D03*
X25781000Y-20078700D03*
X24511000Y-20078700D03*
X23241000Y-20078700D03*
X21971000Y-20078700D03*
X20701000Y-20078700D03*
X19431000Y-20078700D03*
X18161000Y-20078700D03*
X16891000Y-20078700D03*
X15621000Y-20078700D03*
X14351000Y-20078700D03*
X33401000Y-9131300D03*
X32131000Y-9131300D03*
X30861000Y-9131300D03*
X29591000Y-9131300D03*
X28321000Y-9131300D03*
X27051000Y-9131300D03*
X25781000Y-9131300D03*
X24511000Y-9131300D03*
X23241000Y-9131300D03*
X21971000Y-9131300D03*
X20701000Y-9131300D03*
X19431000Y-9131300D03*
X18161000Y-9131300D03*
X16891000Y-9131300D03*
X15621000Y-9131300D03*
X14351000Y-9131300D03*
D14*
X43848000Y-3175000D03*
X43848000Y-4445000D03*
X43848000Y-5715000D03*
X43848000Y-6985000D03*
X43848000Y-8255000D03*
X43848000Y-9525000D03*
X43848000Y-10795000D03*
X38448000Y-10795000D03*
X38448000Y-9525000D03*
X38448000Y-8255000D03*
X38448000Y-6985000D03*
X38448000Y-5715000D03*
X38448000Y-4445000D03*
X38448000Y-3175000D03*
D15*
X32258000Y-3683000D03*
X25654000Y-15621000D03*
X22098000Y-25273000D03*
X18415000Y-12700000D03*
X17145000Y-13462000D03*
X15748000Y-12700000D03*
X14478000Y-13970000D03*
X15748000Y-15240000D03*
X19050000Y-16510000D03*
X17780000Y-15875000D03*
X16510000Y-16510000D03*
X23241000Y-21336000D03*
X24511000Y-7874000D03*
X26543000Y-14605000D03*
X17526000Y-762000D03*
X16764000Y-3302000D03*
X9017000Y-1143000D03*
X23241000Y-25273000D03*
X8128000Y-27305000D03*
X41275000Y-3810000D03*
X42799000Y-1143000D03*
X9398000Y-3937000D03*
X8128000Y-3810000D03*
X12700000Y-2413000D03*
X8128000Y-5080000D03*
X23241000Y-10033000D03*
X24511000Y-19304000D03*
X24511000Y-21717000D03*
X18161000Y-22352000D03*
X18161000Y-25781000D03*
X42672000Y-4445000D03*
X24384000Y-25273000D03*
X45720000Y-7493000D03*
X18986500Y-635000D03*
X14478000Y-2159000D03*
D16*
X32766000Y-3175000D02*
X32258000Y-3683000D01*
X38448000Y-3175000D02*
X32766000Y-3175000D01*
X11633192Y-6989480D02*
X11633192Y-7391404D01*
X11633192Y-7391404D02*
X11049000Y-7975596D01*
X11049000Y-7975596D02*
X8495178Y-7975596D01*
X8495178Y-7975596D02*
X7874000Y-7354418D01*
X7874000Y-7354418D02*
X7874000Y-6731000D01*
X7874000Y-6731000D02*
X7493000Y-6350000D01*
X7493000Y-6350000D02*
X4191000Y-6350000D01*
X29591000Y-9131300D02*
X29591000Y-7874000D01*
X17486774Y-5664192D02*
X12958480Y-5664192D01*
X17918582Y-6096000D02*
X17486774Y-5664192D01*
X24003000Y-6096000D02*
X17918582Y-6096000D01*
X25400000Y-7493000D02*
X24003000Y-6096000D01*
X29210000Y-7493000D02*
X25400000Y-7493000D01*
X29591000Y-7874000D02*
X29210000Y-7493000D01*
X12958480Y-5664192D02*
X11633192Y-6989480D01*
X14351000Y-10795000D02*
X12446000Y-12700000D01*
X12446000Y-12700000D02*
X4191000Y-12700000D01*
X14351000Y-9131300D02*
X14351000Y-10795000D01*
X15621000Y-7874000D02*
X15240000Y-7493000D01*
X15240000Y-7493000D02*
X13716000Y-7493000D01*
X13716000Y-7493000D02*
X13462000Y-7747000D01*
X13462000Y-7747000D02*
X13462000Y-11037418D01*
X13462000Y-11037418D02*
X13069418Y-11430000D01*
X13069418Y-11430000D02*
X4191000Y-11430000D01*
X15621000Y-9131300D02*
X15621000Y-7874000D01*
X18161000Y-8255000D02*
X16484596Y-6578596D01*
X16484596Y-6578596D02*
X13337240Y-6578596D01*
X13337240Y-6578596D02*
X12547596Y-7368240D01*
X12547596Y-7368240D02*
X12547596Y-8407404D01*
X12547596Y-8407404D02*
X12065000Y-8890000D01*
X12065000Y-8890000D02*
X4191000Y-8890000D01*
X18161000Y-9131300D02*
X18161000Y-8255000D01*
X21767808Y-24942808D02*
X12669734Y-24942808D01*
X12669734Y-24942808D02*
X11856926Y-24130000D01*
X11856926Y-24130000D02*
X4191000Y-24130000D01*
X28321000Y-10160000D02*
X25654000Y-12827000D01*
X25654000Y-12827000D02*
X25654000Y-15621000D01*
X22098000Y-25273000D02*
X21767808Y-24942808D01*
X28321000Y-9131300D02*
X28321000Y-10160000D01*
X16891000Y-8128000D02*
X15798798Y-7035798D01*
X15798798Y-7035798D02*
X13526620Y-7035798D01*
X13526620Y-7035798D02*
X13004798Y-7557620D01*
X13004798Y-7557620D02*
X13004798Y-9474202D01*
X13004798Y-9474202D02*
X12319000Y-10160000D01*
X12319000Y-10160000D02*
X4191000Y-10160000D01*
X16891000Y-9131300D02*
X16891000Y-8128000D01*
X19075394Y-12039606D02*
X18415000Y-12700000D01*
X27051000Y-9131300D02*
X27051000Y-10287000D01*
X27051000Y-10287000D02*
X25298394Y-12039606D01*
X25298394Y-12039606D02*
X19075394Y-12039606D01*
X25781000Y-10033000D02*
X24231596Y-11582404D01*
X24231596Y-11582404D02*
X19177000Y-11582404D01*
X25781000Y-9131300D02*
X25781000Y-10033000D01*
X18008596Y-11582404D02*
X17145000Y-12446000D01*
X17145000Y-12446000D02*
X17145000Y-13462000D01*
X19177000Y-11582404D02*
X18008596Y-11582404D01*
X17322798Y-11125202D02*
X15748000Y-12700000D01*
X21971000Y-10160000D02*
X21971000Y-9131300D01*
X21971000Y-10160000D02*
X21005798Y-11125202D01*
X21005798Y-11125202D02*
X17322798Y-11125202D01*
X20701000Y-10287000D02*
X20320000Y-10668000D01*
X20320000Y-10668000D02*
X16510000Y-10668000D01*
X16510000Y-10668000D02*
X14478000Y-12700000D01*
X14478000Y-12700000D02*
X14478000Y-13970000D01*
X20701000Y-9131300D02*
X20701000Y-10287000D01*
X20701000Y-18923000D02*
X20447000Y-18669000D01*
X20447000Y-18669000D02*
X16129000Y-18669000D01*
X16129000Y-18669000D02*
X15748000Y-18288000D01*
X15748000Y-18288000D02*
X15748000Y-15240000D01*
X20701000Y-20078700D02*
X20701000Y-18923000D01*
X30861000Y-21209000D02*
X30861000Y-20078700D01*
X4191000Y-20320000D02*
X10922000Y-20320000D01*
X11506192Y-20904192D02*
X10922000Y-20320000D01*
X11506192Y-21839520D02*
X11506192Y-20904192D01*
X13237874Y-23571202D02*
X11506192Y-21839520D01*
X30861000Y-21209000D02*
X28498798Y-23571202D01*
X13237874Y-23571202D02*
X28498798Y-23571202D01*
X32131000Y-21082000D02*
X32131000Y-20078700D01*
X4191000Y-21590000D02*
X10610090Y-21590000D01*
X13048494Y-24028404D02*
X10610090Y-21590000D01*
X29184596Y-24028404D02*
X13048494Y-24028404D01*
X32131000Y-21082000D02*
X29184596Y-24028404D01*
X19558000Y-24485606D02*
X12859114Y-24485606D01*
X12859114Y-24485606D02*
X11233508Y-22860000D01*
X11233508Y-22860000D02*
X4191000Y-22860000D01*
X33401000Y-21209000D02*
X33401000Y-20078700D01*
X33401000Y-21209000D02*
X30124394Y-24485606D01*
X19558000Y-24485606D02*
X30124394Y-24485606D01*
X27051000Y-18923000D02*
X26212798Y-18084798D01*
X26212798Y-18084798D02*
X22298962Y-18084798D01*
X22298962Y-18084798D02*
X20701000Y-16486836D01*
X27051000Y-20078700D02*
X27051000Y-18923000D01*
X20701000Y-16486836D02*
X19073164Y-16486836D01*
X19073164Y-16486836D02*
X19050000Y-16510000D01*
X25781000Y-20078700D02*
X25781000Y-19050000D01*
X22109582Y-18542000D02*
X21322178Y-17754596D01*
X25273000Y-18542000D02*
X22109582Y-18542000D01*
X25781000Y-19050000D02*
X25273000Y-18542000D01*
X21322178Y-17754596D02*
X18669000Y-17754596D01*
X18401178Y-17754596D02*
X17780000Y-17133418D01*
X17780000Y-17133418D02*
X17780000Y-15875000D01*
X18669000Y-17754596D02*
X18401178Y-17754596D01*
X18211798Y-18211798D02*
X16510000Y-16510000D01*
X21971000Y-19050000D02*
X21132798Y-18211798D01*
X21132798Y-18211798D02*
X18211798Y-18211798D01*
X21971000Y-20078700D02*
X21971000Y-19050000D01*
X23241000Y-20078700D02*
X23241000Y-21336000D01*
X24511000Y-9131300D02*
X24511000Y-7874000D01*
X7620000Y-2540000D02*
X9398000Y-762000D01*
X9398000Y-762000D02*
X17526000Y-762000D01*
X38448000Y-6985000D02*
X38448000Y-8255000D01*
X43848000Y-8255000D02*
X43848000Y-9525000D01*
X43848000Y-10795000D02*
X43848000Y-9525000D01*
X7620000Y-2540000D02*
X9017000Y-1143000D01*
X3683000Y-2540000D02*
X7620000Y-2540000D01*
X9398000Y-28575000D02*
X19939000Y-28575000D01*
X19939000Y-28575000D02*
X23241000Y-25273000D01*
X3683000Y-26670000D02*
X7493000Y-26670000D01*
X7493000Y-26670000D02*
X8128000Y-27305000D01*
X8128000Y-27305000D02*
X9398000Y-28575000D01*
X39624000Y-6985000D02*
X40259000Y-6350000D01*
X40259000Y-6350000D02*
X40259000Y-4826000D01*
X40259000Y-4826000D02*
X41275000Y-3810000D01*
X38448000Y-6985000D02*
X39624000Y-6985000D01*
X12090394Y-7178860D02*
X12090394Y-8218024D01*
X12090394Y-8218024D02*
X11875620Y-8432798D01*
X11875620Y-8432798D02*
X8305798Y-8432798D01*
X8305798Y-8432798D02*
X7493000Y-7620000D01*
X7493000Y-7620000D02*
X4191000Y-7620000D01*
X19431000Y-9131300D02*
X19431000Y-8255000D01*
X17297394Y-6121394D02*
X13147860Y-6121394D01*
X19431000Y-8255000D02*
X17297394Y-6121394D01*
X13147860Y-6121394D02*
X12090394Y-7178860D01*
X14351000Y-15875000D02*
X12446000Y-13970000D01*
X12446000Y-13970000D02*
X4191000Y-13970000D01*
X14351000Y-20078700D02*
X14351000Y-15875000D01*
X13335000Y-15505582D02*
X13069418Y-15240000D01*
X13069418Y-15240000D02*
X4191000Y-15240000D01*
X15621000Y-20078700D02*
X15621000Y-21209000D01*
X13970000Y-21717000D02*
X13335000Y-21082000D01*
X15113000Y-21717000D02*
X13970000Y-21717000D01*
X15621000Y-21209000D02*
X15113000Y-21717000D01*
X13335000Y-21082000D02*
X13335000Y-15505582D01*
X16891000Y-21082000D02*
X15798798Y-22174202D01*
X15798798Y-22174202D02*
X13780620Y-22174202D01*
X13780620Y-22174202D02*
X12877798Y-21271380D01*
X12877798Y-21271380D02*
X12877798Y-17322798D01*
X12877798Y-17322798D02*
X12065000Y-16510000D01*
X12065000Y-16510000D02*
X4191000Y-16510000D01*
X16891000Y-20078700D02*
X16891000Y-21082000D01*
X18161000Y-21209000D02*
X16738596Y-22631404D01*
X16738596Y-22631404D02*
X13591240Y-22631404D01*
X13591240Y-22631404D02*
X12420596Y-21460760D01*
X12420596Y-21460760D02*
X12420596Y-18262596D01*
X12420596Y-18262596D02*
X11938000Y-17780000D01*
X11938000Y-17780000D02*
X4191000Y-17780000D01*
X18161000Y-20078700D02*
X18161000Y-21209000D01*
X29591000Y-21082000D02*
X29591000Y-20078700D01*
X4191000Y-19050000D02*
X11303000Y-19050000D01*
X11963394Y-19710394D02*
X11303000Y-19050000D01*
X11963394Y-21650140D02*
X11963394Y-19710394D01*
X13427254Y-23114000D02*
X11963394Y-21650140D01*
X27559000Y-23114000D02*
X13427254Y-23114000D01*
X29591000Y-21082000D02*
X27559000Y-23114000D01*
X38448000Y-5715000D02*
X38448000Y-4445000D01*
X28942188Y-6121394D02*
X30618582Y-4445000D01*
X30618582Y-4445000D02*
X38448000Y-4445000D01*
X9753586Y-4292586D02*
X9398000Y-3937000D01*
X18486722Y-4724394D02*
X18054914Y-4292586D01*
X24571140Y-4724394D02*
X18486722Y-4724394D01*
X25968140Y-6121394D02*
X24571140Y-4724394D01*
X18054914Y-4292586D02*
X9753586Y-4292586D01*
X25968140Y-6121394D02*
X28942188Y-6121394D01*
X9610343Y-5292343D02*
X8128000Y-3810000D01*
X12037165Y-5292343D02*
X9610343Y-5292343D01*
X12579720Y-4749788D02*
X12037165Y-5292343D01*
X17865534Y-4749788D02*
X12579720Y-4749788D01*
X18297342Y-5181596D02*
X17865534Y-4749788D01*
X24381760Y-5181596D02*
X18297342Y-5181596D01*
X25778760Y-6578596D02*
X24381760Y-5181596D01*
X30708596Y-6578596D02*
X25778760Y-6578596D01*
X32131000Y-8001000D02*
X30708596Y-6578596D01*
X32131000Y-9131300D02*
X32131000Y-8001000D01*
X8763000Y-3175000D02*
X11938000Y-3175000D01*
X11938000Y-3175000D02*
X12700000Y-2413000D01*
X8128000Y-3810000D02*
X8763000Y-3175000D01*
X38448000Y-9525000D02*
X38448000Y-10795000D01*
X34936582Y-10795000D02*
X34290000Y-10148418D01*
X34290000Y-10148418D02*
X34290000Y-8001000D01*
X34290000Y-8001000D02*
X34036000Y-7747000D01*
X34036000Y-7747000D02*
X32385000Y-7747000D01*
X32385000Y-7747000D02*
X32131000Y-8001000D01*
X38448000Y-10795000D02*
X34936582Y-10795000D01*
X30861000Y-7747000D02*
X30149798Y-7035798D01*
X30149798Y-7035798D02*
X25589380Y-7035798D01*
X25589380Y-7035798D02*
X24192380Y-5638798D01*
X24192380Y-5638798D02*
X18107962Y-5638798D01*
X18107962Y-5638798D02*
X17676154Y-5206990D01*
X17676154Y-5206990D02*
X12769100Y-5206990D01*
X12769100Y-5206990D02*
X12226545Y-5749545D01*
X12226545Y-5749545D02*
X8797545Y-5749545D01*
X8797545Y-5749545D02*
X8128000Y-5080000D01*
X30861000Y-9131300D02*
X30861000Y-7747000D01*
X23241000Y-10033000D02*
X23241000Y-9131300D01*
X24511000Y-20078700D02*
X24511000Y-19304000D01*
X24511000Y-21717000D02*
X24511000Y-20078700D01*
X4191010Y-25400010D02*
X4191000Y-25400000D01*
X19431000Y-21082000D02*
X18161000Y-22352000D01*
X18161000Y-25781000D02*
X17780010Y-25400010D01*
X17780010Y-25400010D02*
X4191010Y-25400010D01*
X19431000Y-20078700D02*
X19431000Y-21082000D01*
X42048582Y-5715000D02*
X41605202Y-6158380D01*
X41605202Y-6158380D02*
X41605202Y-10476380D01*
X41605202Y-10476380D02*
X39813380Y-12268202D01*
X39813380Y-12268202D02*
X31038798Y-12268202D01*
X31038798Y-12268202D02*
X28321000Y-14986000D01*
X28321000Y-14986000D02*
X28321000Y-20078700D01*
X43848000Y-5715000D02*
X42048582Y-5715000D01*
X42672000Y-4445000D02*
X43848000Y-4445000D01*
X41148000Y-5969000D02*
X42672000Y-4445000D01*
X41148000Y-10287000D02*
X41148000Y-5969000D01*
X39624000Y-11811000D02*
X41148000Y-10287000D01*
X35306000Y-11811000D02*
X39624000Y-11811000D01*
X33401000Y-9906000D02*
X35306000Y-11811000D01*
X33401000Y-9131300D02*
X33401000Y-9906000D01*
X24384000Y-25273000D02*
X24714192Y-24942808D01*
X24714192Y-24942808D02*
X32842192Y-24942808D01*
X32842192Y-24942808D02*
X45720000Y-12065000D01*
X45720000Y-12065000D02*
X45720000Y-7493000D01*
X44704000Y-6985000D02*
X45212000Y-6477000D01*
X45212000Y-6477000D02*
X45212000Y-2413000D01*
X45212000Y-2413000D02*
X44958000Y-2159000D01*
X44958000Y-2159000D02*
X42302582Y-2159000D01*
X42302582Y-2159000D02*
X41845380Y-1701798D01*
X41845380Y-1701798D02*
X32068620Y-1701798D01*
X32068620Y-1701798D02*
X28563428Y-5206990D01*
X28563428Y-5206990D02*
X26346900Y-5206990D01*
X26346900Y-5206990D02*
X24949900Y-3809990D01*
X24949900Y-3809990D02*
X21347572Y-3809990D01*
X21347572Y-3809990D02*
X18986500Y-1448918D01*
X18986500Y-1448918D02*
X18986500Y-635000D01*
X43848000Y-6985000D02*
X44704000Y-6985000D01*
X43848000Y-3175000D02*
X43180000Y-3175000D01*
X42672000Y-3175000D02*
X41656000Y-2159000D01*
X41656000Y-2159000D02*
X32258000Y-2159000D01*
X32258000Y-2159000D02*
X28752808Y-5664192D01*
X28752808Y-5664192D02*
X26157520Y-5664192D01*
X26157520Y-5664192D02*
X24760520Y-4267192D01*
X24760520Y-4267192D02*
X21158192Y-4267192D01*
X21158192Y-4267192D02*
X19050000Y-2159000D01*
X19050000Y-2159000D02*
X14478000Y-2159000D01*
X43848000Y-3175000D02*
X42672000Y-3175000D01*
D17*
G36*
X18001999Y-3797286D02*
X14054865Y-3797286D01*
X14206077Y-3646338D01*
X14332855Y-3341021D01*
X14333144Y-3010429D01*
X14255708Y-2823020D01*
X14338450Y-2857378D01*
X14616331Y-2857621D01*
X14873151Y-2751504D01*
X14970525Y-2654300D01*
X17900449Y-2654300D01*
X17829695Y-2724931D01*
X17708638Y-3016471D01*
X17708362Y-3332145D01*
X17828911Y-3623895D01*
X18001999Y-3797286D01*
X18001999Y-3797286D01*
G37*
X18001999Y-3797286D02*
X14054865Y-3797286D01*
X14206077Y-3646338D01*
X14332855Y-3341021D01*
X14333144Y-3010429D01*
X14255708Y-2823020D01*
X14338450Y-2857378D01*
X14616331Y-2857621D01*
X14873151Y-2751504D01*
X14970525Y-2654300D01*
X17900449Y-2654300D01*
X17829695Y-2724931D01*
X17708638Y-3016471D01*
X17708362Y-3332145D01*
X17828911Y-3623895D01*
X18001999Y-3797286D01*
G36*
X18545765Y-1663700D02*
X14970530Y-1663700D01*
X14874185Y-1567186D01*
X14617550Y-1460622D01*
X14339669Y-1460379D01*
X14082849Y-1566496D01*
X13886186Y-1762815D01*
X13779622Y-2019450D01*
X13779379Y-2297331D01*
X13825791Y-2409656D01*
X13668021Y-2344145D01*
X13398560Y-2343909D01*
X13398621Y-2274669D01*
X13292504Y-2017849D01*
X13096185Y-1821186D01*
X12839550Y-1714622D01*
X12561669Y-1714379D01*
X12304849Y-1820496D01*
X12108186Y-2016815D01*
X12001622Y-2273450D01*
X12001501Y-2411038D01*
X11732840Y-2679700D01*
X8763000Y-2679700D01*
X8573457Y-2717402D01*
X8412770Y-2824770D01*
X8126041Y-3111498D01*
X8001000Y-3111388D01*
X8001000Y-2921691D01*
X8001000Y-2825750D01*
X7842250Y-2667000D01*
X3810000Y-2667000D01*
X3810000Y-2687000D01*
X3556000Y-2687000D01*
X3556000Y-2667000D01*
X3536000Y-2667000D01*
X3536000Y-2413000D01*
X3556000Y-2413000D01*
X3556000Y-2393000D01*
X3810000Y-2393000D01*
X3810000Y-2413000D01*
X7842250Y-2413000D01*
X8001000Y-2254250D01*
X8001000Y-2158309D01*
X8001000Y-1905690D01*
X7904327Y-1672301D01*
X7725698Y-1493673D01*
X7725108Y-1493428D01*
X7764192Y-1434937D01*
X7797000Y-1270000D01*
X7797000Y-431000D01*
X18314883Y-431000D01*
X18288122Y-495450D01*
X18287879Y-773331D01*
X18393996Y-1030151D01*
X18491200Y-1127525D01*
X18491200Y-1448918D01*
X18528902Y-1638462D01*
X18545765Y-1663700D01*
X18545765Y-1663700D01*
G37*
X18545765Y-1663700D02*
X14970530Y-1663700D01*
X14874185Y-1567186D01*
X14617550Y-1460622D01*
X14339669Y-1460379D01*
X14082849Y-1566496D01*
X13886186Y-1762815D01*
X13779622Y-2019450D01*
X13779379Y-2297331D01*
X13825791Y-2409656D01*
X13668021Y-2344145D01*
X13398560Y-2343909D01*
X13398621Y-2274669D01*
X13292504Y-2017849D01*
X13096185Y-1821186D01*
X12839550Y-1714622D01*
X12561669Y-1714379D01*
X12304849Y-1820496D01*
X12108186Y-2016815D01*
X12001622Y-2273450D01*
X12001501Y-2411038D01*
X11732840Y-2679700D01*
X8763000Y-2679700D01*
X8573457Y-2717402D01*
X8412770Y-2824770D01*
X8126041Y-3111498D01*
X8001000Y-3111388D01*
X8001000Y-2921691D01*
X8001000Y-2825750D01*
X7842250Y-2667000D01*
X3810000Y-2667000D01*
X3810000Y-2687000D01*
X3556000Y-2687000D01*
X3556000Y-2667000D01*
X3536000Y-2667000D01*
X3536000Y-2413000D01*
X3556000Y-2413000D01*
X3556000Y-2393000D01*
X3810000Y-2393000D01*
X3810000Y-2413000D01*
X7842250Y-2413000D01*
X8001000Y-2254250D01*
X8001000Y-2158309D01*
X8001000Y-1905690D01*
X7904327Y-1672301D01*
X7725698Y-1493673D01*
X7725108Y-1493428D01*
X7764192Y-1434937D01*
X7797000Y-1270000D01*
X7797000Y-431000D01*
X18314883Y-431000D01*
X18288122Y-495450D01*
X18287879Y-773331D01*
X18393996Y-1030151D01*
X18491200Y-1127525D01*
X18491200Y-1448918D01*
X18528902Y-1638462D01*
X18545765Y-1663700D01*
G36*
X24903382Y-7696842D02*
X24840510Y-7670800D01*
X24771350Y-7670800D01*
X24612600Y-7829550D01*
X24612600Y-9004300D01*
X24658000Y-9004300D01*
X24658000Y-9258300D01*
X24612600Y-9258300D01*
X24612600Y-10433050D01*
X24646545Y-10466995D01*
X24026436Y-11087104D01*
X21744356Y-11087104D01*
X22321230Y-10510230D01*
X22428598Y-10349543D01*
X22455495Y-10214320D01*
X22497196Y-10172619D01*
X22542473Y-10063309D01*
X22542379Y-10171331D01*
X22648496Y-10428151D01*
X22844815Y-10624814D01*
X23101450Y-10731378D01*
X23379331Y-10731621D01*
X23636151Y-10625504D01*
X23832814Y-10429185D01*
X23847292Y-10394317D01*
X23948101Y-10495127D01*
X24181490Y-10591800D01*
X24250650Y-10591800D01*
X24409400Y-10433050D01*
X24409400Y-9258300D01*
X24364000Y-9258300D01*
X24364000Y-9004300D01*
X24409400Y-9004300D01*
X24409400Y-7829550D01*
X24250650Y-7670800D01*
X24181490Y-7670800D01*
X23948101Y-7767473D01*
X23769473Y-7946102D01*
X23726665Y-8049449D01*
X23660019Y-7982804D01*
X23519985Y-7924800D01*
X23368414Y-7924800D01*
X22962014Y-7924800D01*
X22821980Y-7982804D01*
X22714804Y-8089981D01*
X22656800Y-8230015D01*
X22656800Y-8381586D01*
X22656800Y-9629214D01*
X22649186Y-9636815D01*
X22555200Y-9863158D01*
X22555200Y-8230014D01*
X22497196Y-8089980D01*
X22390019Y-7982804D01*
X22249985Y-7924800D01*
X22098414Y-7924800D01*
X21692014Y-7924800D01*
X21551980Y-7982804D01*
X21444804Y-8089981D01*
X21386800Y-8230015D01*
X21386800Y-8381586D01*
X21386800Y-10032586D01*
X21390066Y-10040473D01*
X21196300Y-10234240D01*
X21196300Y-10203515D01*
X21227196Y-10172619D01*
X21285200Y-10032585D01*
X21285200Y-9881014D01*
X21285200Y-8230014D01*
X21227196Y-8089980D01*
X21120019Y-7982804D01*
X20979985Y-7924800D01*
X20828414Y-7924800D01*
X20422014Y-7924800D01*
X20281980Y-7982804D01*
X20174804Y-8089981D01*
X20116800Y-8230015D01*
X20116800Y-8381586D01*
X20116800Y-10032586D01*
X20157264Y-10130275D01*
X20114840Y-10172700D01*
X19957115Y-10172700D01*
X19957196Y-10172619D01*
X20015200Y-10032585D01*
X20015200Y-9881014D01*
X20015200Y-8230014D01*
X19957196Y-8089980D01*
X19850019Y-7982804D01*
X19826999Y-7973269D01*
X19781230Y-7904770D01*
X18467759Y-6591300D01*
X23797840Y-6591300D01*
X24903382Y-7696842D01*
X24903382Y-7696842D01*
G37*
X24903382Y-7696842D02*
X24840510Y-7670800D01*
X24771350Y-7670800D01*
X24612600Y-7829550D01*
X24612600Y-9004300D01*
X24658000Y-9004300D01*
X24658000Y-9258300D01*
X24612600Y-9258300D01*
X24612600Y-10433050D01*
X24646545Y-10466995D01*
X24026436Y-11087104D01*
X21744356Y-11087104D01*
X22321230Y-10510230D01*
X22428598Y-10349543D01*
X22455495Y-10214320D01*
X22497196Y-10172619D01*
X22542473Y-10063309D01*
X22542379Y-10171331D01*
X22648496Y-10428151D01*
X22844815Y-10624814D01*
X23101450Y-10731378D01*
X23379331Y-10731621D01*
X23636151Y-10625504D01*
X23832814Y-10429185D01*
X23847292Y-10394317D01*
X23948101Y-10495127D01*
X24181490Y-10591800D01*
X24250650Y-10591800D01*
X24409400Y-10433050D01*
X24409400Y-9258300D01*
X24364000Y-9258300D01*
X24364000Y-9004300D01*
X24409400Y-9004300D01*
X24409400Y-7829550D01*
X24250650Y-7670800D01*
X24181490Y-7670800D01*
X23948101Y-7767473D01*
X23769473Y-7946102D01*
X23726665Y-8049449D01*
X23660019Y-7982804D01*
X23519985Y-7924800D01*
X23368414Y-7924800D01*
X22962014Y-7924800D01*
X22821980Y-7982804D01*
X22714804Y-8089981D01*
X22656800Y-8230015D01*
X22656800Y-8381586D01*
X22656800Y-9629214D01*
X22649186Y-9636815D01*
X22555200Y-9863158D01*
X22555200Y-8230014D01*
X22497196Y-8089980D01*
X22390019Y-7982804D01*
X22249985Y-7924800D01*
X22098414Y-7924800D01*
X21692014Y-7924800D01*
X21551980Y-7982804D01*
X21444804Y-8089981D01*
X21386800Y-8230015D01*
X21386800Y-8381586D01*
X21386800Y-10032586D01*
X21390066Y-10040473D01*
X21196300Y-10234240D01*
X21196300Y-10203515D01*
X21227196Y-10172619D01*
X21285200Y-10032585D01*
X21285200Y-9881014D01*
X21285200Y-8230014D01*
X21227196Y-8089980D01*
X21120019Y-7982804D01*
X20979985Y-7924800D01*
X20828414Y-7924800D01*
X20422014Y-7924800D01*
X20281980Y-7982804D01*
X20174804Y-8089981D01*
X20116800Y-8230015D01*
X20116800Y-8381586D01*
X20116800Y-10032586D01*
X20157264Y-10130275D01*
X20114840Y-10172700D01*
X19957115Y-10172700D01*
X19957196Y-10172619D01*
X20015200Y-10032585D01*
X20015200Y-9881014D01*
X20015200Y-8230014D01*
X19957196Y-8089980D01*
X19850019Y-7982804D01*
X19826999Y-7973269D01*
X19781230Y-7904770D01*
X18467759Y-6591300D01*
X23797840Y-6591300D01*
X24903382Y-7696842D01*
G36*
X42844480Y-3760295D02*
X42811550Y-3746622D01*
X42533669Y-3746379D01*
X42276849Y-3852496D01*
X42080186Y-4048815D01*
X41973622Y-4305450D01*
X41973501Y-4443038D01*
X40797770Y-5618770D01*
X40690402Y-5779456D01*
X40652700Y-5969000D01*
X40652700Y-10081840D01*
X39579000Y-11155540D01*
X39579000Y-11019214D01*
X39579000Y-10419214D01*
X39520996Y-10279180D01*
X39413819Y-10172004D01*
X39384839Y-10160000D01*
X39413820Y-10147996D01*
X39520996Y-10040819D01*
X39579000Y-9900785D01*
X39579000Y-9749214D01*
X39579000Y-9149214D01*
X39556121Y-9093980D01*
X39557698Y-9093327D01*
X39736327Y-8914699D01*
X39833000Y-8681310D01*
X39833000Y-8540750D01*
X39833000Y-7969250D01*
X39833000Y-7828690D01*
X39746557Y-7620000D01*
X39833000Y-7411310D01*
X39833000Y-7270750D01*
X39674250Y-7112000D01*
X38575000Y-7112000D01*
X38575000Y-7478750D01*
X38575000Y-7761250D01*
X38575000Y-8128000D01*
X39674250Y-8128000D01*
X39833000Y-7969250D01*
X39833000Y-8540750D01*
X39674250Y-8382000D01*
X38575000Y-8382000D01*
X38575000Y-8402000D01*
X38321000Y-8402000D01*
X38321000Y-8382000D01*
X38321000Y-8128000D01*
X38321000Y-7761250D01*
X38321000Y-7478750D01*
X38321000Y-7112000D01*
X37221750Y-7112000D01*
X37063000Y-7270750D01*
X37063000Y-7411310D01*
X37149442Y-7620000D01*
X37063000Y-7828690D01*
X37063000Y-7969250D01*
X37221750Y-8128000D01*
X38321000Y-8128000D01*
X38321000Y-8382000D01*
X37221750Y-8382000D01*
X37063000Y-8540750D01*
X37063000Y-8681310D01*
X37159673Y-8914699D01*
X37338302Y-9093327D01*
X37339879Y-9093980D01*
X37317000Y-9149215D01*
X37317000Y-9300786D01*
X37317000Y-9900786D01*
X37375004Y-10040820D01*
X37482181Y-10147996D01*
X37511160Y-10159999D01*
X37482180Y-10172004D01*
X37375004Y-10279181D01*
X37366504Y-10299700D01*
X35141742Y-10299700D01*
X34785300Y-9943258D01*
X34785300Y-8001000D01*
X34747598Y-7811457D01*
X34747598Y-7811456D01*
X34640230Y-7650770D01*
X34386230Y-7396770D01*
X34225544Y-7289402D01*
X34036000Y-7251700D01*
X32385000Y-7251700D01*
X32195456Y-7289402D01*
X32150140Y-7319680D01*
X31058826Y-6228366D01*
X30898140Y-6120998D01*
X30708596Y-6083296D01*
X29680746Y-6083296D01*
X30823742Y-4940300D01*
X37366504Y-4940300D01*
X37375004Y-4960820D01*
X37482181Y-5067996D01*
X37511160Y-5079999D01*
X37482180Y-5092004D01*
X37375004Y-5199181D01*
X37317000Y-5339215D01*
X37317000Y-5490786D01*
X37317000Y-6090786D01*
X37339878Y-6146019D01*
X37338302Y-6146673D01*
X37159673Y-6325301D01*
X37063000Y-6558690D01*
X37063000Y-6699250D01*
X37221750Y-6858000D01*
X38321000Y-6858000D01*
X38321000Y-6838000D01*
X38575000Y-6838000D01*
X38575000Y-6858000D01*
X39674250Y-6858000D01*
X39833000Y-6699250D01*
X39833000Y-6558690D01*
X39736327Y-6325301D01*
X39557698Y-6146673D01*
X39556120Y-6146019D01*
X39579000Y-6090785D01*
X39579000Y-5939214D01*
X39579000Y-5339214D01*
X39520996Y-5199180D01*
X39413819Y-5092004D01*
X39384839Y-5080000D01*
X39413820Y-5067996D01*
X39520996Y-4960819D01*
X39579000Y-4820785D01*
X39579000Y-4669214D01*
X39579000Y-4069214D01*
X39520996Y-3929180D01*
X39413819Y-3822004D01*
X39384839Y-3810000D01*
X39413820Y-3797996D01*
X39520996Y-3690819D01*
X39579000Y-3550785D01*
X39579000Y-3399214D01*
X39579000Y-2799214D01*
X39520996Y-2659180D01*
X39516115Y-2654300D01*
X41450840Y-2654300D01*
X42321770Y-3525230D01*
X42482457Y-3632598D01*
X42672000Y-3670300D01*
X42766504Y-3670300D01*
X42775004Y-3690820D01*
X42844480Y-3760295D01*
X42844480Y-3760295D01*
G37*
X42844480Y-3760295D02*
X42811550Y-3746622D01*
X42533669Y-3746379D01*
X42276849Y-3852496D01*
X42080186Y-4048815D01*
X41973622Y-4305450D01*
X41973501Y-4443038D01*
X40797770Y-5618770D01*
X40690402Y-5779456D01*
X40652700Y-5969000D01*
X40652700Y-10081840D01*
X39579000Y-11155540D01*
X39579000Y-11019214D01*
X39579000Y-10419214D01*
X39520996Y-10279180D01*
X39413819Y-10172004D01*
X39384839Y-10160000D01*
X39413820Y-10147996D01*
X39520996Y-10040819D01*
X39579000Y-9900785D01*
X39579000Y-9749214D01*
X39579000Y-9149214D01*
X39556121Y-9093980D01*
X39557698Y-9093327D01*
X39736327Y-8914699D01*
X39833000Y-8681310D01*
X39833000Y-8540750D01*
X39833000Y-7969250D01*
X39833000Y-7828690D01*
X39746557Y-7620000D01*
X39833000Y-7411310D01*
X39833000Y-7270750D01*
X39674250Y-7112000D01*
X38575000Y-7112000D01*
X38575000Y-7478750D01*
X38575000Y-7761250D01*
X38575000Y-8128000D01*
X39674250Y-8128000D01*
X39833000Y-7969250D01*
X39833000Y-8540750D01*
X39674250Y-8382000D01*
X38575000Y-8382000D01*
X38575000Y-8402000D01*
X38321000Y-8402000D01*
X38321000Y-8382000D01*
X38321000Y-8128000D01*
X38321000Y-7761250D01*
X38321000Y-7478750D01*
X38321000Y-7112000D01*
X37221750Y-7112000D01*
X37063000Y-7270750D01*
X37063000Y-7411310D01*
X37149442Y-7620000D01*
X37063000Y-7828690D01*
X37063000Y-7969250D01*
X37221750Y-8128000D01*
X38321000Y-8128000D01*
X38321000Y-8382000D01*
X37221750Y-8382000D01*
X37063000Y-8540750D01*
X37063000Y-8681310D01*
X37159673Y-8914699D01*
X37338302Y-9093327D01*
X37339879Y-9093980D01*
X37317000Y-9149215D01*
X37317000Y-9300786D01*
X37317000Y-9900786D01*
X37375004Y-10040820D01*
X37482181Y-10147996D01*
X37511160Y-10159999D01*
X37482180Y-10172004D01*
X37375004Y-10279181D01*
X37366504Y-10299700D01*
X35141742Y-10299700D01*
X34785300Y-9943258D01*
X34785300Y-8001000D01*
X34747598Y-7811457D01*
X34747598Y-7811456D01*
X34640230Y-7650770D01*
X34386230Y-7396770D01*
X34225544Y-7289402D01*
X34036000Y-7251700D01*
X32385000Y-7251700D01*
X32195456Y-7289402D01*
X32150140Y-7319680D01*
X31058826Y-6228366D01*
X30898140Y-6120998D01*
X30708596Y-6083296D01*
X29680746Y-6083296D01*
X30823742Y-4940300D01*
X37366504Y-4940300D01*
X37375004Y-4960820D01*
X37482181Y-5067996D01*
X37511160Y-5079999D01*
X37482180Y-5092004D01*
X37375004Y-5199181D01*
X37317000Y-5339215D01*
X37317000Y-5490786D01*
X37317000Y-6090786D01*
X37339878Y-6146019D01*
X37338302Y-6146673D01*
X37159673Y-6325301D01*
X37063000Y-6558690D01*
X37063000Y-6699250D01*
X37221750Y-6858000D01*
X38321000Y-6858000D01*
X38321000Y-6838000D01*
X38575000Y-6838000D01*
X38575000Y-6858000D01*
X39674250Y-6858000D01*
X39833000Y-6699250D01*
X39833000Y-6558690D01*
X39736327Y-6325301D01*
X39557698Y-6146673D01*
X39556120Y-6146019D01*
X39579000Y-6090785D01*
X39579000Y-5939214D01*
X39579000Y-5339214D01*
X39520996Y-5199180D01*
X39413819Y-5092004D01*
X39384839Y-5080000D01*
X39413820Y-5067996D01*
X39520996Y-4960819D01*
X39579000Y-4820785D01*
X39579000Y-4669214D01*
X39579000Y-4069214D01*
X39520996Y-3929180D01*
X39413819Y-3822004D01*
X39384839Y-3810000D01*
X39413820Y-3797996D01*
X39520996Y-3690819D01*
X39579000Y-3550785D01*
X39579000Y-3399214D01*
X39579000Y-2799214D01*
X39520996Y-2659180D01*
X39516115Y-2654300D01*
X41450840Y-2654300D01*
X42321770Y-3525230D01*
X42482457Y-3632598D01*
X42672000Y-3670300D01*
X42766504Y-3670300D01*
X42775004Y-3690820D01*
X42844480Y-3760295D01*
G36*
X45224700Y-11859840D02*
X43721000Y-13363540D01*
X43721000Y-11571250D01*
X43721000Y-10922000D01*
X43721000Y-10668000D01*
X43721000Y-10301250D01*
X43721000Y-10018750D01*
X43721000Y-9652000D01*
X43721000Y-9398000D01*
X43721000Y-9031250D01*
X43721000Y-8748750D01*
X43721000Y-8382000D01*
X42621750Y-8382000D01*
X42463000Y-8540750D01*
X42463000Y-8681310D01*
X42549442Y-8890000D01*
X42463000Y-9098690D01*
X42463000Y-9239250D01*
X42621750Y-9398000D01*
X43721000Y-9398000D01*
X43721000Y-9652000D01*
X42621750Y-9652000D01*
X42463000Y-9810750D01*
X42463000Y-9951310D01*
X42549442Y-10160000D01*
X42463000Y-10368690D01*
X42463000Y-10509250D01*
X42621750Y-10668000D01*
X43721000Y-10668000D01*
X43721000Y-10922000D01*
X42621750Y-10922000D01*
X42463000Y-11080750D01*
X42463000Y-11221310D01*
X42559673Y-11454699D01*
X42738302Y-11633327D01*
X42971691Y-11730000D01*
X43562250Y-11730000D01*
X43721000Y-11571250D01*
X43721000Y-13363540D01*
X32637032Y-24447508D01*
X30862952Y-24447508D01*
X33751230Y-21559230D01*
X33858598Y-21398543D01*
X33896300Y-21209000D01*
X33896300Y-21150915D01*
X33927196Y-21120019D01*
X33985200Y-20979985D01*
X33985200Y-20828414D01*
X33985200Y-19177414D01*
X33927196Y-19037380D01*
X33820019Y-18930204D01*
X33679985Y-18872200D01*
X33528414Y-18872200D01*
X33122014Y-18872200D01*
X32981980Y-18930204D01*
X32874804Y-19037381D01*
X32816800Y-19177415D01*
X32816800Y-19328986D01*
X32816800Y-20979986D01*
X32849824Y-21059715D01*
X32489123Y-21420416D01*
X32588597Y-21271544D01*
X32588598Y-21271543D01*
X32609188Y-21168027D01*
X32657196Y-21120019D01*
X32715200Y-20979985D01*
X32715200Y-20828414D01*
X32715200Y-19177414D01*
X32657196Y-19037380D01*
X32550019Y-18930204D01*
X32409985Y-18872200D01*
X32258414Y-18872200D01*
X31852014Y-18872200D01*
X31711980Y-18930204D01*
X31604804Y-19037381D01*
X31546800Y-19177415D01*
X31546800Y-19328986D01*
X31546800Y-20965740D01*
X31356300Y-21156240D01*
X31356300Y-21150915D01*
X31387196Y-21120019D01*
X31445200Y-20979985D01*
X31445200Y-20828414D01*
X31445200Y-19177414D01*
X31387196Y-19037380D01*
X31280019Y-18930204D01*
X31139985Y-18872200D01*
X30988414Y-18872200D01*
X30582014Y-18872200D01*
X30441980Y-18930204D01*
X30334804Y-19037381D01*
X30276800Y-19177415D01*
X30276800Y-19328986D01*
X30276800Y-20979986D01*
X30309824Y-21059715D01*
X29949123Y-21420416D01*
X30048598Y-21271543D01*
X30069188Y-21168027D01*
X30117196Y-21120019D01*
X30175200Y-20979985D01*
X30175200Y-20828414D01*
X30175200Y-19177414D01*
X30117196Y-19037380D01*
X30010019Y-18930204D01*
X29869985Y-18872200D01*
X29718414Y-18872200D01*
X29312014Y-18872200D01*
X29171980Y-18930204D01*
X29064804Y-19037381D01*
X29006800Y-19177415D01*
X29006800Y-19328986D01*
X29006800Y-20965740D01*
X27353840Y-22618700D01*
X18806580Y-22618700D01*
X18859378Y-22491550D01*
X18859498Y-22353961D01*
X19781230Y-21432230D01*
X19888598Y-21271544D01*
X19888598Y-21271543D01*
X19909188Y-21168027D01*
X19909188Y-21168026D01*
X19957196Y-21120019D01*
X20015200Y-20979985D01*
X20015200Y-20828414D01*
X20015200Y-19177414D01*
X20009768Y-19164300D01*
X20122232Y-19164300D01*
X20116800Y-19177415D01*
X20116800Y-19328986D01*
X20116800Y-20979986D01*
X20174804Y-21120020D01*
X20281981Y-21227196D01*
X20422015Y-21285200D01*
X20573586Y-21285200D01*
X20979986Y-21285200D01*
X21120020Y-21227196D01*
X21227196Y-21120019D01*
X21285200Y-20979985D01*
X21285200Y-20828414D01*
X21285200Y-19177414D01*
X21227196Y-19037380D01*
X21196300Y-19006484D01*
X21196300Y-18975760D01*
X21390067Y-19169527D01*
X21386800Y-19177415D01*
X21386800Y-19328986D01*
X21386800Y-20979986D01*
X21444804Y-21120020D01*
X21551981Y-21227196D01*
X21692015Y-21285200D01*
X21843586Y-21285200D01*
X22249986Y-21285200D01*
X22390020Y-21227196D01*
X22456664Y-21160550D01*
X22499473Y-21263898D01*
X22678101Y-21442527D01*
X22911490Y-21539200D01*
X22980650Y-21539200D01*
X23139400Y-21380450D01*
X23139400Y-20205700D01*
X23094000Y-20205700D01*
X23094000Y-19951700D01*
X23139400Y-19951700D01*
X23139400Y-19931700D01*
X23342600Y-19931700D01*
X23342600Y-19951700D01*
X23388000Y-19951700D01*
X23388000Y-20205700D01*
X23342600Y-20205700D01*
X23342600Y-21380450D01*
X23501350Y-21539200D01*
X23570510Y-21539200D01*
X23803899Y-21442527D01*
X23914624Y-21331801D01*
X23812622Y-21577450D01*
X23812379Y-21855331D01*
X23918496Y-22112151D01*
X24114815Y-22308814D01*
X24371450Y-22415378D01*
X24649331Y-22415621D01*
X24906151Y-22309504D01*
X25102814Y-22113185D01*
X25209378Y-21856550D01*
X25209621Y-21578669D01*
X25103504Y-21321849D01*
X25006300Y-21224474D01*
X25006300Y-21150915D01*
X25037196Y-21120019D01*
X25095200Y-20979985D01*
X25095200Y-20828414D01*
X25095200Y-19707785D01*
X25102814Y-19700185D01*
X25196800Y-19473841D01*
X25196800Y-20979986D01*
X25254804Y-21120020D01*
X25361981Y-21227196D01*
X25502015Y-21285200D01*
X25653586Y-21285200D01*
X26059986Y-21285200D01*
X26200020Y-21227196D01*
X26307196Y-21120019D01*
X26365200Y-20979985D01*
X26365200Y-20828414D01*
X26365200Y-19177414D01*
X26307196Y-19037380D01*
X26265495Y-18995679D01*
X26238598Y-18860457D01*
X26238597Y-18860456D01*
X26139123Y-18711583D01*
X26507264Y-19079724D01*
X26466800Y-19177415D01*
X26466800Y-19328986D01*
X26466800Y-20979986D01*
X26524804Y-21120020D01*
X26631981Y-21227196D01*
X26772015Y-21285200D01*
X26923586Y-21285200D01*
X27329986Y-21285200D01*
X27470020Y-21227196D01*
X27577196Y-21120019D01*
X27635200Y-20979985D01*
X27635200Y-20828414D01*
X27635200Y-19177414D01*
X27577196Y-19037380D01*
X27546300Y-19006484D01*
X27546300Y-18923000D01*
X27508598Y-18733457D01*
X27401230Y-18572770D01*
X26563028Y-17734568D01*
X26402342Y-17627200D01*
X26212798Y-17589498D01*
X22504122Y-17589498D01*
X21051230Y-16136606D01*
X20890544Y-16029238D01*
X20701000Y-15991536D01*
X19519406Y-15991536D01*
X19446185Y-15918186D01*
X19189550Y-15811622D01*
X18911669Y-15811379D01*
X18654849Y-15917496D01*
X18458186Y-16113815D01*
X18351622Y-16370450D01*
X18351379Y-16648331D01*
X18457496Y-16905151D01*
X18653815Y-17101814D01*
X18910450Y-17208378D01*
X19188331Y-17208621D01*
X19445151Y-17102504D01*
X19565729Y-16982136D01*
X20495840Y-16982136D01*
X20773000Y-17259296D01*
X18669000Y-17259296D01*
X18606338Y-17259296D01*
X18275300Y-16928258D01*
X18275300Y-16367530D01*
X18371814Y-16271185D01*
X18478378Y-16014550D01*
X18478621Y-15736669D01*
X18372504Y-15479849D01*
X18176185Y-15283186D01*
X17919550Y-15176622D01*
X17641669Y-15176379D01*
X17384849Y-15282496D01*
X17188186Y-15478815D01*
X17081622Y-15735450D01*
X17081379Y-16013331D01*
X17187496Y-16270151D01*
X17284700Y-16367525D01*
X17284700Y-16584240D01*
X17208501Y-16508041D01*
X17208621Y-16371669D01*
X17102504Y-16114849D01*
X16906185Y-15918186D01*
X16649550Y-15811622D01*
X16371669Y-15811379D01*
X16243300Y-15864420D01*
X16243300Y-15732530D01*
X16339814Y-15636185D01*
X16446378Y-15379550D01*
X16446621Y-15101669D01*
X16340504Y-14844849D01*
X16144185Y-14648186D01*
X15887550Y-14541622D01*
X15609669Y-14541379D01*
X15352849Y-14647496D01*
X15156186Y-14843815D01*
X15049622Y-15100450D01*
X15049379Y-15378331D01*
X15155496Y-15635151D01*
X15252700Y-15732525D01*
X15252700Y-18288000D01*
X15290402Y-18477544D01*
X15397770Y-18638230D01*
X15631740Y-18872200D01*
X15342014Y-18872200D01*
X15201980Y-18930204D01*
X15094804Y-19037381D01*
X15036800Y-19177415D01*
X15036800Y-19328986D01*
X15036800Y-20979986D01*
X15069824Y-21059715D01*
X14907840Y-21221700D01*
X14775515Y-21221700D01*
X14877196Y-21120019D01*
X14935200Y-20979985D01*
X14935200Y-20828414D01*
X14935200Y-19177414D01*
X14877196Y-19037380D01*
X14846300Y-19006484D01*
X14846300Y-15875000D01*
X14808598Y-15685457D01*
X14701230Y-15524770D01*
X12796230Y-13619770D01*
X12635544Y-13512402D01*
X12446000Y-13474700D01*
X7747000Y-13474700D01*
X7747000Y-13386214D01*
X7725786Y-13334999D01*
X7747000Y-13283785D01*
X7747000Y-13195300D01*
X12446000Y-13195300D01*
X12635543Y-13157598D01*
X12635544Y-13157598D01*
X12796230Y-13050230D01*
X14701230Y-11145230D01*
X14808598Y-10984543D01*
X14846300Y-10795000D01*
X14846300Y-10203515D01*
X14877196Y-10172619D01*
X14935200Y-10032585D01*
X14935200Y-9881014D01*
X14935200Y-8230014D01*
X14877196Y-8089980D01*
X14775515Y-7988300D01*
X15034840Y-7988300D01*
X15115662Y-8069122D01*
X15094804Y-8089981D01*
X15036800Y-8230015D01*
X15036800Y-8381586D01*
X15036800Y-10032586D01*
X15094804Y-10172620D01*
X15201981Y-10279796D01*
X15342015Y-10337800D01*
X15493586Y-10337800D01*
X15899986Y-10337800D01*
X16040020Y-10279796D01*
X16147196Y-10172619D01*
X16205200Y-10032585D01*
X16205200Y-9881014D01*
X16205200Y-8230014D01*
X16147196Y-8089980D01*
X16116300Y-8059084D01*
X16116300Y-8053760D01*
X16306800Y-8244260D01*
X16306800Y-8381586D01*
X16306800Y-10032586D01*
X16364804Y-10172620D01*
X16388960Y-10196776D01*
X16320457Y-10210402D01*
X16159770Y-10317770D01*
X14127770Y-12349770D01*
X14020402Y-12510456D01*
X13982700Y-12700000D01*
X13982700Y-13477469D01*
X13886186Y-13573815D01*
X13779622Y-13830450D01*
X13779379Y-14108331D01*
X13885496Y-14365151D01*
X14081815Y-14561814D01*
X14338450Y-14668378D01*
X14616331Y-14668621D01*
X14873151Y-14562504D01*
X15069814Y-14366185D01*
X15176378Y-14109550D01*
X15176621Y-13831669D01*
X15070504Y-13574849D01*
X14973300Y-13477474D01*
X14973300Y-12905160D01*
X15049387Y-12829072D01*
X15049379Y-12838331D01*
X15155496Y-13095151D01*
X15351815Y-13291814D01*
X15608450Y-13398378D01*
X15886331Y-13398621D01*
X16143151Y-13292504D01*
X16339814Y-13096185D01*
X16446378Y-12839550D01*
X16446498Y-12701961D01*
X16649700Y-12498760D01*
X16649700Y-12969469D01*
X16553186Y-13065815D01*
X16446622Y-13322450D01*
X16446379Y-13600331D01*
X16552496Y-13857151D01*
X16748815Y-14053814D01*
X17005450Y-14160378D01*
X17283331Y-14160621D01*
X17540151Y-14054504D01*
X17736814Y-13858185D01*
X17843378Y-13601550D01*
X17843621Y-13323669D01*
X17737504Y-13066849D01*
X17640300Y-12969474D01*
X17640300Y-12651160D01*
X17716609Y-12574850D01*
X17716379Y-12838331D01*
X17822496Y-13095151D01*
X18018815Y-13291814D01*
X18275450Y-13398378D01*
X18553331Y-13398621D01*
X18810151Y-13292504D01*
X19006814Y-13096185D01*
X19113378Y-12839550D01*
X19113498Y-12701961D01*
X19280554Y-12534906D01*
X25264924Y-12534906D01*
X25196402Y-12637456D01*
X25158700Y-12827000D01*
X25158700Y-15128469D01*
X25062186Y-15224815D01*
X24955622Y-15481450D01*
X24955379Y-15759331D01*
X25061496Y-16016151D01*
X25257815Y-16212814D01*
X25514450Y-16319378D01*
X25792331Y-16319621D01*
X26049151Y-16213504D01*
X26245814Y-16017185D01*
X26352378Y-15760550D01*
X26352621Y-15482669D01*
X26246504Y-15225849D01*
X26149300Y-15128474D01*
X26149300Y-13032160D01*
X28671230Y-10510230D01*
X28778598Y-10349543D01*
X28805495Y-10214320D01*
X28847196Y-10172619D01*
X28905200Y-10032585D01*
X28905200Y-9881014D01*
X28905200Y-8230014D01*
X28847196Y-8089980D01*
X28745515Y-7988300D01*
X29004840Y-7988300D01*
X29085662Y-8069122D01*
X29064804Y-8089981D01*
X29006800Y-8230015D01*
X29006800Y-8381586D01*
X29006800Y-10032586D01*
X29064804Y-10172620D01*
X29171981Y-10279796D01*
X29312015Y-10337800D01*
X29463586Y-10337800D01*
X29869986Y-10337800D01*
X30010020Y-10279796D01*
X30117196Y-10172619D01*
X30175200Y-10032585D01*
X30175200Y-9881014D01*
X30175200Y-8230014D01*
X30117196Y-8089980D01*
X30086300Y-8059084D01*
X30086300Y-7874000D01*
X30048598Y-7684457D01*
X30048598Y-7684456D01*
X29949123Y-7535583D01*
X30365700Y-7952160D01*
X30365700Y-8059084D01*
X30334804Y-8089981D01*
X30276800Y-8230015D01*
X30276800Y-8381586D01*
X30276800Y-10032586D01*
X30334804Y-10172620D01*
X30441981Y-10279796D01*
X30582015Y-10337800D01*
X30733586Y-10337800D01*
X31139986Y-10337800D01*
X31280020Y-10279796D01*
X31387196Y-10172619D01*
X31445200Y-10032585D01*
X31445200Y-9881014D01*
X31445200Y-8230014D01*
X31387196Y-8089980D01*
X31356300Y-8059084D01*
X31356300Y-7926760D01*
X31579825Y-8150285D01*
X31546800Y-8230015D01*
X31546800Y-8381586D01*
X31546800Y-10032586D01*
X31604804Y-10172620D01*
X31711981Y-10279796D01*
X31852015Y-10337800D01*
X32003586Y-10337800D01*
X32409986Y-10337800D01*
X32550020Y-10279796D01*
X32657196Y-10172619D01*
X32715200Y-10032585D01*
X32715200Y-9881014D01*
X32715200Y-8242300D01*
X32816800Y-8242300D01*
X32816800Y-8381586D01*
X32816800Y-10032586D01*
X32874804Y-10172620D01*
X32981981Y-10279796D01*
X33122015Y-10337800D01*
X33132340Y-10337800D01*
X34567442Y-11772902D01*
X31038798Y-11772902D01*
X30849255Y-11810604D01*
X30688568Y-11917972D01*
X27970770Y-14635770D01*
X27863402Y-14796456D01*
X27825700Y-14986000D01*
X27825700Y-19006484D01*
X27794804Y-19037381D01*
X27736800Y-19177415D01*
X27736800Y-19328986D01*
X27736800Y-20979986D01*
X27794804Y-21120020D01*
X27901981Y-21227196D01*
X28042015Y-21285200D01*
X28193586Y-21285200D01*
X28599986Y-21285200D01*
X28740020Y-21227196D01*
X28847196Y-21120019D01*
X28905200Y-20979985D01*
X28905200Y-20828414D01*
X28905200Y-19177414D01*
X28847196Y-19037380D01*
X28816300Y-19006484D01*
X28816300Y-15191160D01*
X31243958Y-12763502D01*
X39813380Y-12763502D01*
X40002923Y-12725800D01*
X40002924Y-12725800D01*
X40163610Y-12618432D01*
X41955432Y-10826610D01*
X42062800Y-10665923D01*
X42100502Y-10476380D01*
X42100502Y-6363540D01*
X42253742Y-6210300D01*
X42766504Y-6210300D01*
X42775004Y-6230820D01*
X42882181Y-6337996D01*
X42911160Y-6349999D01*
X42882180Y-6362004D01*
X42775004Y-6469181D01*
X42717000Y-6609215D01*
X42717000Y-6760786D01*
X42717000Y-7360786D01*
X42739878Y-7416019D01*
X42738302Y-7416673D01*
X42559673Y-7595301D01*
X42463000Y-7828690D01*
X42463000Y-7969250D01*
X42621750Y-8128000D01*
X43721000Y-8128000D01*
X43721000Y-8108000D01*
X43975000Y-8108000D01*
X43975000Y-8128000D01*
X43995000Y-8128000D01*
X43995000Y-8382000D01*
X43975000Y-8382000D01*
X43975000Y-8748750D01*
X43975000Y-9031250D01*
X43975000Y-9398000D01*
X43995000Y-9398000D01*
X43995000Y-9652000D01*
X43975000Y-9652000D01*
X43975000Y-10018750D01*
X43975000Y-10301250D01*
X43975000Y-10668000D01*
X43995000Y-10668000D01*
X43995000Y-10922000D01*
X43975000Y-10922000D01*
X43975000Y-11571250D01*
X44133750Y-11730000D01*
X44724309Y-11730000D01*
X44957698Y-11633327D01*
X45136327Y-11454699D01*
X45224700Y-11241347D01*
X45224700Y-11859840D01*
X45224700Y-11859840D01*
G37*
X45224700Y-11859840D02*
X43721000Y-13363540D01*
X43721000Y-11571250D01*
X43721000Y-10922000D01*
X43721000Y-10668000D01*
X43721000Y-10301250D01*
X43721000Y-10018750D01*
X43721000Y-9652000D01*
X43721000Y-9398000D01*
X43721000Y-9031250D01*
X43721000Y-8748750D01*
X43721000Y-8382000D01*
X42621750Y-8382000D01*
X42463000Y-8540750D01*
X42463000Y-8681310D01*
X42549442Y-8890000D01*
X42463000Y-9098690D01*
X42463000Y-9239250D01*
X42621750Y-9398000D01*
X43721000Y-9398000D01*
X43721000Y-9652000D01*
X42621750Y-9652000D01*
X42463000Y-9810750D01*
X42463000Y-9951310D01*
X42549442Y-10160000D01*
X42463000Y-10368690D01*
X42463000Y-10509250D01*
X42621750Y-10668000D01*
X43721000Y-10668000D01*
X43721000Y-10922000D01*
X42621750Y-10922000D01*
X42463000Y-11080750D01*
X42463000Y-11221310D01*
X42559673Y-11454699D01*
X42738302Y-11633327D01*
X42971691Y-11730000D01*
X43562250Y-11730000D01*
X43721000Y-11571250D01*
X43721000Y-13363540D01*
X32637032Y-24447508D01*
X30862952Y-24447508D01*
X33751230Y-21559230D01*
X33858598Y-21398543D01*
X33896300Y-21209000D01*
X33896300Y-21150915D01*
X33927196Y-21120019D01*
X33985200Y-20979985D01*
X33985200Y-20828414D01*
X33985200Y-19177414D01*
X33927196Y-19037380D01*
X33820019Y-18930204D01*
X33679985Y-18872200D01*
X33528414Y-18872200D01*
X33122014Y-18872200D01*
X32981980Y-18930204D01*
X32874804Y-19037381D01*
X32816800Y-19177415D01*
X32816800Y-19328986D01*
X32816800Y-20979986D01*
X32849824Y-21059715D01*
X32489123Y-21420416D01*
X32588597Y-21271544D01*
X32588598Y-21271543D01*
X32609188Y-21168027D01*
X32657196Y-21120019D01*
X32715200Y-20979985D01*
X32715200Y-20828414D01*
X32715200Y-19177414D01*
X32657196Y-19037380D01*
X32550019Y-18930204D01*
X32409985Y-18872200D01*
X32258414Y-18872200D01*
X31852014Y-18872200D01*
X31711980Y-18930204D01*
X31604804Y-19037381D01*
X31546800Y-19177415D01*
X31546800Y-19328986D01*
X31546800Y-20965740D01*
X31356300Y-21156240D01*
X31356300Y-21150915D01*
X31387196Y-21120019D01*
X31445200Y-20979985D01*
X31445200Y-20828414D01*
X31445200Y-19177414D01*
X31387196Y-19037380D01*
X31280019Y-18930204D01*
X31139985Y-18872200D01*
X30988414Y-18872200D01*
X30582014Y-18872200D01*
X30441980Y-18930204D01*
X30334804Y-19037381D01*
X30276800Y-19177415D01*
X30276800Y-19328986D01*
X30276800Y-20979986D01*
X30309824Y-21059715D01*
X29949123Y-21420416D01*
X30048598Y-21271543D01*
X30069188Y-21168027D01*
X30117196Y-21120019D01*
X30175200Y-20979985D01*
X30175200Y-20828414D01*
X30175200Y-19177414D01*
X30117196Y-19037380D01*
X30010019Y-18930204D01*
X29869985Y-18872200D01*
X29718414Y-18872200D01*
X29312014Y-18872200D01*
X29171980Y-18930204D01*
X29064804Y-19037381D01*
X29006800Y-19177415D01*
X29006800Y-19328986D01*
X29006800Y-20965740D01*
X27353840Y-22618700D01*
X18806580Y-22618700D01*
X18859378Y-22491550D01*
X18859498Y-22353961D01*
X19781230Y-21432230D01*
X19888598Y-21271544D01*
X19888598Y-21271543D01*
X19909188Y-21168027D01*
X19909188Y-21168026D01*
X19957196Y-21120019D01*
X20015200Y-20979985D01*
X20015200Y-20828414D01*
X20015200Y-19177414D01*
X20009768Y-19164300D01*
X20122232Y-19164300D01*
X20116800Y-19177415D01*
X20116800Y-19328986D01*
X20116800Y-20979986D01*
X20174804Y-21120020D01*
X20281981Y-21227196D01*
X20422015Y-21285200D01*
X20573586Y-21285200D01*
X20979986Y-21285200D01*
X21120020Y-21227196D01*
X21227196Y-21120019D01*
X21285200Y-20979985D01*
X21285200Y-20828414D01*
X21285200Y-19177414D01*
X21227196Y-19037380D01*
X21196300Y-19006484D01*
X21196300Y-18975760D01*
X21390067Y-19169527D01*
X21386800Y-19177415D01*
X21386800Y-19328986D01*
X21386800Y-20979986D01*
X21444804Y-21120020D01*
X21551981Y-21227196D01*
X21692015Y-21285200D01*
X21843586Y-21285200D01*
X22249986Y-21285200D01*
X22390020Y-21227196D01*
X22456664Y-21160550D01*
X22499473Y-21263898D01*
X22678101Y-21442527D01*
X22911490Y-21539200D01*
X22980650Y-21539200D01*
X23139400Y-21380450D01*
X23139400Y-20205700D01*
X23094000Y-20205700D01*
X23094000Y-19951700D01*
X23139400Y-19951700D01*
X23139400Y-19931700D01*
X23342600Y-19931700D01*
X23342600Y-19951700D01*
X23388000Y-19951700D01*
X23388000Y-20205700D01*
X23342600Y-20205700D01*
X23342600Y-21380450D01*
X23501350Y-21539200D01*
X23570510Y-21539200D01*
X23803899Y-21442527D01*
X23914624Y-21331801D01*
X23812622Y-21577450D01*
X23812379Y-21855331D01*
X23918496Y-22112151D01*
X24114815Y-22308814D01*
X24371450Y-22415378D01*
X24649331Y-22415621D01*
X24906151Y-22309504D01*
X25102814Y-22113185D01*
X25209378Y-21856550D01*
X25209621Y-21578669D01*
X25103504Y-21321849D01*
X25006300Y-21224474D01*
X25006300Y-21150915D01*
X25037196Y-21120019D01*
X25095200Y-20979985D01*
X25095200Y-20828414D01*
X25095200Y-19707785D01*
X25102814Y-19700185D01*
X25196800Y-19473841D01*
X25196800Y-20979986D01*
X25254804Y-21120020D01*
X25361981Y-21227196D01*
X25502015Y-21285200D01*
X25653586Y-21285200D01*
X26059986Y-21285200D01*
X26200020Y-21227196D01*
X26307196Y-21120019D01*
X26365200Y-20979985D01*
X26365200Y-20828414D01*
X26365200Y-19177414D01*
X26307196Y-19037380D01*
X26265495Y-18995679D01*
X26238598Y-18860457D01*
X26238597Y-18860456D01*
X26139123Y-18711583D01*
X26507264Y-19079724D01*
X26466800Y-19177415D01*
X26466800Y-19328986D01*
X26466800Y-20979986D01*
X26524804Y-21120020D01*
X26631981Y-21227196D01*
X26772015Y-21285200D01*
X26923586Y-21285200D01*
X27329986Y-21285200D01*
X27470020Y-21227196D01*
X27577196Y-21120019D01*
X27635200Y-20979985D01*
X27635200Y-20828414D01*
X27635200Y-19177414D01*
X27577196Y-19037380D01*
X27546300Y-19006484D01*
X27546300Y-18923000D01*
X27508598Y-18733457D01*
X27401230Y-18572770D01*
X26563028Y-17734568D01*
X26402342Y-17627200D01*
X26212798Y-17589498D01*
X22504122Y-17589498D01*
X21051230Y-16136606D01*
X20890544Y-16029238D01*
X20701000Y-15991536D01*
X19519406Y-15991536D01*
X19446185Y-15918186D01*
X19189550Y-15811622D01*
X18911669Y-15811379D01*
X18654849Y-15917496D01*
X18458186Y-16113815D01*
X18351622Y-16370450D01*
X18351379Y-16648331D01*
X18457496Y-16905151D01*
X18653815Y-17101814D01*
X18910450Y-17208378D01*
X19188331Y-17208621D01*
X19445151Y-17102504D01*
X19565729Y-16982136D01*
X20495840Y-16982136D01*
X20773000Y-17259296D01*
X18669000Y-17259296D01*
X18606338Y-17259296D01*
X18275300Y-16928258D01*
X18275300Y-16367530D01*
X18371814Y-16271185D01*
X18478378Y-16014550D01*
X18478621Y-15736669D01*
X18372504Y-15479849D01*
X18176185Y-15283186D01*
X17919550Y-15176622D01*
X17641669Y-15176379D01*
X17384849Y-15282496D01*
X17188186Y-15478815D01*
X17081622Y-15735450D01*
X17081379Y-16013331D01*
X17187496Y-16270151D01*
X17284700Y-16367525D01*
X17284700Y-16584240D01*
X17208501Y-16508041D01*
X17208621Y-16371669D01*
X17102504Y-16114849D01*
X16906185Y-15918186D01*
X16649550Y-15811622D01*
X16371669Y-15811379D01*
X16243300Y-15864420D01*
X16243300Y-15732530D01*
X16339814Y-15636185D01*
X16446378Y-15379550D01*
X16446621Y-15101669D01*
X16340504Y-14844849D01*
X16144185Y-14648186D01*
X15887550Y-14541622D01*
X15609669Y-14541379D01*
X15352849Y-14647496D01*
X15156186Y-14843815D01*
X15049622Y-15100450D01*
X15049379Y-15378331D01*
X15155496Y-15635151D01*
X15252700Y-15732525D01*
X15252700Y-18288000D01*
X15290402Y-18477544D01*
X15397770Y-18638230D01*
X15631740Y-18872200D01*
X15342014Y-18872200D01*
X15201980Y-18930204D01*
X15094804Y-19037381D01*
X15036800Y-19177415D01*
X15036800Y-19328986D01*
X15036800Y-20979986D01*
X15069824Y-21059715D01*
X14907840Y-21221700D01*
X14775515Y-21221700D01*
X14877196Y-21120019D01*
X14935200Y-20979985D01*
X14935200Y-20828414D01*
X14935200Y-19177414D01*
X14877196Y-19037380D01*
X14846300Y-19006484D01*
X14846300Y-15875000D01*
X14808598Y-15685457D01*
X14701230Y-15524770D01*
X12796230Y-13619770D01*
X12635544Y-13512402D01*
X12446000Y-13474700D01*
X7747000Y-13474700D01*
X7747000Y-13386214D01*
X7725786Y-13334999D01*
X7747000Y-13283785D01*
X7747000Y-13195300D01*
X12446000Y-13195300D01*
X12635543Y-13157598D01*
X12635544Y-13157598D01*
X12796230Y-13050230D01*
X14701230Y-11145230D01*
X14808598Y-10984543D01*
X14846300Y-10795000D01*
X14846300Y-10203515D01*
X14877196Y-10172619D01*
X14935200Y-10032585D01*
X14935200Y-9881014D01*
X14935200Y-8230014D01*
X14877196Y-8089980D01*
X14775515Y-7988300D01*
X15034840Y-7988300D01*
X15115662Y-8069122D01*
X15094804Y-8089981D01*
X15036800Y-8230015D01*
X15036800Y-8381586D01*
X15036800Y-10032586D01*
X15094804Y-10172620D01*
X15201981Y-10279796D01*
X15342015Y-10337800D01*
X15493586Y-10337800D01*
X15899986Y-10337800D01*
X16040020Y-10279796D01*
X16147196Y-10172619D01*
X16205200Y-10032585D01*
X16205200Y-9881014D01*
X16205200Y-8230014D01*
X16147196Y-8089980D01*
X16116300Y-8059084D01*
X16116300Y-8053760D01*
X16306800Y-8244260D01*
X16306800Y-8381586D01*
X16306800Y-10032586D01*
X16364804Y-10172620D01*
X16388960Y-10196776D01*
X16320457Y-10210402D01*
X16159770Y-10317770D01*
X14127770Y-12349770D01*
X14020402Y-12510456D01*
X13982700Y-12700000D01*
X13982700Y-13477469D01*
X13886186Y-13573815D01*
X13779622Y-13830450D01*
X13779379Y-14108331D01*
X13885496Y-14365151D01*
X14081815Y-14561814D01*
X14338450Y-14668378D01*
X14616331Y-14668621D01*
X14873151Y-14562504D01*
X15069814Y-14366185D01*
X15176378Y-14109550D01*
X15176621Y-13831669D01*
X15070504Y-13574849D01*
X14973300Y-13477474D01*
X14973300Y-12905160D01*
X15049387Y-12829072D01*
X15049379Y-12838331D01*
X15155496Y-13095151D01*
X15351815Y-13291814D01*
X15608450Y-13398378D01*
X15886331Y-13398621D01*
X16143151Y-13292504D01*
X16339814Y-13096185D01*
X16446378Y-12839550D01*
X16446498Y-12701961D01*
X16649700Y-12498760D01*
X16649700Y-12969469D01*
X16553186Y-13065815D01*
X16446622Y-13322450D01*
X16446379Y-13600331D01*
X16552496Y-13857151D01*
X16748815Y-14053814D01*
X17005450Y-14160378D01*
X17283331Y-14160621D01*
X17540151Y-14054504D01*
X17736814Y-13858185D01*
X17843378Y-13601550D01*
X17843621Y-13323669D01*
X17737504Y-13066849D01*
X17640300Y-12969474D01*
X17640300Y-12651160D01*
X17716609Y-12574850D01*
X17716379Y-12838331D01*
X17822496Y-13095151D01*
X18018815Y-13291814D01*
X18275450Y-13398378D01*
X18553331Y-13398621D01*
X18810151Y-13292504D01*
X19006814Y-13096185D01*
X19113378Y-12839550D01*
X19113498Y-12701961D01*
X19280554Y-12534906D01*
X25264924Y-12534906D01*
X25196402Y-12637456D01*
X25158700Y-12827000D01*
X25158700Y-15128469D01*
X25062186Y-15224815D01*
X24955622Y-15481450D01*
X24955379Y-15759331D01*
X25061496Y-16016151D01*
X25257815Y-16212814D01*
X25514450Y-16319378D01*
X25792331Y-16319621D01*
X26049151Y-16213504D01*
X26245814Y-16017185D01*
X26352378Y-15760550D01*
X26352621Y-15482669D01*
X26246504Y-15225849D01*
X26149300Y-15128474D01*
X26149300Y-13032160D01*
X28671230Y-10510230D01*
X28778598Y-10349543D01*
X28805495Y-10214320D01*
X28847196Y-10172619D01*
X28905200Y-10032585D01*
X28905200Y-9881014D01*
X28905200Y-8230014D01*
X28847196Y-8089980D01*
X28745515Y-7988300D01*
X29004840Y-7988300D01*
X29085662Y-8069122D01*
X29064804Y-8089981D01*
X29006800Y-8230015D01*
X29006800Y-8381586D01*
X29006800Y-10032586D01*
X29064804Y-10172620D01*
X29171981Y-10279796D01*
X29312015Y-10337800D01*
X29463586Y-10337800D01*
X29869986Y-10337800D01*
X30010020Y-10279796D01*
X30117196Y-10172619D01*
X30175200Y-10032585D01*
X30175200Y-9881014D01*
X30175200Y-8230014D01*
X30117196Y-8089980D01*
X30086300Y-8059084D01*
X30086300Y-7874000D01*
X30048598Y-7684457D01*
X30048598Y-7684456D01*
X29949123Y-7535583D01*
X30365700Y-7952160D01*
X30365700Y-8059084D01*
X30334804Y-8089981D01*
X30276800Y-8230015D01*
X30276800Y-8381586D01*
X30276800Y-10032586D01*
X30334804Y-10172620D01*
X30441981Y-10279796D01*
X30582015Y-10337800D01*
X30733586Y-10337800D01*
X31139986Y-10337800D01*
X31280020Y-10279796D01*
X31387196Y-10172619D01*
X31445200Y-10032585D01*
X31445200Y-9881014D01*
X31445200Y-8230014D01*
X31387196Y-8089980D01*
X31356300Y-8059084D01*
X31356300Y-7926760D01*
X31579825Y-8150285D01*
X31546800Y-8230015D01*
X31546800Y-8381586D01*
X31546800Y-10032586D01*
X31604804Y-10172620D01*
X31711981Y-10279796D01*
X31852015Y-10337800D01*
X32003586Y-10337800D01*
X32409986Y-10337800D01*
X32550020Y-10279796D01*
X32657196Y-10172619D01*
X32715200Y-10032585D01*
X32715200Y-9881014D01*
X32715200Y-8242300D01*
X32816800Y-8242300D01*
X32816800Y-8381586D01*
X32816800Y-10032586D01*
X32874804Y-10172620D01*
X32981981Y-10279796D01*
X33122015Y-10337800D01*
X33132340Y-10337800D01*
X34567442Y-11772902D01*
X31038798Y-11772902D01*
X30849255Y-11810604D01*
X30688568Y-11917972D01*
X27970770Y-14635770D01*
X27863402Y-14796456D01*
X27825700Y-14986000D01*
X27825700Y-19006484D01*
X27794804Y-19037381D01*
X27736800Y-19177415D01*
X27736800Y-19328986D01*
X27736800Y-20979986D01*
X27794804Y-21120020D01*
X27901981Y-21227196D01*
X28042015Y-21285200D01*
X28193586Y-21285200D01*
X28599986Y-21285200D01*
X28740020Y-21227196D01*
X28847196Y-21120019D01*
X28905200Y-20979985D01*
X28905200Y-20828414D01*
X28905200Y-19177414D01*
X28847196Y-19037380D01*
X28816300Y-19006484D01*
X28816300Y-15191160D01*
X31243958Y-12763502D01*
X39813380Y-12763502D01*
X40002923Y-12725800D01*
X40002924Y-12725800D01*
X40163610Y-12618432D01*
X41955432Y-10826610D01*
X42062800Y-10665923D01*
X42100502Y-10476380D01*
X42100502Y-6363540D01*
X42253742Y-6210300D01*
X42766504Y-6210300D01*
X42775004Y-6230820D01*
X42882181Y-6337996D01*
X42911160Y-6349999D01*
X42882180Y-6362004D01*
X42775004Y-6469181D01*
X42717000Y-6609215D01*
X42717000Y-6760786D01*
X42717000Y-7360786D01*
X42739878Y-7416019D01*
X42738302Y-7416673D01*
X42559673Y-7595301D01*
X42463000Y-7828690D01*
X42463000Y-7969250D01*
X42621750Y-8128000D01*
X43721000Y-8128000D01*
X43721000Y-8108000D01*
X43975000Y-8108000D01*
X43975000Y-8128000D01*
X43995000Y-8128000D01*
X43995000Y-8382000D01*
X43975000Y-8382000D01*
X43975000Y-8748750D01*
X43975000Y-9031250D01*
X43975000Y-9398000D01*
X43995000Y-9398000D01*
X43995000Y-9652000D01*
X43975000Y-9652000D01*
X43975000Y-10018750D01*
X43975000Y-10301250D01*
X43975000Y-10668000D01*
X43995000Y-10668000D01*
X43995000Y-10922000D01*
X43975000Y-10922000D01*
X43975000Y-11571250D01*
X44133750Y-11730000D01*
X44724309Y-11730000D01*
X44957698Y-11633327D01*
X45136327Y-11454699D01*
X45224700Y-11241347D01*
X45224700Y-11859840D01*
G36*
X46178000Y-6963109D02*
X46116185Y-6901186D01*
X45859550Y-6794622D01*
X45584178Y-6794381D01*
X45669597Y-6666544D01*
X45669598Y-6666543D01*
X45707300Y-6477000D01*
X45707300Y-2413000D01*
X45669598Y-2223457D01*
X45669598Y-2223456D01*
X45562230Y-2062770D01*
X45308230Y-1808770D01*
X45147544Y-1701402D01*
X44958000Y-1663700D01*
X42507742Y-1663700D01*
X42195610Y-1351568D01*
X42034924Y-1244200D01*
X41845380Y-1206498D01*
X32068620Y-1206498D01*
X31879076Y-1244200D01*
X31718390Y-1351568D01*
X28358268Y-4711690D01*
X26552060Y-4711690D01*
X25300130Y-3459760D01*
X25139444Y-3352392D01*
X24949900Y-3314690D01*
X21552732Y-3314690D01*
X19481800Y-1243758D01*
X19481800Y-1127530D01*
X19578314Y-1031185D01*
X19684878Y-774550D01*
X19685121Y-496669D01*
X19657986Y-431000D01*
X46178000Y-431000D01*
X46178000Y-6963109D01*
X46178000Y-6963109D01*
G37*
X46178000Y-6963109D02*
X46116185Y-6901186D01*
X45859550Y-6794622D01*
X45584178Y-6794381D01*
X45669597Y-6666544D01*
X45669598Y-6666543D01*
X45707300Y-6477000D01*
X45707300Y-2413000D01*
X45669598Y-2223457D01*
X45669598Y-2223456D01*
X45562230Y-2062770D01*
X45308230Y-1808770D01*
X45147544Y-1701402D01*
X44958000Y-1663700D01*
X42507742Y-1663700D01*
X42195610Y-1351568D01*
X42034924Y-1244200D01*
X41845380Y-1206498D01*
X32068620Y-1206498D01*
X31879076Y-1244200D01*
X31718390Y-1351568D01*
X28358268Y-4711690D01*
X26552060Y-4711690D01*
X25300130Y-3459760D01*
X25139444Y-3352392D01*
X24949900Y-3314690D01*
X21552732Y-3314690D01*
X19481800Y-1243758D01*
X19481800Y-1127530D01*
X19578314Y-1031185D01*
X19684878Y-774550D01*
X19685121Y-496669D01*
X19657986Y-431000D01*
X46178000Y-431000D01*
X46178000Y-6963109D01*
G36*
X46178000Y-28779000D02*
X7797000Y-28779000D01*
X7797000Y-27940000D01*
X7764192Y-27775063D01*
X7725108Y-27716571D01*
X7725698Y-27716327D01*
X7904327Y-27537699D01*
X8001000Y-27304310D01*
X8001000Y-27051691D01*
X8001000Y-26955750D01*
X7842250Y-26797000D01*
X3810000Y-26797000D01*
X3810000Y-26817000D01*
X3556000Y-26817000D01*
X3556000Y-26797000D01*
X3536000Y-26797000D01*
X3536000Y-26543000D01*
X3556000Y-26543000D01*
X3556000Y-26523000D01*
X3810000Y-26523000D01*
X3810000Y-26543000D01*
X7842250Y-26543000D01*
X8001000Y-26384250D01*
X8001000Y-26288309D01*
X8001000Y-26035690D01*
X7942852Y-25895310D01*
X17462400Y-25895310D01*
X17462379Y-25919331D01*
X17568496Y-26176151D01*
X17764815Y-26372814D01*
X18021450Y-26479378D01*
X18299331Y-26479621D01*
X18556151Y-26373504D01*
X18752814Y-26177185D01*
X18859378Y-25920550D01*
X18859621Y-25642669D01*
X18775097Y-25438108D01*
X21410443Y-25438108D01*
X21505496Y-25668151D01*
X21701815Y-25864814D01*
X21958450Y-25971378D01*
X22236331Y-25971621D01*
X22493151Y-25865504D01*
X22689814Y-25669185D01*
X22796378Y-25412550D01*
X22796621Y-25134669D01*
X22733086Y-24980906D01*
X23748963Y-24980906D01*
X23685622Y-25133450D01*
X23685379Y-25411331D01*
X23791496Y-25668151D01*
X23987815Y-25864814D01*
X24244450Y-25971378D01*
X24522331Y-25971621D01*
X24779151Y-25865504D01*
X24975814Y-25669185D01*
X25071765Y-25438108D01*
X32842192Y-25438108D01*
X33031735Y-25400406D01*
X33031736Y-25400406D01*
X33192422Y-25293038D01*
X46070230Y-12415230D01*
X46177598Y-12254543D01*
X46178000Y-12252521D01*
X46178000Y-28779000D01*
X46178000Y-28779000D01*
G37*
X46178000Y-28779000D02*
X7797000Y-28779000D01*
X7797000Y-27940000D01*
X7764192Y-27775063D01*
X7725108Y-27716571D01*
X7725698Y-27716327D01*
X7904327Y-27537699D01*
X8001000Y-27304310D01*
X8001000Y-27051691D01*
X8001000Y-26955750D01*
X7842250Y-26797000D01*
X3810000Y-26797000D01*
X3810000Y-26817000D01*
X3556000Y-26817000D01*
X3556000Y-26797000D01*
X3536000Y-26797000D01*
X3536000Y-26543000D01*
X3556000Y-26543000D01*
X3556000Y-26523000D01*
X3810000Y-26523000D01*
X3810000Y-26543000D01*
X7842250Y-26543000D01*
X8001000Y-26384250D01*
X8001000Y-26288309D01*
X8001000Y-26035690D01*
X7942852Y-25895310D01*
X17462400Y-25895310D01*
X17462379Y-25919331D01*
X17568496Y-26176151D01*
X17764815Y-26372814D01*
X18021450Y-26479378D01*
X18299331Y-26479621D01*
X18556151Y-26373504D01*
X18752814Y-26177185D01*
X18859378Y-25920550D01*
X18859621Y-25642669D01*
X18775097Y-25438108D01*
X21410443Y-25438108D01*
X21505496Y-25668151D01*
X21701815Y-25864814D01*
X21958450Y-25971378D01*
X22236331Y-25971621D01*
X22493151Y-25865504D01*
X22689814Y-25669185D01*
X22796378Y-25412550D01*
X22796621Y-25134669D01*
X22733086Y-24980906D01*
X23748963Y-24980906D01*
X23685622Y-25133450D01*
X23685379Y-25411331D01*
X23791496Y-25668151D01*
X23987815Y-25864814D01*
X24244450Y-25971378D01*
X24522331Y-25971621D01*
X24779151Y-25865504D01*
X24975814Y-25669185D01*
X25071765Y-25438108D01*
X32842192Y-25438108D01*
X33031735Y-25400406D01*
X33031736Y-25400406D01*
X33192422Y-25293038D01*
X46070230Y-12415230D01*
X46177598Y-12254543D01*
X46178000Y-12252521D01*
X46178000Y-28779000D01*
M02*
