M48
INCH,TZ
T1C0.012
T2C0.032
T3C0.035
%
G90
G05
T1
X3275Y-1975
X3300Y-1500
X4125Y-10650
X4550Y-750
X4550Y-3600
X4750Y-5000
X4750Y-9850
X5000Y-8850
X5250Y-5000
X5300Y-9150
X5550Y-3163
X5650Y-8700
X5750Y-5000
X6050Y-2225
X6050Y-3650
X6250Y-5000
X6750Y-5000
X7050Y-3150
X7250Y-5000
X7300Y-2350
X8050Y-850
X8250Y-5800
X8775Y-1025
X9250Y-6800
X10000Y-9200
X10100Y-3700
X10250Y-4250
X10250Y-6550
X10450Y-9750
X11750Y-10850
X11975Y-2375
X12750Y-9900
X16800Y-600
T2
X7184Y-1700
T3
X5216Y-1700
T0
M30
