%FSLAX46Y46*%
G04 Gerber Fmt 4.6, Leading zero omitted, Abs format (unit mm)*
G04 Created by KiCad (PCBNEW (2014-10-27 BZR 5228)-product) date 5/6/2015 10:21:37 PM*
%MOMM*%
G01*
G04 APERTURE LIST*
%ADD10C,0.100000*%
%ADD11C,0.150000*%
%ADD12C,0.200000*%
%ADD13C,0.002540*%
%ADD14R,6.350000X1.016000*%
%ADD15R,7.366000X1.016000*%
%ADD16R,0.800100X0.800100*%
%ADD17R,0.406400X1.397000*%
%ADD18R,0.600000X1.500000*%
%ADD19R,2.499360X1.950720*%
G04 APERTURE END LIST*
D10*
D11*
X23592840Y-2651760D02*
X23641100Y-2651760D01*
X26391820Y-3352800D02*
X26391820Y-2651760D01*
X26391820Y-2651760D02*
X26142900Y-2651760D01*
X23592840Y-2651760D02*
X23392180Y-2651760D01*
X23392180Y-2651760D02*
X23392180Y-3352800D01*
D12*
X31826200Y-26622500D02*
X30826200Y-27622500D01*
X30826200Y-27622500D02*
X11353800Y-27622500D01*
X11353800Y-27622500D02*
X11353800Y-12509500D01*
X11353800Y-12509500D02*
X31826200Y-12509500D01*
X31826200Y-12509500D02*
X31826200Y-26622500D01*
D11*
X21077000Y-7409000D02*
X20972000Y-7409000D01*
X21077000Y-3259000D02*
X20972000Y-3259000D01*
X10927000Y-3259000D02*
X11032000Y-3259000D01*
X10927000Y-7409000D02*
X11032000Y-7409000D01*
X21077000Y-7409000D02*
X21077000Y-3259000D01*
X10927000Y-7409000D02*
X10927000Y-3259000D01*
X20972000Y-7409000D02*
X20972000Y-8784000D01*
D13*
G36*
X45582840Y-16215360D02*
X45547280Y-16283940D01*
X45453300Y-16431260D01*
X45316140Y-16644620D01*
X45145960Y-16893540D01*
X44975780Y-17145000D01*
X44838620Y-17353280D01*
X44744640Y-17498060D01*
X44711620Y-17559020D01*
X44724320Y-17589500D01*
X44782740Y-17711420D01*
X44871640Y-17884140D01*
X44922440Y-17983200D01*
X44993560Y-18143220D01*
X45006260Y-18221960D01*
X44983400Y-18234660D01*
X44861480Y-18293080D01*
X44655740Y-18384520D01*
X44378880Y-18506440D01*
X44056300Y-18643600D01*
X43708320Y-18790920D01*
X43355260Y-18938240D01*
X43017440Y-19077940D01*
X42712640Y-19202400D01*
X42466260Y-19301460D01*
X42293540Y-19367500D01*
X42219880Y-19390360D01*
X42204640Y-19382740D01*
X42125900Y-19304000D01*
X42021760Y-19164300D01*
X41777920Y-18864580D01*
X41409620Y-18567400D01*
X40987980Y-18387060D01*
X40520620Y-18328640D01*
X40086280Y-18379440D01*
X39669720Y-18549620D01*
X39296340Y-18839180D01*
X39016940Y-19192240D01*
X38841680Y-19603720D01*
X38785800Y-20066000D01*
X38834060Y-20507960D01*
X39001700Y-20934680D01*
X39286180Y-21308060D01*
X39469060Y-21465540D01*
X39850060Y-21683980D01*
X40256460Y-21808440D01*
X40360600Y-21821140D01*
X40805100Y-21803360D01*
X41231820Y-21671280D01*
X41615360Y-21435060D01*
X41927780Y-21109940D01*
X41958260Y-21069300D01*
X42070020Y-20916900D01*
X42148760Y-20815300D01*
X42214800Y-20736560D01*
X43581320Y-21302980D01*
X43799760Y-21394420D01*
X44173140Y-21549360D01*
X44493180Y-21686520D01*
X44749720Y-21795740D01*
X44922440Y-21871940D01*
X44991020Y-21904960D01*
X44993560Y-21910040D01*
X45003720Y-21958300D01*
X44965620Y-22064980D01*
X44871640Y-22252940D01*
X44808140Y-22379940D01*
X44737020Y-22524720D01*
X44711620Y-22590760D01*
X44742100Y-22646640D01*
X44833540Y-22786340D01*
X44968160Y-22989540D01*
X45133260Y-23233380D01*
X45293280Y-23464520D01*
X45432980Y-23680420D01*
X45534580Y-23837900D01*
X45575220Y-23911560D01*
X45575220Y-23924260D01*
X45537120Y-23992840D01*
X45432980Y-24114760D01*
X45257720Y-24300180D01*
X44998640Y-24564340D01*
X44958000Y-24604980D01*
X44737020Y-24820880D01*
X44554140Y-24996140D01*
X44422060Y-25115520D01*
X44361100Y-25156160D01*
X44361100Y-25156160D01*
X44287440Y-25118060D01*
X44132500Y-25019000D01*
X43914060Y-24876760D01*
X43660060Y-24704040D01*
X43002200Y-24251920D01*
X42382440Y-24500840D01*
X42191940Y-24577040D01*
X41960800Y-24673560D01*
X41798240Y-24747220D01*
X41724580Y-24782780D01*
X41701720Y-24851360D01*
X41661080Y-25021540D01*
X41610280Y-25265380D01*
X41554400Y-25560020D01*
X41503600Y-25839420D01*
X41455340Y-26093420D01*
X41419780Y-26276300D01*
X41404540Y-26357580D01*
X41391840Y-26377900D01*
X41351200Y-26393140D01*
X41267380Y-26405840D01*
X41112440Y-26410920D01*
X40871140Y-26413460D01*
X40520620Y-26413460D01*
X40482520Y-26413460D01*
X40147240Y-26410920D01*
X39883080Y-26405840D01*
X39707820Y-26395680D01*
X39639240Y-26385520D01*
X39639240Y-26382980D01*
X39618920Y-26304240D01*
X39580820Y-26126440D01*
X39532560Y-25872440D01*
X39474140Y-25572720D01*
X39471600Y-25552400D01*
X39413180Y-25252680D01*
X39359840Y-25001220D01*
X39319200Y-24825960D01*
X39296340Y-24749760D01*
X39276020Y-24734520D01*
X39159180Y-24673560D01*
X38971220Y-24589740D01*
X38745160Y-24488140D01*
X38508940Y-24391620D01*
X38298120Y-24305260D01*
X38138100Y-24249380D01*
X38066980Y-24231600D01*
X38064440Y-24231600D01*
X37993320Y-24277320D01*
X37838380Y-24381460D01*
X37622480Y-24528780D01*
X37365940Y-24701500D01*
X37345620Y-24716740D01*
X37091620Y-24889460D01*
X36878260Y-25029160D01*
X36725860Y-25123140D01*
X36657280Y-25156160D01*
X36652200Y-25156160D01*
X36576000Y-25100280D01*
X36431220Y-24970740D01*
X36238180Y-24785320D01*
X36014660Y-24561800D01*
X35943540Y-24490680D01*
X35704780Y-24244300D01*
X35544760Y-24074120D01*
X35460940Y-23967440D01*
X35443160Y-23916640D01*
X35445700Y-23914100D01*
X35491420Y-23837900D01*
X35595560Y-23677880D01*
X35742880Y-23459440D01*
X35918140Y-23202900D01*
X35930840Y-23182580D01*
X36101020Y-22931120D01*
X36245800Y-22717760D01*
X36344860Y-22567900D01*
X36385500Y-22501860D01*
X36385500Y-22491700D01*
X36355020Y-22387560D01*
X36291520Y-22207220D01*
X36205160Y-21986240D01*
X36111180Y-21750020D01*
X36019740Y-21536660D01*
X35946080Y-21376640D01*
X35905440Y-21300440D01*
X35900360Y-21300440D01*
X35808920Y-21272500D01*
X35620960Y-21229320D01*
X35359340Y-21175980D01*
X35046920Y-21115020D01*
X34998660Y-21107400D01*
X34693860Y-21048980D01*
X34444940Y-21000720D01*
X34272220Y-20965160D01*
X34201100Y-20947380D01*
X34190940Y-20904200D01*
X34180780Y-20756880D01*
X34175700Y-20530820D01*
X34170620Y-20259040D01*
X34173160Y-19969480D01*
X34180780Y-19690080D01*
X34188400Y-19448780D01*
X34201100Y-19278600D01*
X34213800Y-19207480D01*
X34218880Y-19204940D01*
X34312860Y-19177000D01*
X34503360Y-19136360D01*
X34764980Y-19083020D01*
X35077400Y-19022060D01*
X35133280Y-19011900D01*
X35433000Y-18956020D01*
X35681920Y-18905220D01*
X35852100Y-18867120D01*
X35918140Y-18849340D01*
X35933380Y-18821400D01*
X35986720Y-18696940D01*
X36070540Y-18493740D01*
X36172140Y-18244820D01*
X36408360Y-17663160D01*
X35918140Y-16949420D01*
X35874960Y-16885920D01*
X35699700Y-16629380D01*
X35560000Y-16418560D01*
X35466020Y-16271240D01*
X35430460Y-16210280D01*
X35433000Y-16205200D01*
X35496500Y-16134080D01*
X35628580Y-15994380D01*
X35816540Y-15801340D01*
X36040060Y-15575280D01*
X36205160Y-15410180D01*
X36405820Y-15214600D01*
X36540440Y-15090140D01*
X36626800Y-15021560D01*
X36677600Y-14996160D01*
X36713160Y-15003780D01*
X36786820Y-15049500D01*
X36941760Y-15153640D01*
X37160200Y-15300960D01*
X37411660Y-15473680D01*
X37622480Y-15615920D01*
X37861240Y-15770860D01*
X38031420Y-15872460D01*
X38115240Y-15908020D01*
X38150800Y-15897860D01*
X38290500Y-15849600D01*
X38501320Y-15763240D01*
X38752780Y-15656560D01*
X39316660Y-15410180D01*
X39387780Y-15039340D01*
X39428420Y-14815820D01*
X39489380Y-14500860D01*
X39547800Y-14201140D01*
X39639240Y-13733780D01*
X41361360Y-13716000D01*
X41391840Y-13789660D01*
X41409620Y-13858240D01*
X41447720Y-14030960D01*
X41498520Y-14279880D01*
X41551860Y-14571980D01*
X41600120Y-14820900D01*
X41645840Y-15072360D01*
X41681400Y-15252700D01*
X41699180Y-15331440D01*
X41724580Y-15351760D01*
X41846500Y-15415260D01*
X42039540Y-15504160D01*
X42273220Y-15603220D01*
X42514520Y-15704820D01*
X42735500Y-15791180D01*
X42905680Y-15854680D01*
X42992040Y-15877540D01*
X43058080Y-15841980D01*
X43205400Y-15748000D01*
X43416220Y-15608300D01*
X43665140Y-15438120D01*
X43914060Y-15267940D01*
X44127420Y-15125700D01*
X44282360Y-15024100D01*
X44350940Y-14983460D01*
X44399200Y-15003780D01*
X44518580Y-15102840D01*
X44714160Y-15290800D01*
X44991020Y-15570200D01*
X45036740Y-15615920D01*
X45250100Y-15839440D01*
X45422820Y-16027400D01*
X45539660Y-16159480D01*
X45582840Y-16215360D01*
X45582840Y-16215360D01*
G37*
X45582840Y-16215360D02*
X45547280Y-16283940D01*
X45453300Y-16431260D01*
X45316140Y-16644620D01*
X45145960Y-16893540D01*
X44975780Y-17145000D01*
X44838620Y-17353280D01*
X44744640Y-17498060D01*
X44711620Y-17559020D01*
X44724320Y-17589500D01*
X44782740Y-17711420D01*
X44871640Y-17884140D01*
X44922440Y-17983200D01*
X44993560Y-18143220D01*
X45006260Y-18221960D01*
X44983400Y-18234660D01*
X44861480Y-18293080D01*
X44655740Y-18384520D01*
X44378880Y-18506440D01*
X44056300Y-18643600D01*
X43708320Y-18790920D01*
X43355260Y-18938240D01*
X43017440Y-19077940D01*
X42712640Y-19202400D01*
X42466260Y-19301460D01*
X42293540Y-19367500D01*
X42219880Y-19390360D01*
X42204640Y-19382740D01*
X42125900Y-19304000D01*
X42021760Y-19164300D01*
X41777920Y-18864580D01*
X41409620Y-18567400D01*
X40987980Y-18387060D01*
X40520620Y-18328640D01*
X40086280Y-18379440D01*
X39669720Y-18549620D01*
X39296340Y-18839180D01*
X39016940Y-19192240D01*
X38841680Y-19603720D01*
X38785800Y-20066000D01*
X38834060Y-20507960D01*
X39001700Y-20934680D01*
X39286180Y-21308060D01*
X39469060Y-21465540D01*
X39850060Y-21683980D01*
X40256460Y-21808440D01*
X40360600Y-21821140D01*
X40805100Y-21803360D01*
X41231820Y-21671280D01*
X41615360Y-21435060D01*
X41927780Y-21109940D01*
X41958260Y-21069300D01*
X42070020Y-20916900D01*
X42148760Y-20815300D01*
X42214800Y-20736560D01*
X43581320Y-21302980D01*
X43799760Y-21394420D01*
X44173140Y-21549360D01*
X44493180Y-21686520D01*
X44749720Y-21795740D01*
X44922440Y-21871940D01*
X44991020Y-21904960D01*
X44993560Y-21910040D01*
X45003720Y-21958300D01*
X44965620Y-22064980D01*
X44871640Y-22252940D01*
X44808140Y-22379940D01*
X44737020Y-22524720D01*
X44711620Y-22590760D01*
X44742100Y-22646640D01*
X44833540Y-22786340D01*
X44968160Y-22989540D01*
X45133260Y-23233380D01*
X45293280Y-23464520D01*
X45432980Y-23680420D01*
X45534580Y-23837900D01*
X45575220Y-23911560D01*
X45575220Y-23924260D01*
X45537120Y-23992840D01*
X45432980Y-24114760D01*
X45257720Y-24300180D01*
X44998640Y-24564340D01*
X44958000Y-24604980D01*
X44737020Y-24820880D01*
X44554140Y-24996140D01*
X44422060Y-25115520D01*
X44361100Y-25156160D01*
X44361100Y-25156160D01*
X44287440Y-25118060D01*
X44132500Y-25019000D01*
X43914060Y-24876760D01*
X43660060Y-24704040D01*
X43002200Y-24251920D01*
X42382440Y-24500840D01*
X42191940Y-24577040D01*
X41960800Y-24673560D01*
X41798240Y-24747220D01*
X41724580Y-24782780D01*
X41701720Y-24851360D01*
X41661080Y-25021540D01*
X41610280Y-25265380D01*
X41554400Y-25560020D01*
X41503600Y-25839420D01*
X41455340Y-26093420D01*
X41419780Y-26276300D01*
X41404540Y-26357580D01*
X41391840Y-26377900D01*
X41351200Y-26393140D01*
X41267380Y-26405840D01*
X41112440Y-26410920D01*
X40871140Y-26413460D01*
X40520620Y-26413460D01*
X40482520Y-26413460D01*
X40147240Y-26410920D01*
X39883080Y-26405840D01*
X39707820Y-26395680D01*
X39639240Y-26385520D01*
X39639240Y-26382980D01*
X39618920Y-26304240D01*
X39580820Y-26126440D01*
X39532560Y-25872440D01*
X39474140Y-25572720D01*
X39471600Y-25552400D01*
X39413180Y-25252680D01*
X39359840Y-25001220D01*
X39319200Y-24825960D01*
X39296340Y-24749760D01*
X39276020Y-24734520D01*
X39159180Y-24673560D01*
X38971220Y-24589740D01*
X38745160Y-24488140D01*
X38508940Y-24391620D01*
X38298120Y-24305260D01*
X38138100Y-24249380D01*
X38066980Y-24231600D01*
X38064440Y-24231600D01*
X37993320Y-24277320D01*
X37838380Y-24381460D01*
X37622480Y-24528780D01*
X37365940Y-24701500D01*
X37345620Y-24716740D01*
X37091620Y-24889460D01*
X36878260Y-25029160D01*
X36725860Y-25123140D01*
X36657280Y-25156160D01*
X36652200Y-25156160D01*
X36576000Y-25100280D01*
X36431220Y-24970740D01*
X36238180Y-24785320D01*
X36014660Y-24561800D01*
X35943540Y-24490680D01*
X35704780Y-24244300D01*
X35544760Y-24074120D01*
X35460940Y-23967440D01*
X35443160Y-23916640D01*
X35445700Y-23914100D01*
X35491420Y-23837900D01*
X35595560Y-23677880D01*
X35742880Y-23459440D01*
X35918140Y-23202900D01*
X35930840Y-23182580D01*
X36101020Y-22931120D01*
X36245800Y-22717760D01*
X36344860Y-22567900D01*
X36385500Y-22501860D01*
X36385500Y-22491700D01*
X36355020Y-22387560D01*
X36291520Y-22207220D01*
X36205160Y-21986240D01*
X36111180Y-21750020D01*
X36019740Y-21536660D01*
X35946080Y-21376640D01*
X35905440Y-21300440D01*
X35900360Y-21300440D01*
X35808920Y-21272500D01*
X35620960Y-21229320D01*
X35359340Y-21175980D01*
X35046920Y-21115020D01*
X34998660Y-21107400D01*
X34693860Y-21048980D01*
X34444940Y-21000720D01*
X34272220Y-20965160D01*
X34201100Y-20947380D01*
X34190940Y-20904200D01*
X34180780Y-20756880D01*
X34175700Y-20530820D01*
X34170620Y-20259040D01*
X34173160Y-19969480D01*
X34180780Y-19690080D01*
X34188400Y-19448780D01*
X34201100Y-19278600D01*
X34213800Y-19207480D01*
X34218880Y-19204940D01*
X34312860Y-19177000D01*
X34503360Y-19136360D01*
X34764980Y-19083020D01*
X35077400Y-19022060D01*
X35133280Y-19011900D01*
X35433000Y-18956020D01*
X35681920Y-18905220D01*
X35852100Y-18867120D01*
X35918140Y-18849340D01*
X35933380Y-18821400D01*
X35986720Y-18696940D01*
X36070540Y-18493740D01*
X36172140Y-18244820D01*
X36408360Y-17663160D01*
X35918140Y-16949420D01*
X35874960Y-16885920D01*
X35699700Y-16629380D01*
X35560000Y-16418560D01*
X35466020Y-16271240D01*
X35430460Y-16210280D01*
X35433000Y-16205200D01*
X35496500Y-16134080D01*
X35628580Y-15994380D01*
X35816540Y-15801340D01*
X36040060Y-15575280D01*
X36205160Y-15410180D01*
X36405820Y-15214600D01*
X36540440Y-15090140D01*
X36626800Y-15021560D01*
X36677600Y-14996160D01*
X36713160Y-15003780D01*
X36786820Y-15049500D01*
X36941760Y-15153640D01*
X37160200Y-15300960D01*
X37411660Y-15473680D01*
X37622480Y-15615920D01*
X37861240Y-15770860D01*
X38031420Y-15872460D01*
X38115240Y-15908020D01*
X38150800Y-15897860D01*
X38290500Y-15849600D01*
X38501320Y-15763240D01*
X38752780Y-15656560D01*
X39316660Y-15410180D01*
X39387780Y-15039340D01*
X39428420Y-14815820D01*
X39489380Y-14500860D01*
X39547800Y-14201140D01*
X39639240Y-13733780D01*
X41361360Y-13716000D01*
X41391840Y-13789660D01*
X41409620Y-13858240D01*
X41447720Y-14030960D01*
X41498520Y-14279880D01*
X41551860Y-14571980D01*
X41600120Y-14820900D01*
X41645840Y-15072360D01*
X41681400Y-15252700D01*
X41699180Y-15331440D01*
X41724580Y-15351760D01*
X41846500Y-15415260D01*
X42039540Y-15504160D01*
X42273220Y-15603220D01*
X42514520Y-15704820D01*
X42735500Y-15791180D01*
X42905680Y-15854680D01*
X42992040Y-15877540D01*
X43058080Y-15841980D01*
X43205400Y-15748000D01*
X43416220Y-15608300D01*
X43665140Y-15438120D01*
X43914060Y-15267940D01*
X44127420Y-15125700D01*
X44282360Y-15024100D01*
X44350940Y-14983460D01*
X44399200Y-15003780D01*
X44518580Y-15102840D01*
X44714160Y-15290800D01*
X44991020Y-15570200D01*
X45036740Y-15615920D01*
X45250100Y-15839440D01*
X45422820Y-16027400D01*
X45539660Y-16159480D01*
X45582840Y-16215360D01*
D11*
X31750000Y-8255000D02*
X34544000Y-8255000D01*
X31750000Y-8763000D02*
X31750000Y-2667000D01*
X31750000Y-2667000D02*
X34544000Y-2667000D01*
X34544000Y-2667000D02*
X34544000Y-8763000D01*
X34544000Y-8763000D02*
X31750000Y-8763000D01*
X36576000Y-8255000D02*
X39370000Y-8255000D01*
X36576000Y-8763000D02*
X36576000Y-2667000D01*
X36576000Y-2667000D02*
X39370000Y-2667000D01*
X39370000Y-2667000D02*
X39370000Y-8763000D01*
X39370000Y-8763000D02*
X36576000Y-8763000D01*
X41148000Y-8255000D02*
X43942000Y-8255000D01*
X41148000Y-8763000D02*
X41148000Y-2667000D01*
X41148000Y-2667000D02*
X43942000Y-2667000D01*
X43942000Y-2667000D02*
X43942000Y-8763000D01*
X43942000Y-8763000D02*
X41148000Y-8763000D01*
X25630095Y-1504381D02*
X25630095Y-504381D01*
X25392000Y-504381D01*
X25249142Y-552000D01*
X25153904Y-647238D01*
X25106285Y-742476D01*
X25058666Y-932952D01*
X25058666Y-1075810D01*
X25106285Y-1266286D01*
X25153904Y-1361524D01*
X25249142Y-1456762D01*
X25392000Y-1504381D01*
X25630095Y-1504381D01*
X24106285Y-1504381D02*
X24677714Y-1504381D01*
X24392000Y-1504381D02*
X24392000Y-504381D01*
X24487238Y-647238D01*
X24582476Y-742476D01*
X24677714Y-790095D01*
D12*
X9496657Y-19151714D02*
X10468086Y-19151714D01*
X10582371Y-19208857D01*
X10639514Y-19266000D01*
X10696657Y-19380286D01*
X10696657Y-19608857D01*
X10639514Y-19723143D01*
X10582371Y-19780286D01*
X10468086Y-19837429D01*
X9496657Y-19837429D01*
X10696657Y-21037429D02*
X10696657Y-20351714D01*
X10696657Y-20694572D02*
X9496657Y-20694572D01*
X9668086Y-20580286D01*
X9782371Y-20466000D01*
X9839514Y-20351714D01*
D11*
X9454381Y-4572095D02*
X10263905Y-4572095D01*
X10359143Y-4619714D01*
X10406762Y-4667333D01*
X10454381Y-4762571D01*
X10454381Y-4953048D01*
X10406762Y-5048286D01*
X10359143Y-5095905D01*
X10263905Y-5143524D01*
X9454381Y-5143524D01*
X9549619Y-5572095D02*
X9502000Y-5619714D01*
X9454381Y-5714952D01*
X9454381Y-5953048D01*
X9502000Y-6048286D01*
X9549619Y-6095905D01*
X9644857Y-6143524D01*
X9740095Y-6143524D01*
X9882952Y-6095905D01*
X10454381Y-5524476D01*
X10454381Y-6143524D01*
X35790143Y-5294334D02*
X35837762Y-5246715D01*
X35885381Y-5103858D01*
X35885381Y-5008620D01*
X35837762Y-4865762D01*
X35742524Y-4770524D01*
X35647286Y-4722905D01*
X35456810Y-4675286D01*
X35313952Y-4675286D01*
X35123476Y-4722905D01*
X35028238Y-4770524D01*
X34933000Y-4865762D01*
X34885381Y-5008620D01*
X34885381Y-5103858D01*
X34933000Y-5246715D01*
X34980619Y-5294334D01*
X35885381Y-6246715D02*
X35885381Y-5675286D01*
X35885381Y-5961000D02*
X34885381Y-5961000D01*
X35028238Y-5865762D01*
X35123476Y-5770524D01*
X35171095Y-5675286D01*
X40616143Y-5294334D02*
X40663762Y-5246715D01*
X40711381Y-5103858D01*
X40711381Y-5008620D01*
X40663762Y-4865762D01*
X40568524Y-4770524D01*
X40473286Y-4722905D01*
X40282810Y-4675286D01*
X40139952Y-4675286D01*
X39949476Y-4722905D01*
X39854238Y-4770524D01*
X39759000Y-4865762D01*
X39711381Y-5008620D01*
X39711381Y-5103858D01*
X39759000Y-5246715D01*
X39806619Y-5294334D01*
X39806619Y-5675286D02*
X39759000Y-5722905D01*
X39711381Y-5818143D01*
X39711381Y-6056239D01*
X39759000Y-6151477D01*
X39806619Y-6199096D01*
X39901857Y-6246715D01*
X39997095Y-6246715D01*
X40139952Y-6199096D01*
X40711381Y-5627667D01*
X40711381Y-6246715D01*
X45188143Y-5294334D02*
X45235762Y-5246715D01*
X45283381Y-5103858D01*
X45283381Y-5008620D01*
X45235762Y-4865762D01*
X45140524Y-4770524D01*
X45045286Y-4722905D01*
X44854810Y-4675286D01*
X44711952Y-4675286D01*
X44521476Y-4722905D01*
X44426238Y-4770524D01*
X44331000Y-4865762D01*
X44283381Y-5008620D01*
X44283381Y-5103858D01*
X44331000Y-5246715D01*
X44378619Y-5294334D01*
X44283381Y-5627667D02*
X44283381Y-6246715D01*
X44664333Y-5913381D01*
X44664333Y-6056239D01*
X44711952Y-6151477D01*
X44759571Y-6199096D01*
X44854810Y-6246715D01*
X45092905Y-6246715D01*
X45188143Y-6199096D01*
X45235762Y-6151477D01*
X45283381Y-6056239D01*
X45283381Y-5770524D01*
X45235762Y-5675286D01*
X45188143Y-5627667D01*
%LPC*%
D14*
X4191000Y-20320000D03*
D15*
X3683000Y-2540000D03*
D14*
X4191000Y-3810000D03*
X4191000Y-5080000D03*
X4191000Y-6350000D03*
X4191000Y-7620000D03*
X4191000Y-8890000D03*
X4191000Y-10160000D03*
X4191000Y-11430000D03*
X4191000Y-12700000D03*
X4191000Y-13970000D03*
X4191000Y-15240000D03*
X4191000Y-16510000D03*
X4191000Y-17780000D03*
X4191000Y-19050000D03*
X4191000Y-21590000D03*
X4191000Y-22860000D03*
X4191000Y-24130000D03*
X4191000Y-25400000D03*
D15*
X3683000Y-26670000D03*
D16*
X25842000Y-4302760D03*
X23942000Y-4302760D03*
X24892000Y-2303780D03*
D17*
X31115000Y-26416000D03*
X29845000Y-26416000D03*
X28575000Y-26416000D03*
X27305000Y-26416000D03*
X26035000Y-26416000D03*
X24765000Y-26416000D03*
X23495000Y-26416000D03*
X22225000Y-26416000D03*
X20955000Y-26416000D03*
X19685000Y-26416000D03*
X18415000Y-26416000D03*
X17145000Y-26416000D03*
X15875000Y-26416000D03*
X14605000Y-26416000D03*
X13335000Y-26416000D03*
X12065000Y-26416000D03*
X31115000Y-13716000D03*
X29845000Y-13716000D03*
X28575000Y-13716000D03*
X27305000Y-13716000D03*
X26035000Y-13716000D03*
X24765000Y-13716000D03*
X23495000Y-13716000D03*
X22225000Y-13716000D03*
X20955000Y-13716000D03*
X19685000Y-13716000D03*
X18415000Y-13716000D03*
X17145000Y-13716000D03*
X15875000Y-13716000D03*
X14605000Y-13716000D03*
X13335000Y-13716000D03*
X12065000Y-13716000D03*
D18*
X20447000Y-8034000D03*
X19177000Y-8034000D03*
X17907000Y-8034000D03*
X16637000Y-8034000D03*
X15367000Y-8034000D03*
X14097000Y-8034000D03*
X12827000Y-8034000D03*
X11557000Y-8034000D03*
X11557000Y-2634000D03*
X12827000Y-2634000D03*
X14097000Y-2634000D03*
X15367000Y-2634000D03*
X16637000Y-2634000D03*
X17907000Y-2634000D03*
X19177000Y-2634000D03*
X20447000Y-2634000D03*
D19*
X33147000Y-6985000D03*
X33147000Y-3937000D03*
X37973000Y-6985000D03*
X37973000Y-3937000D03*
X42545000Y-6985000D03*
X42545000Y-3937000D03*
M02*
