%FSLAX46Y46*%
G04 Gerber Fmt 4.6, Leading zero omitted, Abs format (unit mm)*
G04 Created by KiCad (PCBNEW (2014-10-27 BZR 5228)-product) date 5/2/2015 5:37:21 PM*
%MOMM*%
G01*
G04 APERTURE LIST*
%ADD10C,0.100000*%
%ADD11R,5.080000X2.540000*%
%ADD12C,6.350000*%
%ADD13R,7.366000X1.016000*%
%ADD14R,6.350000X1.016000*%
%ADD15R,0.700000X1.500000*%
%ADD16R,1.000000X0.800000*%
%ADD17C,0.635000*%
%ADD18C,0.228600*%
%ADD19C,0.254000*%
G04 APERTURE END LIST*
D10*
D11*
X36322000Y-27178000D03*
D12*
X36322000Y-15748000D03*
D11*
X36322000Y-4318000D03*
D13*
X3683000Y-2540000D03*
D14*
X4191000Y-3810000D03*
X4191000Y-5080000D03*
X4191000Y-6350000D03*
X4191000Y-7620000D03*
X4191000Y-8890000D03*
X4191000Y-10160000D03*
X4191000Y-11430000D03*
X4191000Y-12700000D03*
X4191000Y-13970000D03*
X4191000Y-15240000D03*
X4191000Y-16510000D03*
X4191000Y-17780000D03*
X4191000Y-19050000D03*
X4191000Y-20320000D03*
X4191000Y-21590000D03*
X4191000Y-22860000D03*
X4191000Y-24130000D03*
X4191000Y-25400000D03*
D13*
X3683000Y-26670000D03*
D15*
X18748000Y-2060000D03*
X17248000Y-2060000D03*
X12748000Y-2060000D03*
D16*
X20398000Y-4910000D03*
X20398000Y-2710000D03*
X11098000Y-2710000D03*
X11098000Y-4910000D03*
D15*
X14248000Y-2060000D03*
D17*
X22860000Y-3683000D03*
X20447000Y-1651000D03*
X26670000Y-27686000D03*
X10541000Y-27305000D03*
X23114000Y-17145000D03*
X20955000Y-14986000D03*
X17145000Y-12700000D03*
X15875000Y-12700000D03*
X14605000Y-12700000D03*
X13335000Y-12700000D03*
X12065000Y-12700000D03*
X12700000Y-22479000D03*
X13462000Y-23241000D03*
X14351000Y-22098000D03*
X32385000Y-25146000D03*
X12065000Y-25019000D03*
X19050000Y-15036800D03*
X22860000Y-1397000D03*
X11557000Y-8636000D03*
X25654000Y-9398000D03*
X15367000Y-4445000D03*
X8382000Y-3810000D03*
X22288500Y-2095500D03*
X8318500Y-5080000D03*
X14986000Y-9779000D03*
X18923000Y-9271000D03*
X18415000Y-12700000D03*
X20574000Y-10541000D03*
X29845000Y-27559000D03*
X26035000Y-10795000D03*
X26035000Y-16637000D03*
X30988000Y-5461000D03*
X11557000Y-1397000D03*
X18288000Y-5080000D03*
X17907000Y-8636000D03*
X14097000Y-8636000D03*
D18*
X23622000Y-2921000D02*
X23622000Y-889000D01*
X23622000Y-889000D02*
X23164798Y-431798D01*
X23164798Y-431798D02*
X9728202Y-431798D01*
X9728202Y-431798D02*
X7620000Y-2540000D01*
X7620000Y-2540000D02*
X3683000Y-2540000D01*
X22860000Y-3683000D02*
X23622000Y-2921000D01*
X17248000Y-1167000D02*
X17526000Y-889000D01*
X17526000Y-889000D02*
X20193000Y-889000D01*
X20193000Y-889000D02*
X20447000Y-1143000D01*
X20447000Y-1143000D02*
X20447000Y-1651000D01*
X17248000Y-2060000D02*
X17248000Y-1167000D01*
X26670000Y-27686000D02*
X25984202Y-28371798D01*
X25984202Y-28371798D02*
X11607798Y-28371798D01*
X11607798Y-28371798D02*
X10541000Y-27305000D01*
X20955000Y-14986000D02*
X23114000Y-17145000D01*
X17145000Y-12700000D02*
X15011394Y-10566394D01*
X15011394Y-10566394D02*
X8026394Y-10566394D01*
X8026394Y-10566394D02*
X7620000Y-10160000D01*
X7620000Y-10160000D02*
X4191000Y-10160000D01*
X8026404Y-11023596D02*
X7620000Y-11430000D01*
X7620000Y-11430000D02*
X4191000Y-11430000D01*
X15875000Y-12700000D02*
X14198596Y-11023596D01*
X14198596Y-11023596D02*
X8026404Y-11023596D01*
X8712202Y-11480798D02*
X7493000Y-12700000D01*
X7493000Y-12700000D02*
X4191000Y-12700000D01*
X14605000Y-12700000D02*
X13385798Y-11480798D01*
X13385798Y-11480798D02*
X8712202Y-11480798D01*
X8901582Y-11938000D02*
X8001000Y-12838582D01*
X8001000Y-12838582D02*
X8001000Y-13589000D01*
X8001000Y-13589000D02*
X7620000Y-13970000D01*
X7620000Y-13970000D02*
X4191000Y-13970000D01*
X13335000Y-12700000D02*
X12573000Y-11938000D01*
X12573000Y-11938000D02*
X8901582Y-11938000D01*
X11760202Y-12395202D02*
X9090962Y-12395202D01*
X9090962Y-12395202D02*
X8458202Y-13027962D01*
X8458202Y-13027962D02*
X8458202Y-14401798D01*
X8458202Y-14401798D02*
X7620000Y-15240000D01*
X7620000Y-15240000D02*
X4191000Y-15240000D01*
X12065000Y-12700000D02*
X11760202Y-12395202D01*
X12700000Y-22479000D02*
X12700000Y-21601582D01*
X12700000Y-21601582D02*
X12237007Y-21138589D01*
X12237007Y-21138589D02*
X12237007Y-20642171D01*
X12237007Y-20642171D02*
X9832038Y-18237202D01*
X9832038Y-18237202D02*
X8432798Y-18237202D01*
X8432798Y-18237202D02*
X7620000Y-19050000D01*
X7620000Y-19050000D02*
X4191000Y-19050000D01*
X13462000Y-23241000D02*
X13462000Y-21717000D01*
X13462000Y-21717000D02*
X12694209Y-20949209D01*
X12694209Y-20949209D02*
X12694209Y-20452791D01*
X12694209Y-20452791D02*
X10021418Y-17780000D01*
X10021418Y-17780000D02*
X4191000Y-17780000D01*
X14351000Y-22098000D02*
X14351000Y-21959418D01*
X14351000Y-21959418D02*
X13151411Y-20759829D01*
X13151411Y-20759829D02*
X13151411Y-20263411D01*
X13151411Y-20263411D02*
X10210798Y-17322798D01*
X10210798Y-17322798D02*
X8432798Y-17322798D01*
X8432798Y-17322798D02*
X7620000Y-16510000D01*
X7620000Y-16510000D02*
X4191000Y-16510000D01*
X32385000Y-25146000D02*
X32385000Y-19685000D01*
X32385000Y-19685000D02*
X36322000Y-15748000D01*
X27051000Y-25019000D02*
X36322000Y-15748000D01*
X17018000Y-25019000D02*
X27051000Y-25019000D01*
X12065000Y-25019000D02*
X17018000Y-25019000D01*
X18745200Y-15036800D02*
X19050000Y-15036800D01*
X17018000Y-25019000D02*
X17018000Y-16764000D01*
X17018000Y-16764000D02*
X18745200Y-15036800D01*
X13970000Y-6223000D02*
X11557000Y-8636000D01*
X25654000Y-9398000D02*
X22479000Y-6223000D01*
X29972000Y-9398000D02*
X25654000Y-9398000D01*
X36322000Y-15748000D02*
X29972000Y-9398000D01*
X22479000Y-6223000D02*
X13970000Y-6223000D01*
X8712202Y-5765798D02*
X14681202Y-5765798D01*
X14681202Y-5765798D02*
X15367000Y-5080000D01*
X15367000Y-5080000D02*
X15367000Y-4445000D01*
X4191000Y-6350000D02*
X8128000Y-6350000D01*
X8128000Y-6350000D02*
X8636000Y-5842000D01*
X8636000Y-5842000D02*
X8712202Y-5765798D01*
X8382000Y-3810000D02*
X4191000Y-3810000D01*
X22288500Y-2730500D02*
X22288500Y-2095500D01*
X22288500Y-2730500D02*
X21209000Y-3810000D01*
X21209000Y-3810000D02*
X19685000Y-3810000D01*
X19685000Y-3810000D02*
X18748000Y-2873000D01*
X18748000Y-2060000D02*
X18748000Y-2873000D01*
X4191000Y-5080000D02*
X8318500Y-5080000D01*
X18415000Y-9779000D02*
X14986000Y-9779000D01*
X18923000Y-9271000D02*
X18415000Y-9779000D01*
X18415000Y-12700000D02*
X20574000Y-10541000D01*
X7620000Y-25400000D02*
X8128000Y-25908000D01*
X8128000Y-25908000D02*
X8128000Y-27178000D01*
X8128000Y-27178000D02*
X9779000Y-28829000D01*
X9779000Y-28829000D02*
X28575000Y-28829000D01*
X28575000Y-28829000D02*
X29845000Y-27559000D01*
X7620000Y-25400000D02*
X4191000Y-25400000D01*
X26035000Y-16637000D02*
X26035000Y-10795000D01*
X34544000Y-4318000D02*
X36322000Y-4318000D01*
X33401000Y-5461000D02*
X34544000Y-4318000D01*
X30988000Y-5461000D02*
X33401000Y-5461000D01*
X12220000Y-2060000D02*
X11557000Y-1397000D01*
X12748000Y-2060000D02*
X12220000Y-2060000D01*
X14248000Y-3199000D02*
X14732000Y-3683000D01*
X14732000Y-3683000D02*
X16510000Y-3683000D01*
X16510000Y-3683000D02*
X17907000Y-5080000D01*
X17907000Y-5080000D02*
X18288000Y-5080000D01*
X14248000Y-2060000D02*
X14248000Y-3199000D01*
X17907000Y-8636000D02*
X17653000Y-8890000D01*
X17653000Y-8890000D02*
X14351000Y-8890000D01*
X14351000Y-8890000D02*
X14097000Y-8636000D01*
D19*
G36*
X23126700Y-2715840D02*
X22858041Y-2984498D01*
X22721669Y-2984379D01*
X22696031Y-2994972D01*
X22746098Y-2920043D01*
X22783800Y-2730500D01*
X22783800Y-2588030D01*
X22880314Y-2491685D01*
X22986878Y-2235050D01*
X22987121Y-1957169D01*
X22881004Y-1700349D01*
X22684685Y-1503686D01*
X22428050Y-1397122D01*
X22150169Y-1396879D01*
X21893349Y-1502996D01*
X21696686Y-1699315D01*
X21590122Y-1955950D01*
X21589879Y-2233831D01*
X21695996Y-2490651D01*
X21761884Y-2556655D01*
X21279000Y-3039540D01*
X21279000Y-3034214D01*
X21279000Y-2234214D01*
X21220996Y-2094180D01*
X21113819Y-1987004D01*
X21071143Y-1969327D01*
X21145378Y-1790550D01*
X21145621Y-1512669D01*
X21039504Y-1255849D01*
X20942300Y-1158474D01*
X20942300Y-1143000D01*
X20904598Y-953457D01*
X20904598Y-953456D01*
X20886985Y-927098D01*
X22959638Y-927098D01*
X23126700Y-1094160D01*
X23126700Y-2715840D01*
X23126700Y-2715840D01*
G37*
X23126700Y-2715840D02*
X22858041Y-2984498D01*
X22721669Y-2984379D01*
X22696031Y-2994972D01*
X22746098Y-2920043D01*
X22783800Y-2730500D01*
X22783800Y-2588030D01*
X22880314Y-2491685D01*
X22986878Y-2235050D01*
X22987121Y-1957169D01*
X22881004Y-1700349D01*
X22684685Y-1503686D01*
X22428050Y-1397122D01*
X22150169Y-1396879D01*
X21893349Y-1502996D01*
X21696686Y-1699315D01*
X21590122Y-1955950D01*
X21589879Y-2233831D01*
X21695996Y-2490651D01*
X21761884Y-2556655D01*
X21279000Y-3039540D01*
X21279000Y-3034214D01*
X21279000Y-2234214D01*
X21220996Y-2094180D01*
X21113819Y-1987004D01*
X21071143Y-1969327D01*
X21145378Y-1790550D01*
X21145621Y-1512669D01*
X21039504Y-1255849D01*
X20942300Y-1158474D01*
X20942300Y-1143000D01*
X20904598Y-953457D01*
X20904598Y-953456D01*
X20886985Y-927098D01*
X22959638Y-927098D01*
X23126700Y-1094160D01*
X23126700Y-2715840D01*
G36*
X46178000Y-28779000D02*
X39549677Y-28779000D01*
X39624000Y-28599571D01*
X39624000Y-28296429D01*
X39624000Y-25756429D01*
X39624000Y-5739571D01*
X39624000Y-5436429D01*
X39624000Y-2896429D01*
X39507992Y-2616362D01*
X39293638Y-2402008D01*
X39013571Y-2286000D01*
X38710429Y-2286000D01*
X33630429Y-2286000D01*
X33350362Y-2402008D01*
X33136008Y-2616362D01*
X33020000Y-2896429D01*
X33020000Y-3199571D01*
X33020000Y-4965700D01*
X31480530Y-4965700D01*
X31384185Y-4869186D01*
X31127550Y-4762622D01*
X30849669Y-4762379D01*
X30592849Y-4868496D01*
X30396186Y-5064815D01*
X30289622Y-5321450D01*
X30289379Y-5599331D01*
X30395496Y-5856151D01*
X30591815Y-6052814D01*
X30848450Y-6159378D01*
X31126331Y-6159621D01*
X31383151Y-6053504D01*
X31480525Y-5956300D01*
X33109772Y-5956300D01*
X33136008Y-6019638D01*
X33350362Y-6233992D01*
X33630429Y-6350000D01*
X33933571Y-6350000D01*
X39013571Y-6350000D01*
X39293638Y-6233992D01*
X39507992Y-6019638D01*
X39624000Y-5739571D01*
X39624000Y-25756429D01*
X39507992Y-25476362D01*
X39293638Y-25262008D01*
X39013571Y-25146000D01*
X38710429Y-25146000D01*
X33630429Y-25146000D01*
X33350362Y-25262008D01*
X33136008Y-25476362D01*
X33020000Y-25756429D01*
X33020000Y-26059571D01*
X33020000Y-28599571D01*
X33094322Y-28779000D01*
X29325460Y-28779000D01*
X29846958Y-28257501D01*
X29983331Y-28257621D01*
X30240151Y-28151504D01*
X30436814Y-27955185D01*
X30543378Y-27698550D01*
X30543621Y-27420669D01*
X30437504Y-27163849D01*
X30241185Y-26967186D01*
X29984550Y-26860622D01*
X29706669Y-26860379D01*
X29449849Y-26966496D01*
X29253186Y-27162815D01*
X29146622Y-27419450D01*
X29146501Y-27557038D01*
X28369840Y-28333700D01*
X26931567Y-28333700D01*
X27065151Y-28278504D01*
X27261814Y-28082185D01*
X27368378Y-27825550D01*
X27368621Y-27547669D01*
X27262504Y-27290849D01*
X27066185Y-27094186D01*
X26809550Y-26987622D01*
X26733621Y-26987555D01*
X26733621Y-16498669D01*
X26627504Y-16241849D01*
X26530300Y-16144474D01*
X26530300Y-11287530D01*
X26626814Y-11191185D01*
X26733378Y-10934550D01*
X26733621Y-10656669D01*
X26627504Y-10399849D01*
X26431185Y-10203186D01*
X26174550Y-10096622D01*
X25896669Y-10096379D01*
X25639849Y-10202496D01*
X25443186Y-10398815D01*
X25336622Y-10655450D01*
X25336379Y-10933331D01*
X25442496Y-11190151D01*
X25539700Y-11287525D01*
X25539700Y-16144469D01*
X25443186Y-16240815D01*
X25336622Y-16497450D01*
X25336379Y-16775331D01*
X25442496Y-17032151D01*
X25638815Y-17228814D01*
X25895450Y-17335378D01*
X26173331Y-17335621D01*
X26430151Y-17229504D01*
X26626814Y-17033185D01*
X26733378Y-16776550D01*
X26733621Y-16498669D01*
X26733621Y-26987555D01*
X26531669Y-26987379D01*
X26274849Y-27093496D01*
X26078186Y-27289815D01*
X25971622Y-27546450D01*
X25971501Y-27684038D01*
X25779042Y-27876498D01*
X23812621Y-27876498D01*
X23812621Y-17006669D01*
X23706504Y-16749849D01*
X23510185Y-16553186D01*
X23253550Y-16446622D01*
X23115961Y-16446501D01*
X21653501Y-14984041D01*
X21653621Y-14847669D01*
X21547504Y-14590849D01*
X21351185Y-14394186D01*
X21094550Y-14287622D01*
X20816669Y-14287379D01*
X20559849Y-14393496D01*
X20363186Y-14589815D01*
X20256622Y-14846450D01*
X20256379Y-15124331D01*
X20362496Y-15381151D01*
X20558815Y-15577814D01*
X20815450Y-15684378D01*
X20953038Y-15684498D01*
X22415498Y-17146958D01*
X22415379Y-17283331D01*
X22521496Y-17540151D01*
X22717815Y-17736814D01*
X22974450Y-17843378D01*
X23252331Y-17843621D01*
X23509151Y-17737504D01*
X23705814Y-17541185D01*
X23812378Y-17284550D01*
X23812621Y-17006669D01*
X23812621Y-27876498D01*
X11812958Y-27876498D01*
X11239501Y-27303041D01*
X11239621Y-27166669D01*
X11133504Y-26909849D01*
X10937185Y-26713186D01*
X10680550Y-26606622D01*
X10402669Y-26606379D01*
X10145849Y-26712496D01*
X9949186Y-26908815D01*
X9842622Y-27165450D01*
X9842379Y-27443331D01*
X9948496Y-27700151D01*
X10144815Y-27896814D01*
X10401450Y-28003378D01*
X10539038Y-28003498D01*
X10869240Y-28333700D01*
X9984160Y-28333700D01*
X8623300Y-26972840D01*
X8623300Y-25908000D01*
X8585598Y-25718457D01*
X8585597Y-25718456D01*
X8478230Y-25557770D01*
X7970230Y-25049770D01*
X7809544Y-24942402D01*
X7747000Y-24929961D01*
X7747000Y-24816214D01*
X7725786Y-24764999D01*
X7747000Y-24713785D01*
X7747000Y-24562214D01*
X7747000Y-23546214D01*
X7725786Y-23494999D01*
X7747000Y-23443785D01*
X7747000Y-23292214D01*
X7747000Y-22276214D01*
X7725786Y-22224999D01*
X7747000Y-22173785D01*
X7747000Y-22022214D01*
X7747000Y-21006214D01*
X7725786Y-20954999D01*
X7747000Y-20903785D01*
X7747000Y-20752214D01*
X7747000Y-19736214D01*
X7725786Y-19684999D01*
X7747000Y-19633785D01*
X7747000Y-19520038D01*
X7809543Y-19507598D01*
X7809544Y-19507598D01*
X7970230Y-19400230D01*
X8637958Y-18732502D01*
X9626878Y-18732502D01*
X11741707Y-20847331D01*
X11741707Y-21138589D01*
X11779409Y-21328133D01*
X11886777Y-21488819D01*
X12204700Y-21806742D01*
X12204700Y-21986469D01*
X12108186Y-22082815D01*
X12001622Y-22339450D01*
X12001379Y-22617331D01*
X12107496Y-22874151D01*
X12303815Y-23070814D01*
X12560450Y-23177378D01*
X12763555Y-23177555D01*
X12763379Y-23379331D01*
X12869496Y-23636151D01*
X13065815Y-23832814D01*
X13322450Y-23939378D01*
X13600331Y-23939621D01*
X13857151Y-23833504D01*
X14053814Y-23637185D01*
X14160378Y-23380550D01*
X14160621Y-23102669D01*
X14054504Y-22845849D01*
X13957300Y-22748474D01*
X13957300Y-22690845D01*
X14211450Y-22796378D01*
X14489331Y-22796621D01*
X14746151Y-22690504D01*
X14942814Y-22494185D01*
X15049378Y-22237550D01*
X15049621Y-21959669D01*
X14943504Y-21702849D01*
X14747185Y-21506186D01*
X14492455Y-21400413D01*
X13646711Y-20554669D01*
X13646711Y-20263411D01*
X13609009Y-20073868D01*
X13501641Y-19913181D01*
X10561028Y-16972568D01*
X10400342Y-16865200D01*
X10210798Y-16827498D01*
X8637958Y-16827498D01*
X7970230Y-16159770D01*
X7809544Y-16052402D01*
X7747000Y-16039961D01*
X7747000Y-15926214D01*
X7725786Y-15874999D01*
X7747000Y-15823785D01*
X7747000Y-15710038D01*
X7809543Y-15697598D01*
X7809544Y-15697598D01*
X7970230Y-15590230D01*
X8808432Y-14752028D01*
X8915800Y-14591341D01*
X8953502Y-14401798D01*
X8953502Y-13233122D01*
X9296122Y-12890502D01*
X11387935Y-12890502D01*
X11472496Y-13095151D01*
X11668815Y-13291814D01*
X11925450Y-13398378D01*
X12203331Y-13398621D01*
X12460151Y-13292504D01*
X12656814Y-13096185D01*
X12699974Y-12992242D01*
X12742496Y-13095151D01*
X12938815Y-13291814D01*
X13195450Y-13398378D01*
X13473331Y-13398621D01*
X13730151Y-13292504D01*
X13926814Y-13096185D01*
X13969974Y-12992242D01*
X14012496Y-13095151D01*
X14208815Y-13291814D01*
X14465450Y-13398378D01*
X14743331Y-13398621D01*
X15000151Y-13292504D01*
X15196814Y-13096185D01*
X15239974Y-12992242D01*
X15282496Y-13095151D01*
X15478815Y-13291814D01*
X15735450Y-13398378D01*
X16013331Y-13398621D01*
X16270151Y-13292504D01*
X16466814Y-13096185D01*
X16509974Y-12992242D01*
X16552496Y-13095151D01*
X16748815Y-13291814D01*
X17005450Y-13398378D01*
X17283331Y-13398621D01*
X17540151Y-13292504D01*
X17736814Y-13096185D01*
X17779974Y-12992242D01*
X17822496Y-13095151D01*
X18018815Y-13291814D01*
X18275450Y-13398378D01*
X18553331Y-13398621D01*
X18810151Y-13292504D01*
X19006814Y-13096185D01*
X19113378Y-12839550D01*
X19113498Y-12701961D01*
X20575958Y-11239501D01*
X20712331Y-11239621D01*
X20969151Y-11133504D01*
X21165814Y-10937185D01*
X21272378Y-10680550D01*
X21272621Y-10402669D01*
X21166504Y-10145849D01*
X20970185Y-9949186D01*
X20713550Y-9842622D01*
X20435669Y-9842379D01*
X20178849Y-9948496D01*
X19982186Y-10144815D01*
X19875622Y-10401450D01*
X19875501Y-10539038D01*
X18413041Y-12001498D01*
X18276669Y-12001379D01*
X18019849Y-12107496D01*
X17823186Y-12303815D01*
X17780025Y-12407757D01*
X17737504Y-12304849D01*
X17541185Y-12108186D01*
X17284550Y-12001622D01*
X17146961Y-12001501D01*
X15449116Y-10303656D01*
X15478525Y-10274300D01*
X18415000Y-10274300D01*
X18604543Y-10236598D01*
X18604544Y-10236598D01*
X18765230Y-10129230D01*
X18924958Y-9969501D01*
X19061331Y-9969621D01*
X19318151Y-9863504D01*
X19514814Y-9667185D01*
X19621378Y-9410550D01*
X19621621Y-9132669D01*
X19515504Y-8875849D01*
X19319185Y-8679186D01*
X19062550Y-8572622D01*
X18784669Y-8572379D01*
X18605490Y-8646414D01*
X18605621Y-8497669D01*
X18499504Y-8240849D01*
X18303185Y-8044186D01*
X18046550Y-7937622D01*
X17768669Y-7937379D01*
X17511849Y-8043496D01*
X17315186Y-8239815D01*
X17250872Y-8394700D01*
X14753074Y-8394700D01*
X14689504Y-8240849D01*
X14493185Y-8044186D01*
X14236550Y-7937622D01*
X13958669Y-7937379D01*
X13701849Y-8043496D01*
X13505186Y-8239815D01*
X13398622Y-8496450D01*
X13398379Y-8774331D01*
X13504496Y-9031151D01*
X13700815Y-9227814D01*
X13957450Y-9334378D01*
X14141912Y-9334539D01*
X14141913Y-9334539D01*
X14161456Y-9347598D01*
X14161457Y-9347598D01*
X14351000Y-9385300D01*
X14393154Y-9385300D01*
X14287622Y-9639450D01*
X14287379Y-9917331D01*
X14350913Y-10071094D01*
X8231554Y-10071094D01*
X7970230Y-9809770D01*
X7809544Y-9702402D01*
X7747000Y-9689961D01*
X7747000Y-9576214D01*
X7725786Y-9524999D01*
X7747000Y-9473785D01*
X7747000Y-9322214D01*
X7747000Y-8306214D01*
X7725786Y-8254999D01*
X7747000Y-8203785D01*
X7747000Y-8052214D01*
X7747000Y-7036214D01*
X7725786Y-6984999D01*
X7747000Y-6933785D01*
X7747000Y-6845300D01*
X8128000Y-6845300D01*
X8317543Y-6807598D01*
X8317544Y-6807598D01*
X8478230Y-6700230D01*
X8917362Y-6261098D01*
X14681202Y-6261098D01*
X14870745Y-6223396D01*
X14870746Y-6223396D01*
X15031432Y-6116028D01*
X15717230Y-5430230D01*
X15824598Y-5269543D01*
X15862300Y-5080000D01*
X15862300Y-4937530D01*
X15958814Y-4841185D01*
X16065378Y-4584550D01*
X16065621Y-4306669D01*
X16012579Y-4178300D01*
X16304840Y-4178300D01*
X17556770Y-5430230D01*
X17717456Y-5537598D01*
X17717457Y-5537598D01*
X17767837Y-5547619D01*
X17891815Y-5671814D01*
X18148450Y-5778378D01*
X18426331Y-5778621D01*
X18683151Y-5672504D01*
X18879814Y-5476185D01*
X18986378Y-5219550D01*
X18986621Y-4941669D01*
X18880504Y-4684849D01*
X18684294Y-4488295D01*
X18696895Y-4483089D01*
X18920305Y-4260069D01*
X19041362Y-3968529D01*
X19041450Y-3866910D01*
X19334770Y-4160230D01*
X19495456Y-4267598D01*
X19495457Y-4267598D01*
X19583978Y-4285206D01*
X19575004Y-4294181D01*
X19517000Y-4434215D01*
X19517000Y-4585786D01*
X19517000Y-5385786D01*
X19575004Y-5525820D01*
X19682181Y-5632996D01*
X19822215Y-5691000D01*
X19973786Y-5691000D01*
X20973786Y-5691000D01*
X21113820Y-5632996D01*
X21220996Y-5525819D01*
X21279000Y-5385785D01*
X21279000Y-5234214D01*
X21279000Y-4434214D01*
X21224338Y-4302249D01*
X21398543Y-4267598D01*
X21398544Y-4267598D01*
X21559230Y-4160230D01*
X22161609Y-3557850D01*
X22161379Y-3821331D01*
X22267496Y-4078151D01*
X22463815Y-4274814D01*
X22720450Y-4381378D01*
X22998331Y-4381621D01*
X23255151Y-4275504D01*
X23451814Y-4079185D01*
X23558378Y-3822550D01*
X23558498Y-3684961D01*
X23972230Y-3271230D01*
X24079598Y-3110543D01*
X24117300Y-2921000D01*
X24117300Y-889000D01*
X24079598Y-699457D01*
X24079598Y-699456D01*
X23972230Y-538770D01*
X23864460Y-431000D01*
X46178000Y-431000D01*
X46178000Y-28779000D01*
X46178000Y-28779000D01*
G37*
X46178000Y-28779000D02*
X39549677Y-28779000D01*
X39624000Y-28599571D01*
X39624000Y-28296429D01*
X39624000Y-25756429D01*
X39624000Y-5739571D01*
X39624000Y-5436429D01*
X39624000Y-2896429D01*
X39507992Y-2616362D01*
X39293638Y-2402008D01*
X39013571Y-2286000D01*
X38710429Y-2286000D01*
X33630429Y-2286000D01*
X33350362Y-2402008D01*
X33136008Y-2616362D01*
X33020000Y-2896429D01*
X33020000Y-3199571D01*
X33020000Y-4965700D01*
X31480530Y-4965700D01*
X31384185Y-4869186D01*
X31127550Y-4762622D01*
X30849669Y-4762379D01*
X30592849Y-4868496D01*
X30396186Y-5064815D01*
X30289622Y-5321450D01*
X30289379Y-5599331D01*
X30395496Y-5856151D01*
X30591815Y-6052814D01*
X30848450Y-6159378D01*
X31126331Y-6159621D01*
X31383151Y-6053504D01*
X31480525Y-5956300D01*
X33109772Y-5956300D01*
X33136008Y-6019638D01*
X33350362Y-6233992D01*
X33630429Y-6350000D01*
X33933571Y-6350000D01*
X39013571Y-6350000D01*
X39293638Y-6233992D01*
X39507992Y-6019638D01*
X39624000Y-5739571D01*
X39624000Y-25756429D01*
X39507992Y-25476362D01*
X39293638Y-25262008D01*
X39013571Y-25146000D01*
X38710429Y-25146000D01*
X33630429Y-25146000D01*
X33350362Y-25262008D01*
X33136008Y-25476362D01*
X33020000Y-25756429D01*
X33020000Y-26059571D01*
X33020000Y-28599571D01*
X33094322Y-28779000D01*
X29325460Y-28779000D01*
X29846958Y-28257501D01*
X29983331Y-28257621D01*
X30240151Y-28151504D01*
X30436814Y-27955185D01*
X30543378Y-27698550D01*
X30543621Y-27420669D01*
X30437504Y-27163849D01*
X30241185Y-26967186D01*
X29984550Y-26860622D01*
X29706669Y-26860379D01*
X29449849Y-26966496D01*
X29253186Y-27162815D01*
X29146622Y-27419450D01*
X29146501Y-27557038D01*
X28369840Y-28333700D01*
X26931567Y-28333700D01*
X27065151Y-28278504D01*
X27261814Y-28082185D01*
X27368378Y-27825550D01*
X27368621Y-27547669D01*
X27262504Y-27290849D01*
X27066185Y-27094186D01*
X26809550Y-26987622D01*
X26733621Y-26987555D01*
X26733621Y-16498669D01*
X26627504Y-16241849D01*
X26530300Y-16144474D01*
X26530300Y-11287530D01*
X26626814Y-11191185D01*
X26733378Y-10934550D01*
X26733621Y-10656669D01*
X26627504Y-10399849D01*
X26431185Y-10203186D01*
X26174550Y-10096622D01*
X25896669Y-10096379D01*
X25639849Y-10202496D01*
X25443186Y-10398815D01*
X25336622Y-10655450D01*
X25336379Y-10933331D01*
X25442496Y-11190151D01*
X25539700Y-11287525D01*
X25539700Y-16144469D01*
X25443186Y-16240815D01*
X25336622Y-16497450D01*
X25336379Y-16775331D01*
X25442496Y-17032151D01*
X25638815Y-17228814D01*
X25895450Y-17335378D01*
X26173331Y-17335621D01*
X26430151Y-17229504D01*
X26626814Y-17033185D01*
X26733378Y-16776550D01*
X26733621Y-16498669D01*
X26733621Y-26987555D01*
X26531669Y-26987379D01*
X26274849Y-27093496D01*
X26078186Y-27289815D01*
X25971622Y-27546450D01*
X25971501Y-27684038D01*
X25779042Y-27876498D01*
X23812621Y-27876498D01*
X23812621Y-17006669D01*
X23706504Y-16749849D01*
X23510185Y-16553186D01*
X23253550Y-16446622D01*
X23115961Y-16446501D01*
X21653501Y-14984041D01*
X21653621Y-14847669D01*
X21547504Y-14590849D01*
X21351185Y-14394186D01*
X21094550Y-14287622D01*
X20816669Y-14287379D01*
X20559849Y-14393496D01*
X20363186Y-14589815D01*
X20256622Y-14846450D01*
X20256379Y-15124331D01*
X20362496Y-15381151D01*
X20558815Y-15577814D01*
X20815450Y-15684378D01*
X20953038Y-15684498D01*
X22415498Y-17146958D01*
X22415379Y-17283331D01*
X22521496Y-17540151D01*
X22717815Y-17736814D01*
X22974450Y-17843378D01*
X23252331Y-17843621D01*
X23509151Y-17737504D01*
X23705814Y-17541185D01*
X23812378Y-17284550D01*
X23812621Y-17006669D01*
X23812621Y-27876498D01*
X11812958Y-27876498D01*
X11239501Y-27303041D01*
X11239621Y-27166669D01*
X11133504Y-26909849D01*
X10937185Y-26713186D01*
X10680550Y-26606622D01*
X10402669Y-26606379D01*
X10145849Y-26712496D01*
X9949186Y-26908815D01*
X9842622Y-27165450D01*
X9842379Y-27443331D01*
X9948496Y-27700151D01*
X10144815Y-27896814D01*
X10401450Y-28003378D01*
X10539038Y-28003498D01*
X10869240Y-28333700D01*
X9984160Y-28333700D01*
X8623300Y-26972840D01*
X8623300Y-25908000D01*
X8585598Y-25718457D01*
X8585597Y-25718456D01*
X8478230Y-25557770D01*
X7970230Y-25049770D01*
X7809544Y-24942402D01*
X7747000Y-24929961D01*
X7747000Y-24816214D01*
X7725786Y-24764999D01*
X7747000Y-24713785D01*
X7747000Y-24562214D01*
X7747000Y-23546214D01*
X7725786Y-23494999D01*
X7747000Y-23443785D01*
X7747000Y-23292214D01*
X7747000Y-22276214D01*
X7725786Y-22224999D01*
X7747000Y-22173785D01*
X7747000Y-22022214D01*
X7747000Y-21006214D01*
X7725786Y-20954999D01*
X7747000Y-20903785D01*
X7747000Y-20752214D01*
X7747000Y-19736214D01*
X7725786Y-19684999D01*
X7747000Y-19633785D01*
X7747000Y-19520038D01*
X7809543Y-19507598D01*
X7809544Y-19507598D01*
X7970230Y-19400230D01*
X8637958Y-18732502D01*
X9626878Y-18732502D01*
X11741707Y-20847331D01*
X11741707Y-21138589D01*
X11779409Y-21328133D01*
X11886777Y-21488819D01*
X12204700Y-21806742D01*
X12204700Y-21986469D01*
X12108186Y-22082815D01*
X12001622Y-22339450D01*
X12001379Y-22617331D01*
X12107496Y-22874151D01*
X12303815Y-23070814D01*
X12560450Y-23177378D01*
X12763555Y-23177555D01*
X12763379Y-23379331D01*
X12869496Y-23636151D01*
X13065815Y-23832814D01*
X13322450Y-23939378D01*
X13600331Y-23939621D01*
X13857151Y-23833504D01*
X14053814Y-23637185D01*
X14160378Y-23380550D01*
X14160621Y-23102669D01*
X14054504Y-22845849D01*
X13957300Y-22748474D01*
X13957300Y-22690845D01*
X14211450Y-22796378D01*
X14489331Y-22796621D01*
X14746151Y-22690504D01*
X14942814Y-22494185D01*
X15049378Y-22237550D01*
X15049621Y-21959669D01*
X14943504Y-21702849D01*
X14747185Y-21506186D01*
X14492455Y-21400413D01*
X13646711Y-20554669D01*
X13646711Y-20263411D01*
X13609009Y-20073868D01*
X13501641Y-19913181D01*
X10561028Y-16972568D01*
X10400342Y-16865200D01*
X10210798Y-16827498D01*
X8637958Y-16827498D01*
X7970230Y-16159770D01*
X7809544Y-16052402D01*
X7747000Y-16039961D01*
X7747000Y-15926214D01*
X7725786Y-15874999D01*
X7747000Y-15823785D01*
X7747000Y-15710038D01*
X7809543Y-15697598D01*
X7809544Y-15697598D01*
X7970230Y-15590230D01*
X8808432Y-14752028D01*
X8915800Y-14591341D01*
X8953502Y-14401798D01*
X8953502Y-13233122D01*
X9296122Y-12890502D01*
X11387935Y-12890502D01*
X11472496Y-13095151D01*
X11668815Y-13291814D01*
X11925450Y-13398378D01*
X12203331Y-13398621D01*
X12460151Y-13292504D01*
X12656814Y-13096185D01*
X12699974Y-12992242D01*
X12742496Y-13095151D01*
X12938815Y-13291814D01*
X13195450Y-13398378D01*
X13473331Y-13398621D01*
X13730151Y-13292504D01*
X13926814Y-13096185D01*
X13969974Y-12992242D01*
X14012496Y-13095151D01*
X14208815Y-13291814D01*
X14465450Y-13398378D01*
X14743331Y-13398621D01*
X15000151Y-13292504D01*
X15196814Y-13096185D01*
X15239974Y-12992242D01*
X15282496Y-13095151D01*
X15478815Y-13291814D01*
X15735450Y-13398378D01*
X16013331Y-13398621D01*
X16270151Y-13292504D01*
X16466814Y-13096185D01*
X16509974Y-12992242D01*
X16552496Y-13095151D01*
X16748815Y-13291814D01*
X17005450Y-13398378D01*
X17283331Y-13398621D01*
X17540151Y-13292504D01*
X17736814Y-13096185D01*
X17779974Y-12992242D01*
X17822496Y-13095151D01*
X18018815Y-13291814D01*
X18275450Y-13398378D01*
X18553331Y-13398621D01*
X18810151Y-13292504D01*
X19006814Y-13096185D01*
X19113378Y-12839550D01*
X19113498Y-12701961D01*
X20575958Y-11239501D01*
X20712331Y-11239621D01*
X20969151Y-11133504D01*
X21165814Y-10937185D01*
X21272378Y-10680550D01*
X21272621Y-10402669D01*
X21166504Y-10145849D01*
X20970185Y-9949186D01*
X20713550Y-9842622D01*
X20435669Y-9842379D01*
X20178849Y-9948496D01*
X19982186Y-10144815D01*
X19875622Y-10401450D01*
X19875501Y-10539038D01*
X18413041Y-12001498D01*
X18276669Y-12001379D01*
X18019849Y-12107496D01*
X17823186Y-12303815D01*
X17780025Y-12407757D01*
X17737504Y-12304849D01*
X17541185Y-12108186D01*
X17284550Y-12001622D01*
X17146961Y-12001501D01*
X15449116Y-10303656D01*
X15478525Y-10274300D01*
X18415000Y-10274300D01*
X18604543Y-10236598D01*
X18604544Y-10236598D01*
X18765230Y-10129230D01*
X18924958Y-9969501D01*
X19061331Y-9969621D01*
X19318151Y-9863504D01*
X19514814Y-9667185D01*
X19621378Y-9410550D01*
X19621621Y-9132669D01*
X19515504Y-8875849D01*
X19319185Y-8679186D01*
X19062550Y-8572622D01*
X18784669Y-8572379D01*
X18605490Y-8646414D01*
X18605621Y-8497669D01*
X18499504Y-8240849D01*
X18303185Y-8044186D01*
X18046550Y-7937622D01*
X17768669Y-7937379D01*
X17511849Y-8043496D01*
X17315186Y-8239815D01*
X17250872Y-8394700D01*
X14753074Y-8394700D01*
X14689504Y-8240849D01*
X14493185Y-8044186D01*
X14236550Y-7937622D01*
X13958669Y-7937379D01*
X13701849Y-8043496D01*
X13505186Y-8239815D01*
X13398622Y-8496450D01*
X13398379Y-8774331D01*
X13504496Y-9031151D01*
X13700815Y-9227814D01*
X13957450Y-9334378D01*
X14141912Y-9334539D01*
X14141913Y-9334539D01*
X14161456Y-9347598D01*
X14161457Y-9347598D01*
X14351000Y-9385300D01*
X14393154Y-9385300D01*
X14287622Y-9639450D01*
X14287379Y-9917331D01*
X14350913Y-10071094D01*
X8231554Y-10071094D01*
X7970230Y-9809770D01*
X7809544Y-9702402D01*
X7747000Y-9689961D01*
X7747000Y-9576214D01*
X7725786Y-9524999D01*
X7747000Y-9473785D01*
X7747000Y-9322214D01*
X7747000Y-8306214D01*
X7725786Y-8254999D01*
X7747000Y-8203785D01*
X7747000Y-8052214D01*
X7747000Y-7036214D01*
X7725786Y-6984999D01*
X7747000Y-6933785D01*
X7747000Y-6845300D01*
X8128000Y-6845300D01*
X8317543Y-6807598D01*
X8317544Y-6807598D01*
X8478230Y-6700230D01*
X8917362Y-6261098D01*
X14681202Y-6261098D01*
X14870745Y-6223396D01*
X14870746Y-6223396D01*
X15031432Y-6116028D01*
X15717230Y-5430230D01*
X15824598Y-5269543D01*
X15862300Y-5080000D01*
X15862300Y-4937530D01*
X15958814Y-4841185D01*
X16065378Y-4584550D01*
X16065621Y-4306669D01*
X16012579Y-4178300D01*
X16304840Y-4178300D01*
X17556770Y-5430230D01*
X17717456Y-5537598D01*
X17717457Y-5537598D01*
X17767837Y-5547619D01*
X17891815Y-5671814D01*
X18148450Y-5778378D01*
X18426331Y-5778621D01*
X18683151Y-5672504D01*
X18879814Y-5476185D01*
X18986378Y-5219550D01*
X18986621Y-4941669D01*
X18880504Y-4684849D01*
X18684294Y-4488295D01*
X18696895Y-4483089D01*
X18920305Y-4260069D01*
X19041362Y-3968529D01*
X19041450Y-3866910D01*
X19334770Y-4160230D01*
X19495456Y-4267598D01*
X19495457Y-4267598D01*
X19583978Y-4285206D01*
X19575004Y-4294181D01*
X19517000Y-4434215D01*
X19517000Y-4585786D01*
X19517000Y-5385786D01*
X19575004Y-5525820D01*
X19682181Y-5632996D01*
X19822215Y-5691000D01*
X19973786Y-5691000D01*
X20973786Y-5691000D01*
X21113820Y-5632996D01*
X21220996Y-5525819D01*
X21279000Y-5385785D01*
X21279000Y-5234214D01*
X21279000Y-4434214D01*
X21224338Y-4302249D01*
X21398543Y-4267598D01*
X21398544Y-4267598D01*
X21559230Y-4160230D01*
X22161609Y-3557850D01*
X22161379Y-3821331D01*
X22267496Y-4078151D01*
X22463815Y-4274814D01*
X22720450Y-4381378D01*
X22998331Y-4381621D01*
X23255151Y-4275504D01*
X23451814Y-4079185D01*
X23558378Y-3822550D01*
X23558498Y-3684961D01*
X23972230Y-3271230D01*
X24079598Y-3110543D01*
X24117300Y-2921000D01*
X24117300Y-889000D01*
X24079598Y-699457D01*
X24079598Y-699456D01*
X23972230Y-538770D01*
X23864460Y-431000D01*
X46178000Y-431000D01*
X46178000Y-28779000D01*
M02*
