%FSLAX46Y46*%
G04 Gerber Fmt 4.6, Leading zero omitted, Abs format (unit mm)*
G04 Created by KiCad (PCBNEW (2014-10-27 BZR 5228)-product) date 5/3/2015 5:03:20 PM*
%MOMM*%
G01*
G04 APERTURE LIST*
%ADD10C,0.100000*%
%ADD11R,0.800100X0.800100*%
%ADD12R,0.406400X1.397000*%
%ADD13R,0.600000X1.500000*%
%ADD14R,1.950720X2.499360*%
G04 APERTURE END LIST*
D10*
D11*
X25842000Y-4302760D03*
X23942000Y-4302760D03*
X24892000Y-2303780D03*
D12*
X31115000Y-26416000D03*
X29845000Y-26416000D03*
X28575000Y-26416000D03*
X27305000Y-26416000D03*
X26035000Y-26416000D03*
X24765000Y-26416000D03*
X23495000Y-26416000D03*
X22225000Y-26416000D03*
X20955000Y-26416000D03*
X19685000Y-26416000D03*
X18415000Y-26416000D03*
X17145000Y-26416000D03*
X15875000Y-26416000D03*
X14605000Y-26416000D03*
X13335000Y-26416000D03*
X12065000Y-26416000D03*
X31115000Y-13716000D03*
X29845000Y-13716000D03*
X28575000Y-13716000D03*
X27305000Y-13716000D03*
X26035000Y-13716000D03*
X24765000Y-13716000D03*
X23495000Y-13716000D03*
X22225000Y-13716000D03*
X20955000Y-13716000D03*
X19685000Y-13716000D03*
X18415000Y-13716000D03*
X17145000Y-13716000D03*
X15875000Y-13716000D03*
X14605000Y-13716000D03*
X13335000Y-13716000D03*
X12065000Y-13716000D03*
D13*
X20447000Y-7526000D03*
X19177000Y-7526000D03*
X17907000Y-7526000D03*
X16637000Y-7526000D03*
X15367000Y-7526000D03*
X14097000Y-7526000D03*
X12827000Y-7526000D03*
X11557000Y-7526000D03*
X11557000Y-2126000D03*
X12827000Y-2126000D03*
X14097000Y-2126000D03*
X15367000Y-2126000D03*
X16637000Y-2126000D03*
X17907000Y-2126000D03*
X19177000Y-2126000D03*
X20447000Y-2126000D03*
D14*
X31750000Y-3302000D03*
X28702000Y-3302000D03*
M02*
