%FSLAX46Y46*%
G04 Gerber Fmt 4.6, Leading zero omitted, Abs format (unit mm)*
G04 Created by KiCad (PCBNEW (2014-10-27 BZR 5228)-product) date 5/9/2015 4:57:06 PM*
%MOMM*%
G01*
G04 APERTURE LIST*
%ADD10C,0.100000*%
%ADD11R,0.700000X1.500000*%
%ADD12R,1.000000X0.800000*%
%ADD13R,7.366000X1.016000*%
%ADD14R,6.350000X1.016000*%
%ADD15R,5.080000X2.540000*%
%ADD16C,6.350000*%
%ADD17C,0.635000*%
%ADD18C,0.228600*%
%ADD19C,0.304800*%
%ADD20C,0.254000*%
G04 APERTURE END LIST*
D10*
D11*
X18748000Y-2568000D03*
X17248000Y-2568000D03*
X12748000Y-2568000D03*
D12*
X20748000Y-5418000D03*
X20748000Y-3218000D03*
X10748000Y-3218000D03*
X10748000Y-5418000D03*
D11*
X14248000Y-2568000D03*
D13*
X3683000Y-2540000D03*
D14*
X4191000Y-3810000D03*
X4191000Y-5080000D03*
X4191000Y-6350000D03*
X4191000Y-7620000D03*
X4191000Y-8890000D03*
X4191000Y-10160000D03*
X4191000Y-11430000D03*
X4191000Y-12700000D03*
X4191000Y-13970000D03*
X4191000Y-15240000D03*
X4191000Y-16510000D03*
X4191000Y-17780000D03*
X4191000Y-19050000D03*
X4191000Y-20320000D03*
X4191000Y-21590000D03*
X4191000Y-22860000D03*
X4191000Y-24130000D03*
X4191000Y-25400000D03*
D13*
X3683000Y-26670000D03*
D15*
X36322000Y-26670000D03*
D16*
X36322000Y-15240000D03*
D15*
X36322000Y-3810000D03*
D17*
X20955000Y-13970000D03*
X12827000Y-20828000D03*
X17145000Y-12700000D03*
X15875000Y-12700000D03*
X14605000Y-12700000D03*
X13335000Y-12700000D03*
X12065000Y-12700000D03*
X10160000Y-23622000D03*
X10160000Y-22606000D03*
X10160000Y-21590000D03*
X27559000Y-6985000D03*
X23876000Y-6985000D03*
X23876000Y-21209000D03*
X11557000Y-9144000D03*
X42672000Y-1524000D03*
X32385000Y-25146000D03*
X12065000Y-26162000D03*
X15367000Y-5651500D03*
X8382000Y-3810000D03*
X21971000Y-1397000D03*
X8318500Y-5016500D03*
X15367000Y-9271000D03*
X18415000Y-12700000D03*
X8763000Y-26289000D03*
X26035000Y-8890000D03*
X26035000Y-16510000D03*
X44513500Y-26225500D03*
X11557000Y-1905000D03*
X18542000Y-5969000D03*
X17907000Y-8382000D03*
X14097000Y-8382000D03*
X20447000Y-2159000D03*
X44513500Y-28130500D03*
D18*
X14097000Y-20828000D02*
X20955000Y-13970000D01*
X12827000Y-20828000D02*
X14097000Y-20828000D01*
X13141140Y-10566394D02*
X8026394Y-10566394D01*
X8026394Y-10566394D02*
X7620000Y-10160000D01*
X7620000Y-10160000D02*
X4191000Y-10160000D01*
X17145000Y-12700000D02*
X16446500Y-12001500D01*
X14221760Y-11023596D02*
X13598342Y-11023596D01*
X14736671Y-11538507D02*
X14221760Y-11023596D01*
X15360089Y-11538507D02*
X14736671Y-11538507D01*
X15823082Y-12001500D02*
X15360089Y-11538507D01*
X16446500Y-12001500D02*
X15823082Y-12001500D01*
X13598342Y-11023596D02*
X13141140Y-10566394D01*
X12951760Y-11023596D02*
X8026404Y-11023596D01*
X7620000Y-11430000D02*
X4191000Y-11430000D01*
X8026404Y-11023596D02*
X7620000Y-11430000D01*
X15170709Y-11995709D02*
X14547291Y-11995709D01*
X14547291Y-11995709D02*
X14032380Y-11480798D01*
X14032380Y-11480798D02*
X13408962Y-11480798D01*
X15875000Y-12700000D02*
X15170709Y-11995709D01*
X13408962Y-11480798D02*
X12951760Y-11023596D01*
X12762380Y-11480798D02*
X8712202Y-11480798D01*
X14605000Y-12700000D02*
X13843000Y-11938000D01*
X13843000Y-11938000D02*
X13219582Y-11938000D01*
X8712202Y-11480798D02*
X7493000Y-12700000D01*
X7493000Y-12700000D02*
X4191000Y-12700000D01*
X13219582Y-11938000D02*
X12762380Y-11480798D01*
X12573000Y-11938000D02*
X8901582Y-11938000D01*
X13335000Y-12700000D02*
X12573000Y-11938000D01*
X7620000Y-13970000D02*
X4191000Y-13970000D01*
X8001000Y-13589000D02*
X7620000Y-13970000D01*
X8001000Y-12838582D02*
X8001000Y-13589000D01*
X8901582Y-11938000D02*
X8001000Y-12838582D01*
X12065000Y-12700000D02*
X11760202Y-12395202D01*
X7620000Y-15240000D02*
X4191000Y-15240000D01*
X8458202Y-14401798D02*
X7620000Y-15240000D01*
X8458202Y-13027962D02*
X8458202Y-14401798D01*
X9090962Y-12395202D02*
X8458202Y-13027962D01*
X11760202Y-12395202D02*
X9090962Y-12395202D01*
X8370418Y-19050000D02*
X4191000Y-19050000D01*
X8940798Y-19620380D02*
X8370418Y-19050000D01*
X8940798Y-22402798D02*
X8940798Y-19620380D01*
X10160000Y-23622000D02*
X8940798Y-22402798D01*
X7747000Y-17780000D02*
X4191000Y-17780000D01*
X9398000Y-19431000D02*
X7747000Y-17780000D01*
X9398000Y-21844000D02*
X9398000Y-19431000D01*
X10160000Y-22606000D02*
X9398000Y-21844000D01*
X7620000Y-16510000D02*
X4191000Y-16510000D01*
X10160000Y-19050000D02*
X7620000Y-16510000D01*
X10160000Y-21590000D02*
X10160000Y-19050000D01*
D19*
X27559000Y-6985000D02*
X23876000Y-6985000D01*
X36322000Y-15240000D02*
X30353000Y-21209000D01*
X30353000Y-21209000D02*
X23876000Y-21209000D01*
X36322000Y-15240000D02*
X42672000Y-9398000D01*
X42672000Y-9398000D02*
X42672000Y-1524000D01*
X36322000Y-15240000D02*
X32385000Y-19685000D01*
X32385000Y-19685000D02*
X32385000Y-25146000D01*
X36322000Y-15240000D02*
X29972000Y-9398000D01*
X29972000Y-9398000D02*
X27559000Y-6985000D01*
X27559000Y-6985000D02*
X27559000Y-6985000D01*
X11557000Y-9144000D02*
X11557000Y-8255000D01*
X12827000Y-6985000D02*
X27559000Y-6985000D01*
X11557000Y-8255000D02*
X12827000Y-6985000D01*
D18*
X32385000Y-25146000D02*
X32385000Y-19685000D01*
D19*
X25400000Y-26162000D02*
X12065000Y-26162000D01*
X36322000Y-15240000D02*
X25400000Y-26162000D01*
D18*
X12573000Y-5651500D02*
X11874500Y-6350000D01*
X11874500Y-6350000D02*
X4191000Y-6350000D01*
X15367000Y-5651500D02*
X12573000Y-5651500D01*
X18748000Y-2568000D02*
X18748000Y-3444500D01*
X19558000Y-4254500D02*
X19494500Y-4191000D01*
X18748000Y-3444500D02*
X19558000Y-4254500D01*
X8382000Y-3810000D02*
X4191000Y-3810000D01*
X21526500Y-4254500D02*
X21971000Y-3810000D01*
X21971000Y-3810000D02*
X21971000Y-1270000D01*
X19558000Y-4254500D02*
X21526500Y-4254500D01*
X21971000Y-1270000D02*
X21971000Y-1397000D01*
X8255000Y-5080000D02*
X4191000Y-5080000D01*
X8318500Y-5016500D02*
X8255000Y-5080000D01*
X15367000Y-10898836D02*
X15367000Y-9271000D01*
X16012462Y-11544298D02*
X15367000Y-10898836D01*
X16635880Y-11544298D02*
X16012462Y-11544298D01*
X16960291Y-11868709D02*
X16635880Y-11544298D01*
X17583709Y-11868709D02*
X16960291Y-11868709D01*
X18415000Y-12700000D02*
X17583709Y-11868709D01*
X7874000Y-25400000D02*
X4191000Y-25400000D01*
X8763000Y-26289000D02*
X7874000Y-25400000D01*
X26035000Y-16510000D02*
X26035000Y-8890000D01*
D19*
X36322000Y-26670000D02*
X36766500Y-26225500D01*
X36766500Y-26225500D02*
X44513500Y-26225500D01*
D18*
X34544000Y-3810000D02*
X36322000Y-3810000D01*
X12220000Y-2568000D02*
X11557000Y-1905000D01*
X12748000Y-2568000D02*
X12220000Y-2568000D01*
X18542000Y-5969000D02*
X17653000Y-5969000D01*
X14248000Y-3707000D02*
X14248000Y-2568000D01*
X14859000Y-4318000D02*
X14248000Y-3707000D01*
X16002000Y-4318000D02*
X14859000Y-4318000D01*
X17653000Y-5969000D02*
X16002000Y-4318000D01*
X17399000Y-7874000D02*
X14605000Y-7874000D01*
X14605000Y-7874000D02*
X14097000Y-8382000D01*
X17907000Y-8382000D02*
X17399000Y-7874000D01*
D19*
X20447000Y-2159000D02*
X20447000Y-1206500D01*
X17272000Y-508000D02*
X18796000Y-508000D01*
X19748500Y-508000D02*
X18796000Y-508000D01*
X20447000Y-1206500D02*
X19748500Y-508000D01*
X17248000Y-2568000D02*
X17248000Y-508000D01*
X17248000Y-508000D02*
X17272000Y-508000D01*
X8509000Y-1143000D02*
X9144000Y-508000D01*
X9144000Y-508000D02*
X17272000Y-508000D01*
X3683000Y-2540000D02*
X7747000Y-2540000D01*
X7747000Y-2540000D02*
X8509000Y-1778000D01*
X8509000Y-1778000D02*
X8509000Y-1143000D01*
X9017000Y-28829000D02*
X43815000Y-28829000D01*
X7747000Y-26670000D02*
X8128000Y-27051000D01*
X8128000Y-27051000D02*
X8128000Y-27940000D01*
X8128000Y-27940000D02*
X9017000Y-28829000D01*
X3683000Y-26670000D02*
X7747000Y-26670000D01*
X43815000Y-28829000D02*
X44513500Y-28130500D01*
D20*
G36*
X46178000Y-28659551D02*
X46164337Y-28728234D01*
X46149476Y-28750476D01*
X46127236Y-28765337D01*
X46058547Y-28779000D01*
X44773131Y-28779000D01*
X44908651Y-28723004D01*
X45105314Y-28526685D01*
X45211878Y-28270050D01*
X45212121Y-27992169D01*
X45106004Y-27735349D01*
X44909685Y-27538686D01*
X44653050Y-27432122D01*
X44375169Y-27431879D01*
X44118349Y-27537996D01*
X43921686Y-27734315D01*
X43815122Y-27990950D01*
X43815048Y-28074609D01*
X43594058Y-28295600D01*
X39539488Y-28295600D01*
X39624000Y-28091571D01*
X39624000Y-27788429D01*
X39624000Y-26758900D01*
X44059003Y-26758900D01*
X44117315Y-26817314D01*
X44373950Y-26923878D01*
X44651831Y-26924121D01*
X44908651Y-26818004D01*
X45105314Y-26621685D01*
X45211878Y-26365050D01*
X45212121Y-26087169D01*
X45106004Y-25830349D01*
X44909685Y-25633686D01*
X44653050Y-25527122D01*
X44375169Y-25526879D01*
X44118349Y-25632996D01*
X44059141Y-25692100D01*
X39624000Y-25692100D01*
X39624000Y-25248429D01*
X39624000Y-5231571D01*
X39624000Y-4928429D01*
X39624000Y-2388429D01*
X39507992Y-2108362D01*
X39293638Y-1894008D01*
X39013571Y-1778000D01*
X38710429Y-1778000D01*
X33630429Y-1778000D01*
X33350362Y-1894008D01*
X33136008Y-2108362D01*
X33020000Y-2388429D01*
X33020000Y-2691571D01*
X33020000Y-5231571D01*
X33136008Y-5511638D01*
X33350362Y-5725992D01*
X33630429Y-5842000D01*
X33933571Y-5842000D01*
X39013571Y-5842000D01*
X39293638Y-5725992D01*
X39507992Y-5511638D01*
X39624000Y-5231571D01*
X39624000Y-25248429D01*
X39507992Y-24968362D01*
X39293638Y-24754008D01*
X39013571Y-24638000D01*
X38710429Y-24638000D01*
X33630429Y-24638000D01*
X33350362Y-24754008D01*
X33136008Y-24968362D01*
X33020000Y-25248429D01*
X33020000Y-25551571D01*
X33020000Y-28091571D01*
X33104511Y-28295600D01*
X26733621Y-28295600D01*
X26733621Y-16371669D01*
X26627504Y-16114849D01*
X26530300Y-16017474D01*
X26530300Y-9382530D01*
X26626814Y-9286185D01*
X26733378Y-9029550D01*
X26733621Y-8751669D01*
X26627504Y-8494849D01*
X26431185Y-8298186D01*
X26174550Y-8191622D01*
X25896669Y-8191379D01*
X25639849Y-8297496D01*
X25443186Y-8493815D01*
X25336622Y-8750450D01*
X25336379Y-9028331D01*
X25442496Y-9285151D01*
X25539700Y-9382525D01*
X25539700Y-16017469D01*
X25443186Y-16113815D01*
X25336622Y-16370450D01*
X25336379Y-16648331D01*
X25442496Y-16905151D01*
X25638815Y-17101814D01*
X25895450Y-17208378D01*
X26173331Y-17208621D01*
X26430151Y-17102504D01*
X26626814Y-16906185D01*
X26733378Y-16649550D01*
X26733621Y-16371669D01*
X26733621Y-28295600D01*
X21653621Y-28295600D01*
X21653621Y-13831669D01*
X21547504Y-13574849D01*
X21351185Y-13378186D01*
X21094550Y-13271622D01*
X20816669Y-13271379D01*
X20559849Y-13377496D01*
X20363186Y-13573815D01*
X20256622Y-13830450D01*
X20256501Y-13968038D01*
X19240621Y-14983918D01*
X19240621Y-5830669D01*
X19134504Y-5573849D01*
X18938185Y-5377186D01*
X18681550Y-5270622D01*
X18403669Y-5270379D01*
X18146849Y-5376496D01*
X18049474Y-5473700D01*
X17858160Y-5473700D01*
X16352230Y-3967770D01*
X16191544Y-3860402D01*
X16002000Y-3822700D01*
X15064160Y-3822700D01*
X14848137Y-3606677D01*
X14920996Y-3533819D01*
X14979000Y-3393785D01*
X14979000Y-3242214D01*
X14979000Y-1742214D01*
X14920996Y-1602180D01*
X14813819Y-1495004D01*
X14673785Y-1437000D01*
X14522214Y-1437000D01*
X13822214Y-1437000D01*
X13682180Y-1495004D01*
X13575004Y-1602181D01*
X13517000Y-1742215D01*
X13517000Y-1893786D01*
X13517000Y-3393786D01*
X13575004Y-3533820D01*
X13609498Y-3568313D01*
X13436468Y-3496465D01*
X13479000Y-3393785D01*
X13479000Y-3242214D01*
X13479000Y-1742214D01*
X13420996Y-1602180D01*
X13313819Y-1495004D01*
X13173785Y-1437000D01*
X13022214Y-1437000D01*
X12322214Y-1437000D01*
X12182180Y-1495004D01*
X12154717Y-1522466D01*
X12149504Y-1509849D01*
X11953185Y-1313186D01*
X11696550Y-1206622D01*
X11418669Y-1206379D01*
X11161849Y-1312496D01*
X10965186Y-1508815D01*
X10858622Y-1765450D01*
X10858379Y-2043331D01*
X10964496Y-2300151D01*
X11101105Y-2437000D01*
X10172214Y-2437000D01*
X10032180Y-2495004D01*
X9925004Y-2602181D01*
X9867000Y-2742215D01*
X9867000Y-2893786D01*
X9867000Y-3693786D01*
X9925004Y-3833820D01*
X10032181Y-3940996D01*
X10172215Y-3999000D01*
X10323786Y-3999000D01*
X11323786Y-3999000D01*
X11463820Y-3940996D01*
X11570996Y-3833819D01*
X11629000Y-3693785D01*
X11629000Y-3542214D01*
X11629000Y-2742214D01*
X11583211Y-2631671D01*
X11869770Y-2918230D01*
X12017000Y-3016606D01*
X12017000Y-3393786D01*
X12075004Y-3533820D01*
X12182181Y-3640996D01*
X12322215Y-3699000D01*
X12473786Y-3699000D01*
X12691842Y-3699000D01*
X12543923Y-3846662D01*
X12417145Y-4151979D01*
X12416856Y-4482571D01*
X12543102Y-4788109D01*
X12776662Y-5022077D01*
X13081979Y-5148855D01*
X13412571Y-5149144D01*
X13718109Y-5022898D01*
X13952077Y-4789338D01*
X14078855Y-4484021D01*
X14079069Y-4238529D01*
X14508770Y-4668230D01*
X14669456Y-4775597D01*
X14669457Y-4775598D01*
X14859000Y-4813300D01*
X15796840Y-4813300D01*
X17302770Y-6319230D01*
X17463457Y-6426598D01*
X17653000Y-6464300D01*
X18049469Y-6464300D01*
X18145815Y-6560814D01*
X18402450Y-6667378D01*
X18680331Y-6667621D01*
X18937151Y-6561504D01*
X19133814Y-6365185D01*
X19240378Y-6108550D01*
X19240621Y-5830669D01*
X19240621Y-14983918D01*
X13891840Y-20332700D01*
X13319530Y-20332700D01*
X13223185Y-20236186D01*
X12966550Y-20129622D01*
X12688669Y-20129379D01*
X12431849Y-20235496D01*
X12235186Y-20431815D01*
X12128622Y-20688450D01*
X12128379Y-20966331D01*
X12234496Y-21223151D01*
X12430815Y-21419814D01*
X12687450Y-21526378D01*
X12965331Y-21526621D01*
X13222151Y-21420504D01*
X13319525Y-21323300D01*
X14097000Y-21323300D01*
X14286543Y-21285598D01*
X14286544Y-21285598D01*
X14447230Y-21178230D01*
X20956958Y-14668501D01*
X21093331Y-14668621D01*
X21350151Y-14562504D01*
X21546814Y-14366185D01*
X21653378Y-14109550D01*
X21653621Y-13831669D01*
X21653621Y-28295600D01*
X9237941Y-28295600D01*
X8661400Y-27719058D01*
X8661400Y-27051000D01*
X8648749Y-26987400D01*
X8901331Y-26987621D01*
X9158151Y-26881504D01*
X9354814Y-26685185D01*
X9461378Y-26428550D01*
X9461621Y-26150669D01*
X9355504Y-25893849D01*
X9159185Y-25697186D01*
X8902550Y-25590622D01*
X8764961Y-25590501D01*
X8224230Y-25049770D01*
X8063544Y-24942402D01*
X7874000Y-24904700D01*
X7747000Y-24904700D01*
X7747000Y-24816214D01*
X7725786Y-24764999D01*
X7747000Y-24713785D01*
X7747000Y-24562214D01*
X7747000Y-23546214D01*
X7725786Y-23494999D01*
X7747000Y-23443785D01*
X7747000Y-23292214D01*
X7747000Y-22276214D01*
X7725786Y-22224999D01*
X7747000Y-22173785D01*
X7747000Y-22022214D01*
X7747000Y-21006214D01*
X7725786Y-20954999D01*
X7747000Y-20903785D01*
X7747000Y-20752214D01*
X7747000Y-19736214D01*
X7725786Y-19684999D01*
X7747000Y-19633785D01*
X7747000Y-19545300D01*
X8165258Y-19545300D01*
X8445498Y-19825540D01*
X8445498Y-22402798D01*
X8483200Y-22592342D01*
X8590568Y-22753028D01*
X9461498Y-23623958D01*
X9461379Y-23760331D01*
X9567496Y-24017151D01*
X9763815Y-24213814D01*
X10020450Y-24320378D01*
X10298331Y-24320621D01*
X10555151Y-24214504D01*
X10751814Y-24018185D01*
X10858378Y-23761550D01*
X10858621Y-23483669D01*
X10752504Y-23226849D01*
X10639827Y-23113975D01*
X10751814Y-23002185D01*
X10858378Y-22745550D01*
X10858621Y-22467669D01*
X10752504Y-22210849D01*
X10639827Y-22097975D01*
X10751814Y-21986185D01*
X10858378Y-21729550D01*
X10858621Y-21451669D01*
X10752504Y-21194849D01*
X10655300Y-21097474D01*
X10655300Y-19050000D01*
X10617598Y-18860457D01*
X10617597Y-18860456D01*
X10510230Y-18699770D01*
X7970230Y-16159770D01*
X7809544Y-16052402D01*
X7747000Y-16039961D01*
X7747000Y-15926214D01*
X7725786Y-15874999D01*
X7747000Y-15823785D01*
X7747000Y-15710038D01*
X7809543Y-15697598D01*
X7809544Y-15697598D01*
X7970230Y-15590230D01*
X8808432Y-14752028D01*
X8915800Y-14591341D01*
X8953502Y-14401798D01*
X8953502Y-13233122D01*
X9296122Y-12890502D01*
X11387935Y-12890502D01*
X11472496Y-13095151D01*
X11668815Y-13291814D01*
X11925450Y-13398378D01*
X12203331Y-13398621D01*
X12460151Y-13292504D01*
X12656814Y-13096185D01*
X12699974Y-12992242D01*
X12742496Y-13095151D01*
X12938815Y-13291814D01*
X13195450Y-13398378D01*
X13473331Y-13398621D01*
X13730151Y-13292504D01*
X13926814Y-13096185D01*
X13969974Y-12992242D01*
X14012496Y-13095151D01*
X14208815Y-13291814D01*
X14465450Y-13398378D01*
X14743331Y-13398621D01*
X15000151Y-13292504D01*
X15196814Y-13096185D01*
X15239974Y-12992242D01*
X15282496Y-13095151D01*
X15478815Y-13291814D01*
X15735450Y-13398378D01*
X16013331Y-13398621D01*
X16270151Y-13292504D01*
X16466814Y-13096185D01*
X16509974Y-12992242D01*
X16552496Y-13095151D01*
X16748815Y-13291814D01*
X17005450Y-13398378D01*
X17283331Y-13398621D01*
X17540151Y-13292504D01*
X17736814Y-13096185D01*
X17779974Y-12992242D01*
X17822496Y-13095151D01*
X18018815Y-13291814D01*
X18275450Y-13398378D01*
X18553331Y-13398621D01*
X18810151Y-13292504D01*
X19006814Y-13096185D01*
X19113378Y-12839550D01*
X19113621Y-12561669D01*
X19007504Y-12304849D01*
X18811185Y-12108186D01*
X18605621Y-12022828D01*
X18605621Y-8243669D01*
X18499504Y-7986849D01*
X18303185Y-7790186D01*
X18046550Y-7683622D01*
X17908961Y-7683501D01*
X17749230Y-7523770D01*
X17588544Y-7416402D01*
X17399000Y-7378700D01*
X14605000Y-7378700D01*
X14415457Y-7416402D01*
X14254770Y-7523770D01*
X14095041Y-7683498D01*
X13958669Y-7683379D01*
X13701849Y-7789496D01*
X13505186Y-7985815D01*
X13398622Y-8242450D01*
X13398379Y-8520331D01*
X13504496Y-8777151D01*
X13700815Y-8973814D01*
X13957450Y-9080378D01*
X14235331Y-9080621D01*
X14492151Y-8974504D01*
X14688814Y-8778185D01*
X14795378Y-8521550D01*
X14795498Y-8383961D01*
X14810160Y-8369300D01*
X17193840Y-8369300D01*
X17208498Y-8383958D01*
X17208379Y-8520331D01*
X17314496Y-8777151D01*
X17510815Y-8973814D01*
X17767450Y-9080378D01*
X18045331Y-9080621D01*
X18302151Y-8974504D01*
X18498814Y-8778185D01*
X18605378Y-8521550D01*
X18605621Y-8243669D01*
X18605621Y-12022828D01*
X18554550Y-12001622D01*
X18416961Y-12001501D01*
X17933939Y-11518479D01*
X17773253Y-11411111D01*
X17583709Y-11373409D01*
X17165451Y-11373409D01*
X16986110Y-11194068D01*
X16825424Y-11086700D01*
X16635880Y-11048998D01*
X16217622Y-11048998D01*
X15862300Y-10693676D01*
X15862300Y-9763530D01*
X15958814Y-9667185D01*
X16065378Y-9410550D01*
X16065621Y-9132669D01*
X15959504Y-8875849D01*
X15763185Y-8679186D01*
X15506550Y-8572622D01*
X15228669Y-8572379D01*
X14971849Y-8678496D01*
X14775186Y-8874815D01*
X14668622Y-9131450D01*
X14668379Y-9409331D01*
X14774496Y-9666151D01*
X14871700Y-9763525D01*
X14871700Y-10898836D01*
X14890133Y-10991509D01*
X14571990Y-10673366D01*
X14411304Y-10565998D01*
X14221760Y-10528296D01*
X13803502Y-10528296D01*
X13491370Y-10216164D01*
X13330684Y-10108796D01*
X13141140Y-10071094D01*
X8231554Y-10071094D01*
X7970230Y-9809770D01*
X7809544Y-9702402D01*
X7747000Y-9689961D01*
X7747000Y-9576214D01*
X7725786Y-9524999D01*
X7747000Y-9473785D01*
X7747000Y-9322214D01*
X7747000Y-8306214D01*
X7725786Y-8254999D01*
X7747000Y-8203785D01*
X7747000Y-8052214D01*
X7747000Y-7036214D01*
X7725786Y-6984999D01*
X7747000Y-6933785D01*
X7747000Y-6845300D01*
X11874500Y-6845300D01*
X12064043Y-6807598D01*
X12064044Y-6807598D01*
X12224730Y-6700230D01*
X12778160Y-6146800D01*
X14874469Y-6146800D01*
X14970815Y-6243314D01*
X15227450Y-6349878D01*
X15505331Y-6350121D01*
X15762151Y-6244004D01*
X15958814Y-6047685D01*
X16065378Y-5791050D01*
X16065621Y-5513169D01*
X15959504Y-5256349D01*
X15763185Y-5059686D01*
X15506550Y-4953122D01*
X15228669Y-4952879D01*
X14971849Y-5058996D01*
X14874474Y-5156200D01*
X12573000Y-5156200D01*
X12383456Y-5193902D01*
X12222770Y-5301270D01*
X11669340Y-5854700D01*
X11629000Y-5854700D01*
X11629000Y-5742214D01*
X11629000Y-4942214D01*
X11570996Y-4802180D01*
X11463819Y-4695004D01*
X11323785Y-4637000D01*
X11172214Y-4637000D01*
X10172214Y-4637000D01*
X10032180Y-4695004D01*
X9925004Y-4802181D01*
X9867000Y-4942215D01*
X9867000Y-5093786D01*
X9867000Y-5854700D01*
X7747000Y-5854700D01*
X7747000Y-5766214D01*
X7725786Y-5714999D01*
X7747000Y-5663785D01*
X7747000Y-5575300D01*
X7889358Y-5575300D01*
X7922315Y-5608314D01*
X8178950Y-5714878D01*
X8456831Y-5715121D01*
X8713651Y-5609004D01*
X8910314Y-5412685D01*
X9016878Y-5156050D01*
X9017121Y-4878169D01*
X8911004Y-4621349D01*
X8717249Y-4427255D01*
X8777151Y-4402504D01*
X8973814Y-4206185D01*
X9080378Y-3949550D01*
X9080621Y-3671669D01*
X8974504Y-3414849D01*
X8778185Y-3218186D01*
X8521550Y-3111622D01*
X8243669Y-3111379D01*
X7986849Y-3217496D01*
X7889474Y-3314700D01*
X7747000Y-3314700D01*
X7747000Y-3226214D01*
X7725786Y-3174999D01*
X7747000Y-3123785D01*
X7747000Y-3073400D01*
X7951123Y-3032797D01*
X8124171Y-2917171D01*
X8886171Y-2155171D01*
X9001797Y-1982123D01*
X9042400Y-1778000D01*
X9042401Y-1778000D01*
X9042400Y-1777994D01*
X9042400Y-1363941D01*
X9364941Y-1041400D01*
X16714600Y-1041400D01*
X16714600Y-1481575D01*
X16682180Y-1495004D01*
X16575004Y-1602181D01*
X16517000Y-1742215D01*
X16517000Y-1893786D01*
X16517000Y-3393786D01*
X16575004Y-3533820D01*
X16682181Y-3640996D01*
X16822215Y-3699000D01*
X16973786Y-3699000D01*
X17673786Y-3699000D01*
X17795372Y-3648637D01*
X17575695Y-3867931D01*
X17454638Y-4159471D01*
X17454362Y-4475145D01*
X17574911Y-4766895D01*
X17797931Y-4990305D01*
X18089471Y-5111362D01*
X18405145Y-5111638D01*
X18696895Y-4991089D01*
X18920305Y-4768069D01*
X19041362Y-4476529D01*
X19041395Y-4438355D01*
X19144270Y-4541230D01*
X19207770Y-4604730D01*
X19368457Y-4712098D01*
X19558000Y-4749800D01*
X19977384Y-4749800D01*
X19925004Y-4802181D01*
X19867000Y-4942215D01*
X19867000Y-5093786D01*
X19867000Y-5893786D01*
X19925004Y-6033820D01*
X20032181Y-6140996D01*
X20172215Y-6199000D01*
X20323786Y-6199000D01*
X21323786Y-6199000D01*
X21463820Y-6140996D01*
X21570996Y-6033819D01*
X21629000Y-5893785D01*
X21629000Y-5742214D01*
X21629000Y-4942214D01*
X21570996Y-4802180D01*
X21518615Y-4749800D01*
X21526500Y-4749800D01*
X21716043Y-4712098D01*
X21716044Y-4712098D01*
X21876730Y-4604730D01*
X22321230Y-4160230D01*
X22428598Y-3999543D01*
X22466300Y-3810000D01*
X22466300Y-1889530D01*
X22562814Y-1793185D01*
X22669378Y-1536550D01*
X22669621Y-1258669D01*
X22563504Y-1001849D01*
X22367185Y-805186D01*
X22110550Y-698622D01*
X21832669Y-698379D01*
X21575849Y-804496D01*
X21379186Y-1000815D01*
X21272622Y-1257450D01*
X21272379Y-1535331D01*
X21378496Y-1792151D01*
X21475700Y-1889525D01*
X21475700Y-2506884D01*
X21463819Y-2495004D01*
X21323785Y-2437000D01*
X21172214Y-2437000D01*
X21087888Y-2437000D01*
X21145378Y-2298550D01*
X21145621Y-2020669D01*
X21039504Y-1763849D01*
X20980400Y-1704641D01*
X20980400Y-1206500D01*
X20939797Y-1002377D01*
X20824171Y-829329D01*
X20425842Y-431000D01*
X46058547Y-431000D01*
X46127236Y-444662D01*
X46149476Y-459523D01*
X46164337Y-481765D01*
X46178000Y-550448D01*
X46178000Y-28659551D01*
X46178000Y-28659551D01*
G37*
X46178000Y-28659551D02*
X46164337Y-28728234D01*
X46149476Y-28750476D01*
X46127236Y-28765337D01*
X46058547Y-28779000D01*
X44773131Y-28779000D01*
X44908651Y-28723004D01*
X45105314Y-28526685D01*
X45211878Y-28270050D01*
X45212121Y-27992169D01*
X45106004Y-27735349D01*
X44909685Y-27538686D01*
X44653050Y-27432122D01*
X44375169Y-27431879D01*
X44118349Y-27537996D01*
X43921686Y-27734315D01*
X43815122Y-27990950D01*
X43815048Y-28074609D01*
X43594058Y-28295600D01*
X39539488Y-28295600D01*
X39624000Y-28091571D01*
X39624000Y-27788429D01*
X39624000Y-26758900D01*
X44059003Y-26758900D01*
X44117315Y-26817314D01*
X44373950Y-26923878D01*
X44651831Y-26924121D01*
X44908651Y-26818004D01*
X45105314Y-26621685D01*
X45211878Y-26365050D01*
X45212121Y-26087169D01*
X45106004Y-25830349D01*
X44909685Y-25633686D01*
X44653050Y-25527122D01*
X44375169Y-25526879D01*
X44118349Y-25632996D01*
X44059141Y-25692100D01*
X39624000Y-25692100D01*
X39624000Y-25248429D01*
X39624000Y-5231571D01*
X39624000Y-4928429D01*
X39624000Y-2388429D01*
X39507992Y-2108362D01*
X39293638Y-1894008D01*
X39013571Y-1778000D01*
X38710429Y-1778000D01*
X33630429Y-1778000D01*
X33350362Y-1894008D01*
X33136008Y-2108362D01*
X33020000Y-2388429D01*
X33020000Y-2691571D01*
X33020000Y-5231571D01*
X33136008Y-5511638D01*
X33350362Y-5725992D01*
X33630429Y-5842000D01*
X33933571Y-5842000D01*
X39013571Y-5842000D01*
X39293638Y-5725992D01*
X39507992Y-5511638D01*
X39624000Y-5231571D01*
X39624000Y-25248429D01*
X39507992Y-24968362D01*
X39293638Y-24754008D01*
X39013571Y-24638000D01*
X38710429Y-24638000D01*
X33630429Y-24638000D01*
X33350362Y-24754008D01*
X33136008Y-24968362D01*
X33020000Y-25248429D01*
X33020000Y-25551571D01*
X33020000Y-28091571D01*
X33104511Y-28295600D01*
X26733621Y-28295600D01*
X26733621Y-16371669D01*
X26627504Y-16114849D01*
X26530300Y-16017474D01*
X26530300Y-9382530D01*
X26626814Y-9286185D01*
X26733378Y-9029550D01*
X26733621Y-8751669D01*
X26627504Y-8494849D01*
X26431185Y-8298186D01*
X26174550Y-8191622D01*
X25896669Y-8191379D01*
X25639849Y-8297496D01*
X25443186Y-8493815D01*
X25336622Y-8750450D01*
X25336379Y-9028331D01*
X25442496Y-9285151D01*
X25539700Y-9382525D01*
X25539700Y-16017469D01*
X25443186Y-16113815D01*
X25336622Y-16370450D01*
X25336379Y-16648331D01*
X25442496Y-16905151D01*
X25638815Y-17101814D01*
X25895450Y-17208378D01*
X26173331Y-17208621D01*
X26430151Y-17102504D01*
X26626814Y-16906185D01*
X26733378Y-16649550D01*
X26733621Y-16371669D01*
X26733621Y-28295600D01*
X21653621Y-28295600D01*
X21653621Y-13831669D01*
X21547504Y-13574849D01*
X21351185Y-13378186D01*
X21094550Y-13271622D01*
X20816669Y-13271379D01*
X20559849Y-13377496D01*
X20363186Y-13573815D01*
X20256622Y-13830450D01*
X20256501Y-13968038D01*
X19240621Y-14983918D01*
X19240621Y-5830669D01*
X19134504Y-5573849D01*
X18938185Y-5377186D01*
X18681550Y-5270622D01*
X18403669Y-5270379D01*
X18146849Y-5376496D01*
X18049474Y-5473700D01*
X17858160Y-5473700D01*
X16352230Y-3967770D01*
X16191544Y-3860402D01*
X16002000Y-3822700D01*
X15064160Y-3822700D01*
X14848137Y-3606677D01*
X14920996Y-3533819D01*
X14979000Y-3393785D01*
X14979000Y-3242214D01*
X14979000Y-1742214D01*
X14920996Y-1602180D01*
X14813819Y-1495004D01*
X14673785Y-1437000D01*
X14522214Y-1437000D01*
X13822214Y-1437000D01*
X13682180Y-1495004D01*
X13575004Y-1602181D01*
X13517000Y-1742215D01*
X13517000Y-1893786D01*
X13517000Y-3393786D01*
X13575004Y-3533820D01*
X13609498Y-3568313D01*
X13436468Y-3496465D01*
X13479000Y-3393785D01*
X13479000Y-3242214D01*
X13479000Y-1742214D01*
X13420996Y-1602180D01*
X13313819Y-1495004D01*
X13173785Y-1437000D01*
X13022214Y-1437000D01*
X12322214Y-1437000D01*
X12182180Y-1495004D01*
X12154717Y-1522466D01*
X12149504Y-1509849D01*
X11953185Y-1313186D01*
X11696550Y-1206622D01*
X11418669Y-1206379D01*
X11161849Y-1312496D01*
X10965186Y-1508815D01*
X10858622Y-1765450D01*
X10858379Y-2043331D01*
X10964496Y-2300151D01*
X11101105Y-2437000D01*
X10172214Y-2437000D01*
X10032180Y-2495004D01*
X9925004Y-2602181D01*
X9867000Y-2742215D01*
X9867000Y-2893786D01*
X9867000Y-3693786D01*
X9925004Y-3833820D01*
X10032181Y-3940996D01*
X10172215Y-3999000D01*
X10323786Y-3999000D01*
X11323786Y-3999000D01*
X11463820Y-3940996D01*
X11570996Y-3833819D01*
X11629000Y-3693785D01*
X11629000Y-3542214D01*
X11629000Y-2742214D01*
X11583211Y-2631671D01*
X11869770Y-2918230D01*
X12017000Y-3016606D01*
X12017000Y-3393786D01*
X12075004Y-3533820D01*
X12182181Y-3640996D01*
X12322215Y-3699000D01*
X12473786Y-3699000D01*
X12691842Y-3699000D01*
X12543923Y-3846662D01*
X12417145Y-4151979D01*
X12416856Y-4482571D01*
X12543102Y-4788109D01*
X12776662Y-5022077D01*
X13081979Y-5148855D01*
X13412571Y-5149144D01*
X13718109Y-5022898D01*
X13952077Y-4789338D01*
X14078855Y-4484021D01*
X14079069Y-4238529D01*
X14508770Y-4668230D01*
X14669456Y-4775597D01*
X14669457Y-4775598D01*
X14859000Y-4813300D01*
X15796840Y-4813300D01*
X17302770Y-6319230D01*
X17463457Y-6426598D01*
X17653000Y-6464300D01*
X18049469Y-6464300D01*
X18145815Y-6560814D01*
X18402450Y-6667378D01*
X18680331Y-6667621D01*
X18937151Y-6561504D01*
X19133814Y-6365185D01*
X19240378Y-6108550D01*
X19240621Y-5830669D01*
X19240621Y-14983918D01*
X13891840Y-20332700D01*
X13319530Y-20332700D01*
X13223185Y-20236186D01*
X12966550Y-20129622D01*
X12688669Y-20129379D01*
X12431849Y-20235496D01*
X12235186Y-20431815D01*
X12128622Y-20688450D01*
X12128379Y-20966331D01*
X12234496Y-21223151D01*
X12430815Y-21419814D01*
X12687450Y-21526378D01*
X12965331Y-21526621D01*
X13222151Y-21420504D01*
X13319525Y-21323300D01*
X14097000Y-21323300D01*
X14286543Y-21285598D01*
X14286544Y-21285598D01*
X14447230Y-21178230D01*
X20956958Y-14668501D01*
X21093331Y-14668621D01*
X21350151Y-14562504D01*
X21546814Y-14366185D01*
X21653378Y-14109550D01*
X21653621Y-13831669D01*
X21653621Y-28295600D01*
X9237941Y-28295600D01*
X8661400Y-27719058D01*
X8661400Y-27051000D01*
X8648749Y-26987400D01*
X8901331Y-26987621D01*
X9158151Y-26881504D01*
X9354814Y-26685185D01*
X9461378Y-26428550D01*
X9461621Y-26150669D01*
X9355504Y-25893849D01*
X9159185Y-25697186D01*
X8902550Y-25590622D01*
X8764961Y-25590501D01*
X8224230Y-25049770D01*
X8063544Y-24942402D01*
X7874000Y-24904700D01*
X7747000Y-24904700D01*
X7747000Y-24816214D01*
X7725786Y-24764999D01*
X7747000Y-24713785D01*
X7747000Y-24562214D01*
X7747000Y-23546214D01*
X7725786Y-23494999D01*
X7747000Y-23443785D01*
X7747000Y-23292214D01*
X7747000Y-22276214D01*
X7725786Y-22224999D01*
X7747000Y-22173785D01*
X7747000Y-22022214D01*
X7747000Y-21006214D01*
X7725786Y-20954999D01*
X7747000Y-20903785D01*
X7747000Y-20752214D01*
X7747000Y-19736214D01*
X7725786Y-19684999D01*
X7747000Y-19633785D01*
X7747000Y-19545300D01*
X8165258Y-19545300D01*
X8445498Y-19825540D01*
X8445498Y-22402798D01*
X8483200Y-22592342D01*
X8590568Y-22753028D01*
X9461498Y-23623958D01*
X9461379Y-23760331D01*
X9567496Y-24017151D01*
X9763815Y-24213814D01*
X10020450Y-24320378D01*
X10298331Y-24320621D01*
X10555151Y-24214504D01*
X10751814Y-24018185D01*
X10858378Y-23761550D01*
X10858621Y-23483669D01*
X10752504Y-23226849D01*
X10639827Y-23113975D01*
X10751814Y-23002185D01*
X10858378Y-22745550D01*
X10858621Y-22467669D01*
X10752504Y-22210849D01*
X10639827Y-22097975D01*
X10751814Y-21986185D01*
X10858378Y-21729550D01*
X10858621Y-21451669D01*
X10752504Y-21194849D01*
X10655300Y-21097474D01*
X10655300Y-19050000D01*
X10617598Y-18860457D01*
X10617597Y-18860456D01*
X10510230Y-18699770D01*
X7970230Y-16159770D01*
X7809544Y-16052402D01*
X7747000Y-16039961D01*
X7747000Y-15926214D01*
X7725786Y-15874999D01*
X7747000Y-15823785D01*
X7747000Y-15710038D01*
X7809543Y-15697598D01*
X7809544Y-15697598D01*
X7970230Y-15590230D01*
X8808432Y-14752028D01*
X8915800Y-14591341D01*
X8953502Y-14401798D01*
X8953502Y-13233122D01*
X9296122Y-12890502D01*
X11387935Y-12890502D01*
X11472496Y-13095151D01*
X11668815Y-13291814D01*
X11925450Y-13398378D01*
X12203331Y-13398621D01*
X12460151Y-13292504D01*
X12656814Y-13096185D01*
X12699974Y-12992242D01*
X12742496Y-13095151D01*
X12938815Y-13291814D01*
X13195450Y-13398378D01*
X13473331Y-13398621D01*
X13730151Y-13292504D01*
X13926814Y-13096185D01*
X13969974Y-12992242D01*
X14012496Y-13095151D01*
X14208815Y-13291814D01*
X14465450Y-13398378D01*
X14743331Y-13398621D01*
X15000151Y-13292504D01*
X15196814Y-13096185D01*
X15239974Y-12992242D01*
X15282496Y-13095151D01*
X15478815Y-13291814D01*
X15735450Y-13398378D01*
X16013331Y-13398621D01*
X16270151Y-13292504D01*
X16466814Y-13096185D01*
X16509974Y-12992242D01*
X16552496Y-13095151D01*
X16748815Y-13291814D01*
X17005450Y-13398378D01*
X17283331Y-13398621D01*
X17540151Y-13292504D01*
X17736814Y-13096185D01*
X17779974Y-12992242D01*
X17822496Y-13095151D01*
X18018815Y-13291814D01*
X18275450Y-13398378D01*
X18553331Y-13398621D01*
X18810151Y-13292504D01*
X19006814Y-13096185D01*
X19113378Y-12839550D01*
X19113621Y-12561669D01*
X19007504Y-12304849D01*
X18811185Y-12108186D01*
X18605621Y-12022828D01*
X18605621Y-8243669D01*
X18499504Y-7986849D01*
X18303185Y-7790186D01*
X18046550Y-7683622D01*
X17908961Y-7683501D01*
X17749230Y-7523770D01*
X17588544Y-7416402D01*
X17399000Y-7378700D01*
X14605000Y-7378700D01*
X14415457Y-7416402D01*
X14254770Y-7523770D01*
X14095041Y-7683498D01*
X13958669Y-7683379D01*
X13701849Y-7789496D01*
X13505186Y-7985815D01*
X13398622Y-8242450D01*
X13398379Y-8520331D01*
X13504496Y-8777151D01*
X13700815Y-8973814D01*
X13957450Y-9080378D01*
X14235331Y-9080621D01*
X14492151Y-8974504D01*
X14688814Y-8778185D01*
X14795378Y-8521550D01*
X14795498Y-8383961D01*
X14810160Y-8369300D01*
X17193840Y-8369300D01*
X17208498Y-8383958D01*
X17208379Y-8520331D01*
X17314496Y-8777151D01*
X17510815Y-8973814D01*
X17767450Y-9080378D01*
X18045331Y-9080621D01*
X18302151Y-8974504D01*
X18498814Y-8778185D01*
X18605378Y-8521550D01*
X18605621Y-8243669D01*
X18605621Y-12022828D01*
X18554550Y-12001622D01*
X18416961Y-12001501D01*
X17933939Y-11518479D01*
X17773253Y-11411111D01*
X17583709Y-11373409D01*
X17165451Y-11373409D01*
X16986110Y-11194068D01*
X16825424Y-11086700D01*
X16635880Y-11048998D01*
X16217622Y-11048998D01*
X15862300Y-10693676D01*
X15862300Y-9763530D01*
X15958814Y-9667185D01*
X16065378Y-9410550D01*
X16065621Y-9132669D01*
X15959504Y-8875849D01*
X15763185Y-8679186D01*
X15506550Y-8572622D01*
X15228669Y-8572379D01*
X14971849Y-8678496D01*
X14775186Y-8874815D01*
X14668622Y-9131450D01*
X14668379Y-9409331D01*
X14774496Y-9666151D01*
X14871700Y-9763525D01*
X14871700Y-10898836D01*
X14890133Y-10991509D01*
X14571990Y-10673366D01*
X14411304Y-10565998D01*
X14221760Y-10528296D01*
X13803502Y-10528296D01*
X13491370Y-10216164D01*
X13330684Y-10108796D01*
X13141140Y-10071094D01*
X8231554Y-10071094D01*
X7970230Y-9809770D01*
X7809544Y-9702402D01*
X7747000Y-9689961D01*
X7747000Y-9576214D01*
X7725786Y-9524999D01*
X7747000Y-9473785D01*
X7747000Y-9322214D01*
X7747000Y-8306214D01*
X7725786Y-8254999D01*
X7747000Y-8203785D01*
X7747000Y-8052214D01*
X7747000Y-7036214D01*
X7725786Y-6984999D01*
X7747000Y-6933785D01*
X7747000Y-6845300D01*
X11874500Y-6845300D01*
X12064043Y-6807598D01*
X12064044Y-6807598D01*
X12224730Y-6700230D01*
X12778160Y-6146800D01*
X14874469Y-6146800D01*
X14970815Y-6243314D01*
X15227450Y-6349878D01*
X15505331Y-6350121D01*
X15762151Y-6244004D01*
X15958814Y-6047685D01*
X16065378Y-5791050D01*
X16065621Y-5513169D01*
X15959504Y-5256349D01*
X15763185Y-5059686D01*
X15506550Y-4953122D01*
X15228669Y-4952879D01*
X14971849Y-5058996D01*
X14874474Y-5156200D01*
X12573000Y-5156200D01*
X12383456Y-5193902D01*
X12222770Y-5301270D01*
X11669340Y-5854700D01*
X11629000Y-5854700D01*
X11629000Y-5742214D01*
X11629000Y-4942214D01*
X11570996Y-4802180D01*
X11463819Y-4695004D01*
X11323785Y-4637000D01*
X11172214Y-4637000D01*
X10172214Y-4637000D01*
X10032180Y-4695004D01*
X9925004Y-4802181D01*
X9867000Y-4942215D01*
X9867000Y-5093786D01*
X9867000Y-5854700D01*
X7747000Y-5854700D01*
X7747000Y-5766214D01*
X7725786Y-5714999D01*
X7747000Y-5663785D01*
X7747000Y-5575300D01*
X7889358Y-5575300D01*
X7922315Y-5608314D01*
X8178950Y-5714878D01*
X8456831Y-5715121D01*
X8713651Y-5609004D01*
X8910314Y-5412685D01*
X9016878Y-5156050D01*
X9017121Y-4878169D01*
X8911004Y-4621349D01*
X8717249Y-4427255D01*
X8777151Y-4402504D01*
X8973814Y-4206185D01*
X9080378Y-3949550D01*
X9080621Y-3671669D01*
X8974504Y-3414849D01*
X8778185Y-3218186D01*
X8521550Y-3111622D01*
X8243669Y-3111379D01*
X7986849Y-3217496D01*
X7889474Y-3314700D01*
X7747000Y-3314700D01*
X7747000Y-3226214D01*
X7725786Y-3174999D01*
X7747000Y-3123785D01*
X7747000Y-3073400D01*
X7951123Y-3032797D01*
X8124171Y-2917171D01*
X8886171Y-2155171D01*
X9001797Y-1982123D01*
X9042400Y-1778000D01*
X9042401Y-1778000D01*
X9042400Y-1777994D01*
X9042400Y-1363941D01*
X9364941Y-1041400D01*
X16714600Y-1041400D01*
X16714600Y-1481575D01*
X16682180Y-1495004D01*
X16575004Y-1602181D01*
X16517000Y-1742215D01*
X16517000Y-1893786D01*
X16517000Y-3393786D01*
X16575004Y-3533820D01*
X16682181Y-3640996D01*
X16822215Y-3699000D01*
X16973786Y-3699000D01*
X17673786Y-3699000D01*
X17795372Y-3648637D01*
X17575695Y-3867931D01*
X17454638Y-4159471D01*
X17454362Y-4475145D01*
X17574911Y-4766895D01*
X17797931Y-4990305D01*
X18089471Y-5111362D01*
X18405145Y-5111638D01*
X18696895Y-4991089D01*
X18920305Y-4768069D01*
X19041362Y-4476529D01*
X19041395Y-4438355D01*
X19144270Y-4541230D01*
X19207770Y-4604730D01*
X19368457Y-4712098D01*
X19558000Y-4749800D01*
X19977384Y-4749800D01*
X19925004Y-4802181D01*
X19867000Y-4942215D01*
X19867000Y-5093786D01*
X19867000Y-5893786D01*
X19925004Y-6033820D01*
X20032181Y-6140996D01*
X20172215Y-6199000D01*
X20323786Y-6199000D01*
X21323786Y-6199000D01*
X21463820Y-6140996D01*
X21570996Y-6033819D01*
X21629000Y-5893785D01*
X21629000Y-5742214D01*
X21629000Y-4942214D01*
X21570996Y-4802180D01*
X21518615Y-4749800D01*
X21526500Y-4749800D01*
X21716043Y-4712098D01*
X21716044Y-4712098D01*
X21876730Y-4604730D01*
X22321230Y-4160230D01*
X22428598Y-3999543D01*
X22466300Y-3810000D01*
X22466300Y-1889530D01*
X22562814Y-1793185D01*
X22669378Y-1536550D01*
X22669621Y-1258669D01*
X22563504Y-1001849D01*
X22367185Y-805186D01*
X22110550Y-698622D01*
X21832669Y-698379D01*
X21575849Y-804496D01*
X21379186Y-1000815D01*
X21272622Y-1257450D01*
X21272379Y-1535331D01*
X21378496Y-1792151D01*
X21475700Y-1889525D01*
X21475700Y-2506884D01*
X21463819Y-2495004D01*
X21323785Y-2437000D01*
X21172214Y-2437000D01*
X21087888Y-2437000D01*
X21145378Y-2298550D01*
X21145621Y-2020669D01*
X21039504Y-1763849D01*
X20980400Y-1704641D01*
X20980400Y-1206500D01*
X20939797Y-1002377D01*
X20824171Y-829329D01*
X20425842Y-431000D01*
X46058547Y-431000D01*
X46127236Y-444662D01*
X46149476Y-459523D01*
X46164337Y-481765D01*
X46178000Y-550448D01*
X46178000Y-28659551D01*
M02*
