%FSLAX46Y46*%
G04 Gerber Fmt 4.6, Leading zero omitted, Abs format (unit mm)*
G04 Created by KiCad (PCBNEW (2014-10-27 BZR 5228)-product) date 5/8/2015 6:15:55 PM*
%MOMM*%
G01*
G04 APERTURE LIST*
%ADD10C,0.100000*%
%ADD11C,0.177800*%
%ADD12C,0.254000*%
%ADD13C,0.300000*%
%ADD14C,0.200000*%
%ADD15R,7.366000X1.016000*%
%ADD16R,6.350000X1.016000*%
%ADD17R,0.700000X1.500000*%
%ADD18R,1.000000X0.800000*%
%ADD19R,5.080000X2.540000*%
%ADD20C,19.050000*%
G04 APERTURE END LIST*
D10*
D11*
X24701500Y-26606498D02*
X25421167Y-26606498D01*
X25505833Y-26648832D01*
X25548167Y-26691165D01*
X25590500Y-26775832D01*
X25590500Y-26902832D01*
X25548167Y-26987498D01*
X25251833Y-26606498D02*
X25294167Y-26691165D01*
X25294167Y-26860498D01*
X25251833Y-26945165D01*
X25209500Y-26987498D01*
X25124833Y-27029832D01*
X24870833Y-27029832D01*
X24786167Y-26987498D01*
X24743833Y-26945165D01*
X24701500Y-26860498D01*
X24701500Y-26691165D01*
X24743833Y-26606498D01*
X25294167Y-26183165D02*
X24701500Y-26183165D01*
X24405167Y-26183165D02*
X24447500Y-26225499D01*
X24489833Y-26183165D01*
X24447500Y-26140832D01*
X24405167Y-26183165D01*
X24489833Y-26183165D01*
X24701500Y-25886832D02*
X24701500Y-25548166D01*
X24405167Y-25759832D02*
X25167167Y-25759832D01*
X25251833Y-25717499D01*
X25294167Y-25632832D01*
X25294167Y-25548166D01*
X25294167Y-25251832D02*
X24405167Y-25251832D01*
X25294167Y-24870832D02*
X24828500Y-24870832D01*
X24743833Y-24913166D01*
X24701500Y-24997832D01*
X24701500Y-25124832D01*
X24743833Y-25209499D01*
X24786167Y-25251832D01*
X24701500Y-24066499D02*
X25294167Y-24066499D01*
X24701500Y-24447499D02*
X25167167Y-24447499D01*
X25251833Y-24405166D01*
X25294167Y-24320499D01*
X25294167Y-24193499D01*
X25251833Y-24108833D01*
X25209500Y-24066499D01*
X25294167Y-23643166D02*
X24405167Y-23643166D01*
X24743833Y-23643166D02*
X24701500Y-23558500D01*
X24701500Y-23389166D01*
X24743833Y-23304500D01*
X24786167Y-23262166D01*
X24870833Y-23219833D01*
X25124833Y-23219833D01*
X25209500Y-23262166D01*
X25251833Y-23304500D01*
X25294167Y-23389166D01*
X25294167Y-23558500D01*
X25251833Y-23643166D01*
X25209500Y-22838833D02*
X25251833Y-22796500D01*
X25294167Y-22838833D01*
X25251833Y-22881167D01*
X25209500Y-22838833D01*
X25294167Y-22838833D01*
X25251833Y-22034500D02*
X25294167Y-22119167D01*
X25294167Y-22288500D01*
X25251833Y-22373167D01*
X25209500Y-22415500D01*
X25124833Y-22457834D01*
X24870833Y-22457834D01*
X24786167Y-22415500D01*
X24743833Y-22373167D01*
X24701500Y-22288500D01*
X24701500Y-22119167D01*
X24743833Y-22034500D01*
X25294167Y-21526500D02*
X25251833Y-21611167D01*
X25209500Y-21653500D01*
X25124833Y-21695834D01*
X24870833Y-21695834D01*
X24786167Y-21653500D01*
X24743833Y-21611167D01*
X24701500Y-21526500D01*
X24701500Y-21399500D01*
X24743833Y-21314834D01*
X24786167Y-21272500D01*
X24870833Y-21230167D01*
X25124833Y-21230167D01*
X25209500Y-21272500D01*
X25251833Y-21314834D01*
X25294167Y-21399500D01*
X25294167Y-21526500D01*
X25294167Y-20849167D02*
X24701500Y-20849167D01*
X24786167Y-20849167D02*
X24743833Y-20806834D01*
X24701500Y-20722167D01*
X24701500Y-20595167D01*
X24743833Y-20510501D01*
X24828500Y-20468167D01*
X25294167Y-20468167D01*
X24828500Y-20468167D02*
X24743833Y-20425834D01*
X24701500Y-20341167D01*
X24701500Y-20214167D01*
X24743833Y-20129501D01*
X24828500Y-20087167D01*
X25294167Y-20087167D01*
X24362833Y-19028834D02*
X25505833Y-19790834D01*
X25294167Y-18351501D02*
X24828500Y-18351501D01*
X24743833Y-18393835D01*
X24701500Y-18478501D01*
X24701500Y-18647835D01*
X24743833Y-18732501D01*
X25251833Y-18351501D02*
X25294167Y-18436168D01*
X25294167Y-18647835D01*
X25251833Y-18732501D01*
X25167167Y-18774835D01*
X25082500Y-18774835D01*
X24997833Y-18732501D01*
X24955500Y-18647835D01*
X24955500Y-18436168D01*
X24913167Y-18351501D01*
X25294167Y-17928168D02*
X24701500Y-17928168D01*
X24870833Y-17928168D02*
X24786167Y-17885835D01*
X24743833Y-17843502D01*
X24701500Y-17758835D01*
X24701500Y-17674168D01*
X25294167Y-16996835D02*
X24828500Y-16996835D01*
X24743833Y-17039169D01*
X24701500Y-17123835D01*
X24701500Y-17293169D01*
X24743833Y-17377835D01*
X25251833Y-16996835D02*
X25294167Y-17081502D01*
X25294167Y-17293169D01*
X25251833Y-17377835D01*
X25167167Y-17420169D01*
X25082500Y-17420169D01*
X24997833Y-17377835D01*
X24955500Y-17293169D01*
X24955500Y-17081502D01*
X24913167Y-16996835D01*
X24701500Y-16573502D02*
X25294167Y-16573502D01*
X24786167Y-16573502D02*
X24743833Y-16531169D01*
X24701500Y-16446502D01*
X24701500Y-16319502D01*
X24743833Y-16234836D01*
X24828500Y-16192502D01*
X25294167Y-16192502D01*
X24701500Y-15896169D02*
X24701500Y-15557503D01*
X24405167Y-15769169D02*
X25167167Y-15769169D01*
X25251833Y-15726836D01*
X25294167Y-15642169D01*
X25294167Y-15557503D01*
X25294167Y-15261169D02*
X24701500Y-15261169D01*
X24405167Y-15261169D02*
X24447500Y-15303503D01*
X24489833Y-15261169D01*
X24447500Y-15218836D01*
X24405167Y-15261169D01*
X24489833Y-15261169D01*
X24701500Y-14456836D02*
X25294167Y-14456836D01*
X24701500Y-14837836D02*
X25167167Y-14837836D01*
X25251833Y-14795503D01*
X25294167Y-14710836D01*
X25294167Y-14583836D01*
X25251833Y-14499170D01*
X25209500Y-14456836D01*
X25251833Y-14075837D02*
X25294167Y-13991170D01*
X25294167Y-13821837D01*
X25251833Y-13737170D01*
X25167167Y-13694837D01*
X25124833Y-13694837D01*
X25040167Y-13737170D01*
X24997833Y-13821837D01*
X24997833Y-13948837D01*
X24955500Y-14033503D01*
X24870833Y-14075837D01*
X24828500Y-14075837D01*
X24743833Y-14033503D01*
X24701500Y-13948837D01*
X24701500Y-13821837D01*
X24743833Y-13737170D01*
X24362833Y-12678836D02*
X25505833Y-13440836D01*
X24701500Y-12509503D02*
X24701500Y-12170837D01*
X24405167Y-12382503D02*
X25167167Y-12382503D01*
X25251833Y-12340170D01*
X25294167Y-12255503D01*
X25294167Y-12170837D01*
X25251833Y-11535837D02*
X25294167Y-11620503D01*
X25294167Y-11789837D01*
X25251833Y-11874503D01*
X25167167Y-11916837D01*
X24828500Y-11916837D01*
X24743833Y-11874503D01*
X24701500Y-11789837D01*
X24701500Y-11620503D01*
X24743833Y-11535837D01*
X24828500Y-11493503D01*
X24913167Y-11493503D01*
X24997833Y-11916837D01*
X24955500Y-11112503D02*
X24955500Y-10435170D01*
X25294167Y-9546170D02*
X25294167Y-10054170D01*
X25294167Y-9800170D02*
X24405167Y-9800170D01*
X24532167Y-9884836D01*
X24616833Y-9969503D01*
X24659167Y-10054170D01*
X24405167Y-8741836D02*
X24405167Y-9165169D01*
X24828500Y-9207503D01*
X24786167Y-9165169D01*
X24743833Y-9080503D01*
X24743833Y-8868836D01*
X24786167Y-8784169D01*
X24828500Y-8741836D01*
X24913167Y-8699503D01*
X25124833Y-8699503D01*
X25209500Y-8741836D01*
X25251833Y-8784169D01*
X25294167Y-8868836D01*
X25294167Y-9080503D01*
X25251833Y-9165169D01*
X25209500Y-9207503D01*
X24405167Y-8149169D02*
X24405167Y-8064502D01*
X24447500Y-7979836D01*
X24489833Y-7937502D01*
X24574500Y-7895169D01*
X24743833Y-7852836D01*
X24955500Y-7852836D01*
X25124833Y-7895169D01*
X25209500Y-7937502D01*
X25251833Y-7979836D01*
X25294167Y-8064502D01*
X25294167Y-8149169D01*
X25251833Y-8233836D01*
X25209500Y-8276169D01*
X25124833Y-8318502D01*
X24955500Y-8360836D01*
X24743833Y-8360836D01*
X24574500Y-8318502D01*
X24489833Y-8276169D01*
X24447500Y-8233836D01*
X24405167Y-8149169D01*
X25294167Y-7429502D02*
X25294167Y-7260169D01*
X25251833Y-7175502D01*
X25209500Y-7133169D01*
X25082500Y-7048502D01*
X24913167Y-7006169D01*
X24574500Y-7006169D01*
X24489833Y-7048502D01*
X24447500Y-7090835D01*
X24405167Y-7175502D01*
X24405167Y-7344835D01*
X24447500Y-7429502D01*
X24489833Y-7471835D01*
X24574500Y-7514169D01*
X24786167Y-7514169D01*
X24870833Y-7471835D01*
X24913167Y-7429502D01*
X24955500Y-7344835D01*
X24955500Y-7175502D01*
X24913167Y-7090835D01*
X24870833Y-7048502D01*
X24786167Y-7006169D01*
D12*
X33661047Y-1850571D02*
X33600571Y-1911048D01*
X33419142Y-1971524D01*
X33298190Y-1971524D01*
X33116762Y-1911048D01*
X32995809Y-1790095D01*
X32935333Y-1669143D01*
X32874857Y-1427238D01*
X32874857Y-1245810D01*
X32935333Y-1003905D01*
X32995809Y-882952D01*
X33116762Y-762000D01*
X33298190Y-701524D01*
X33419142Y-701524D01*
X33600571Y-762000D01*
X33661047Y-822476D01*
X34931047Y-1971524D02*
X34507714Y-1366762D01*
X34205333Y-1971524D02*
X34205333Y-701524D01*
X34689142Y-701524D01*
X34810095Y-762000D01*
X34870571Y-822476D01*
X34931047Y-943429D01*
X34931047Y-1124857D01*
X34870571Y-1245810D01*
X34810095Y-1306286D01*
X34689142Y-1366762D01*
X34205333Y-1366762D01*
X35414857Y-822476D02*
X35475333Y-762000D01*
X35596285Y-701524D01*
X35898666Y-701524D01*
X36019619Y-762000D01*
X36080095Y-822476D01*
X36140571Y-943429D01*
X36140571Y-1064381D01*
X36080095Y-1245810D01*
X35354381Y-1971524D01*
X36140571Y-1971524D01*
X36926762Y-701524D02*
X37047714Y-701524D01*
X37168666Y-762000D01*
X37229143Y-822476D01*
X37289619Y-943429D01*
X37350095Y-1185333D01*
X37350095Y-1487714D01*
X37289619Y-1729619D01*
X37229143Y-1850571D01*
X37168666Y-1911048D01*
X37047714Y-1971524D01*
X36926762Y-1971524D01*
X36805809Y-1911048D01*
X36745333Y-1850571D01*
X36684857Y-1729619D01*
X36624381Y-1487714D01*
X36624381Y-1185333D01*
X36684857Y-943429D01*
X36745333Y-822476D01*
X36805809Y-762000D01*
X36926762Y-701524D01*
X38559619Y-1971524D02*
X37833905Y-1971524D01*
X38196762Y-1971524D02*
X38196762Y-701524D01*
X38075810Y-882952D01*
X37954857Y-1003905D01*
X37833905Y-1064381D01*
X39648191Y-701524D02*
X39406286Y-701524D01*
X39285334Y-762000D01*
X39224857Y-822476D01*
X39103905Y-1003905D01*
X39043429Y-1245810D01*
X39043429Y-1729619D01*
X39103905Y-1850571D01*
X39164381Y-1911048D01*
X39285334Y-1971524D01*
X39527238Y-1971524D01*
X39648191Y-1911048D01*
X39708667Y-1850571D01*
X39769143Y-1729619D01*
X39769143Y-1427238D01*
X39708667Y-1306286D01*
X39648191Y-1245810D01*
X39527238Y-1185333D01*
X39285334Y-1185333D01*
X39164381Y-1245810D01*
X39103905Y-1306286D01*
X39043429Y-1427238D01*
D13*
X13542571Y-25974856D02*
X13542571Y-25117713D01*
X15042571Y-25546284D02*
X13542571Y-25546284D01*
X14256857Y-24617713D02*
X14256857Y-24117713D01*
X15042571Y-23903427D02*
X15042571Y-24617713D01*
X13542571Y-24617713D01*
X13542571Y-23903427D01*
X14471143Y-23260570D02*
X14471143Y-22117713D01*
X15042571Y-20617713D02*
X15042571Y-21474856D01*
X15042571Y-21046284D02*
X13542571Y-21046284D01*
X13756857Y-21189141D01*
X13899714Y-21331999D01*
X13971143Y-21474856D01*
X13542571Y-19260570D02*
X13542571Y-19974856D01*
X14256857Y-20046285D01*
X14185429Y-19974856D01*
X14114000Y-19831999D01*
X14114000Y-19474856D01*
X14185429Y-19331999D01*
X14256857Y-19260570D01*
X14399714Y-19189142D01*
X14756857Y-19189142D01*
X14899714Y-19260570D01*
X14971143Y-19331999D01*
X15042571Y-19474856D01*
X15042571Y-19831999D01*
X14971143Y-19974856D01*
X14899714Y-20046285D01*
X13542571Y-18260571D02*
X13542571Y-18117714D01*
X13614000Y-17974857D01*
X13685429Y-17903428D01*
X13828286Y-17831999D01*
X14114000Y-17760571D01*
X14471143Y-17760571D01*
X14756857Y-17831999D01*
X14899714Y-17903428D01*
X14971143Y-17974857D01*
X15042571Y-18117714D01*
X15042571Y-18260571D01*
X14971143Y-18403428D01*
X14899714Y-18474857D01*
X14756857Y-18546285D01*
X14471143Y-18617714D01*
X14114000Y-18617714D01*
X13828286Y-18546285D01*
X13685429Y-18474857D01*
X13614000Y-18403428D01*
X13542571Y-18260571D01*
X15042571Y-17046286D02*
X15042571Y-16760571D01*
X14971143Y-16617714D01*
X14899714Y-16546286D01*
X14685429Y-16403428D01*
X14399714Y-16332000D01*
X13828286Y-16332000D01*
X13685429Y-16403428D01*
X13614000Y-16474857D01*
X13542571Y-16617714D01*
X13542571Y-16903428D01*
X13614000Y-17046286D01*
X13685429Y-17117714D01*
X13828286Y-17189143D01*
X14185429Y-17189143D01*
X14328286Y-17117714D01*
X14399714Y-17046286D01*
X14471143Y-16903428D01*
X14471143Y-16617714D01*
X14399714Y-16474857D01*
X14328286Y-16403428D01*
X14185429Y-16332000D01*
X17442571Y-26439143D02*
X16728286Y-26939143D01*
X17442571Y-27296286D02*
X15942571Y-27296286D01*
X15942571Y-26724858D01*
X16014000Y-26582000D01*
X16085429Y-26510572D01*
X16228286Y-26439143D01*
X16442571Y-26439143D01*
X16585429Y-26510572D01*
X16656857Y-26582000D01*
X16728286Y-26724858D01*
X16728286Y-27296286D01*
X17014000Y-25867715D02*
X17014000Y-25153429D01*
X17442571Y-26010572D02*
X15942571Y-25510572D01*
X17442571Y-25010572D01*
X17442571Y-24510572D02*
X15942571Y-24510572D01*
X17014000Y-24010572D01*
X15942571Y-23510572D01*
X17442571Y-23510572D01*
X15871143Y-21724858D02*
X17799714Y-23010572D01*
X15942571Y-21296286D02*
X16228286Y-21296286D01*
X15942571Y-20724857D02*
X16228286Y-20724857D01*
X17442571Y-19224857D02*
X16728286Y-19724857D01*
X17442571Y-20082000D02*
X15942571Y-20082000D01*
X15942571Y-19510572D01*
X16014000Y-19367714D01*
X16085429Y-19296286D01*
X16228286Y-19224857D01*
X16442571Y-19224857D01*
X16585429Y-19296286D01*
X16656857Y-19367714D01*
X16728286Y-19510572D01*
X16728286Y-20082000D01*
X15942571Y-18296286D02*
X15942571Y-18010572D01*
X16014000Y-17867714D01*
X16156857Y-17724857D01*
X16442571Y-17653429D01*
X16942571Y-17653429D01*
X17228286Y-17724857D01*
X17371143Y-17867714D01*
X17442571Y-18010572D01*
X17442571Y-18296286D01*
X17371143Y-18439143D01*
X17228286Y-18582000D01*
X16942571Y-18653429D01*
X16442571Y-18653429D01*
X16156857Y-18582000D01*
X16014000Y-18439143D01*
X15942571Y-18296286D01*
X17442571Y-17010571D02*
X15942571Y-17010571D01*
X17014000Y-16510571D01*
X15942571Y-16010571D01*
X17442571Y-16010571D01*
X15942571Y-15367714D02*
X16228286Y-15367714D01*
X15942571Y-14796285D02*
X16228286Y-14796285D01*
X19842571Y-24653428D02*
X18342571Y-24653428D01*
X19414000Y-24153428D01*
X18342571Y-23653428D01*
X19842571Y-23653428D01*
X19842571Y-22724856D02*
X19771143Y-22867714D01*
X19699714Y-22939142D01*
X19556857Y-23010571D01*
X19128286Y-23010571D01*
X18985429Y-22939142D01*
X18914000Y-22867714D01*
X18842571Y-22724856D01*
X18842571Y-22510571D01*
X18914000Y-22367714D01*
X18985429Y-22296285D01*
X19128286Y-22224856D01*
X19556857Y-22224856D01*
X19699714Y-22296285D01*
X19771143Y-22367714D01*
X19842571Y-22510571D01*
X19842571Y-22724856D01*
X19842571Y-20939142D02*
X18342571Y-20939142D01*
X19771143Y-20939142D02*
X19842571Y-21081999D01*
X19842571Y-21367713D01*
X19771143Y-21510571D01*
X19699714Y-21581999D01*
X19556857Y-21653428D01*
X19128286Y-21653428D01*
X18985429Y-21581999D01*
X18914000Y-21510571D01*
X18842571Y-21367713D01*
X18842571Y-21081999D01*
X18914000Y-20939142D01*
X18842571Y-19581999D02*
X19842571Y-19581999D01*
X18842571Y-20224856D02*
X19628286Y-20224856D01*
X19771143Y-20153428D01*
X19842571Y-20010570D01*
X19842571Y-19796285D01*
X19771143Y-19653428D01*
X19699714Y-19581999D01*
X19842571Y-18653427D02*
X19771143Y-18796285D01*
X19628286Y-18867713D01*
X18342571Y-18867713D01*
X19771143Y-17510571D02*
X19842571Y-17653428D01*
X19842571Y-17939142D01*
X19771143Y-18081999D01*
X19628286Y-18153428D01*
X19056857Y-18153428D01*
X18914000Y-18081999D01*
X18842571Y-17939142D01*
X18842571Y-17653428D01*
X18914000Y-17510571D01*
X19056857Y-17439142D01*
X19199714Y-17439142D01*
X19342571Y-18153428D01*
D14*
X9258476Y-12639762D02*
X9496571Y-12639762D01*
X9258476Y-12163571D02*
X9496571Y-12163571D01*
X10508476Y-10913571D02*
X9913238Y-11330238D01*
X10508476Y-11627857D02*
X9258476Y-11627857D01*
X9258476Y-11151666D01*
X9318000Y-11032619D01*
X9377524Y-10973095D01*
X9496571Y-10913571D01*
X9675143Y-10913571D01*
X9794190Y-10973095D01*
X9853714Y-11032619D01*
X9913238Y-11151666D01*
X9913238Y-11627857D01*
X9258476Y-10139762D02*
X9258476Y-9901666D01*
X9318000Y-9782619D01*
X9437048Y-9663571D01*
X9675143Y-9604047D01*
X10091810Y-9604047D01*
X10329905Y-9663571D01*
X10448952Y-9782619D01*
X10508476Y-9901666D01*
X10508476Y-10139762D01*
X10448952Y-10258809D01*
X10329905Y-10377857D01*
X10091810Y-10437381D01*
X9675143Y-10437381D01*
X9437048Y-10377857D01*
X9318000Y-10258809D01*
X9258476Y-10139762D01*
X10508476Y-9068333D02*
X9258476Y-9068333D01*
X10151333Y-8651666D01*
X9258476Y-8235000D01*
X10508476Y-8235000D01*
X9258476Y-7699286D02*
X9496571Y-7699286D01*
X9258476Y-7223095D02*
X9496571Y-7223095D01*
X12458476Y-12282620D02*
X11803714Y-12282620D01*
X11684667Y-12342143D01*
X11625143Y-12461191D01*
X11625143Y-12699286D01*
X11684667Y-12818334D01*
X12398952Y-12282620D02*
X12458476Y-12401667D01*
X12458476Y-12699286D01*
X12398952Y-12818334D01*
X12279905Y-12877858D01*
X12160857Y-12877858D01*
X12041810Y-12818334D01*
X11982286Y-12699286D01*
X11982286Y-12401667D01*
X11922762Y-12282620D01*
X12398952Y-11151668D02*
X12458476Y-11270715D01*
X12458476Y-11508811D01*
X12398952Y-11627858D01*
X12339429Y-11687382D01*
X12220381Y-11746906D01*
X11863238Y-11746906D01*
X11744190Y-11687382D01*
X11684667Y-11627858D01*
X11625143Y-11508811D01*
X11625143Y-11270715D01*
X11684667Y-11151668D01*
X11625143Y-10794524D02*
X11625143Y-10318334D01*
X11208476Y-10615953D02*
X12279905Y-10615953D01*
X12398952Y-10556429D01*
X12458476Y-10437382D01*
X12458476Y-10318334D01*
X12458476Y-9901667D02*
X11625143Y-9901667D01*
X11208476Y-9901667D02*
X11268000Y-9961191D01*
X11327524Y-9901667D01*
X11268000Y-9842143D01*
X11208476Y-9901667D01*
X11327524Y-9901667D01*
X11625143Y-9425477D02*
X12458476Y-9127858D01*
X11625143Y-8830238D01*
X12398952Y-7877857D02*
X12458476Y-7996905D01*
X12458476Y-8235000D01*
X12398952Y-8354048D01*
X12279905Y-8413572D01*
X11803714Y-8413572D01*
X11684667Y-8354048D01*
X11625143Y-8235000D01*
X11625143Y-7996905D01*
X11684667Y-7877857D01*
X11803714Y-7818334D01*
X11922762Y-7818334D01*
X12041810Y-8413572D01*
X12339429Y-7282619D02*
X12398952Y-7223095D01*
X12458476Y-7282619D01*
X12398952Y-7342143D01*
X12339429Y-7282619D01*
X12458476Y-7282619D01*
X11684667Y-7282619D02*
X11744190Y-7223095D01*
X11803714Y-7282619D01*
X11744190Y-7342143D01*
X11684667Y-7282619D01*
X11803714Y-7282619D01*
X14408476Y-11746905D02*
X13158476Y-11746905D01*
X13158476Y-11270714D01*
X13218000Y-11151667D01*
X13277524Y-11092143D01*
X13396571Y-11032619D01*
X13575143Y-11032619D01*
X13694190Y-11092143D01*
X13753714Y-11151667D01*
X13813238Y-11270714D01*
X13813238Y-11746905D01*
X13158476Y-10675476D02*
X14408476Y-10258810D01*
X13158476Y-9842143D01*
X13753714Y-9425476D02*
X13753714Y-8473095D01*
X14110857Y-8473095D02*
X14110857Y-9425476D01*
X13158476Y-7639762D02*
X13158476Y-7520714D01*
X13218000Y-7401666D01*
X13277524Y-7342143D01*
X13396571Y-7282619D01*
X13634667Y-7223095D01*
X13932286Y-7223095D01*
X14170381Y-7282619D01*
X14289429Y-7342143D01*
X14348952Y-7401666D01*
X14408476Y-7520714D01*
X14408476Y-7639762D01*
X14348952Y-7758809D01*
X14289429Y-7818333D01*
X14170381Y-7877857D01*
X13932286Y-7937381D01*
X13634667Y-7937381D01*
X13396571Y-7877857D01*
X13277524Y-7818333D01*
X13218000Y-7758809D01*
X13158476Y-7639762D01*
X15703714Y-10496904D02*
X15763238Y-10318333D01*
X15822762Y-10258809D01*
X15941810Y-10199285D01*
X16120381Y-10199285D01*
X16239429Y-10258809D01*
X16298952Y-10318333D01*
X16358476Y-10437380D01*
X16358476Y-10913571D01*
X15108476Y-10913571D01*
X15108476Y-10496904D01*
X15168000Y-10377857D01*
X15227524Y-10318333D01*
X15346571Y-10258809D01*
X15465619Y-10258809D01*
X15584667Y-10318333D01*
X15644190Y-10377857D01*
X15703714Y-10496904D01*
X15703714Y-10913571D01*
X16358476Y-9485000D02*
X16298952Y-9604047D01*
X16239429Y-9663571D01*
X16120381Y-9723095D01*
X15763238Y-9723095D01*
X15644190Y-9663571D01*
X15584667Y-9604047D01*
X15525143Y-9485000D01*
X15525143Y-9306428D01*
X15584667Y-9187380D01*
X15644190Y-9127857D01*
X15763238Y-9068333D01*
X16120381Y-9068333D01*
X16239429Y-9127857D01*
X16298952Y-9187380D01*
X16358476Y-9306428D01*
X16358476Y-9485000D01*
X15525143Y-8711190D02*
X15525143Y-8235000D01*
X15108476Y-8532619D02*
X16179905Y-8532619D01*
X16298952Y-8473095D01*
X16358476Y-8354048D01*
X16358476Y-8235000D01*
X16358476Y-7818333D02*
X15108476Y-7818333D01*
X16358476Y-7282619D02*
X15703714Y-7282619D01*
X15584667Y-7342142D01*
X15525143Y-7461190D01*
X15525143Y-7639762D01*
X15584667Y-7758809D01*
X15644190Y-7818333D01*
X18308476Y-11746905D02*
X17058476Y-11746905D01*
X17058476Y-11270714D01*
X17118000Y-11151667D01*
X17177524Y-11092143D01*
X17296571Y-11032619D01*
X17475143Y-11032619D01*
X17594190Y-11092143D01*
X17653714Y-11151667D01*
X17713238Y-11270714D01*
X17713238Y-11746905D01*
X17058476Y-10675476D02*
X18308476Y-10258810D01*
X17058476Y-9842143D01*
X17653714Y-9425476D02*
X17653714Y-8473095D01*
X18010857Y-8473095D02*
X18010857Y-9425476D01*
X18308476Y-7223095D02*
X18308476Y-7937381D01*
X18308476Y-7580238D02*
X17058476Y-7580238D01*
X17237048Y-7699286D01*
X17356095Y-7818333D01*
X17415619Y-7937381D01*
%LPC*%
D15*
X3683000Y-2540000D03*
D16*
X4191000Y-3810000D03*
X4191000Y-5080000D03*
X4191000Y-6350000D03*
X4191000Y-7620000D03*
X4191000Y-8890000D03*
X4191000Y-10160000D03*
X4191000Y-11430000D03*
X4191000Y-12700000D03*
X4191000Y-13970000D03*
X4191000Y-15240000D03*
X4191000Y-16510000D03*
X4191000Y-17780000D03*
X4191000Y-19050000D03*
X4191000Y-20320000D03*
X4191000Y-21590000D03*
X4191000Y-22860000D03*
X4191000Y-24130000D03*
X4191000Y-25400000D03*
D15*
X3683000Y-26670000D03*
D17*
X18748000Y-2568000D03*
X17248000Y-2568000D03*
X12748000Y-2568000D03*
D18*
X20398000Y-5418000D03*
X20398000Y-3218000D03*
X11098000Y-3218000D03*
X11098000Y-5418000D03*
D17*
X14248000Y-2568000D03*
D19*
X36322000Y-26670000D03*
D20*
X36322000Y-15240000D03*
D19*
X36322000Y-3810000D03*
M02*
