%FSLAX46Y46*%
G04 Gerber Fmt 4.6, Leading zero omitted, Abs format (unit mm)*
G04 Created by KiCad (PCBNEW (2014-10-27 BZR 5228)-product) date 5/6/2015 10:21:37 PM*
%MOMM*%
G01*
G04 APERTURE LIST*
%ADD10C,0.100000*%
%ADD11R,7.366000X1.016000*%
%ADD12R,6.350000X1.016000*%
%ADD13R,0.700000X1.500000*%
%ADD14R,1.000000X0.800000*%
%ADD15R,5.080000X2.540000*%
%ADD16C,6.350000*%
%ADD17C,0.635000*%
%ADD18C,0.304800*%
%ADD19C,0.228600*%
%ADD20C,0.254000*%
G04 APERTURE END LIST*
D10*
D11*
X3683000Y-2540000D03*
D12*
X4191000Y-3810000D03*
X4191000Y-5080000D03*
X4191000Y-6350000D03*
X4191000Y-7620000D03*
X4191000Y-8890000D03*
X4191000Y-10160000D03*
X4191000Y-11430000D03*
X4191000Y-12700000D03*
X4191000Y-13970000D03*
X4191000Y-15240000D03*
X4191000Y-16510000D03*
X4191000Y-17780000D03*
X4191000Y-19050000D03*
X4191000Y-20320000D03*
X4191000Y-21590000D03*
X4191000Y-22860000D03*
X4191000Y-24130000D03*
X4191000Y-25400000D03*
D11*
X3683000Y-26670000D03*
D13*
X18748000Y-2568000D03*
X17248000Y-2568000D03*
X12748000Y-2568000D03*
D14*
X20398000Y-5418000D03*
X20398000Y-3218000D03*
X11098000Y-3218000D03*
X11098000Y-5418000D03*
D13*
X14248000Y-2568000D03*
D15*
X36322000Y-27178000D03*
D16*
X36322000Y-15748000D03*
D15*
X36322000Y-4318000D03*
D17*
X20447000Y-2159000D03*
X26543000Y-24765000D03*
X10477500Y-27051000D03*
X20955000Y-14732000D03*
X23495000Y-17272000D03*
X17145000Y-12700000D03*
X15875000Y-12700000D03*
X14605000Y-12700000D03*
X13335000Y-12700000D03*
X12065000Y-12700000D03*
X12700000Y-22479000D03*
X13462000Y-23241000D03*
X14351000Y-22098000D03*
X11557000Y-9144000D03*
X42672000Y-1524000D03*
X25400000Y-23368000D03*
X12065000Y-25019000D03*
X25654000Y-9398000D03*
X32385000Y-25146000D03*
X15367000Y-5651500D03*
X8382000Y-3810000D03*
X22288500Y-2603500D03*
X8318500Y-5016500D03*
X18415000Y-12700000D03*
X15367000Y-9271000D03*
X26035000Y-16637000D03*
X26035000Y-10795000D03*
X29845000Y-27559000D03*
X30416500Y-6032500D03*
X11557000Y-1905000D03*
X18542000Y-5969000D03*
X14097000Y-8034000D03*
X17907000Y-8001000D03*
D18*
X17248000Y-2568000D02*
X17248000Y-1675000D01*
X17248000Y-1675000D02*
X16970000Y-1397000D01*
X8255000Y-2540000D02*
X3683000Y-2540000D01*
X9652000Y-1143000D02*
X8255000Y-2540000D01*
X12065000Y-1143000D02*
X9652000Y-1143000D01*
X12319000Y-1397000D02*
X12065000Y-1143000D01*
X16970000Y-1397000D02*
X12319000Y-1397000D01*
X20447000Y-2159000D02*
X20447000Y-1651000D01*
X20447000Y-1651000D02*
X20193000Y-1397000D01*
X20193000Y-1397000D02*
X17526000Y-1397000D01*
X17526000Y-1397000D02*
X17248000Y-1675000D01*
D19*
X17248000Y-1675000D02*
X17526000Y-1397000D01*
X17526000Y-1397000D02*
X20193000Y-1397000D01*
X20193000Y-1397000D02*
X20447000Y-1651000D01*
X17248000Y-2568000D02*
X17248000Y-1675000D01*
X22936202Y-28371798D02*
X22860000Y-28371798D01*
X26543000Y-24765000D02*
X22936202Y-28371798D01*
X22860000Y-28371798D02*
X11798298Y-28371798D01*
X11798298Y-28371798D02*
X10477500Y-27051000D01*
X23495000Y-17272000D02*
X20955000Y-14732000D01*
X13598342Y-11023596D02*
X13141140Y-10566394D01*
X16446500Y-12001500D02*
X15823082Y-12001500D01*
X15823082Y-12001500D02*
X15360089Y-11538507D01*
X15360089Y-11538507D02*
X14736671Y-11538507D01*
X14736671Y-11538507D02*
X14221760Y-11023596D01*
X14221760Y-11023596D02*
X13598342Y-11023596D01*
X17145000Y-12700000D02*
X16446500Y-12001500D01*
X7620000Y-10160000D02*
X4191000Y-10160000D01*
X8026394Y-10566394D02*
X7620000Y-10160000D01*
X13141140Y-10566394D02*
X8026394Y-10566394D01*
X13408962Y-11480798D02*
X12951760Y-11023596D01*
X15875000Y-12700000D02*
X15170709Y-11995709D01*
X14032380Y-11480798D02*
X13408962Y-11480798D01*
X14547291Y-11995709D02*
X14032380Y-11480798D01*
X15170709Y-11995709D02*
X14547291Y-11995709D01*
X8026404Y-11023596D02*
X7620000Y-11430000D01*
X7620000Y-11430000D02*
X4191000Y-11430000D01*
X12951760Y-11023596D02*
X8026404Y-11023596D01*
X13219582Y-11938000D02*
X12762380Y-11480798D01*
X4191000Y-12700000D02*
X7493000Y-12700000D01*
X8712202Y-11480798D02*
X7493000Y-12700000D01*
X13843000Y-11938000D02*
X13219582Y-11938000D01*
X14605000Y-12700000D02*
X13843000Y-11938000D01*
X12762380Y-11480798D02*
X8712202Y-11480798D01*
X8901582Y-11938000D02*
X8001000Y-12838582D01*
X8001000Y-12838582D02*
X8001000Y-13589000D01*
X8001000Y-13589000D02*
X7620000Y-13970000D01*
X7620000Y-13970000D02*
X4191000Y-13970000D01*
X13335000Y-12700000D02*
X12573000Y-11938000D01*
X12573000Y-11938000D02*
X8901582Y-11938000D01*
X11760202Y-12395202D02*
X9090962Y-12395202D01*
X9090962Y-12395202D02*
X8458202Y-13027962D01*
X8458202Y-13027962D02*
X8458202Y-14401798D01*
X8458202Y-14401798D02*
X7620000Y-15240000D01*
X7620000Y-15240000D02*
X4191000Y-15240000D01*
X12065000Y-12700000D02*
X11760202Y-12395202D01*
X12700000Y-22479000D02*
X12700000Y-21601582D01*
X12700000Y-21601582D02*
X12237007Y-21138589D01*
X12237007Y-21138589D02*
X12237007Y-20642171D01*
X12237007Y-20642171D02*
X9832038Y-18237202D01*
X9832038Y-18237202D02*
X8432798Y-18237202D01*
X8432798Y-18237202D02*
X7620000Y-19050000D01*
X7620000Y-19050000D02*
X4191000Y-19050000D01*
X13462000Y-23241000D02*
X13462000Y-21717000D01*
X13462000Y-21717000D02*
X12694209Y-20949209D01*
X12694209Y-20949209D02*
X12694209Y-20452791D01*
X12694209Y-20452791D02*
X10021418Y-17780000D01*
X10021418Y-17780000D02*
X4191000Y-17780000D01*
X14351000Y-22098000D02*
X14351000Y-21959418D01*
X14351000Y-21959418D02*
X13151411Y-20759829D01*
X13151411Y-20759829D02*
X13151411Y-20263411D01*
X13151411Y-20263411D02*
X10210798Y-17322798D01*
X10210798Y-17322798D02*
X8432798Y-17322798D01*
X8432798Y-17322798D02*
X7620000Y-16510000D01*
X7620000Y-16510000D02*
X4191000Y-16510000D01*
D18*
X36322000Y-15748000D02*
X42672000Y-9398000D01*
X42672000Y-9398000D02*
X42672000Y-1524000D01*
X23749000Y-25019000D02*
X25400000Y-23368000D01*
X28702000Y-23368000D02*
X25400000Y-23368000D01*
X28702000Y-23368000D02*
X36322000Y-15748000D01*
X23749000Y-25019000D02*
X12065000Y-25019000D01*
X36322000Y-15748000D02*
X32385000Y-19685000D01*
X32385000Y-19685000D02*
X32385000Y-25146000D01*
X36322000Y-15748000D02*
X29972000Y-9398000D01*
X29972000Y-9398000D02*
X25654000Y-9398000D01*
X11557000Y-9144000D02*
X11557000Y-8255000D01*
D19*
X29972000Y-9398000D02*
X25654000Y-9398000D01*
D18*
X23241000Y-6985000D02*
X25654000Y-9398000D01*
X12827000Y-6985000D02*
X23241000Y-6985000D01*
X11557000Y-8255000D02*
X12827000Y-6985000D01*
D19*
X32385000Y-25146000D02*
X32385000Y-19685000D01*
X11938000Y-6286500D02*
X11874500Y-6350000D01*
X12573000Y-5651500D02*
X11938000Y-6286500D01*
X11874500Y-6350000D02*
X4191000Y-6350000D01*
X15367000Y-5651500D02*
X12573000Y-5651500D01*
X12573000Y-5651500D02*
X12636500Y-5651500D01*
X8382000Y-3810000D02*
X4191000Y-3810000D01*
X22288500Y-3238500D02*
X22288500Y-2603500D01*
X22288500Y-3238500D02*
X21209000Y-4318000D01*
X21209000Y-4318000D02*
X19685000Y-4318000D01*
X19685000Y-4318000D02*
X18748000Y-3381000D01*
X18748000Y-2568000D02*
X18748000Y-3381000D01*
X8255000Y-5080000D02*
X4191000Y-5080000D01*
X8318500Y-5016500D02*
X8255000Y-5080000D01*
X15367000Y-9906000D02*
X15367000Y-9271000D01*
X18415000Y-12700000D02*
X17583709Y-11868709D01*
X17583709Y-11868709D02*
X16960291Y-11868709D01*
X16960291Y-11868709D02*
X16635880Y-11544298D01*
X16635880Y-11544298D02*
X16012462Y-11544298D01*
X16012462Y-11544298D02*
X15367000Y-10898836D01*
X15367000Y-10898836D02*
X15367000Y-9906000D01*
X26035000Y-16637000D02*
X26035000Y-10795000D01*
X7620000Y-25400000D02*
X8128000Y-25908000D01*
X8128000Y-25908000D02*
X8128000Y-27178000D01*
X8128000Y-27178000D02*
X9779000Y-28829000D01*
X9779000Y-28829000D02*
X28575000Y-28829000D01*
X28575000Y-28829000D02*
X29845000Y-27559000D01*
X7620000Y-25400000D02*
X4191000Y-25400000D01*
D18*
X30416500Y-6032500D02*
X32131000Y-4318000D01*
X32131000Y-4318000D02*
X36322000Y-4318000D01*
D19*
X34544000Y-4318000D02*
X36322000Y-4318000D01*
X32131000Y-4318000D02*
X36322000Y-4318000D01*
X12220000Y-2568000D02*
X11557000Y-1905000D01*
X12748000Y-2568000D02*
X12220000Y-2568000D01*
X18542000Y-5969000D02*
X17653000Y-5969000D01*
X14248000Y-3707000D02*
X14248000Y-2568000D01*
X14859000Y-4318000D02*
X14248000Y-3707000D01*
X16002000Y-4318000D02*
X14859000Y-4318000D01*
X17653000Y-5969000D02*
X16002000Y-4318000D01*
X17874000Y-8034000D02*
X17907000Y-8001000D01*
X17874000Y-8034000D02*
X14097000Y-8034000D01*
D20*
G36*
X46178000Y-28659551D02*
X46164337Y-28728234D01*
X46149476Y-28750476D01*
X46127236Y-28765337D01*
X46058547Y-28779000D01*
X39549677Y-28779000D01*
X39624000Y-28599571D01*
X39624000Y-28296429D01*
X39624000Y-25756429D01*
X39624000Y-5739571D01*
X39624000Y-5436429D01*
X39624000Y-2896429D01*
X39507992Y-2616362D01*
X39293638Y-2402008D01*
X39013571Y-2286000D01*
X38710429Y-2286000D01*
X33630429Y-2286000D01*
X33350362Y-2402008D01*
X33136008Y-2616362D01*
X33020000Y-2896429D01*
X33020000Y-3199571D01*
X33020000Y-3784600D01*
X32131000Y-3784600D01*
X31926877Y-3825203D01*
X31753829Y-3940829D01*
X30360706Y-5333951D01*
X30278169Y-5333879D01*
X30021349Y-5439996D01*
X29824686Y-5636315D01*
X29718122Y-5892950D01*
X29717879Y-6170831D01*
X29823996Y-6427651D01*
X30020315Y-6624314D01*
X30276950Y-6730878D01*
X30554831Y-6731121D01*
X30811651Y-6625004D01*
X31008314Y-6428685D01*
X31114878Y-6172050D01*
X31114951Y-6088390D01*
X32351942Y-4851400D01*
X33020000Y-4851400D01*
X33020000Y-5739571D01*
X33136008Y-6019638D01*
X33350362Y-6233992D01*
X33630429Y-6350000D01*
X33933571Y-6350000D01*
X39013571Y-6350000D01*
X39293638Y-6233992D01*
X39507992Y-6019638D01*
X39624000Y-5739571D01*
X39624000Y-25756429D01*
X39507992Y-25476362D01*
X39293638Y-25262008D01*
X39013571Y-25146000D01*
X38710429Y-25146000D01*
X33630429Y-25146000D01*
X33350362Y-25262008D01*
X33136008Y-25476362D01*
X33020000Y-25756429D01*
X33020000Y-26059571D01*
X33020000Y-28599571D01*
X33094322Y-28779000D01*
X29325460Y-28779000D01*
X29846958Y-28257501D01*
X29983331Y-28257621D01*
X30240151Y-28151504D01*
X30436814Y-27955185D01*
X30543378Y-27698550D01*
X30543621Y-27420669D01*
X30437504Y-27163849D01*
X30241185Y-26967186D01*
X29984550Y-26860622D01*
X29706669Y-26860379D01*
X29449849Y-26966496D01*
X29253186Y-27162815D01*
X29146622Y-27419450D01*
X29146501Y-27557038D01*
X28369840Y-28333700D01*
X23674759Y-28333700D01*
X26544958Y-25463501D01*
X26681331Y-25463621D01*
X26938151Y-25357504D01*
X27134814Y-25161185D01*
X27241378Y-24904550D01*
X27241621Y-24626669D01*
X27135504Y-24369849D01*
X26939185Y-24173186D01*
X26733621Y-24087828D01*
X26733621Y-16498669D01*
X26627504Y-16241849D01*
X26530300Y-16144474D01*
X26530300Y-11287530D01*
X26626814Y-11191185D01*
X26733378Y-10934550D01*
X26733621Y-10656669D01*
X26627504Y-10399849D01*
X26431185Y-10203186D01*
X26174550Y-10096622D01*
X25896669Y-10096379D01*
X25639849Y-10202496D01*
X25443186Y-10398815D01*
X25336622Y-10655450D01*
X25336379Y-10933331D01*
X25442496Y-11190151D01*
X25539700Y-11287525D01*
X25539700Y-16144469D01*
X25443186Y-16240815D01*
X25336622Y-16497450D01*
X25336379Y-16775331D01*
X25442496Y-17032151D01*
X25638815Y-17228814D01*
X25895450Y-17335378D01*
X26173331Y-17335621D01*
X26430151Y-17229504D01*
X26626814Y-17033185D01*
X26733378Y-16776550D01*
X26733621Y-16498669D01*
X26733621Y-24087828D01*
X26682550Y-24066622D01*
X26404669Y-24066379D01*
X26147849Y-24172496D01*
X25951186Y-24368815D01*
X25844622Y-24625450D01*
X25844501Y-24763038D01*
X24193621Y-26413918D01*
X24193621Y-17133669D01*
X24087504Y-16876849D01*
X23891185Y-16680186D01*
X23634550Y-16573622D01*
X23496961Y-16573501D01*
X21653501Y-14730041D01*
X21653621Y-14593669D01*
X21547504Y-14336849D01*
X21351185Y-14140186D01*
X21094550Y-14033622D01*
X20816669Y-14033379D01*
X20559849Y-14139496D01*
X20363186Y-14335815D01*
X20256622Y-14592450D01*
X20256379Y-14870331D01*
X20362496Y-15127151D01*
X20558815Y-15323814D01*
X20815450Y-15430378D01*
X20953038Y-15430498D01*
X22796498Y-17273958D01*
X22796379Y-17410331D01*
X22902496Y-17667151D01*
X23098815Y-17863814D01*
X23355450Y-17970378D01*
X23633331Y-17970621D01*
X23890151Y-17864504D01*
X24086814Y-17668185D01*
X24193378Y-17411550D01*
X24193621Y-17133669D01*
X24193621Y-26413918D01*
X22731042Y-27876498D01*
X12003457Y-27876498D01*
X11176001Y-27049041D01*
X11176121Y-26912669D01*
X11070004Y-26655849D01*
X10873685Y-26459186D01*
X10617050Y-26352622D01*
X10339169Y-26352379D01*
X10082349Y-26458496D01*
X9885686Y-26654815D01*
X9779122Y-26911450D01*
X9778879Y-27189331D01*
X9884996Y-27446151D01*
X10081315Y-27642814D01*
X10337950Y-27749378D01*
X10475538Y-27749498D01*
X11059740Y-28333700D01*
X9984160Y-28333700D01*
X8623300Y-26972840D01*
X8623300Y-25908000D01*
X8585598Y-25718457D01*
X8585597Y-25718456D01*
X8478230Y-25557770D01*
X7970230Y-25049770D01*
X7809544Y-24942402D01*
X7747000Y-24929961D01*
X7747000Y-24816214D01*
X7725786Y-24764999D01*
X7747000Y-24713785D01*
X7747000Y-24562214D01*
X7747000Y-23546214D01*
X7725786Y-23494999D01*
X7747000Y-23443785D01*
X7747000Y-23292214D01*
X7747000Y-22276214D01*
X7725786Y-22224999D01*
X7747000Y-22173785D01*
X7747000Y-22022214D01*
X7747000Y-21006214D01*
X7725786Y-20954999D01*
X7747000Y-20903785D01*
X7747000Y-20752214D01*
X7747000Y-19736214D01*
X7725786Y-19684999D01*
X7747000Y-19633785D01*
X7747000Y-19520038D01*
X7809543Y-19507598D01*
X7809544Y-19507598D01*
X7970230Y-19400230D01*
X8637958Y-18732502D01*
X9626878Y-18732502D01*
X11741707Y-20847331D01*
X11741707Y-21138589D01*
X11779409Y-21328133D01*
X11886777Y-21488819D01*
X12204700Y-21806742D01*
X12204700Y-21986469D01*
X12108186Y-22082815D01*
X12001622Y-22339450D01*
X12001379Y-22617331D01*
X12107496Y-22874151D01*
X12303815Y-23070814D01*
X12560450Y-23177378D01*
X12763555Y-23177555D01*
X12763379Y-23379331D01*
X12869496Y-23636151D01*
X13065815Y-23832814D01*
X13322450Y-23939378D01*
X13600331Y-23939621D01*
X13857151Y-23833504D01*
X14053814Y-23637185D01*
X14160378Y-23380550D01*
X14160621Y-23102669D01*
X14054504Y-22845849D01*
X13957300Y-22748474D01*
X13957300Y-22690845D01*
X14211450Y-22796378D01*
X14489331Y-22796621D01*
X14746151Y-22690504D01*
X14942814Y-22494185D01*
X15049378Y-22237550D01*
X15049621Y-21959669D01*
X14943504Y-21702849D01*
X14747185Y-21506186D01*
X14492455Y-21400413D01*
X13646711Y-20554669D01*
X13646711Y-20263411D01*
X13609009Y-20073868D01*
X13501641Y-19913181D01*
X10561028Y-16972568D01*
X10400342Y-16865200D01*
X10210798Y-16827498D01*
X8637958Y-16827498D01*
X7970230Y-16159770D01*
X7809544Y-16052402D01*
X7747000Y-16039961D01*
X7747000Y-15926214D01*
X7725786Y-15874999D01*
X7747000Y-15823785D01*
X7747000Y-15710038D01*
X7809543Y-15697598D01*
X7809544Y-15697598D01*
X7970230Y-15590230D01*
X8808432Y-14752028D01*
X8915800Y-14591341D01*
X8953502Y-14401798D01*
X8953502Y-13233122D01*
X9296122Y-12890502D01*
X11387935Y-12890502D01*
X11472496Y-13095151D01*
X11668815Y-13291814D01*
X11925450Y-13398378D01*
X12203331Y-13398621D01*
X12460151Y-13292504D01*
X12656814Y-13096185D01*
X12699974Y-12992242D01*
X12742496Y-13095151D01*
X12938815Y-13291814D01*
X13195450Y-13398378D01*
X13473331Y-13398621D01*
X13730151Y-13292504D01*
X13926814Y-13096185D01*
X13969974Y-12992242D01*
X14012496Y-13095151D01*
X14208815Y-13291814D01*
X14465450Y-13398378D01*
X14743331Y-13398621D01*
X15000151Y-13292504D01*
X15196814Y-13096185D01*
X15239974Y-12992242D01*
X15282496Y-13095151D01*
X15478815Y-13291814D01*
X15735450Y-13398378D01*
X16013331Y-13398621D01*
X16270151Y-13292504D01*
X16466814Y-13096185D01*
X16509974Y-12992242D01*
X16552496Y-13095151D01*
X16748815Y-13291814D01*
X17005450Y-13398378D01*
X17283331Y-13398621D01*
X17540151Y-13292504D01*
X17736814Y-13096185D01*
X17779974Y-12992242D01*
X17822496Y-13095151D01*
X18018815Y-13291814D01*
X18275450Y-13398378D01*
X18553331Y-13398621D01*
X18810151Y-13292504D01*
X19006814Y-13096185D01*
X19113378Y-12839550D01*
X19113621Y-12561669D01*
X19007504Y-12304849D01*
X18811185Y-12108186D01*
X18605621Y-12022828D01*
X18605621Y-7862669D01*
X18499504Y-7605849D01*
X18303185Y-7409186D01*
X18046550Y-7302622D01*
X17768669Y-7302379D01*
X17511849Y-7408496D01*
X17381416Y-7538700D01*
X14589530Y-7538700D01*
X14493185Y-7442186D01*
X14236550Y-7335622D01*
X13958669Y-7335379D01*
X13701849Y-7441496D01*
X13505186Y-7637815D01*
X13398622Y-7894450D01*
X13398379Y-8172331D01*
X13504496Y-8429151D01*
X13700815Y-8625814D01*
X13957450Y-8732378D01*
X14235331Y-8732621D01*
X14492151Y-8626504D01*
X14589525Y-8529300D01*
X17447412Y-8529300D01*
X17510815Y-8592814D01*
X17767450Y-8699378D01*
X18045331Y-8699621D01*
X18302151Y-8593504D01*
X18498814Y-8397185D01*
X18605378Y-8140550D01*
X18605621Y-7862669D01*
X18605621Y-12022828D01*
X18554550Y-12001622D01*
X18416961Y-12001501D01*
X17933939Y-11518479D01*
X17773253Y-11411111D01*
X17583709Y-11373409D01*
X17165451Y-11373409D01*
X16986110Y-11194068D01*
X16825424Y-11086700D01*
X16635880Y-11048998D01*
X16217622Y-11048998D01*
X15862300Y-10693676D01*
X15862300Y-9906000D01*
X15862300Y-9763530D01*
X15958814Y-9667185D01*
X16065378Y-9410550D01*
X16065621Y-9132669D01*
X15959504Y-8875849D01*
X15763185Y-8679186D01*
X15506550Y-8572622D01*
X15228669Y-8572379D01*
X14971849Y-8678496D01*
X14775186Y-8874815D01*
X14668622Y-9131450D01*
X14668379Y-9409331D01*
X14774496Y-9666151D01*
X14871700Y-9763525D01*
X14871700Y-9906000D01*
X14871700Y-10898836D01*
X14890133Y-10991509D01*
X14571990Y-10673366D01*
X14411304Y-10565998D01*
X14221760Y-10528296D01*
X13803502Y-10528296D01*
X13491370Y-10216164D01*
X13330684Y-10108796D01*
X13141140Y-10071094D01*
X8231554Y-10071094D01*
X7970230Y-9809770D01*
X7809544Y-9702402D01*
X7747000Y-9689961D01*
X7747000Y-9576214D01*
X7725786Y-9524999D01*
X7747000Y-9473785D01*
X7747000Y-9322214D01*
X7747000Y-8306214D01*
X7725786Y-8254999D01*
X7747000Y-8203785D01*
X7747000Y-8052214D01*
X7747000Y-7036214D01*
X7725786Y-6984999D01*
X7747000Y-6933785D01*
X7747000Y-6845300D01*
X11874500Y-6845300D01*
X12064043Y-6807598D01*
X12064044Y-6807598D01*
X12224730Y-6700230D01*
X12288230Y-6636730D01*
X12778160Y-6146800D01*
X14874469Y-6146800D01*
X14970815Y-6243314D01*
X15227450Y-6349878D01*
X15505331Y-6350121D01*
X15762151Y-6244004D01*
X15958814Y-6047685D01*
X16065378Y-5791050D01*
X16065621Y-5513169D01*
X15959504Y-5256349D01*
X15763185Y-5059686D01*
X15506550Y-4953122D01*
X15228669Y-4952879D01*
X14971849Y-5058996D01*
X14874474Y-5156200D01*
X12636500Y-5156200D01*
X12573000Y-5156200D01*
X12383457Y-5193902D01*
X12222770Y-5301270D01*
X11979000Y-5545040D01*
X11979000Y-4942214D01*
X11920996Y-4802180D01*
X11813819Y-4695004D01*
X11673785Y-4637000D01*
X11522214Y-4637000D01*
X10522214Y-4637000D01*
X10382180Y-4695004D01*
X10275004Y-4802181D01*
X10217000Y-4942215D01*
X10217000Y-5093786D01*
X10217000Y-5854700D01*
X7747000Y-5854700D01*
X7747000Y-5766214D01*
X7725786Y-5714999D01*
X7747000Y-5663785D01*
X7747000Y-5575300D01*
X7889358Y-5575300D01*
X7922315Y-5608314D01*
X8178950Y-5714878D01*
X8456831Y-5715121D01*
X8713651Y-5609004D01*
X8910314Y-5412685D01*
X9016878Y-5156050D01*
X9017121Y-4878169D01*
X8911004Y-4621349D01*
X8717249Y-4427255D01*
X8777151Y-4402504D01*
X8973814Y-4206185D01*
X9080378Y-3949550D01*
X9080621Y-3671669D01*
X8974504Y-3414849D01*
X8778185Y-3218186D01*
X8521550Y-3111622D01*
X8243669Y-3111379D01*
X7986849Y-3217496D01*
X7889474Y-3314700D01*
X7747000Y-3314700D01*
X7747000Y-3226214D01*
X7725786Y-3174999D01*
X7747000Y-3123785D01*
X7747000Y-3073400D01*
X8255000Y-3073400D01*
X8459123Y-3032797D01*
X8632171Y-2917171D01*
X9872942Y-1676400D01*
X10895598Y-1676400D01*
X10858622Y-1765450D01*
X10858379Y-2043331D01*
X10964496Y-2300151D01*
X11101105Y-2437000D01*
X10522214Y-2437000D01*
X10382180Y-2495004D01*
X10275004Y-2602181D01*
X10217000Y-2742215D01*
X10217000Y-2893786D01*
X10217000Y-3693786D01*
X10275004Y-3833820D01*
X10382181Y-3940996D01*
X10522215Y-3999000D01*
X10673786Y-3999000D01*
X11673786Y-3999000D01*
X11813820Y-3940996D01*
X11920996Y-3833819D01*
X11979000Y-3693785D01*
X11979000Y-3542214D01*
X11979000Y-2991215D01*
X12017000Y-3016606D01*
X12017000Y-3393786D01*
X12075004Y-3533820D01*
X12182181Y-3640996D01*
X12322215Y-3699000D01*
X12473786Y-3699000D01*
X12691842Y-3699000D01*
X12543923Y-3846662D01*
X12417145Y-4151979D01*
X12416856Y-4482571D01*
X12543102Y-4788109D01*
X12776662Y-5022077D01*
X13081979Y-5148855D01*
X13412571Y-5149144D01*
X13718109Y-5022898D01*
X13952077Y-4789338D01*
X14078855Y-4484021D01*
X14079069Y-4238529D01*
X14508770Y-4668230D01*
X14669456Y-4775597D01*
X14669457Y-4775598D01*
X14859000Y-4813300D01*
X15796840Y-4813300D01*
X17302770Y-6319230D01*
X17463457Y-6426598D01*
X17653000Y-6464300D01*
X18049469Y-6464300D01*
X18145815Y-6560814D01*
X18402450Y-6667378D01*
X18680331Y-6667621D01*
X18937151Y-6561504D01*
X19133814Y-6365185D01*
X19240378Y-6108550D01*
X19240621Y-5830669D01*
X19134504Y-5573849D01*
X18938185Y-5377186D01*
X18681550Y-5270622D01*
X18403669Y-5270379D01*
X18146849Y-5376496D01*
X18049474Y-5473700D01*
X17858160Y-5473700D01*
X16352230Y-3967770D01*
X16191544Y-3860402D01*
X16002000Y-3822700D01*
X15064160Y-3822700D01*
X14848137Y-3606677D01*
X14920996Y-3533819D01*
X14979000Y-3393785D01*
X14979000Y-3242214D01*
X14979000Y-1930400D01*
X16517000Y-1930400D01*
X16517000Y-3393786D01*
X16575004Y-3533820D01*
X16682181Y-3640996D01*
X16822215Y-3699000D01*
X16973786Y-3699000D01*
X17673786Y-3699000D01*
X17795372Y-3648637D01*
X17575695Y-3867931D01*
X17454638Y-4159471D01*
X17454362Y-4475145D01*
X17574911Y-4766895D01*
X17797931Y-4990305D01*
X18089471Y-5111362D01*
X18405145Y-5111638D01*
X18696895Y-4991089D01*
X18920305Y-4768069D01*
X19041362Y-4476529D01*
X19041450Y-4374910D01*
X19334770Y-4668230D01*
X19495456Y-4775598D01*
X19495457Y-4775598D01*
X19583978Y-4793206D01*
X19575004Y-4802181D01*
X19517000Y-4942215D01*
X19517000Y-5093786D01*
X19517000Y-5893786D01*
X19575004Y-6033820D01*
X19682181Y-6140996D01*
X19822215Y-6199000D01*
X19973786Y-6199000D01*
X20973786Y-6199000D01*
X21113820Y-6140996D01*
X21220996Y-6033819D01*
X21279000Y-5893785D01*
X21279000Y-5742214D01*
X21279000Y-4942214D01*
X21224338Y-4810249D01*
X21398543Y-4775598D01*
X21398544Y-4775598D01*
X21559230Y-4668230D01*
X22638730Y-3588730D01*
X22746098Y-3428043D01*
X22783800Y-3238500D01*
X22783800Y-3096030D01*
X22880314Y-2999685D01*
X22986878Y-2743050D01*
X22987121Y-2465169D01*
X22881004Y-2208349D01*
X22684685Y-2011686D01*
X22428050Y-1905122D01*
X22150169Y-1904879D01*
X21893349Y-2010996D01*
X21696686Y-2207315D01*
X21590122Y-2463950D01*
X21589879Y-2741831D01*
X21695996Y-2998651D01*
X21761884Y-3064655D01*
X21279000Y-3547540D01*
X21279000Y-3542214D01*
X21279000Y-2742214D01*
X21220996Y-2602180D01*
X21113819Y-2495004D01*
X21071143Y-2477327D01*
X21145378Y-2298550D01*
X21145621Y-2020669D01*
X21039504Y-1763849D01*
X20980400Y-1704641D01*
X20980400Y-1651000D01*
X20939797Y-1446877D01*
X20939797Y-1446876D01*
X20824171Y-1273829D01*
X20570171Y-1019829D01*
X20397123Y-904203D01*
X20193000Y-863600D01*
X17526000Y-863600D01*
X17321876Y-904203D01*
X17252563Y-950516D01*
X17248000Y-953565D01*
X17174123Y-904203D01*
X16970000Y-863600D01*
X12539942Y-863600D01*
X12442171Y-765829D01*
X12269123Y-650203D01*
X12065000Y-609600D01*
X9652000Y-609600D01*
X9447876Y-650203D01*
X9274829Y-765829D01*
X8034058Y-2006600D01*
X7747000Y-2006600D01*
X7747000Y-1956214D01*
X7688996Y-1816180D01*
X7581819Y-1709004D01*
X7441785Y-1651000D01*
X7290214Y-1651000D01*
X7143847Y-1651000D01*
X7291854Y-1589694D01*
X7456660Y-1479574D01*
X7456662Y-1479573D01*
X7575573Y-1360661D01*
X7575574Y-1360660D01*
X7575574Y-1360658D01*
X7685694Y-1195854D01*
X7750049Y-1040487D01*
X7750050Y-1040487D01*
X7788719Y-846083D01*
X7788718Y-803632D01*
X7797000Y-762000D01*
X7797000Y-550452D01*
X7810662Y-481763D01*
X7825523Y-459523D01*
X7847765Y-444662D01*
X7916448Y-431000D01*
X46058547Y-431000D01*
X46127236Y-444662D01*
X46149476Y-459523D01*
X46164337Y-481765D01*
X46178000Y-550448D01*
X46178000Y-28659551D01*
X46178000Y-28659551D01*
G37*
X46178000Y-28659551D02*
X46164337Y-28728234D01*
X46149476Y-28750476D01*
X46127236Y-28765337D01*
X46058547Y-28779000D01*
X39549677Y-28779000D01*
X39624000Y-28599571D01*
X39624000Y-28296429D01*
X39624000Y-25756429D01*
X39624000Y-5739571D01*
X39624000Y-5436429D01*
X39624000Y-2896429D01*
X39507992Y-2616362D01*
X39293638Y-2402008D01*
X39013571Y-2286000D01*
X38710429Y-2286000D01*
X33630429Y-2286000D01*
X33350362Y-2402008D01*
X33136008Y-2616362D01*
X33020000Y-2896429D01*
X33020000Y-3199571D01*
X33020000Y-3784600D01*
X32131000Y-3784600D01*
X31926877Y-3825203D01*
X31753829Y-3940829D01*
X30360706Y-5333951D01*
X30278169Y-5333879D01*
X30021349Y-5439996D01*
X29824686Y-5636315D01*
X29718122Y-5892950D01*
X29717879Y-6170831D01*
X29823996Y-6427651D01*
X30020315Y-6624314D01*
X30276950Y-6730878D01*
X30554831Y-6731121D01*
X30811651Y-6625004D01*
X31008314Y-6428685D01*
X31114878Y-6172050D01*
X31114951Y-6088390D01*
X32351942Y-4851400D01*
X33020000Y-4851400D01*
X33020000Y-5739571D01*
X33136008Y-6019638D01*
X33350362Y-6233992D01*
X33630429Y-6350000D01*
X33933571Y-6350000D01*
X39013571Y-6350000D01*
X39293638Y-6233992D01*
X39507992Y-6019638D01*
X39624000Y-5739571D01*
X39624000Y-25756429D01*
X39507992Y-25476362D01*
X39293638Y-25262008D01*
X39013571Y-25146000D01*
X38710429Y-25146000D01*
X33630429Y-25146000D01*
X33350362Y-25262008D01*
X33136008Y-25476362D01*
X33020000Y-25756429D01*
X33020000Y-26059571D01*
X33020000Y-28599571D01*
X33094322Y-28779000D01*
X29325460Y-28779000D01*
X29846958Y-28257501D01*
X29983331Y-28257621D01*
X30240151Y-28151504D01*
X30436814Y-27955185D01*
X30543378Y-27698550D01*
X30543621Y-27420669D01*
X30437504Y-27163849D01*
X30241185Y-26967186D01*
X29984550Y-26860622D01*
X29706669Y-26860379D01*
X29449849Y-26966496D01*
X29253186Y-27162815D01*
X29146622Y-27419450D01*
X29146501Y-27557038D01*
X28369840Y-28333700D01*
X23674759Y-28333700D01*
X26544958Y-25463501D01*
X26681331Y-25463621D01*
X26938151Y-25357504D01*
X27134814Y-25161185D01*
X27241378Y-24904550D01*
X27241621Y-24626669D01*
X27135504Y-24369849D01*
X26939185Y-24173186D01*
X26733621Y-24087828D01*
X26733621Y-16498669D01*
X26627504Y-16241849D01*
X26530300Y-16144474D01*
X26530300Y-11287530D01*
X26626814Y-11191185D01*
X26733378Y-10934550D01*
X26733621Y-10656669D01*
X26627504Y-10399849D01*
X26431185Y-10203186D01*
X26174550Y-10096622D01*
X25896669Y-10096379D01*
X25639849Y-10202496D01*
X25443186Y-10398815D01*
X25336622Y-10655450D01*
X25336379Y-10933331D01*
X25442496Y-11190151D01*
X25539700Y-11287525D01*
X25539700Y-16144469D01*
X25443186Y-16240815D01*
X25336622Y-16497450D01*
X25336379Y-16775331D01*
X25442496Y-17032151D01*
X25638815Y-17228814D01*
X25895450Y-17335378D01*
X26173331Y-17335621D01*
X26430151Y-17229504D01*
X26626814Y-17033185D01*
X26733378Y-16776550D01*
X26733621Y-16498669D01*
X26733621Y-24087828D01*
X26682550Y-24066622D01*
X26404669Y-24066379D01*
X26147849Y-24172496D01*
X25951186Y-24368815D01*
X25844622Y-24625450D01*
X25844501Y-24763038D01*
X24193621Y-26413918D01*
X24193621Y-17133669D01*
X24087504Y-16876849D01*
X23891185Y-16680186D01*
X23634550Y-16573622D01*
X23496961Y-16573501D01*
X21653501Y-14730041D01*
X21653621Y-14593669D01*
X21547504Y-14336849D01*
X21351185Y-14140186D01*
X21094550Y-14033622D01*
X20816669Y-14033379D01*
X20559849Y-14139496D01*
X20363186Y-14335815D01*
X20256622Y-14592450D01*
X20256379Y-14870331D01*
X20362496Y-15127151D01*
X20558815Y-15323814D01*
X20815450Y-15430378D01*
X20953038Y-15430498D01*
X22796498Y-17273958D01*
X22796379Y-17410331D01*
X22902496Y-17667151D01*
X23098815Y-17863814D01*
X23355450Y-17970378D01*
X23633331Y-17970621D01*
X23890151Y-17864504D01*
X24086814Y-17668185D01*
X24193378Y-17411550D01*
X24193621Y-17133669D01*
X24193621Y-26413918D01*
X22731042Y-27876498D01*
X12003457Y-27876498D01*
X11176001Y-27049041D01*
X11176121Y-26912669D01*
X11070004Y-26655849D01*
X10873685Y-26459186D01*
X10617050Y-26352622D01*
X10339169Y-26352379D01*
X10082349Y-26458496D01*
X9885686Y-26654815D01*
X9779122Y-26911450D01*
X9778879Y-27189331D01*
X9884996Y-27446151D01*
X10081315Y-27642814D01*
X10337950Y-27749378D01*
X10475538Y-27749498D01*
X11059740Y-28333700D01*
X9984160Y-28333700D01*
X8623300Y-26972840D01*
X8623300Y-25908000D01*
X8585598Y-25718457D01*
X8585597Y-25718456D01*
X8478230Y-25557770D01*
X7970230Y-25049770D01*
X7809544Y-24942402D01*
X7747000Y-24929961D01*
X7747000Y-24816214D01*
X7725786Y-24764999D01*
X7747000Y-24713785D01*
X7747000Y-24562214D01*
X7747000Y-23546214D01*
X7725786Y-23494999D01*
X7747000Y-23443785D01*
X7747000Y-23292214D01*
X7747000Y-22276214D01*
X7725786Y-22224999D01*
X7747000Y-22173785D01*
X7747000Y-22022214D01*
X7747000Y-21006214D01*
X7725786Y-20954999D01*
X7747000Y-20903785D01*
X7747000Y-20752214D01*
X7747000Y-19736214D01*
X7725786Y-19684999D01*
X7747000Y-19633785D01*
X7747000Y-19520038D01*
X7809543Y-19507598D01*
X7809544Y-19507598D01*
X7970230Y-19400230D01*
X8637958Y-18732502D01*
X9626878Y-18732502D01*
X11741707Y-20847331D01*
X11741707Y-21138589D01*
X11779409Y-21328133D01*
X11886777Y-21488819D01*
X12204700Y-21806742D01*
X12204700Y-21986469D01*
X12108186Y-22082815D01*
X12001622Y-22339450D01*
X12001379Y-22617331D01*
X12107496Y-22874151D01*
X12303815Y-23070814D01*
X12560450Y-23177378D01*
X12763555Y-23177555D01*
X12763379Y-23379331D01*
X12869496Y-23636151D01*
X13065815Y-23832814D01*
X13322450Y-23939378D01*
X13600331Y-23939621D01*
X13857151Y-23833504D01*
X14053814Y-23637185D01*
X14160378Y-23380550D01*
X14160621Y-23102669D01*
X14054504Y-22845849D01*
X13957300Y-22748474D01*
X13957300Y-22690845D01*
X14211450Y-22796378D01*
X14489331Y-22796621D01*
X14746151Y-22690504D01*
X14942814Y-22494185D01*
X15049378Y-22237550D01*
X15049621Y-21959669D01*
X14943504Y-21702849D01*
X14747185Y-21506186D01*
X14492455Y-21400413D01*
X13646711Y-20554669D01*
X13646711Y-20263411D01*
X13609009Y-20073868D01*
X13501641Y-19913181D01*
X10561028Y-16972568D01*
X10400342Y-16865200D01*
X10210798Y-16827498D01*
X8637958Y-16827498D01*
X7970230Y-16159770D01*
X7809544Y-16052402D01*
X7747000Y-16039961D01*
X7747000Y-15926214D01*
X7725786Y-15874999D01*
X7747000Y-15823785D01*
X7747000Y-15710038D01*
X7809543Y-15697598D01*
X7809544Y-15697598D01*
X7970230Y-15590230D01*
X8808432Y-14752028D01*
X8915800Y-14591341D01*
X8953502Y-14401798D01*
X8953502Y-13233122D01*
X9296122Y-12890502D01*
X11387935Y-12890502D01*
X11472496Y-13095151D01*
X11668815Y-13291814D01*
X11925450Y-13398378D01*
X12203331Y-13398621D01*
X12460151Y-13292504D01*
X12656814Y-13096185D01*
X12699974Y-12992242D01*
X12742496Y-13095151D01*
X12938815Y-13291814D01*
X13195450Y-13398378D01*
X13473331Y-13398621D01*
X13730151Y-13292504D01*
X13926814Y-13096185D01*
X13969974Y-12992242D01*
X14012496Y-13095151D01*
X14208815Y-13291814D01*
X14465450Y-13398378D01*
X14743331Y-13398621D01*
X15000151Y-13292504D01*
X15196814Y-13096185D01*
X15239974Y-12992242D01*
X15282496Y-13095151D01*
X15478815Y-13291814D01*
X15735450Y-13398378D01*
X16013331Y-13398621D01*
X16270151Y-13292504D01*
X16466814Y-13096185D01*
X16509974Y-12992242D01*
X16552496Y-13095151D01*
X16748815Y-13291814D01*
X17005450Y-13398378D01*
X17283331Y-13398621D01*
X17540151Y-13292504D01*
X17736814Y-13096185D01*
X17779974Y-12992242D01*
X17822496Y-13095151D01*
X18018815Y-13291814D01*
X18275450Y-13398378D01*
X18553331Y-13398621D01*
X18810151Y-13292504D01*
X19006814Y-13096185D01*
X19113378Y-12839550D01*
X19113621Y-12561669D01*
X19007504Y-12304849D01*
X18811185Y-12108186D01*
X18605621Y-12022828D01*
X18605621Y-7862669D01*
X18499504Y-7605849D01*
X18303185Y-7409186D01*
X18046550Y-7302622D01*
X17768669Y-7302379D01*
X17511849Y-7408496D01*
X17381416Y-7538700D01*
X14589530Y-7538700D01*
X14493185Y-7442186D01*
X14236550Y-7335622D01*
X13958669Y-7335379D01*
X13701849Y-7441496D01*
X13505186Y-7637815D01*
X13398622Y-7894450D01*
X13398379Y-8172331D01*
X13504496Y-8429151D01*
X13700815Y-8625814D01*
X13957450Y-8732378D01*
X14235331Y-8732621D01*
X14492151Y-8626504D01*
X14589525Y-8529300D01*
X17447412Y-8529300D01*
X17510815Y-8592814D01*
X17767450Y-8699378D01*
X18045331Y-8699621D01*
X18302151Y-8593504D01*
X18498814Y-8397185D01*
X18605378Y-8140550D01*
X18605621Y-7862669D01*
X18605621Y-12022828D01*
X18554550Y-12001622D01*
X18416961Y-12001501D01*
X17933939Y-11518479D01*
X17773253Y-11411111D01*
X17583709Y-11373409D01*
X17165451Y-11373409D01*
X16986110Y-11194068D01*
X16825424Y-11086700D01*
X16635880Y-11048998D01*
X16217622Y-11048998D01*
X15862300Y-10693676D01*
X15862300Y-9906000D01*
X15862300Y-9763530D01*
X15958814Y-9667185D01*
X16065378Y-9410550D01*
X16065621Y-9132669D01*
X15959504Y-8875849D01*
X15763185Y-8679186D01*
X15506550Y-8572622D01*
X15228669Y-8572379D01*
X14971849Y-8678496D01*
X14775186Y-8874815D01*
X14668622Y-9131450D01*
X14668379Y-9409331D01*
X14774496Y-9666151D01*
X14871700Y-9763525D01*
X14871700Y-9906000D01*
X14871700Y-10898836D01*
X14890133Y-10991509D01*
X14571990Y-10673366D01*
X14411304Y-10565998D01*
X14221760Y-10528296D01*
X13803502Y-10528296D01*
X13491370Y-10216164D01*
X13330684Y-10108796D01*
X13141140Y-10071094D01*
X8231554Y-10071094D01*
X7970230Y-9809770D01*
X7809544Y-9702402D01*
X7747000Y-9689961D01*
X7747000Y-9576214D01*
X7725786Y-9524999D01*
X7747000Y-9473785D01*
X7747000Y-9322214D01*
X7747000Y-8306214D01*
X7725786Y-8254999D01*
X7747000Y-8203785D01*
X7747000Y-8052214D01*
X7747000Y-7036214D01*
X7725786Y-6984999D01*
X7747000Y-6933785D01*
X7747000Y-6845300D01*
X11874500Y-6845300D01*
X12064043Y-6807598D01*
X12064044Y-6807598D01*
X12224730Y-6700230D01*
X12288230Y-6636730D01*
X12778160Y-6146800D01*
X14874469Y-6146800D01*
X14970815Y-6243314D01*
X15227450Y-6349878D01*
X15505331Y-6350121D01*
X15762151Y-6244004D01*
X15958814Y-6047685D01*
X16065378Y-5791050D01*
X16065621Y-5513169D01*
X15959504Y-5256349D01*
X15763185Y-5059686D01*
X15506550Y-4953122D01*
X15228669Y-4952879D01*
X14971849Y-5058996D01*
X14874474Y-5156200D01*
X12636500Y-5156200D01*
X12573000Y-5156200D01*
X12383457Y-5193902D01*
X12222770Y-5301270D01*
X11979000Y-5545040D01*
X11979000Y-4942214D01*
X11920996Y-4802180D01*
X11813819Y-4695004D01*
X11673785Y-4637000D01*
X11522214Y-4637000D01*
X10522214Y-4637000D01*
X10382180Y-4695004D01*
X10275004Y-4802181D01*
X10217000Y-4942215D01*
X10217000Y-5093786D01*
X10217000Y-5854700D01*
X7747000Y-5854700D01*
X7747000Y-5766214D01*
X7725786Y-5714999D01*
X7747000Y-5663785D01*
X7747000Y-5575300D01*
X7889358Y-5575300D01*
X7922315Y-5608314D01*
X8178950Y-5714878D01*
X8456831Y-5715121D01*
X8713651Y-5609004D01*
X8910314Y-5412685D01*
X9016878Y-5156050D01*
X9017121Y-4878169D01*
X8911004Y-4621349D01*
X8717249Y-4427255D01*
X8777151Y-4402504D01*
X8973814Y-4206185D01*
X9080378Y-3949550D01*
X9080621Y-3671669D01*
X8974504Y-3414849D01*
X8778185Y-3218186D01*
X8521550Y-3111622D01*
X8243669Y-3111379D01*
X7986849Y-3217496D01*
X7889474Y-3314700D01*
X7747000Y-3314700D01*
X7747000Y-3226214D01*
X7725786Y-3174999D01*
X7747000Y-3123785D01*
X7747000Y-3073400D01*
X8255000Y-3073400D01*
X8459123Y-3032797D01*
X8632171Y-2917171D01*
X9872942Y-1676400D01*
X10895598Y-1676400D01*
X10858622Y-1765450D01*
X10858379Y-2043331D01*
X10964496Y-2300151D01*
X11101105Y-2437000D01*
X10522214Y-2437000D01*
X10382180Y-2495004D01*
X10275004Y-2602181D01*
X10217000Y-2742215D01*
X10217000Y-2893786D01*
X10217000Y-3693786D01*
X10275004Y-3833820D01*
X10382181Y-3940996D01*
X10522215Y-3999000D01*
X10673786Y-3999000D01*
X11673786Y-3999000D01*
X11813820Y-3940996D01*
X11920996Y-3833819D01*
X11979000Y-3693785D01*
X11979000Y-3542214D01*
X11979000Y-2991215D01*
X12017000Y-3016606D01*
X12017000Y-3393786D01*
X12075004Y-3533820D01*
X12182181Y-3640996D01*
X12322215Y-3699000D01*
X12473786Y-3699000D01*
X12691842Y-3699000D01*
X12543923Y-3846662D01*
X12417145Y-4151979D01*
X12416856Y-4482571D01*
X12543102Y-4788109D01*
X12776662Y-5022077D01*
X13081979Y-5148855D01*
X13412571Y-5149144D01*
X13718109Y-5022898D01*
X13952077Y-4789338D01*
X14078855Y-4484021D01*
X14079069Y-4238529D01*
X14508770Y-4668230D01*
X14669456Y-4775597D01*
X14669457Y-4775598D01*
X14859000Y-4813300D01*
X15796840Y-4813300D01*
X17302770Y-6319230D01*
X17463457Y-6426598D01*
X17653000Y-6464300D01*
X18049469Y-6464300D01*
X18145815Y-6560814D01*
X18402450Y-6667378D01*
X18680331Y-6667621D01*
X18937151Y-6561504D01*
X19133814Y-6365185D01*
X19240378Y-6108550D01*
X19240621Y-5830669D01*
X19134504Y-5573849D01*
X18938185Y-5377186D01*
X18681550Y-5270622D01*
X18403669Y-5270379D01*
X18146849Y-5376496D01*
X18049474Y-5473700D01*
X17858160Y-5473700D01*
X16352230Y-3967770D01*
X16191544Y-3860402D01*
X16002000Y-3822700D01*
X15064160Y-3822700D01*
X14848137Y-3606677D01*
X14920996Y-3533819D01*
X14979000Y-3393785D01*
X14979000Y-3242214D01*
X14979000Y-1930400D01*
X16517000Y-1930400D01*
X16517000Y-3393786D01*
X16575004Y-3533820D01*
X16682181Y-3640996D01*
X16822215Y-3699000D01*
X16973786Y-3699000D01*
X17673786Y-3699000D01*
X17795372Y-3648637D01*
X17575695Y-3867931D01*
X17454638Y-4159471D01*
X17454362Y-4475145D01*
X17574911Y-4766895D01*
X17797931Y-4990305D01*
X18089471Y-5111362D01*
X18405145Y-5111638D01*
X18696895Y-4991089D01*
X18920305Y-4768069D01*
X19041362Y-4476529D01*
X19041450Y-4374910D01*
X19334770Y-4668230D01*
X19495456Y-4775598D01*
X19495457Y-4775598D01*
X19583978Y-4793206D01*
X19575004Y-4802181D01*
X19517000Y-4942215D01*
X19517000Y-5093786D01*
X19517000Y-5893786D01*
X19575004Y-6033820D01*
X19682181Y-6140996D01*
X19822215Y-6199000D01*
X19973786Y-6199000D01*
X20973786Y-6199000D01*
X21113820Y-6140996D01*
X21220996Y-6033819D01*
X21279000Y-5893785D01*
X21279000Y-5742214D01*
X21279000Y-4942214D01*
X21224338Y-4810249D01*
X21398543Y-4775598D01*
X21398544Y-4775598D01*
X21559230Y-4668230D01*
X22638730Y-3588730D01*
X22746098Y-3428043D01*
X22783800Y-3238500D01*
X22783800Y-3096030D01*
X22880314Y-2999685D01*
X22986878Y-2743050D01*
X22987121Y-2465169D01*
X22881004Y-2208349D01*
X22684685Y-2011686D01*
X22428050Y-1905122D01*
X22150169Y-1904879D01*
X21893349Y-2010996D01*
X21696686Y-2207315D01*
X21590122Y-2463950D01*
X21589879Y-2741831D01*
X21695996Y-2998651D01*
X21761884Y-3064655D01*
X21279000Y-3547540D01*
X21279000Y-3542214D01*
X21279000Y-2742214D01*
X21220996Y-2602180D01*
X21113819Y-2495004D01*
X21071143Y-2477327D01*
X21145378Y-2298550D01*
X21145621Y-2020669D01*
X21039504Y-1763849D01*
X20980400Y-1704641D01*
X20980400Y-1651000D01*
X20939797Y-1446877D01*
X20939797Y-1446876D01*
X20824171Y-1273829D01*
X20570171Y-1019829D01*
X20397123Y-904203D01*
X20193000Y-863600D01*
X17526000Y-863600D01*
X17321876Y-904203D01*
X17252563Y-950516D01*
X17248000Y-953565D01*
X17174123Y-904203D01*
X16970000Y-863600D01*
X12539942Y-863600D01*
X12442171Y-765829D01*
X12269123Y-650203D01*
X12065000Y-609600D01*
X9652000Y-609600D01*
X9447876Y-650203D01*
X9274829Y-765829D01*
X8034058Y-2006600D01*
X7747000Y-2006600D01*
X7747000Y-1956214D01*
X7688996Y-1816180D01*
X7581819Y-1709004D01*
X7441785Y-1651000D01*
X7290214Y-1651000D01*
X7143847Y-1651000D01*
X7291854Y-1589694D01*
X7456660Y-1479574D01*
X7456662Y-1479573D01*
X7575573Y-1360661D01*
X7575574Y-1360660D01*
X7575574Y-1360658D01*
X7685694Y-1195854D01*
X7750049Y-1040487D01*
X7750050Y-1040487D01*
X7788719Y-846083D01*
X7788718Y-803632D01*
X7797000Y-762000D01*
X7797000Y-550452D01*
X7810662Y-481763D01*
X7825523Y-459523D01*
X7847765Y-444662D01*
X7916448Y-431000D01*
X46058547Y-431000D01*
X46127236Y-444662D01*
X46149476Y-459523D01*
X46164337Y-481765D01*
X46178000Y-550448D01*
X46178000Y-28659551D01*
M02*
