%FSLAX46Y46*%
G04 Gerber Fmt 4.6, Leading zero omitted, Abs format (unit mm)*
G04 Created by KiCad (PCBNEW (2014-10-27 BZR 5228)-product) date 5/1/2015 7:00:26 PM*
%MOMM*%
G01*
G04 APERTURE LIST*
%ADD10C,0.100000*%
%ADD11C,0.200000*%
%ADD12C,0.150000*%
%ADD13R,6.350000X1.016000*%
%ADD14R,7.366000X1.016000*%
%ADD15R,0.406400X1.651000*%
%ADD16R,1.500000X0.600000*%
G04 APERTURE END LIST*
D10*
D11*
X34112200Y-20412200D02*
X33112200Y-21412200D01*
X33112200Y-21412200D02*
X13639800Y-21412200D01*
X13639800Y-21412200D02*
X13639800Y-7797800D01*
X13639800Y-7797800D02*
X34112200Y-7797800D01*
X34112200Y-7797800D02*
X34112200Y-20412200D01*
D12*
X43223000Y-2535000D02*
X43223000Y-2650000D01*
X39073000Y-2535000D02*
X39073000Y-2650000D01*
X39073000Y-11435000D02*
X39073000Y-11320000D01*
X43223000Y-11435000D02*
X43223000Y-11320000D01*
X43223000Y-2535000D02*
X39073000Y-2535000D01*
X43223000Y-11435000D02*
X39073000Y-11435000D01*
X43223000Y-2650000D02*
X44598000Y-2650000D01*
D11*
X11782657Y-13690714D02*
X12754086Y-13690714D01*
X12868371Y-13747857D01*
X12925514Y-13805000D01*
X12982657Y-13919286D01*
X12982657Y-14147857D01*
X12925514Y-14262143D01*
X12868371Y-14319286D01*
X12754086Y-14376429D01*
X11782657Y-14376429D01*
X12982657Y-15576429D02*
X12982657Y-14890714D01*
X12982657Y-15233572D02*
X11782657Y-15233572D01*
X11954086Y-15119286D01*
X12068371Y-15005000D01*
X12125514Y-14890714D01*
D12*
X41909905Y-1062381D02*
X41909905Y-1871905D01*
X41862286Y-1967143D01*
X41814667Y-2014762D01*
X41719429Y-2062381D01*
X41528952Y-2062381D01*
X41433714Y-2014762D01*
X41386095Y-1967143D01*
X41338476Y-1871905D01*
X41338476Y-1062381D01*
X40909905Y-1157619D02*
X40862286Y-1110000D01*
X40767048Y-1062381D01*
X40528952Y-1062381D01*
X40433714Y-1110000D01*
X40386095Y-1157619D01*
X40338476Y-1252857D01*
X40338476Y-1348095D01*
X40386095Y-1490952D01*
X40957524Y-2062381D01*
X40338476Y-2062381D01*
%LPC*%
D13*
X4191000Y-20320000D03*
D14*
X3683000Y-2540000D03*
D13*
X4191000Y-3810000D03*
X4191000Y-5080000D03*
X4191000Y-6350000D03*
X4191000Y-7620000D03*
X4191000Y-8890000D03*
X4191000Y-10160000D03*
X4191000Y-11430000D03*
X4191000Y-12700000D03*
X4191000Y-13970000D03*
X4191000Y-15240000D03*
X4191000Y-16510000D03*
X4191000Y-17780000D03*
X4191000Y-19050000D03*
X4191000Y-21590000D03*
X4191000Y-22860000D03*
X4191000Y-24130000D03*
X4191000Y-25400000D03*
D14*
X3683000Y-26670000D03*
D15*
X33401000Y-20078700D03*
X32131000Y-20078700D03*
X30861000Y-20078700D03*
X29591000Y-20078700D03*
X28321000Y-20078700D03*
X27051000Y-20078700D03*
X25781000Y-20078700D03*
X24511000Y-20078700D03*
X23241000Y-20078700D03*
X21971000Y-20078700D03*
X20701000Y-20078700D03*
X19431000Y-20078700D03*
X18161000Y-20078700D03*
X16891000Y-20078700D03*
X15621000Y-20078700D03*
X14351000Y-20078700D03*
X33401000Y-9131300D03*
X32131000Y-9131300D03*
X30861000Y-9131300D03*
X29591000Y-9131300D03*
X28321000Y-9131300D03*
X27051000Y-9131300D03*
X25781000Y-9131300D03*
X24511000Y-9131300D03*
X23241000Y-9131300D03*
X21971000Y-9131300D03*
X20701000Y-9131300D03*
X19431000Y-9131300D03*
X18161000Y-9131300D03*
X16891000Y-9131300D03*
X15621000Y-9131300D03*
X14351000Y-9131300D03*
D16*
X43848000Y-3175000D03*
X43848000Y-4445000D03*
X43848000Y-5715000D03*
X43848000Y-6985000D03*
X43848000Y-8255000D03*
X43848000Y-9525000D03*
X43848000Y-10795000D03*
X38448000Y-10795000D03*
X38448000Y-9525000D03*
X38448000Y-8255000D03*
X38448000Y-6985000D03*
X38448000Y-5715000D03*
X38448000Y-4445000D03*
X38448000Y-3175000D03*
M02*
