%FSLAX46Y46*%
G04 Gerber Fmt 4.6, Leading zero omitted, Abs format (unit mm)*
G04 Created by KiCad (PCBNEW (2014-10-27 BZR 5228)-product) date 5/7/2015 6:04:49 PM*
%MOMM*%
G01*
G04 APERTURE LIST*
%ADD10C,0.100000*%
%ADD11R,0.800100X0.800100*%
%ADD12R,0.406400X1.397000*%
%ADD13R,0.600000X1.500000*%
%ADD14R,2.499360X1.950720*%
%ADD15R,0.900000X0.500000*%
%ADD16R,0.500000X0.900000*%
G04 APERTURE END LIST*
D10*
D11*
X25842000Y-4302760D03*
X23942000Y-4302760D03*
X24892000Y-2303780D03*
D12*
X31115000Y-26416000D03*
X29845000Y-26416000D03*
X28575000Y-26416000D03*
X27305000Y-26416000D03*
X26035000Y-26416000D03*
X24765000Y-26416000D03*
X23495000Y-26416000D03*
X22225000Y-26416000D03*
X20955000Y-26416000D03*
X19685000Y-26416000D03*
X18415000Y-26416000D03*
X17145000Y-26416000D03*
X15875000Y-26416000D03*
X14605000Y-26416000D03*
X13335000Y-26416000D03*
X12065000Y-26416000D03*
X31115000Y-13716000D03*
X29845000Y-13716000D03*
X28575000Y-13716000D03*
X27305000Y-13716000D03*
X26035000Y-13716000D03*
X24765000Y-13716000D03*
X23495000Y-13716000D03*
X22225000Y-13716000D03*
X20955000Y-13716000D03*
X19685000Y-13716000D03*
X18415000Y-13716000D03*
X17145000Y-13716000D03*
X15875000Y-13716000D03*
X14605000Y-13716000D03*
X13335000Y-13716000D03*
X12065000Y-13716000D03*
D13*
X20447000Y-8034000D03*
X19177000Y-8034000D03*
X17907000Y-8034000D03*
X16637000Y-8034000D03*
X15367000Y-8034000D03*
X14097000Y-8034000D03*
X12827000Y-8034000D03*
X11557000Y-8034000D03*
X11557000Y-2634000D03*
X12827000Y-2634000D03*
X14097000Y-2634000D03*
X15367000Y-2634000D03*
X16637000Y-2634000D03*
X17907000Y-2634000D03*
X19177000Y-2634000D03*
X20447000Y-2634000D03*
D14*
X33147000Y-6985000D03*
X33147000Y-3937000D03*
X37973000Y-6985000D03*
X37973000Y-3937000D03*
X42545000Y-6985000D03*
X42545000Y-3937000D03*
D15*
X28575000Y-10910000D03*
X28575000Y-9410000D03*
D16*
X25007000Y-10414000D03*
X23507000Y-10414000D03*
M02*
