M48
;DRILL file {kicad (2014-10-27 BZR 5228)-product} date 5/1/2015 7:00:55 PM
;FORMAT={2:4/ absolute / inch / suppress leading zeros}
FMAT,2
INCH,TZ
T1C0.012
T2C0.032
T3C0.035
%
G90
G05
M72
T1
X3200Y-1500
X3200Y-2000
X3200Y-10750
X3550Y-450
X3700Y-1550
X5000Y-950
X5700Y-850
X5700Y-5500
X6200Y-5000
X6200Y-6000
X6500Y-6500
X6600Y-1300
X6750Y-5300
X6900Y-300
X7000Y-6250
X7150Y-8800
X7150Y-10150
X7250Y-5000
X7475Y-250
X7500Y-6500
X8700Y-9950
X9150Y-3950
X9150Y-8400
X9150Y-9950
X9600Y-9950
X9650Y-3100
X9650Y-7600
X9650Y-8550
X10100Y-6150
X10450Y-5750
X12700Y-1450
X16250Y-1500
X16800Y-1750
X16850Y-450
X18000Y-2950
T2
X7284Y-1250
T3
X5316Y-1250
T0
M30
